<svg width="1920" height="1823" viewBox="0 0 1920 1823" fill="none" xmlns="http://www.w3.org/2000/svg">
<rect width="1920" height="1823" fill="white"/>
<path d="M0 0H1920V1823H0V0Z" fill="url(#paint0_linear)"/>
<g opacity="0.6">
<path d="M289.66 670.755C283.413 669.98 277.101 669.829 270.824 670.31C269.072 646.654 256.589 625.112 236.955 611.854C217.325 598.597 192.704 595.088 170.15 602.331C157.457 546.677 102.124 511.89 46.561 524.629C28.7871 528.704 0.499977 548.574 0.499977 548.574L0.5 705.509L0.499977 826.21C0.499977 826.21 510.992 907.184 767.25 939.023C805.539 943.78 840.447 916.54 845.214 878.179C849.98 839.818 822.799 804.863 784.51 800.106C779.899 799.533 775.241 799.421 770.609 799.775C769.319 782.317 760.109 766.418 745.621 756.631C731.136 746.845 712.967 744.252 696.321 749.595C686.961 708.52 646.13 682.84 605.123 692.235C584.503 696.958 567.766 709.652 557.41 726.328C552.724 707.192 540.684 689.877 522.452 678.998C486.327 657.44 439.575 669.308 418.029 705.509C403.835 695.303 385.749 692.178 368.955 697.032C362.707 698.837 356.894 701.672 351.716 705.356C336.842 686.857 315.053 673.905 289.66 670.755Z" fill="#33B3E0"/>
<path d="M289.66 670.755C283.413 669.98 277.101 669.829 270.824 670.31C269.072 646.654 256.589 625.112 236.955 611.854C217.325 598.597 192.704 595.088 170.15 602.331C157.457 546.677 102.124 511.89 46.561 524.629C28.7871 528.704 0.499977 548.574 0.499977 548.574L0.5 705.509L0.499977 826.21C0.499977 826.21 510.992 907.184 767.25 939.023C805.539 943.78 840.447 916.54 845.214 878.179C849.98 839.818 822.799 804.863 784.51 800.106C779.899 799.533 775.241 799.421 770.609 799.775C769.319 782.317 760.109 766.418 745.621 756.631C731.136 746.845 712.967 744.252 696.321 749.595C686.961 708.52 646.13 682.84 605.123 692.235C584.503 696.958 567.766 709.652 557.41 726.328C552.724 707.192 540.684 689.877 522.452 678.998C486.327 657.44 439.575 669.308 418.029 705.509C403.835 695.303 385.749 692.178 368.955 697.032C362.707 698.837 356.894 701.672 351.716 705.356C336.842 686.857 315.053 673.905 289.66 670.755Z" fill="url(#paint1_linear)"/>
</g>
<g opacity="0.6">
<path d="M1630.84 670.755C1637.09 669.98 1643.4 669.829 1649.68 670.31C1651.43 646.654 1663.91 625.112 1683.55 611.854C1703.18 598.597 1727.8 595.088 1750.35 602.331C1763.04 546.677 1818.38 511.89 1873.94 524.629C1891.71 528.704 1920 548.574 1920 548.574L1920 705.509L1920 826.21C1920 826.21 1409.51 907.184 1153.25 939.023C1114.96 943.78 1080.05 916.54 1075.29 878.179C1070.52 839.818 1097.7 804.863 1135.99 800.106C1140.6 799.533 1145.26 799.421 1149.89 799.775C1151.18 782.317 1160.39 766.418 1174.88 756.631C1189.36 746.845 1207.53 744.252 1224.18 749.595C1233.54 708.52 1274.37 682.84 1315.38 692.235C1336 696.958 1352.73 709.652 1363.09 726.328C1367.78 707.192 1379.82 689.877 1398.05 678.998C1434.17 657.44 1480.93 669.308 1502.47 705.509C1516.67 695.303 1534.75 692.178 1551.54 697.032C1557.79 698.837 1563.61 701.672 1568.78 705.356C1583.66 686.857 1605.45 673.905 1630.84 670.755Z" fill="#33B3E0"/>
<path d="M1630.84 670.755C1637.09 669.98 1643.4 669.829 1649.68 670.31C1651.43 646.654 1663.91 625.112 1683.55 611.854C1703.18 598.597 1727.8 595.088 1750.35 602.331C1763.04 546.677 1818.38 511.89 1873.94 524.629C1891.71 528.704 1920 548.574 1920 548.574L1920 705.509L1920 826.21C1920 826.21 1409.51 907.184 1153.25 939.023C1114.96 943.78 1080.05 916.54 1075.29 878.179C1070.52 839.818 1097.7 804.863 1135.99 800.106C1140.6 799.533 1145.26 799.421 1149.89 799.775C1151.18 782.317 1160.39 766.418 1174.88 756.631C1189.36 746.845 1207.53 744.252 1224.18 749.595C1233.54 708.52 1274.37 682.84 1315.38 692.235C1336 696.958 1352.73 709.652 1363.09 726.328C1367.78 707.192 1379.82 689.877 1398.05 678.998C1434.17 657.44 1480.93 669.308 1502.47 705.509C1516.67 695.303 1534.75 692.178 1551.54 697.032C1557.79 698.837 1563.61 701.672 1568.78 705.356C1583.66 686.857 1605.45 673.905 1630.84 670.755Z" fill="url(#paint2_linear)"/>
</g>
<defs>
<linearGradient id="paint0_linear" x1="990" y1="1823" x2="990" y2="5.07673e-05" gradientUnits="userSpaceOnUse">
<stop offset="0.520833" stop-color="#2DACDA"/>
<stop offset="1" stop-color="#127DAC"/>
</linearGradient>
<linearGradient id="paint1_linear" x1="416.02" y1="521.76" x2="388.054" y2="818.636" gradientUnits="userSpaceOnUse">
<stop stop-color="#33B3E0" stop-opacity="0"/>
<stop offset="1" stop-color="#2CAAD8"/>
</linearGradient>
<linearGradient id="paint2_linear" x1="1504.48" y1="521.76" x2="1532.45" y2="818.636" gradientUnits="userSpaceOnUse">
<stop stop-color="#33B3E0" stop-opacity="0"/>
<stop offset="1" stop-color="#2CAAD8"/>
</linearGradient>
</defs>
</svg>
