<svg width="1920" height="1092" viewBox="0 -500 1920 1092" fill="none" xmlns="http://www.w3.org/2000/svg">
    <path fill-rule="evenodd" clip-rule="evenodd"
        d="M1043.21 406.845H847.387C918.538 406.845 950.313 275.043 1043.21 275.043V406.845Z" fill="#2AD18A" />
    <path fill-rule="evenodd" clip-rule="evenodd"
        d="M1043.21 406.845H1239.03C1167.88 406.845 1136.11 275.043 1043.21 275.043V406.845Z" fill="#16A78A" />
    <path fill-rule="evenodd" clip-rule="evenodd"
        d="M729.049 406.844H498.284C582.208 406.844 619.578 313.138 729.049 313.138V406.844Z" fill="#2AD18A" />
    <path fill-rule="evenodd" clip-rule="evenodd"
        d="M729.049 406.844H959.813C875.889 406.844 838.52 313.138 729.049 313.138V406.844Z" fill="#16A78A" />
    <path fill-rule="evenodd" clip-rule="evenodd"
        d="M1548.02 406.844H1267.96C1369.72 406.844 1415.11 208.14 1548.02 208.14V406.844Z" fill="#2AD18A" />
    <path fill-rule="evenodd" clip-rule="evenodd"
        d="M1548.02 406.844H1828.08C1726.32 406.844 1680.93 208.14 1548.02 208.14V406.844Z" fill="#16A78A" />
    <path fill-rule="evenodd" clip-rule="evenodd" d="M1349.56 234.521H1176.12L1236.18 360.519H1269.22L1349.56 234.521Z"
        fill="#EBEBEB" />
    <path fill-rule="evenodd" clip-rule="evenodd" d="M-1.67065 406.844H1920.56V452.22H-1.67065V406.844Z" fill="#" />
    <rect y="400" width="100%" fill="#2AD18A" height="500" />
    <path fill-rule="evenodd" clip-rule="evenodd" d="M1176.12 234.521H1144.45L1064.11 360.519H1236.18L1176.12 234.521Z"
        fill="#EBEBEB" />
    <path fill-rule="evenodd" clip-rule="evenodd" d="M1269.22 360.519H1064.11L1068.23 370.86H1273.34L1269.22 360.519Z"
        fill="#989898" />
    <path fill-rule="evenodd" clip-rule="evenodd"
        d="M1269.22 360.519L1349.56 234.521L1429.89 360.519L1425.78 370.86L1349.56 251.406L1273.34 370.86L1269.22 360.519Z"
        fill="#656666" />
    <path fill-rule="evenodd" clip-rule="evenodd"
        d="M1403.19 356.614L1342.8 261.958L1349.56 251.406L1425.78 370.86H1403.19V356.614Z" fill="#959595" />
    <path fill-rule="evenodd" clip-rule="evenodd"
        d="M1403.19 356.614L1342.8 261.958L1291.71 342.052L1365.6 496.963H1403.19V356.614Z" fill="#AFAFAF" />
    <path fill-rule="evenodd" clip-rule="evenodd" d="M1269.01 496.963V389.327H1169.25L1220.56 496.963H1269.01Z"
        fill="#FAFAFA" />
    <path fill-rule="evenodd" clip-rule="evenodd" d="M1090.82 389.327V496.963H1220.56L1169.25 389.327H1090.82Z"
        fill="#EFEDED" />
    <path fill-rule="evenodd" clip-rule="evenodd"
        d="M1291.71 342.052L1273.34 370.86H1269.01V496.963H1365.6L1291.71 342.052Z" fill="#9B9B9B" />
    <path fill-rule="evenodd" clip-rule="evenodd" d="M1321.16 403.89H1346.5V456.864L1321.16 403.89Z" fill="#656666" />
    <path fill-rule="evenodd" clip-rule="evenodd" d="M1346.5 403.89H1352.83V470.265L1346.5 456.864V403.89Z"
        fill="#FAFAFA" />
    <path fill-rule="evenodd" clip-rule="evenodd" d="M1352.83 470.265V496.963H1346.5V456.864L1352.83 470.265Z"
        fill="#EFEDED" />
    <path fill-rule="evenodd" clip-rule="evenodd" d="M1319.37 403.89H1321.16L1346.5 456.864V496.963H1319.37V403.89Z"
        fill="#4E4E4E" />
    <path fill-rule="evenodd" clip-rule="evenodd" d="M1090.82 370.86V389.327H1169.25L1160.49 370.86H1090.82Z"
        fill="#BCBCBC" />
    <path fill-rule="evenodd" clip-rule="evenodd" d="M1269.01 389.327V370.86H1160.49L1169.25 389.327H1269.01Z"
        fill="#D0D0D0" />
    <path fill-rule="evenodd" clip-rule="evenodd"
        d="M293.911 406.845H100.41C170.717 406.845 202.069 293.827 293.911 293.827V406.845Z" fill="#2AD18A" />
    <path fill-rule="evenodd" clip-rule="evenodd"
        d="M293.911 406.845H487.411C417.105 406.845 385.752 293.827 293.911 293.827V406.845Z" fill="#16A78A" />
    <path
        d="M773.033 230.077L776.674 238.014L771.431 243.766L776.674 260.803L774.052 267.793L778.785 280.244L776.237 320.726L771.431 324.876L776.382 346.719L777.984 359.17L775.072 372.057L775.873 382.906L767.427 385.454L755.195 382.615L733.497 384.508L723.304 381.45L712.164 385.454L702.553 380.794L687.772 382.105L671.463 385.454L652.023 382.615L645.47 384.362L633.893 385.454L623.481 375.916V363.102L626.029 350.869L622.098 340.021L624.282 325.823L622.098 315.775L625.884 312.134L626.83 285.34L622.098 273.108L626.248 258.401L621.297 246.46L627.049 235.611L625.738 227.966L653.989 230.806L662.58 227.966L709.106 231.97L727.818 227.966L737.283 231.097L773.033 230.077Z"
        fill="#A67C52" />
    <path
        d="M773.179 360.553L770.121 369.8L771.65 378.61L765.534 381.159L752.137 378.465L741.652 381.159V373.95L751.19 366.014L762.694 367.47L773.179 360.553Z"
        fill="#8C6945" />
    <path
        d="M764.077 356.621L757.378 361.208H747.695L741.651 369.8L736.7 379.848H725.342L723.594 372.057L715.658 366.96L725.342 363.611L736.7 358.369L741.651 354.874L751.845 357.713L764.077 356.621Z"
        fill="#8C6945" />
    <path
        d="M773.18 347.52L768.228 359.825L762.04 364.121L753.739 357.568L755.996 350.724L763.423 345.918L773.18 347.52Z"
        fill="#8C6945" />
    <path
        d="M724.396 369.8L715.659 379.848H704.3L698.912 376.863L684.86 378.901L678.671 382.906L673.429 381.158L681.511 373.513L693.015 359.607L702.917 355.02L713.256 359.024L724.396 369.8Z"
        fill="#8C6945" />
    <path d="M742.016 332.011L733.57 347.738L721.483 355.966L720.318 348.394L730.876 337.472L742.016 332.011Z"
        fill="#8C6945" />
    <path d="M752.427 348.176L747.185 356.403L742.889 358.515L738.739 353.782L739.831 348.176H752.427Z"
        fill="#8C6945" />
    <path
        d="M683.112 364.121L684.859 370.892V374.314L672.118 379.848L665.929 378.1L660.177 379.848L650.639 374.46L643.285 382.906L636.586 383.707L634.475 378.464L645.688 368.926L656.828 371.766L673.428 366.159L683.112 364.121Z"
        fill="#8C6945" />
    <path
        d="M645.979 373.004L647.435 364.121L641.392 359.315L632.946 360.553L631.926 351.015L627.339 345.918L628.286 353.782L624.791 365.067L627.194 373.877L637.023 381.158L645.979 373.004Z"
        fill="#8C6945" />
    <path
        d="M692.869 355.966L682.821 358.514L676.268 363.538L668.332 357.204L660.323 358.514L669.57 350.578L680.564 353.782L692.869 355.966Z"
        fill="#8C6945" />
    <path
        d="M771.723 317.522L766.335 326.187L768.082 332.521L769.029 340.312L761.384 341.768L751.19 335.07L759.345 326.988L763.422 319.27L771.723 317.522Z"
        fill="#8C6945" />
    <path
        d="M654.28 344.826V352.471L646.489 354.874L639.936 348.176L634.475 341.768L630.034 340.822L627.777 328.371L631.126 319.78L627.777 314.173L638.189 322.182L637.533 333.177L642.339 340.967L654.28 344.826Z"
        fill="#8C6945" />
    <path
        d="M669.425 344.025L664.983 339.074H659.523L651.878 337.764L651.732 328.371L647.436 322.182L657.266 325.823L660.324 331.575L664.765 333.104L669.425 344.025Z"
        fill="#8C6945" />
    <path
        d="M772.013 257.964L765.824 245.222L768.882 240.489L768.154 227.966L756.723 226L744.564 229.276L739.467 227.966L729.929 230.441L739.249 234.592L754.175 235.174L760.655 238.887L761.601 246.605L772.013 257.964Z"
        fill="#C2915F" />
    <path
        d="M723.96 227.966L721.776 230.66L712.893 233.864L703.864 233.208L696.875 233.281L689.375 229.277L702.991 228.476L706.704 229.859L723.96 227.966Z"
        fill="#C2915F" />
    <path
        d="M685.079 233.281L687.992 231.752L686.536 229.349L677.944 228.257L675.76 226.728L669.644 227.092L664.037 229.204L667.969 232.116L675.177 230.223L685.079 233.281Z"
        fill="#C2915F" />
    <path
        d="M661.998 232.262H657.192L654.134 230.005L645.251 228.476L643.504 226.728H638.407L634.257 227.966L632.801 229.495L641.902 232.917L646.635 231.898L652.023 232.917L653.77 234.737L657.92 233.864L661.998 232.262Z"
        fill="#C2915F" />
    <path d="M739.886 383.943H745.638V227.765H739.886V383.943Z" fill="#C2915F" />
    <path
        d="M717.043 334.56L706.85 344.025H695.419L689.375 337.764L678.818 337.618L669.425 331.284L667.678 324.731L679.619 329.682L689.375 325.532L701.899 334.342L717.043 334.56Z"
        fill="#8A5134" />
    <path d="M733.351 331.065L725.342 335.87L722.794 341.113L720.318 332.594L733.351 331.065Z" fill="#A6613F" />
    <path d="M656.248 383.943H662V227.765H656.248V383.943Z" fill="#C2915F" />
    <path d="M777.078 350.502V347.662H624.468V350.502H777.078Z" fill="#424D7A" />
    <path
        d="M934.088 230.077L937.728 238.014L932.486 243.766L937.728 260.803L935.107 267.793L939.767 280.243L937.218 320.726L932.486 324.876L937.437 346.719L938.966 359.17L936.126 372.057L936.927 382.906L928.481 385.454L916.176 382.615L894.552 384.508L884.358 381.45L873.146 385.454L863.607 380.794L848.754 382.105L832.517 385.454L813.077 382.615L806.524 384.362L794.875 385.454L784.536 375.916V363.101L787.084 350.869L783.079 340.021L785.337 325.823L783.079 315.775L786.938 312.134L787.885 285.34L783.079 273.108L787.23 258.4L782.351 246.46L788.031 235.611L786.793 227.966L814.97 230.805L823.635 227.966L870.16 231.97L888.873 227.966L898.338 231.097L934.088 230.077Z"
        fill="#A67C52" />
    <path
        d="M934.234 360.553L931.176 369.8L932.705 378.61L926.589 381.158L913.192 378.464L902.634 381.158V373.95L912.245 366.014L923.676 367.47L934.234 360.553Z"
        fill="#8C6945" />
    <path
        d="M925.642 355.238L915.521 359.898H900.741L891.567 368.489L884.14 378.537H866.957L864.336 370.746L852.25 365.65L866.957 362.301L884.14 356.985L891.567 353.49L907.076 356.403L925.642 355.238Z"
        fill="#8C6945" />
    <path
        d="M934.234 347.52L929.283 359.825L923.094 364.121L914.794 357.568L916.978 350.724L924.478 345.918L934.234 347.52Z"
        fill="#8C6945" />
    <path
        d="M868.122 361.427L859.385 371.474H848.027L842.639 368.489L828.586 370.528L822.398 374.533L817.155 372.785L825.237 365.14L836.741 351.233L846.643 346.646L856.982 350.651L868.122 361.427Z"
        fill="#8C6945" />
    <path d="M903.07 332.012L894.624 347.739L882.538 355.966L881.373 348.394L891.93 337.472L903.07 332.012Z"
        fill="#8C6945" />
    <path d="M913.482 348.175L908.24 356.403L903.944 358.514L899.794 353.782L900.886 348.175H913.482Z" fill="#8C6945" />
    <path
        d="M844.167 364.121L845.914 370.892V374.314L833.172 379.848L826.911 378.1L821.231 379.848L811.62 374.46L804.339 382.906L797.641 383.707L795.529 378.464L806.669 368.926L817.882 371.766L834.41 366.16L844.167 364.121Z"
        fill="#8C6945" />
    <path
        d="M811.985 368.708L813.368 355.675L807.325 348.685L798.879 350.505L797.932 336.526L793.345 329.099L794.292 340.603L790.797 357.058L793.127 370.018L803.029 380.576L811.985 368.708Z"
        fill="#8C6945" />
    <path
        d="M851.012 330.992L840.964 333.54L834.412 338.564L826.475 332.23L818.466 333.54L827.713 325.531L838.707 328.808L851.012 330.992Z"
        fill="#8C6945" />
    <path
        d="M932.777 317.522L927.389 326.187L929.137 332.521L930.083 340.312L922.438 341.768L912.245 335.07L920.327 326.988L924.477 319.27L932.777 317.522Z"
        fill="#8C6945" />
    <path
        d="M815.335 344.826V352.471L807.472 354.874L800.992 348.175L795.531 341.768L791.09 340.821L788.833 328.371L792.182 319.779L788.833 314.173L799.244 322.182L798.589 333.176L803.322 340.967L815.335 344.826Z"
        fill="#8C6945" />
    <path
        d="M824.8 344.025L820.358 339.074H814.898L807.252 337.763L807.107 328.371L802.811 322.182L812.713 325.823L815.698 331.575L820.14 333.104L824.8 344.025Z"
        fill="#8C6945" />
    <path
        d="M936.709 259.638L930.229 246.314L934.306 241.872L934.452 229.349L920.691 226.218L905.692 228.33L899.576 226.509L887.781 228.039L898.775 233.135L916.832 235.101L924.404 239.47L924.914 247.26L936.709 259.638Z"
        fill="#C2915F" />
    <path
        d="M865.572 229.422L863.315 232.116L854.432 235.32L845.404 234.664L838.487 234.737L830.987 230.732L844.603 229.932L848.243 231.315L865.572 229.422Z"
        fill="#C2915F" />
    <path
        d="M886.033 234.009L888.945 232.48L887.489 230.077L878.898 229.058L876.64 227.456L870.524 227.893L864.991 229.932L868.923 232.844L876.131 231.024L886.033 234.009Z"
        fill="#C2915F" />
    <path
        d="M822.835 227.747L818.248 229.204L814.607 228.039L805.652 229.204L803.54 228.111L798.662 229.713L795.094 232.116L794.148 234.009L803.831 234.519L808.054 232.116L813.515 231.388L815.772 232.626L819.413 230.514L822.835 227.747Z"
        fill="#C2915F" />
    <path d="M900.91 383.943H906.662V227.765H900.91V383.943Z" fill="#C2915F" />
    <path d="M894.406 331.065L886.397 335.87L883.848 341.113L881.373 332.594L894.406 331.065Z" fill="#A6613F" />
    <path d="M817.344 383.943H823.096V227.765H817.344V383.943Z" fill="#C2915F" />
    <path d="M868.049 336.598L857.71 341.549L843.948 336.598L849.336 327.206L857.71 331.793L868.049 336.598Z"
        fill="#A6613F" />
    <path d="M938.116 350.444V347.605H785.506V350.444H938.116Z" fill="#424D7A" />
    <path d="M466.306 456.677L908.337 456.677V395.299L466.306 395.299V456.677Z" fill="#292929" />
    <path
        d="M590.132 248.935V456.663H418.227V364.485C418.227 354.583 419.756 344.826 422.814 335.507L448.079 257.381C453.467 240.708 467.957 229.495 484.266 229.495H572.294C582.123 229.495 590.132 238.232 590.132 248.935Z"
        fill="#F7931E" />
    <path
        d="M583.216 393.463C583.652 393.463 584.016 393.099 584.016 392.662V254.323C584.016 243.183 575.643 234.155 565.377 234.155H539.602C539.165 234.155 538.801 234.519 538.801 234.956C538.801 235.393 539.165 235.757 539.602 235.757H565.377C574.77 235.757 582.415 244.13 582.415 254.396V392.735C582.415 393.172 582.779 393.463 583.216 393.463Z"
        fill="#FBB03B" />
    <path
        d="M502.397 235.684H525.259C525.696 235.684 526.06 235.32 526.06 234.883C526.06 234.446 525.696 234.082 525.259 234.082H502.397C501.96 234.082 501.596 234.446 501.596 234.883C501.669 235.32 502.033 235.684 502.397 235.684Z"
        fill="#FBB03B" />
    <path
        d="M537.854 382.906H418.227V364.485C418.227 362.009 418.3 359.607 418.519 357.204H563.629C563.556 371.402 552.052 382.906 537.854 382.906Z"
        fill="#FBB03B" />
    <path
        d="M538.437 400.38C561.373 400.38 581.177 413.996 590.133 433.655V456.663H481.646C481.937 425.573 507.202 400.38 538.437 400.38Z"
        fill="#292929" />
    <path
        d="M889.507 490.102C907.677 471.933 907.677 442.475 889.507 424.305C871.338 406.136 841.88 406.136 823.711 424.305C805.542 442.475 805.542 471.933 823.711 490.102C841.88 508.271 871.338 508.271 889.507 490.102Z"
        fill="#4D4D4D" />
    <path
        d="M856.617 484.258C871.576 484.258 883.702 472.131 883.702 457.172C883.702 442.214 871.576 430.087 856.617 430.087C841.658 430.087 829.532 442.214 829.532 457.172C829.532 472.131 841.658 484.258 856.617 484.258Z"
        fill="#4FA7CF" />
    <path
        d="M836.667 477.05C847.589 488.044 865.427 488.117 876.494 477.122C876.931 476.758 876.931 476.103 876.494 475.666C876.13 475.229 875.475 475.229 875.038 475.666C864.845 485.787 848.317 485.787 838.123 475.593C828.003 465.4 828.003 448.872 838.196 438.679C848.389 428.558 864.917 428.558 875.111 438.751C875.475 439.188 876.13 439.188 876.567 438.751C877.004 438.387 877.004 437.732 876.567 437.295C865.645 426.301 847.807 426.228 836.74 437.222C825.818 448.144 825.745 466.055 836.667 477.05Z"
        fill="#8ADBFF" />
    <path
        d="M883.047 457.318C883.265 457.536 883.484 457.609 883.775 457.609C884.357 457.609 884.794 457.1 884.794 456.59C884.721 452.512 883.702 448.435 881.882 444.795C881.663 444.285 881.008 444.067 880.498 444.358C879.989 444.576 879.77 445.231 880.061 445.741C881.736 449.09 882.683 452.877 882.755 456.663C882.755 456.881 882.828 457.1 883.047 457.318Z"
        fill="#8ADBFF" />
    <path
        d="M860.601 471.508C868.505 469.311 873.131 461.123 870.934 453.219C868.737 445.315 860.549 440.689 852.645 442.886C844.742 445.083 840.115 453.271 842.312 461.175C844.509 469.078 852.697 473.705 860.601 471.508Z"
        fill="#8ADBFF" />
    <path
        d="M796.903 473.358C805.856 449.273 793.59 422.49 769.505 413.537C745.42 404.584 718.637 416.85 709.684 440.935C700.731 465.02 712.997 491.802 737.082 500.756C761.167 509.709 787.949 497.443 796.903 473.358Z"
        fill="#4D4D4D" />
    <path
        d="M780.088 461.247C782.334 446.457 772.166 432.646 757.377 430.399C742.587 428.152 728.776 438.321 726.529 453.11C724.282 467.9 734.45 481.711 749.24 483.958C764.03 486.205 777.841 476.037 780.088 461.247Z"
        fill="#4FA7CF" />
    <path
        d="M769.829 479.962C782.425 470.861 785.192 453.241 776.091 440.644C775.727 440.208 775.144 440.062 774.634 440.426C774.125 440.79 774.052 441.372 774.416 441.882C782.862 453.532 780.241 469.841 768.591 478.287C756.942 486.733 740.632 484.112 732.186 472.462C723.74 460.813 726.361 444.503 738.011 436.057C738.448 435.693 738.593 435.111 738.229 434.601C737.865 434.164 737.283 434.019 736.773 434.383C724.177 443.484 721.41 461.104 730.512 473.7C739.613 486.296 757.233 489.063 769.829 479.962Z"
        fill="#8ADBFF" />
    <path
        d="M757.452 431.106C757.671 430.961 757.816 430.67 757.889 430.378C757.962 429.796 757.598 429.286 757.015 429.213C752.938 428.704 748.788 428.995 744.929 430.233C744.419 430.378 744.055 430.961 744.274 431.543C744.419 432.053 745.002 432.417 745.584 432.199C749.152 431.106 753.084 430.742 756.797 431.252C757.015 431.325 757.307 431.252 757.452 431.106Z"
        fill="#8ADBFF" />
    <path
        d="M766.975 462.969C770.167 455.412 766.628 446.699 759.071 443.507C751.515 440.315 742.801 443.854 739.609 451.41C736.417 458.967 739.956 467.681 747.513 470.873C755.069 474.064 763.783 470.526 766.975 462.969Z"
        fill="#8ADBFF" />
    <path
        d="M571.317 490.07C589.487 471.9 589.487 442.442 571.317 424.273C553.148 406.104 523.69 406.104 505.521 424.273C487.352 442.442 487.352 471.9 505.521 490.07C523.69 508.239 553.148 508.239 571.317 490.07Z"
        fill="#4D4D4D" />
    <path
        d="M538.437 487.388C555.125 487.388 568.653 473.86 568.653 457.172C568.653 440.484 555.125 426.956 538.437 426.956C521.749 426.956 508.22 440.484 508.22 457.172C508.22 473.86 521.749 487.388 538.437 487.388Z"
        fill="#4FA7CF" />
    <path
        d="M556.784 481.855C557.149 482 557.513 481.928 557.804 481.709C562.1 478.36 565.376 473.846 567.415 468.822C567.633 468.312 567.342 467.73 566.832 467.511C566.323 467.293 565.74 467.584 565.522 468.094C563.629 472.826 560.498 477.049 556.493 480.18C556.056 480.544 555.984 481.199 556.348 481.636C556.42 481.636 556.566 481.782 556.784 481.855Z"
        fill="#8ADBFF" />
    <path
        d="M526.859 486.151C533.048 488.626 539.674 489.063 546.154 487.388C546.736 487.243 547.028 486.66 546.882 486.151C546.736 485.568 546.154 485.277 545.644 485.423C539.674 486.952 533.412 486.515 527.66 484.258C512.734 478.287 505.453 461.322 511.423 446.396C517.394 431.47 534.359 424.189 549.285 430.16C559.041 434.019 565.958 442.901 567.342 453.313C567.414 453.896 567.924 454.26 568.507 454.187C569.089 454.114 569.453 453.605 569.38 453.022C567.851 441.882 560.425 432.417 550.013 428.267C534.067 421.859 515.865 429.723 509.458 445.668C503.05 461.614 510.841 479.816 526.859 486.151Z"
        fill="#8ADBFF" />
    <path
        d="M554.479 461.085C556.64 452.217 551.202 443.275 542.333 441.115C533.464 438.954 524.523 444.392 522.362 453.261C520.201 462.13 525.639 471.071 534.508 473.232C543.377 475.392 552.318 469.954 554.479 461.085Z"
        fill="#8ADBFF" />
    <path
        d="M604.986 459.721H691.776C694.47 459.721 696.727 457.536 696.727 454.77V410.428C696.727 407.734 694.543 405.477 691.776 405.477H604.986C602.292 405.477 600.035 407.661 600.035 410.428V454.77C600.108 457.536 602.292 459.721 604.986 459.721Z"
        fill="#4D4D4D" />
    <path d="M676.124 462.783H682.823V405.481H676.124V462.783Z" fill="#5E5E5E" />
    <path d="M614.051 462.783H620.749V405.481H614.051V462.783Z" fill="#5E5E5E" />
    <path
        d="M432.499 338.637L457.764 260.512C461.768 248.061 472.398 239.761 484.194 239.761H534.797C541.058 239.761 546.082 244.785 546.082 251.047V339.001C546.082 345.263 541.058 350.287 534.797 350.287H429.659C430.314 346.355 431.261 342.423 432.499 338.637Z"
        fill="#004187" />
    <path
        d="M515.284 247.042C503.488 247.042 492.858 255.415 488.854 267.793L463.588 345.918C463.152 347.375 462.715 348.831 462.351 350.287H429.659C430.314 346.355 431.261 342.423 432.499 338.637L457.764 260.512C461.768 248.061 472.398 239.761 484.194 239.761H534.797C539.602 239.761 543.752 242.819 545.354 247.042H515.284Z"
        fill="#003875" />
    <path opacity="0.2"
        d="M546.08 268.812V313.008L469.92 244.203C474.143 241.363 479.094 239.761 484.264 239.761H513.971L546.08 268.812Z"
        fill="white" />
    <path opacity="0.2"
        d="M441.307 311.406L457.762 260.585C458.636 257.891 459.874 255.343 461.33 253.013L546.081 329.609V339.001C546.081 345.263 541.057 350.287 534.796 350.287H484.338L441.307 311.406Z"
        fill="white" />
    <path
        d="M407.015 421.131H420.849C422.669 421.131 424.125 422.587 424.125 424.408V456.59H412.257C407.525 456.59 403.739 452.731 403.739 448.071V424.408C403.739 422.66 405.195 421.131 407.015 421.131Z"
        fill="#4D4D4D" />
    <path
        d="M442.328 470.568H471.16C474.146 470.568 476.475 468.166 476.475 465.253V456.734H436.94V465.253C437.012 468.166 439.415 470.568 442.328 470.568Z"
        fill="#4D4D4D" />
    <path
        d="M444.221 467.074H469.268C471.598 467.074 473.564 465.181 473.564 462.779V456.663H439.998V462.779C439.998 465.109 441.891 467.074 444.221 467.074Z"
        fill="#292929" />
    <path
        d="M518.924 375.843H531.666C534.36 375.843 536.471 373.659 536.471 371.038V368.781C536.471 367.47 535.379 366.378 534.068 366.378H516.521C515.21 366.378 514.118 367.47 514.118 368.781V371.038C514.118 373.732 516.303 375.843 518.924 375.843Z"
        fill="#F7931E" />
    <path
        d="M514.483 371.912H536.181C537.419 371.912 538.438 370.892 538.438 369.655V367.033C538.438 365.796 537.419 364.776 536.181 364.776H514.483C513.246 364.776 512.226 365.796 512.226 367.033V369.655C512.226 370.892 513.246 371.912 514.483 371.912Z"
        fill="#292929" />
    <path d="M606.521 395.25L948.001 395.25V317.198L606.521 317.198V395.25Z" fill="#FBB03B" />
    <path d="M939.863 387.146V325.403L614.766 325.403V387.146L939.863 387.146Z" fill="#E39F35" />
    <path d="M606.577 395.261H614.004V235.661H606.577V395.261Z" fill="#FBB03B" />
    <path d="M921.101 442.335H939.813V415.177H921.101V442.335Z" fill="#4D4D4D" />
    <path d="M921.054 426.956H908.312V440.499H921.054V426.956Z" fill="#333333" />
    <path
        d="M418.227 406.787H420.557C425.29 406.787 429.149 402.929 429.149 398.196V377.591C429.149 375.698 427.62 374.096 425.654 374.096H418.154V406.787H418.227Z"
        fill="#4A8F2C" />
    <path
        d="M418.227 406.788H419.901C424.27 406.788 427.765 403.22 427.765 398.924V378.61C427.765 376.863 426.309 375.406 424.561 375.406H418.154V406.788H418.227Z"
        fill="#5CADFF" />
    <path
        d="M423.251 406.059C422.232 406.569 421.067 406.86 419.902 406.86H418.227V375.479H422.086C421.795 381.595 421.358 397.832 423.251 406.059Z"
        fill="#8AC3FF" />
    <path fill-rule="evenodd" clip-rule="evenodd"
        d="M1321.42 252.447L1317.2 242.105L1257.87 335.179L1262.09 345.52L1321.42 252.447Z" fill="#3B5357" />
    <path fill-rule="evenodd" clip-rule="evenodd" d="M1257.87 335.179H1101.11L1105.33 345.52H1262.09L1257.87 335.179Z"
        fill="#537679" />
    <path fill-rule="evenodd" clip-rule="evenodd" d="M1187.35 242.106H1160.43L1101.11 335.179H1231.69L1187.35 242.106Z"
        fill="#314054" />
    <path fill-rule="evenodd" clip-rule="evenodd" d="M1317.2 242.106H1187.35L1231.69 335.179H1257.87L1317.2 242.106Z"
        fill="#567A81" />
    <path fill-rule="evenodd" clip-rule="evenodd"
        d="M1231.69 335.179H1208.36C1205.61 335.179 1202.76 335.179 1200.02 335.179H1158.85C1156.11 335.179 1153.25 335.179 1150.51 335.179H1109.34V335.284H1101V335.179L1105.33 328.109H1105.54L1129.82 290.014L1132.78 285.16H1132.88L1159.38 243.583L1160.22 242.211H1187.14L1190.52 249.281H1164.13L1141.43 285.16H1182.6L1197.06 262.366L1200.65 269.859L1190.94 285.16H1207.94L1211.32 292.23H1186.51L1163.6 328.214H1204.77L1218.39 306.793L1221.98 314.285L1213.11 328.214H1228.63L1231.69 335.179ZM1155.15 328.109L1178.06 292.125H1136.89L1113.98 328.109H1155.15Z"
        fill="#A0D0C7" />
    <path fill-rule="evenodd" clip-rule="evenodd"
        d="M1317.41 242.106L1312.97 249.176H1312.76L1289.86 285.16H1289.96C1288.48 287.481 1287.01 289.803 1285.53 292.23H1285.42L1262.51 328.214L1258.08 335.284H1231.9L1228.52 328.214H1254.17L1277.08 292.23H1235.91L1221.87 314.285L1218.28 306.793L1227.57 292.125H1211.32L1207.94 285.054H1232.01L1254.91 249.07H1213.74L1200.65 269.859L1197.06 262.366L1205.51 249.07H1190.73L1187.35 242H1308.86H1317.2H1317.41V242.106ZM1263.25 249.176L1240.35 285.16H1281.52L1304.42 249.176H1263.25Z"
        fill="#DAFFEA" />
    <path fill-rule="evenodd" clip-rule="evenodd" d="M1201.03 403.89H1227V458.341L1201.03 403.89Z" fill="#60858F" />
    <path fill-rule="evenodd" clip-rule="evenodd" d="M1187.31 403.89H1195.01V460.346H1187.31V403.89Z" fill="#9B9B9B" />
    <path fill-rule="evenodd" clip-rule="evenodd"
        d="M1195.01 403.89H1201.03C1209.69 422.04 1218.34 440.191 1227 458.341V460.451H1195.01V403.89Z"
        fill="#49606A" />
    <path fill-rule="evenodd" clip-rule="evenodd" d="M1146.56 403.89H1172.42V458.341L1146.56 403.89Z" fill="#60858F" />
    <path fill-rule="evenodd" clip-rule="evenodd" d="M1132.83 403.89H1140.43V460.346H1132.83V403.89Z" fill="#9B9B9B" />
    <path fill-rule="evenodd" clip-rule="evenodd"
        d="M1140.43 403.89H1146.45C1155.11 422.04 1163.76 440.191 1172.42 458.341V460.451H1140.43V403.89Z"
        fill="#49606A" />
    <path fill-rule="evenodd" clip-rule="evenodd"
        d="M331.914 411.91C335.609 411.91 338.459 414.864 338.459 418.452C338.459 422.146 335.503 424.995 331.914 424.995C328.219 424.995 325.369 422.04 325.369 418.452C325.264 414.864 328.219 411.91 331.914 411.91Z"
        fill="white" />
    <path fill-rule="evenodd" clip-rule="evenodd"
        d="M180.745 386.162C184.44 386.162 187.29 389.116 187.29 392.704C187.29 396.398 184.335 399.247 180.745 399.247C177.051 399.247 174.2 396.292 174.2 392.704C174.2 389.116 177.156 386.162 180.745 386.162Z"
        fill="white" />
    <path fill-rule="evenodd" clip-rule="evenodd"
        d="M1379.54 345.64C1383.23 345.64 1386.08 348.595 1386.08 352.182C1386.08 355.876 1383.13 358.725 1379.54 358.725C1375.95 358.725 1372.99 355.77 1372.99 352.182C1372.99 348.595 1375.95 345.64 1379.54 345.64Z"
        fill="white" />
    <path fill-rule="evenodd" clip-rule="evenodd"
        d="M1533.35 256.893C1537.04 256.893 1539.89 259.848 1539.89 263.435C1539.89 267.129 1536.94 269.978 1533.35 269.978C1529.65 269.978 1526.8 267.023 1526.8 263.435C1526.8 259.848 1529.76 256.893 1533.35 256.893Z"
        fill="white" />
    <path fill-rule="evenodd" clip-rule="evenodd"
        d="M1513.71 303.957C1518.25 303.957 1521.95 307.651 1521.95 312.188C1521.95 316.726 1518.25 320.419 1513.71 320.419C1509.17 320.419 1505.48 316.726 1505.48 312.188C1505.48 307.651 1509.17 303.957 1513.71 303.957Z"
        fill="white" />
    <path fill-rule="evenodd" clip-rule="evenodd"
        d="M1631.31 414.97C1637.01 414.97 1641.66 419.613 1641.66 425.311C1641.66 431.01 1637.01 435.653 1631.31 435.653C1625.61 435.653 1620.97 431.01 1620.97 425.311C1620.97 419.508 1625.61 414.97 1631.31 414.97Z"
        fill="white" />
    <path fill-rule="evenodd" clip-rule="evenodd"
        d="M1649.57 376.031C1653.59 376.031 1656.86 379.302 1656.86 383.312C1656.86 387.322 1653.59 390.594 1649.57 390.594C1645.56 390.594 1642.29 387.322 1642.29 383.312C1642.29 379.302 1645.56 376.031 1649.57 376.031Z"
        fill="white" />
    <path fill-rule="evenodd" clip-rule="evenodd"
        d="M257.807 324.324C291.06 324.324 318.084 351.233 318.084 384.579C318.084 417.819 291.165 444.834 257.807 444.834C224.554 444.834 197.529 417.925 197.529 384.579C197.529 351.338 224.554 324.324 257.807 324.324Z"
        fill="#21C4A5" />
    <path fill-rule="evenodd" clip-rule="evenodd"
        d="M282.299 337.409C296.233 354.609 290.638 382.257 269.736 399.141C248.835 416.131 220.649 415.92 206.714 398.719C199.958 390.383 197.847 379.619 199.747 368.855C206.398 344.162 228.249 325.801 254.746 324.429C265.514 324.851 275.542 329.178 282.299 337.409Z"
        fill="#0D7560" />
    <path fill-rule="evenodd" clip-rule="evenodd"
        d="M257.807 444.834C224.554 444.834 197.529 417.925 197.529 384.579C197.529 351.338 224.448 324.324 257.807 324.324V444.834Z"
        fill="#0D7560" />
    <path fill-rule="evenodd" clip-rule="evenodd"
        d="M257.808 406.634C239.123 415.498 218.01 412.86 206.609 398.719C199.853 390.383 197.741 379.619 199.641 368.855C206.292 344.162 228.144 325.801 254.641 324.429C255.696 324.429 256.752 324.535 257.913 324.64V406.634H257.808Z"
        fill="#28EF9A" />
    <path fill-rule="evenodd" clip-rule="evenodd"
        d="M237.75 388.8C242.712 388.8 246.723 392.81 246.723 397.769C246.723 402.729 242.712 406.739 237.75 406.739C232.789 406.739 228.777 402.729 228.777 397.769C228.777 392.81 232.789 388.8 237.75 388.8Z"
        fill="white" />
    <path fill-rule="evenodd" clip-rule="evenodd"
        d="M221.282 379.091C224.238 379.091 226.56 381.413 226.56 384.368C226.56 387.322 224.238 389.644 221.282 389.644C218.326 389.644 216.004 387.322 216.004 384.368C216.004 381.518 218.432 379.091 221.282 379.091Z"
        fill="white" />
    <path fill-rule="evenodd" clip-rule="evenodd"
        d="M255.168 424.889L242.712 418.452L241.867 419.824L255.063 429.216L254.218 482.823H257.807V414.337L255.379 413.809L255.168 424.889Z"
        fill="#876542" />
    <path fill-rule="evenodd" clip-rule="evenodd"
        d="M260.658 433.543L277.126 424.467L278.709 425.628L260.763 438.08L260.658 433.543ZM261.502 482.823L260.236 414.97L257.808 414.337V482.823H261.502Z"
        fill="#3F3323" />
    <path opacity="0.7" fill-rule="evenodd" clip-rule="evenodd"
        d="M1292.15 544C1298.13 544 1303 541.309 1303 538C1303 534.691 1298.13 532 1292.15 532H1209.85C1203.87 532 1199 534.691 1199 538C1199 541.309 1203.87 544 1209.85 544H1292.15Z"
        fill="#1EC07B" />
    <path opacity="0.7" fill-rule="evenodd" clip-rule="evenodd"
        d="M1432.24 544C1437.07 544 1441 542.206 1441 540C1441 537.794 1437.07 536 1432.24 536H1365.76C1360.93 536 1357 537.794 1357 540C1357 542.206 1360.93 544 1365.76 544H1432.24Z"
        fill="#1EC07B" />
    <path opacity="0.7" fill-rule="evenodd" clip-rule="evenodd"
        d="M485.178 544C489.492 544 493 542.206 493 540C493 537.794 489.492 536 485.178 536H425.822C421.508 536 418 537.794 418 540C418 542.206 421.508 544 425.822 544H485.178Z"
        fill="#1EC07B" />
    <path fill-rule="evenodd" clip-rule="evenodd"
        d="M1464.41 314.615C1502.73 314.615 1533.66 345.64 1533.66 383.84C1533.66 422.04 1502.63 453.065 1464.41 453.065C1426.09 453.065 1395.16 422.04 1395.16 383.84C1395.16 345.64 1426.09 314.615 1464.41 314.615Z"
        fill="#21C4A5" />
    <path fill-rule="evenodd" clip-rule="evenodd"
        d="M1492.49 329.6C1508.54 349.333 1501.99 381.202 1478.03 400.618C1453.96 420.141 1421.55 419.93 1405.51 400.091C1397.8 390.593 1395.27 378.141 1397.48 365.795C1405.09 337.409 1430.32 316.198 1460.72 314.615C1473.28 315.143 1484.79 320.103 1492.49 329.6Z"
        fill="#0D7560" />
    <path fill-rule="evenodd" clip-rule="evenodd"
        d="M1464.41 453.17C1426.09 453.17 1395.16 422.146 1395.16 383.946C1395.16 345.745 1426.2 314.721 1464.41 314.721V453.17Z"
        fill="#0D7560" />
    <path fill-rule="evenodd" clip-rule="evenodd"
        d="M1464.41 409.272C1442.88 419.402 1418.7 416.342 1405.51 400.196C1397.8 390.699 1395.27 378.247 1397.48 365.901C1405.09 337.514 1430.32 316.304 1460.72 314.721C1461.98 314.721 1463.25 314.826 1464.41 314.932V409.272Z"
        fill="#28EF9A" />
    <path fill-rule="evenodd" clip-rule="evenodd"
        d="M1441.29 388.8C1447 388.8 1451.64 393.443 1451.64 399.141C1451.64 404.84 1447 409.483 1441.29 409.483C1435.59 409.483 1430.95 404.84 1430.95 399.141C1431.05 393.443 1435.59 388.8 1441.29 388.8Z"
        fill="white" />
    <path fill-rule="evenodd" clip-rule="evenodd"
        d="M1422.4 377.614C1425.78 377.614 1428.52 380.358 1428.52 383.734C1428.52 387.111 1425.78 389.855 1422.4 389.855C1419.02 389.855 1416.28 387.111 1416.28 383.734C1416.38 380.358 1419.02 377.614 1422.4 377.614Z"
        fill="white" />
    <path fill-rule="evenodd" clip-rule="evenodd"
        d="M1461.35 430.271L1447.1 422.884L1446.04 424.362L1461.25 435.231L1460.19 496.963H1464.41V418.136L1461.56 417.503L1461.35 430.271Z"
        fill="#876542" />
    <path fill-rule="evenodd" clip-rule="evenodd"
        d="M1467.58 440.191L1486.58 429.744L1488.38 431.115L1467.68 445.467L1467.58 440.191ZM1468.63 496.963L1467.16 418.874L1464.31 418.136V496.858H1468.63V496.963Z"
        fill="#3F3323" />
    <path fill-rule="evenodd" clip-rule="evenodd"
        d="M1568.29 238.531C1590.35 238.531 1613.15 366.745 1613.15 406.633C1613.15 446.522 1587.5 459.818 1567.97 459.818C1548.44 459.818 1522.79 446.522 1522.79 406.633C1522.79 366.745 1546.23 238.531 1568.29 238.531Z"
        fill="#21C4A5" />
    <path fill-rule="evenodd" clip-rule="evenodd"
        d="M1586.13 263.224C1592.99 301.952 1598.8 328.545 1595.52 368.117C1592.15 407.689 1566.39 420.985 1547.39 418.558C1528.39 416.131 1525.11 400.513 1523.95 387.428L1523.85 387.111C1528.49 338.042 1547.28 246.551 1565.65 238.531C1566.49 238.531 1567.44 238.532 1568.29 238.637C1574.31 238.532 1580.43 248.24 1586.13 263.224Z"
        fill="#0D7560" />
    <path fill-rule="evenodd" clip-rule="evenodd"
        d="M1567.97 459.818C1548.44 459.818 1522.79 446.522 1522.79 406.633C1522.79 366.956 1546.01 239.798 1567.97 238.531V459.818Z"
        fill="#16A78A" />
    <path fill-rule="evenodd" clip-rule="evenodd"
        d="M1567.97 415.076C1561.11 418.347 1553.83 419.297 1547.28 418.558C1528.28 416.131 1525.01 400.513 1523.85 387.428L1523.74 387.111C1528.39 338.042 1547.18 246.551 1565.54 238.531C1566.28 238.531 1567.13 238.531 1567.87 238.531V415.076H1567.97Z"
        fill="#28EF9A" />
    <path fill-rule="evenodd" clip-rule="evenodd" d="M1563.64 496.963L1564.91 425.101L1567.97 424.362V496.963H1563.64Z"
        fill="#876542" />
    <path fill-rule="evenodd" clip-rule="evenodd"
        d="M1571.35 442.09L1586.87 433.542L1588.77 435.02L1571.35 447.05L1572.19 496.963H1567.97V424.362L1571.03 423.518L1571.35 442.09Z"
        fill="#3F3323" />
    <path fill-rule="evenodd" clip-rule="evenodd"
        d="M1552.14 393.759C1555.83 393.759 1558.68 396.714 1558.68 400.302C1558.68 403.995 1555.73 406.844 1552.14 406.844C1548.44 406.844 1545.59 403.89 1545.59 400.302C1545.59 396.714 1548.55 393.759 1552.14 393.759Z"
        fill="white" />
    <path
        d="M1196.65 475.197L1199.2 473.131C1196.77 470.185 1191.47 467.377 1190.43 466.842C1190.41 466.833 1190.4 466.827 1190.38 466.819C1190.52 466.115 1190.66 465.384 1190.79 464.62C1191.1 462.831 1189.87 461.13 1188.06 460.867C1187.77 462.792 1187.49 464.489 1187.18 466.048C1185.11 466.007 1183.01 466.732 1182.05 468.103C1181.61 468.73 1180.42 470.989 1183.51 473.766C1184.64 474.784 1185.76 474.641 1186.33 474.468C1188.27 473.87 1189.28 471.27 1189.64 470.121C1192.13 471.471 1195.22 473.47 1196.65 475.197ZM1186.44 469.331C1186.2 470.057 1185.82 470.79 1185.52 471.157C1184.8 470.457 1184.7 470.041 1184.76 469.967C1184.96 469.677 1185.63 469.412 1186.44 469.331Z"
        fill="#F8988B" />
    <path
        d="M1285.24 461.92C1286.27 463.122 1304.38 461.871 1305.65 460.27C1306.92 458.67 1295.25 445.387 1290.71 445.993C1286.17 446.6 1284.21 460.717 1285.24 461.92Z"
        fill="#FD8087" />
    <path
        d="M1298.21 520.917C1301.9 512.046 1303.9 503.63 1302.31 499.763C1296.85 490.551 1280.13 493.963 1278.77 502.834C1277.4 511.705 1280.81 518.529 1282.52 520.917C1284.22 523.305 1286.27 534.223 1287.3 536.27C1288.11 537.908 1290.14 538.773 1291.05 539H1299.24L1296.51 536.27C1296.51 536.27 1298.21 527.059 1298.21 520.917Z"
        fill="#FE99A0" />
    <path
        d="M1232.08 520.917C1245.26 513.411 1246.85 506.701 1245.26 502.834C1239.8 493.622 1214 493.963 1212.63 502.834C1211.27 511.705 1214.68 518.528 1216.38 520.917C1218.09 523.305 1220.14 534.223 1221.16 536.27C1221.98 537.908 1224 538.772 1224.91 539H1233.1L1230.37 536.27C1230.37 536.27 1232.08 527.059 1232.08 520.917Z"
        fill="#FE99A0" />
    <path
        d="M1305.31 502.607C1312.95 498.24 1321.91 488.277 1325.44 483.842C1330.9 481.795 1331.58 479.065 1331.24 472.924C1330.96 468.011 1325.89 466.782 1323.39 466.782C1322.59 464.053 1318.34 457.775 1307.7 454.499C1294.39 450.405 1280.74 458.594 1275.62 459.617C1270.51 460.641 1259.25 457.911 1241.85 456.888C1224.44 455.864 1208.07 455.182 1195.78 470.535C1183.5 485.889 1192.37 504.313 1194.76 509.773C1197.15 515.232 1203.29 527.856 1203.29 532.291C1203.29 535.84 1205.57 537.864 1206.7 538.433H1215.91L1214.21 535.703C1215.03 531.336 1215.69 524.557 1215.91 521.714C1218.92 519.804 1221.94 514.549 1223.08 512.161C1239.46 517.074 1258.11 517.392 1265.39 516.938C1265.84 518.416 1267.16 522.943 1268.8 529.22C1270.44 535.498 1273.35 537.978 1274.6 538.433H1283.47C1281.42 536.727 1280.74 534.338 1280.74 533.656C1280.74 530.926 1281.76 522.738 1282.79 520.008C1283.81 517.279 1295.75 508.067 1305.31 502.607Z"
        fill="#FDB4BA" />
    <path
        d="M1283.47 469.177C1284.83 469.98 1301.55 462.915 1302.23 460.988C1302.92 459.062 1287.56 450.29 1283.47 452.338C1279.38 454.385 1282.1 468.374 1283.47 469.177Z"
        fill="#FE99A0" />
    <ellipse opacity="0.7" rx="1.10748" ry="1.70596"
        transform="matrix(-0.99708 0.0763596 0.0763596 0.99708 1327.91 472.829)" fill="black" />
    <circle r="2.04715" transform="matrix(-1 0 0 1 1312.47 466.327)" fill="black" />
    <path
        d="M1439.12 492.933L1437.27 491.432C1439.03 489.292 1442.88 487.253 1443.64 486.864C1443.65 486.858 1443.66 486.853 1443.67 486.847C1443.57 486.336 1443.47 485.805 1443.37 485.25C1443.15 483.951 1444.04 482.716 1445.36 482.525C1445.56 483.922 1445.77 485.155 1446 486.288C1447.5 486.258 1449.02 486.784 1449.72 487.78C1450.04 488.236 1450.91 489.876 1448.66 491.893C1447.84 492.633 1447.03 492.528 1446.61 492.403C1445.2 491.969 1444.47 490.08 1444.21 489.246C1442.4 490.226 1440.15 491.678 1439.12 492.933ZM1446.53 488.672C1446.71 489.199 1446.99 489.732 1447.2 489.998C1447.72 489.49 1447.79 489.188 1447.76 489.134C1447.61 488.923 1447.12 488.731 1446.53 488.672Z"
        fill="#F8988B" />
    <path
        d="M1374.77 483.289C1374.02 484.162 1360.87 483.253 1359.95 482.091C1359.03 480.928 1367.5 471.281 1370.8 471.721C1374.1 472.162 1375.52 482.415 1374.77 483.289Z"
        fill="#FD8087" />
    <path
        d="M1365.35 526.139C1362.68 519.696 1361.22 513.583 1362.38 510.775C1366.34 504.084 1378.48 506.562 1379.48 513.005C1380.47 519.448 1377.99 524.405 1376.75 526.139C1375.51 527.874 1374.02 535.804 1373.28 537.291C1372.69 538.48 1371.22 539.108 1370.55 539.273H1364.61L1366.59 537.291C1366.59 537.291 1365.35 530.6 1365.35 526.139Z"
        fill="#FE99A0" />
    <path
        d="M1413.38 526.139C1403.81 520.688 1402.66 515.814 1403.81 513.005C1407.78 506.314 1426.52 506.562 1427.51 513.005C1428.5 519.448 1426.02 524.405 1424.78 526.139C1423.54 527.874 1422.06 535.804 1421.31 537.291C1420.72 538.48 1419.25 539.108 1418.59 539.273H1412.64L1414.62 537.291C1414.62 537.291 1413.38 530.6 1413.38 526.139Z"
        fill="#FE99A0" />
    <path
        d="M1360.2 512.841C1354.65 509.669 1348.14 502.433 1345.58 499.211C1341.61 497.724 1341.12 495.742 1341.36 491.281C1341.56 487.713 1345.25 486.821 1347.06 486.821C1347.64 484.838 1350.73 480.279 1358.46 477.9C1368.13 474.926 1378.04 480.873 1381.76 481.617C1385.47 482.36 1393.65 480.378 1406.29 479.634C1418.93 478.891 1430.82 478.395 1439.75 489.547C1448.67 500.698 1442.22 514.08 1440.49 518.045C1438.75 522.01 1434.29 531.179 1434.29 534.401C1434.29 536.978 1432.64 538.448 1431.82 538.861H1425.12L1426.36 536.879C1425.77 533.707 1425.29 528.784 1425.12 526.718C1422.94 525.331 1420.75 521.514 1419.92 519.78C1408.03 523.348 1394.48 523.579 1389.19 523.249C1388.86 524.323 1387.9 527.611 1386.71 532.17C1385.52 536.73 1383.41 538.531 1382.5 538.861H1376.06C1377.54 537.622 1378.04 535.887 1378.04 535.392C1378.04 533.409 1377.3 527.462 1376.55 525.479C1375.81 523.497 1367.14 516.806 1360.2 512.841Z"
        fill="#FDB4BA" />
    <path
        d="M1376.06 488.56C1375.07 489.143 1362.92 484.012 1362.43 482.613C1361.93 481.213 1373.08 474.842 1376.06 476.33C1379.03 477.817 1377.05 487.977 1376.06 488.56Z"
        fill="#FE99A0" />
    <ellipse opacity="0.7" cx="1343.78" cy="491.212" rx="0.804372" ry="1.23906"
        transform="rotate(4.37935 1343.78 491.212)" fill="black" />
    <circle cx="1354.99" cy="486.49" r="1.48687" fill="black" />
    <path
        d="M418.034 492.933L419.886 491.432C418.122 489.292 414.273 487.253 413.518 486.864C413.508 486.858 413.497 486.853 413.486 486.847C413.588 486.336 413.686 485.805 413.781 485.25C414.007 483.951 413.112 482.716 411.796 482.525C411.589 483.922 411.381 485.155 411.159 486.288C409.655 486.258 408.132 486.784 407.434 487.78C407.115 488.236 406.248 489.876 408.491 491.893C409.313 492.633 410.128 492.528 410.542 492.403C411.951 491.969 412.684 490.08 412.943 489.246C414.755 490.226 416.999 491.678 418.034 492.933ZM410.621 488.672C410.445 489.199 410.168 489.732 409.952 489.998C409.432 489.49 409.36 489.188 409.397 489.134C409.546 488.923 410.03 488.731 410.621 488.672Z"
        fill="#F8988B" />
    <path
        d="M482.382 483.289C483.13 484.162 496.281 483.253 497.204 482.091C498.127 480.928 489.65 471.281 486.354 471.721C483.059 472.162 481.634 482.415 482.382 483.289Z"
        fill="#FD8087" />
    <path
        d="M491.804 526.139C494.478 519.696 495.934 513.583 494.778 510.775C490.813 504.084 478.67 506.562 477.679 513.005C476.688 519.448 479.166 524.405 480.405 526.139C481.644 527.874 483.131 535.804 483.874 537.291C484.469 538.48 485.939 539.108 486.6 539.273H492.547L490.565 537.291C490.565 537.291 491.804 530.6 491.804 526.139Z"
        fill="#FE99A0" />
    <path
        d="M443.77 526.139C453.341 520.688 454.497 515.814 453.34 513.005C449.375 506.314 430.636 506.562 429.645 513.005C428.653 519.448 431.131 524.405 432.37 526.139C433.61 527.874 435.096 535.804 435.84 537.291C436.435 538.48 437.905 539.108 438.566 539.273H444.513L442.531 537.291C442.531 537.291 443.77 530.6 443.77 526.139Z"
        fill="#FE99A0" />
    <path
        d="M496.956 512.841C502.507 509.669 509.016 502.433 511.577 499.211C515.542 497.724 516.038 495.742 515.79 491.281C515.592 487.713 511.907 486.821 510.09 486.821C509.512 484.838 506.422 480.279 498.691 477.9C489.026 474.926 479.114 480.873 475.397 481.617C471.679 482.36 463.502 480.378 450.863 479.634C438.225 478.891 426.33 478.395 417.409 489.547C408.487 500.698 414.931 514.08 416.665 518.045C418.4 522.01 422.861 531.179 422.861 534.401C422.861 536.978 424.513 538.448 425.339 538.861H432.03L430.79 536.879C431.385 533.707 431.864 528.784 432.03 526.718C434.21 525.331 436.408 521.514 437.234 519.78C449.129 523.348 462.676 523.579 467.962 523.249C468.293 524.323 469.251 527.611 470.44 532.17C471.63 536.73 473.744 538.531 474.653 538.861H481.096C479.609 537.622 479.114 535.887 479.114 535.392C479.114 533.409 479.857 527.462 480.601 525.479C481.344 523.497 490.017 516.806 496.956 512.841Z"
        fill="#FDB4BA" />
    <path
        d="M481.096 488.56C482.087 489.143 494.23 484.012 494.726 482.613C495.221 481.213 484.07 474.842 481.096 476.33C478.123 477.817 480.105 487.977 481.096 488.56Z"
        fill="#FE99A0" />
    <ellipse opacity="0.7" rx="0.804372" ry="1.23906"
        transform="matrix(-0.99708 0.0763596 0.0763596 0.99708 513.373 491.212)" fill="black" />
    <circle r="1.48687" transform="matrix(-1 0 0 1 502.16 486.49)" fill="black" />
</svg>