<svg width="1920" height="418" viewBox="0 0 1920 418" fill="none" xmlns="http://www.w3.org/2000/svg">
<g opacity="0.6">
<path fill-rule="evenodd" clip-rule="evenodd" d="M1694.75 148.995C1701 148.22 1707.31 148.069 1713.59 148.55C1715.34 124.894 1727.82 103.352 1747.46 90.0944C1767.09 76.8371 1791.71 73.3286 1814.26 80.5717C1826.96 24.9171 1882.29 -9.87005 1937.85 2.86944C1993.41 15.6089 2028.17 71.0576 2015.47 126.708C2062.23 122.405 2103.8 156.457 2108.9 203.215C2113.99 249.978 2080.71 292.172 2034.12 298.028L1718.11 337.235C1714.33 337.704 1710.57 337.943 1706.86 337.962C1702.33 339.895 1697.54 341.375 1692.51 342.338L1461.7 386.538C1460.44 386.776 1459.19 386.975 1457.94 387.136C1455.59 387.712 1453.18 388.159 1450.72 388.469L1217.51 417.444C1179.22 422.201 1144.31 394.961 1139.54 356.6C1134.78 318.239 1161.96 283.284 1200.25 278.527C1204.86 277.954 1209.51 277.842 1214.15 278.196C1215.44 260.738 1224.65 244.839 1239.13 235.052C1253.62 225.265 1271.79 222.673 1288.44 228.015C1297.8 186.941 1338.63 161.261 1379.63 170.656C1400.25 175.379 1416.99 188.073 1427.35 204.749C1432.03 185.613 1444.07 168.298 1462.3 157.419C1498.43 135.861 1545.18 147.729 1566.73 183.93C1580.92 173.724 1599.01 170.599 1615.8 175.453C1621.92 177.222 1627.63 179.98 1632.73 183.556C1647.6 165.079 1669.38 152.143 1694.75 148.995Z" fill="#33B3E0"/>
<path fill-rule="evenodd" clip-rule="evenodd" d="M1694.75 148.995C1701 148.22 1707.31 148.069 1713.59 148.55C1715.34 124.894 1727.82 103.352 1747.46 90.0944C1767.09 76.8371 1791.71 73.3286 1814.26 80.5717C1826.96 24.9171 1882.29 -9.87005 1937.85 2.86944C1993.41 15.6089 2028.17 71.0576 2015.47 126.708C2062.23 122.405 2103.8 156.457 2108.9 203.215C2113.99 249.978 2080.71 292.172 2034.12 298.028L1718.11 337.235C1714.33 337.704 1710.57 337.943 1706.86 337.962C1702.33 339.895 1697.54 341.375 1692.51 342.338L1461.7 386.538C1460.44 386.776 1459.19 386.975 1457.94 387.136C1455.59 387.712 1453.18 388.159 1450.72 388.469L1217.51 417.444C1179.22 422.201 1144.31 394.961 1139.54 356.6C1134.78 318.239 1161.96 283.284 1200.25 278.527C1204.86 277.954 1209.51 277.842 1214.15 278.196C1215.44 260.738 1224.65 244.839 1239.13 235.052C1253.62 225.265 1271.79 222.673 1288.44 228.015C1297.8 186.941 1338.63 161.261 1379.63 170.656C1400.25 175.379 1416.99 188.073 1427.35 204.749C1432.03 185.613 1444.07 168.298 1462.3 157.419C1498.43 135.861 1545.18 147.729 1566.73 183.93C1580.92 173.724 1599.01 170.599 1615.8 175.453C1621.92 177.222 1627.63 179.98 1632.73 183.556C1647.6 165.079 1669.38 152.143 1694.75 148.995Z" fill="url(#paint0_linear)"/>
</g>
<g opacity="0.6">
<path fill-rule="evenodd" clip-rule="evenodd" d="M352.66 148.995C346.413 148.22 340.101 148.069 333.824 148.55C332.072 124.894 319.589 103.352 299.955 90.0944C280.325 76.8371 255.704 73.3286 233.15 80.5717C220.457 24.9171 165.124 -9.87005 109.561 2.86944C53.9979 15.6089 19.2465 71.0576 31.9399 126.708C-14.814 122.405 -56.3921 156.457 -61.486 203.215C-66.5762 249.978 -33.2974 292.172 13.2892 298.028L329.306 337.235C333.084 337.704 336.838 337.943 340.554 337.962C345.078 339.895 349.875 341.375 354.903 342.338L585.715 386.538C586.969 386.776 588.221 386.975 589.47 387.136C591.823 387.712 594.233 388.159 596.693 388.469L829.906 417.444C868.195 422.201 903.103 394.961 907.87 356.6C912.636 318.239 885.455 283.284 847.166 278.527C842.555 277.954 837.897 277.842 833.266 278.196C831.975 260.738 822.765 244.839 808.277 235.052C793.792 225.265 775.623 222.673 758.977 228.015C749.617 186.941 708.786 161.261 667.779 170.656C647.16 175.379 630.422 188.073 620.066 204.749C615.38 185.613 603.34 168.298 585.109 157.419C548.983 135.861 502.231 147.729 480.685 183.93C466.491 173.724 448.405 170.599 431.611 175.453C425.488 177.222 419.783 179.98 414.684 183.556C399.811 165.079 378.034 152.143 352.66 148.995Z" fill="#33B3E0"/>
<path fill-rule="evenodd" clip-rule="evenodd" d="M352.66 148.995C346.413 148.22 340.101 148.069 333.824 148.55C332.072 124.894 319.589 103.352 299.955 90.0944C280.325 76.8371 255.704 73.3286 233.15 80.5717C220.457 24.9171 165.124 -9.87005 109.561 2.86944C53.9979 15.6089 19.2465 71.0576 31.9399 126.708C-14.814 122.405 -56.3921 156.457 -61.486 203.215C-66.5762 249.978 -33.2974 292.172 13.2892 298.028L329.306 337.235C333.084 337.704 336.838 337.943 340.554 337.962C345.078 339.895 349.875 341.375 354.903 342.338L585.715 386.538C586.969 386.776 588.221 386.975 589.47 387.136C591.823 387.712 594.233 388.159 596.693 388.469L829.906 417.444C868.195 422.201 903.103 394.961 907.87 356.6C912.636 318.239 885.455 283.284 847.166 278.527C842.555 277.954 837.897 277.842 833.266 278.196C831.975 260.738 822.765 244.839 808.277 235.052C793.792 225.265 775.623 222.673 758.977 228.015C749.617 186.941 708.786 161.261 667.779 170.656C647.16 175.379 630.422 188.073 620.066 204.749C615.38 185.613 603.34 168.298 585.109 157.419C548.983 135.861 502.231 147.729 480.685 183.93C466.491 173.724 448.405 170.599 431.611 175.453C425.488 177.222 419.783 179.98 414.684 183.556C399.811 165.079 378.034 152.143 352.66 148.995Z" fill="url(#paint1_linear)"/>
</g>
<defs>
<linearGradient id="paint0_linear" x1="1568.58" y1="3.37479e-05" x2="1596.58" y2="297" gradientUnits="userSpaceOnUse">
<stop stop-color="#33B3E0" stop-opacity="0"/>
<stop offset="1" stop-color="#2CAAD8"/>
</linearGradient>
<linearGradient id="paint1_linear" x1="478.829" y1="3.37479e-05" x2="450.829" y2="297" gradientUnits="userSpaceOnUse">
<stop stop-color="#33B3E0" stop-opacity="0"/>
<stop offset="1" stop-color="#2CAAD8"/>
</linearGradient>
</defs>
</svg>
