<svg width="97" height="91" viewBox="0 0 97 91" fill="none" xmlns="http://www.w3.org/2000/svg">
<path d="M82 91C90.2843 91 97 84.2843 97 76L97 15C97 6.71573 90.2843 -2.93554e-07 82 -6.55671e-07L23.1963 -3.22606e-06C16.3302 -3.52619e-06 10.3406 4.66197 8.65523 11.318L0.932314 41.818C0.320429 44.2345 0.320429 46.7654 0.932314 49.1819L8.65522 79.6819C10.3406 86.338 16.3302 91 23.1963 91L82 91Z" fill="#EFEFEF"/>
<path d="M66.2412 39.8116V45.3602C66.817 45.1968 67.3452 45.0255 67.8274 44.8478V39.3C67.3452 39.4777 66.817 39.6482 66.2412 39.8116Z" fill="#C49214"/>
<path d="M63.8623 57.2599V62.8085C64.4381 62.6451 64.9663 62.4738 65.4485 62.2961V56.7484C64.9663 56.926 64.4381 57.0965 63.8623 57.2599Z" fill="#C49214"/>
<path d="M30.1724 28.7828V34.3306C30.6546 34.5082 31.1828 34.6796 31.7586 34.8429V29.2944C31.1828 29.131 30.6546 28.9597 30.1724 28.7828Z" fill="#DCA815"/>
<path d="M30.1724 47.0242V52.572C30.6546 52.7496 31.1828 52.9202 31.7586 53.0843V47.5358C31.1828 47.3724 30.6546 47.2011 30.1724 47.0242Z" fill="#DCA815"/>
<path d="M32.5518 55.7484V61.2961C33.034 61.4738 33.5622 61.6443 34.138 61.8085V56.2599C33.5622 56.0965 33.034 55.9252 32.5518 55.7484Z" fill="#C49214"/>
<path d="M48.0001 59.0689C36.6119 59.0689 27.3794 56.7198 27.3794 54.3103V59.8589C27.3857 62.2667 36.6151 64.6206 48.0001 64.6206C59.3851 64.6206 68.6144 62.2667 68.6208 59.8589V54.3103C68.6208 56.7198 59.3883 59.0689 48.0001 59.0689Z" fill="#E4AF18"/>
<path d="M45.6207 50.3448C34.2325 50.3448 25 47.9956 25 45.5862V51.1347C25.0063 53.5426 34.2357 55.8965 45.6207 55.8965C57.0057 55.8965 66.235 53.5426 66.2414 51.1347V45.5862C66.2414 47.9956 57.0089 50.3448 45.6207 50.3448Z" fill="#F4BF1A"/>
<path d="M50.3795 41.6207C38.9913 41.6207 29.7588 39.2715 29.7588 36.8621V42.4106C29.7651 44.8185 38.9945 47.1724 50.3795 47.1724C61.7645 47.1724 70.9938 44.8185 71.0002 42.4106V36.8621C71.0002 39.2715 61.7677 41.6207 50.3795 41.6207Z" fill="#E4AF18"/>
<path d="M66.2414 27.4479C66.2414 29.8565 57.0089 32.1034 45.6207 32.1034C34.2325 32.1034 25 29.8565 25 27.4479C25 25.0384 34.2325 23.3793 45.6207 23.3793C57.0089 23.3793 66.2414 25.0384 66.2414 27.4479Z" fill="#FFD949"/>
<path d="M45.6207 32.1034C34.2325 32.1034 25 29.7542 25 27.3448V32.8933C25.0063 35.3012 34.2357 37.6551 45.6207 37.6551C57.0057 37.6551 66.235 35.3012 66.2414 32.8933V27.3448C66.2414 29.7542 57.0089 32.1034 45.6207 32.1034Z" fill="#F4BF1A"/>
<path d="M61.4824 30.2944V35.8429C62.0582 35.6796 62.5864 35.5082 63.0686 35.3306V29.7828C62.5864 29.9605 62.0582 30.131 61.4824 30.2944Z" fill="#DCA815"/>
<path d="M32.1377 30.8702V36.4195C32.6453 36.525 33.1743 36.6249 33.7239 36.7193V31.17C33.1743 31.0756 32.6453 30.9757 32.1377 30.8702Z" fill="#DCA815"/>
<path d="M57.5176 31.17V36.7201C58.0672 36.6249 58.5962 36.525 59.1038 36.4195V30.8702C58.5962 30.9757 58.0672 31.0756 57.5176 31.17Z" fill="#DCA815"/>
<path d="M36.1035 31.5237V37.0738C36.6206 37.1404 37.148 37.2023 37.6897 37.2578V31.7077C37.148 31.6522 36.6206 31.5895 36.1035 31.5237Z" fill="#DCA815"/>
<path d="M53.5518 31.7085V37.2586C54.0934 37.2023 54.6209 37.1404 55.138 37.0746V31.5237C54.6209 31.5911 54.0934 31.653 53.5518 31.7085Z" fill="#DCA815"/>
<path d="M40.0688 31.9123V37.4632C40.5899 37.4997 41.1181 37.5322 41.6551 37.5584V32.0067C41.1181 31.9805 40.5899 31.9488 40.0688 31.9123Z" fill="#DCA815"/>
<path d="M49.5859 32.0067V37.5584C50.1229 37.5322 50.6511 37.4997 51.1721 37.4632V31.9123C50.6511 31.9488 50.1229 31.9805 49.5859 32.0067Z" fill="#DCA815"/>
<path d="M45.6207 32.1035C45.3551 32.1035 45.0909 32.1011 44.8276 32.0987V37.6504C45.0909 37.6528 45.3551 37.6552 45.6207 37.6552C45.8864 37.6552 46.1505 37.6528 46.4138 37.6504V32.0987C46.1505 32.1011 45.8864 32.1035 45.6207 32.1035Z" fill="#DCA815"/>
<path d="M32.9312 39.3V44.8478C33.4134 45.0255 33.9416 45.1968 34.5174 45.3602V39.8116C33.9416 39.6482 33.4134 39.4769 32.9312 39.3Z" fill="#C49214"/>
<path d="M36.8965 40.3874V45.9367C37.4041 46.0422 37.9331 46.1421 38.4827 46.2365V40.6872C37.9331 40.5928 37.4041 40.4929 36.8965 40.3874Z" fill="#C49214"/>
<path d="M62.2759 40.6872V46.2373C62.8255 46.1421 63.3545 46.0422 63.8621 45.9367V40.3874C63.3545 40.4929 62.8255 40.5928 62.2759 40.6872Z" fill="#C49214"/>
<path d="M40.8623 41.0417V46.5918C41.3794 46.6584 41.9068 46.7203 42.4485 46.7758V41.2257C41.9068 41.1694 41.3794 41.1075 40.8623 41.0417Z" fill="#C49214"/>
<path d="M58.3105 41.2249V46.7758C58.8522 46.7195 59.3797 46.6577 59.8968 46.5918V41.0417C59.3797 41.1083 58.8522 41.1702 58.3105 41.2249Z" fill="#C49214"/>
<path d="M44.8276 41.4295V46.9804C45.3487 47.0169 45.8769 47.0494 46.4138 47.0756V41.5239C45.8769 41.4977 45.3487 41.466 44.8276 41.4295Z" fill="#C49214"/>
<path d="M54.3447 41.5239V47.0756C54.8817 47.0494 55.4099 47.0169 55.9309 46.9804V41.4295C55.4099 41.466 54.8817 41.4977 54.3447 41.5239Z" fill="#C49214"/>
<path d="M50.379 41.6207C50.1134 41.6207 49.8492 41.6183 49.5859 41.6159V47.1676C49.8492 47.17 50.1134 47.1724 50.379 47.1724C50.6447 47.1724 50.9088 47.17 51.1721 47.1676V41.6159C50.9088 41.6183 50.6447 41.6207 50.379 41.6207Z" fill="#C49214"/>
<path d="M61.4824 48.5357V54.0843C62.0582 53.9209 62.5864 53.7496 63.0686 53.5719V48.0242C62.5864 48.2018 62.0582 48.3723 61.4824 48.5357Z" fill="#DCA815"/>
<path d="M32.1377 49.1115V54.6609C32.6453 54.7663 33.1743 54.8663 33.7239 54.9607V49.4113C33.1743 49.3169 32.6453 49.217 32.1377 49.1115Z" fill="#DCA815"/>
<path d="M57.5176 49.4113V54.9614C58.0672 54.8663 58.5962 54.7663 59.1038 54.6609V49.1115C58.5962 49.217 58.0672 49.3169 57.5176 49.4113Z" fill="#DCA815"/>
<path d="M36.1035 49.7658V55.3159C36.6206 55.3826 37.148 55.4444 37.6897 55.4999V49.9498C37.148 49.8935 36.6206 49.8316 36.1035 49.7658Z" fill="#DCA815"/>
<path d="M53.5518 49.949V55.4999C54.0934 55.4436 54.6209 55.3818 55.138 55.3159V49.7658C54.6209 49.8324 54.0934 49.8943 53.5518 49.949Z" fill="#DCA815"/>
<path d="M40.0688 50.1537V55.7046C40.5899 55.7411 41.1181 55.7736 41.6551 55.7998V50.2481C41.1181 50.2219 40.5899 50.1902 40.0688 50.1537Z" fill="#DCA815"/>
<path d="M49.5859 50.2481V55.7998C50.1229 55.7736 50.6511 55.7411 51.1721 55.7046V50.1537C50.6511 50.1902 50.1229 50.2219 49.5859 50.2481Z" fill="#DCA815"/>
<path d="M45.6207 50.3448C45.3551 50.3448 45.0909 50.3424 44.8276 50.34V55.8918C45.0909 55.8941 45.3551 55.8965 45.6207 55.8965C45.8864 55.8965 46.1505 55.8941 46.4138 55.8918V50.34C46.1505 50.3424 45.8864 50.3448 45.6207 50.3448Z" fill="#DCA815"/>
<path d="M34.5176 57.8357V63.385C35.0252 63.4905 35.5542 63.5905 36.1038 63.6848V58.1355C35.5542 58.0411 35.0252 57.9412 34.5176 57.8357Z" fill="#C49214"/>
<path d="M59.8965 58.1355V63.6856C60.4461 63.5905 60.9751 63.4905 61.4827 63.385V57.8357C60.9751 57.9412 60.4461 58.0411 59.8965 58.1355Z" fill="#C49214"/>
<path d="M38.4824 58.49V64.0401C38.9995 64.1067 39.5269 64.1686 40.0686 64.2241V58.674C39.5269 58.6177 38.9995 58.5558 38.4824 58.49Z" fill="#C49214"/>
<path d="M55.9312 58.6732V64.2241C56.4728 64.1678 57.0003 64.106 57.5174 64.0401V58.49C57.0003 58.5566 56.4728 58.6185 55.9312 58.6732Z" fill="#C49214"/>
<path d="M42.4482 58.8778V64.4287C42.9693 64.4652 43.4975 64.4977 44.0344 64.5239V58.9722C43.4975 58.946 42.9693 58.9143 42.4482 58.8778Z" fill="#C49214"/>
<path d="M51.9658 58.9722V64.5239C52.5028 64.4977 53.031 64.4652 53.552 64.4287V58.8778C53.031 58.9143 52.5028 58.946 51.9658 58.9722Z" fill="#C49214"/>
<path d="M48.0001 59.069C47.7344 59.069 47.4703 59.0666 47.207 59.0642V64.6159C47.4703 64.6183 47.7344 64.6207 48.0001 64.6207C48.2658 64.6207 48.5299 64.6183 48.7932 64.6159V59.0642C48.5299 59.0666 48.2658 59.069 48.0001 59.069Z" fill="#C49214"/>
<path d="M65.6165 52.2261C63.3641 54.2072 55.2673 55.8966 45.6208 55.8966C38.0784 55.8966 31.4853 54.8631 27.8902 53.4657C27.5594 53.7655 27.3794 54.0827 27.3794 54.4135C27.3794 56.8229 36.6119 59.069 48.0001 59.069C59.389 59.069 68.6208 56.8229 68.6208 54.4135C68.6208 53.5831 67.5223 52.8407 65.6165 52.2261Z" fill="#FCC62D"/>
<path d="M50.3793 47.1724C39.9 47.1724 31.2528 45.1777 29.9379 42.9824C26.8614 43.6796 25 44.6083 25 45.6893C25 48.0979 34.2325 50.3448 45.6207 50.3448C57.0089 50.3448 66.2414 48.0979 66.2414 45.6893C66.2414 45.583 66.2176 45.4791 66.1819 45.376C62.3996 46.4404 56.7257 47.1724 50.3793 47.1724Z" fill="#FFD949"/>
<path d="M65.4429 34.1251C62.9755 36.0444 55.0382 37.6552 45.6209 37.6552C39.5393 37.6552 34.0741 36.9826 30.2997 35.9896C29.9499 36.299 29.7588 36.6241 29.7588 36.9652C29.7588 39.3746 38.9913 41.6207 50.3795 41.6207C61.7677 41.6207 71.0002 39.3746 71.0002 36.9652C71.0002 35.8136 68.8881 34.8341 65.4429 34.1251Z" fill="#FCC62D"/>
</svg>
