<svg width="133" height="158" viewBox="0 0 133 158" fill="none" xmlns="http://www.w3.org/2000/svg">
<path fill-rule="evenodd" clip-rule="evenodd" d="M42.2508 46.4197C65.6304 46.4197 84.5015 65.3481 84.5015 88.6545C84.5015 111.961 65.566 130.889 42.2508 130.889C18.8712 130.889 0 111.961 0 88.6545C0 65.3481 18.8712 46.4197 42.2508 46.4197Z" fill="#21C4A5"/>
<path fill-rule="evenodd" clip-rule="evenodd" d="M59.3825 55.562C69.1723 67.6015 65.1791 87.045 50.5588 98.8913C35.8741 110.802 16.1014 110.673 6.31158 98.5694C1.6099 92.775 0.0641639 85.1779 1.4167 77.6451C6.05397 60.3263 21.4471 47.3854 39.9962 46.4197C47.6606 46.7416 54.6809 49.7676 59.3825 55.562Z" fill="#0D7560"/>
<path fill-rule="evenodd" clip-rule="evenodd" d="M42.2508 130.953C18.8712 130.953 0 112.025 0 88.7185C0 65.4121 18.9356 46.4836 42.2508 46.4836V130.953Z" fill="#0D7560"/>
<path fill-rule="evenodd" clip-rule="evenodd" d="M42.2504 104.171C29.1115 110.352 14.3624 108.484 6.31157 98.6339C1.6099 92.8395 0.0641643 85.2424 1.4167 77.7096C6.05396 60.3907 21.4471 47.4499 39.9962 46.4841C40.7691 46.4841 41.5419 46.5485 42.2504 46.6129V104.171Z" fill="#28EF9A"/>
<path fill-rule="evenodd" clip-rule="evenodd" d="M28.1461 91.6805C31.624 91.6805 34.4579 94.5134 34.4579 97.99C34.4579 101.467 31.624 104.299 28.1461 104.299C24.6681 104.299 21.8342 101.467 21.8342 97.99C21.8986 94.5134 24.6681 91.6805 28.1461 91.6805Z" fill="white"/>
<path fill-rule="evenodd" clip-rule="evenodd" d="M16.6165 84.856C18.6775 84.856 20.3521 86.5299 20.3521 88.5901C20.3521 90.6504 18.6775 92.3243 16.6165 92.3243C14.5555 92.3243 12.8809 90.6504 12.8809 88.5901C12.9453 86.5299 14.5555 84.856 16.6165 84.856Z" fill="white"/>
<path fill-rule="evenodd" clip-rule="evenodd" d="M40.3823 116.983L31.6873 112.476L31.0432 113.377L40.3179 120.009L39.6738 157.673H42.2501V109.579L40.511 109.193L40.3823 116.983Z" fill="#876542"/>
<path fill-rule="evenodd" clip-rule="evenodd" d="M44.1827 123.035L55.7759 116.661L56.8708 117.498L44.2471 126.254L44.1827 123.035ZM44.8268 157.673L43.9251 110.03L42.186 109.579V157.608H44.8268V157.673Z" fill="#3F3323"/>
<path fill-rule="evenodd" clip-rule="evenodd" d="M105.627 0C119.088 0 133 78.2247 133 102.561C133 126.898 117.349 135.01 105.434 135.01C93.519 135.01 77.8682 126.898 77.8682 102.561C77.8682 78.2247 92.1664 0 105.627 0Z" fill="#21C4A5"/>
<path fill-rule="evenodd" clip-rule="evenodd" d="M116.512 15.0655C120.698 38.6938 124.241 54.9182 122.244 79.0616C120.183 103.205 104.468 111.317 92.8746 109.836C81.2815 108.356 79.2848 98.827 78.5764 90.8436L78.512 90.6505C81.3458 60.7126 92.8102 4.89306 104.017 0C104.532 0 105.112 3.92863e-06 105.627 0.0643864C109.298 3.92863e-06 113.034 5.92318 116.512 15.0655Z" fill="#0D7560"/>
<path fill-rule="evenodd" clip-rule="evenodd" d="M105.434 135.01C93.519 135.01 77.8682 126.898 77.8682 102.561C77.8682 78.3534 92.0376 0.772589 105.434 0V135.01Z" fill="#16A78A"/>
<path fill-rule="evenodd" clip-rule="evenodd" d="M105.434 107.712C101.248 109.708 96.8036 110.287 92.8104 109.836C81.2173 108.356 79.2206 98.8271 78.5121 90.8436L78.4478 90.6505C81.2816 60.7127 92.746 4.89307 103.953 0C104.404 0 104.919 0 105.37 0V107.712H105.434Z" fill="#28EF9A"/>
<path fill-rule="evenodd" clip-rule="evenodd" d="M102.793 157.673L103.566 113.828L105.434 113.378V157.673H102.793Z" fill="#876542"/>
<path fill-rule="evenodd" clip-rule="evenodd" d="M107.495 124.194L116.963 118.979L118.122 119.88L107.495 127.22L108.01 157.673H105.434V113.377L107.302 112.862L107.495 124.194Z" fill="#3F3323"/>
<path fill-rule="evenodd" clip-rule="evenodd" d="M95.773 94.7065C98.0273 94.7065 99.7662 96.5093 99.7662 98.6983C99.7662 100.952 97.9629 102.69 95.773 102.69C93.5188 102.69 91.7798 100.887 91.7798 98.6983C91.7798 96.5093 93.5832 94.7065 95.773 94.7065Z" fill="white"/>
</svg>
