<svg width="97" height="91" viewBox="0 0 97 91" fill="none" xmlns="http://www.w3.org/2000/svg">
<path d="M82 91C90.2843 91 97 84.2843 97 76L97 15C97 6.71573 90.2843 -2.93554e-07 82 -6.55671e-07L23.1963 -3.22606e-06C16.3302 -3.52619e-06 10.3406 4.66197 8.65523 11.318L0.932314 41.818C0.320429 44.2345 0.320429 46.7654 0.932314 49.1819L8.65522 79.6819C10.3406 86.338 16.3302 91 23.1963 91L82 91Z" fill="#EFEFEF"/>
<path d="M67.9844 42.2282L61.6562 39.0641L55.3281 42.2282L49 39.0641L42.6719 42.2282L36.3438 39.0641L30.0156 42.2282L25.2695 39.8552V69.4181H53.7461V61.4024H34.7617V51.9102H63.2383V69.4181H72.7305V39.8552L67.9844 42.2282Z" fill="#FFF7E6"/>
<path d="M49 61.4024H53.7461V69.418H49V61.4024Z" fill="#FFEACC"/>
<path d="M63.2383 51.9102V69.4181H72.7305V39.8552L67.9844 42.2282L61.6562 39.0641L55.3281 42.2282L49 39.0641V51.9102H63.2383Z" fill="#FFEACC"/>
<path d="M28.4336 17.0001V24.541L49 27.705L69.5664 24.541V17.0001H28.4336Z" fill="#FFEACC"/>
<path d="M69.5664 17.0001H49V27.705L69.5664 24.541V17.0001Z" fill="#FFD9B3"/>
<path d="M53.7461 64.5665H31.5977V48.7462H50.582C52.3295 48.7462 53.7461 50.1627 53.7461 51.9102V64.5665Z" fill="#665151"/>
<path d="M36.3438 34.0331L39.5078 38.3206L36.3438 42.6079L30.0156 45.7719L22.1055 41.8168V34.0331L29.2246 30.8691L36.3438 34.0331Z" fill="#FFB95A"/>
<path d="M39.6343 24.541L41.1531 29.287L36.3438 34.0331H22.1055L28.4336 24.541H39.6343Z" fill="#FFDC73"/>
<path d="M49 34.0331L52.1641 38.3206L49 42.6079L42.6719 45.7719L36.3438 42.6079V34.0331L42.6719 30.8691L49 34.0331Z" fill="#F25A3C"/>
<path d="M61.6562 34.0331L64.8203 38.3206L61.6562 42.6079L55.3281 45.7719L49 42.6079V34.0331L55.3281 30.8691L61.6562 34.0331Z" fill="#FFB95A"/>
<path d="M75.8945 34.0331V41.8168L67.9844 45.7719L61.6562 42.6079V34.0331L68.7754 30.8691L75.8945 34.0331Z" fill="#E63A3A"/>
<path d="M49 24.541L52.1641 29.287L49 34.0331H36.3438L39.6343 24.541H49Z" fill="#FF7F40"/>
<path d="M61.6563 34.0331H49V24.541H58.3657L63.1819 29.3067L61.6563 34.0331Z" fill="#FFDC73"/>
<path d="M75.8948 34.0331H61.6565L58.366 24.541H69.5666L75.8948 34.0331Z" fill="#F25A3C"/>
<path d="M50.582 48.7462H42.6719V64.5665H53.7461V51.9102C53.7461 50.1627 52.3295 48.7462 50.582 48.7462Z" fill="#4D3535"/>
<path d="M66.4023 61.4024V48.7462H50.582V69.418H66.4023V64.5665L63.2383 62.9844L66.4023 61.4024Z" fill="#B36A36"/>
<path d="M60.0742 61.4024H66.4023V64.5665H60.0742V61.4024Z" fill="#4D3535"/>
<path d="M22 67.8361H76V71.0001H22V67.8361Z" fill="#A0E65C"/>
<path d="M49 67.8361H76V71.0001H49V67.8361Z" fill="#79CC52"/>
</svg>
