<svg width="97" height="91" viewBox="0 0 97 91" fill="none" xmlns="http://www.w3.org/2000/svg">
<path d="M82 0.000121415C90.2843 0.000121777 97 6.71585 97 15.0001L97 76.0001C97 84.2844 90.2843 91.0001 82 91.0001L23.1963 91.0001C16.3302 91.0001 10.3406 86.3381 8.65522 79.6821L0.93231 49.1821C0.320425 46.7656 0.320425 44.2347 0.93231 41.8182L8.65522 11.3182C10.3406 4.66211 16.3302 0.000118544 23.1963 0.000118844L82 0.000121415Z" fill="#EFEFEF"/>
<path d="M76.1135 48.1659L71.4094 46.3685H54.7119L50.0078 48.1659C48.204 48.855 47.0471 50.5776 47.1248 52.4585L47.6959 66.307C47.7285 67.0977 48.3979 67.7224 49.2126 67.7224H76.9087C77.7235 67.7224 78.3929 67.0977 78.4255 66.307L78.9966 52.4585C79.0741 50.5776 77.9172 48.855 76.1135 48.1659Z" fill="#DBD9DC"/>
<path d="M61.9524 51.5054L60.9814 67.7225H65.14L64.169 51.5054H61.9524Z" fill="#5D5360"/>
<path d="M63.7074 52.2426H62.4143C61.9331 52.2426 61.543 51.8637 61.543 51.3963V49.294H64.5789V51.3963C64.5788 51.8637 64.1886 52.2426 63.7074 52.2426Z" fill="#4B3F4E"/>
<path d="M68.374 40.4481H57.748V49.2943H68.374V40.4481Z" fill="#B48764"/>
<path d="M57.748 43.2009C59.2532 44.2536 61.0913 44.8711 63.0608 44.8711C65.0304 44.8711 66.8685 44.2538 68.3737 43.2009V40.4483H57.748V43.2009Z" fill="#966D50"/>
<path d="M63.061 22.043C59.2716 22.2419 57.1156 24.2544 57.1156 24.2544C57.1156 24.2544 53.9531 24.2544 53.9531 27.9401C53.9531 30.8886 54.7121 33.814 54.7121 33.814H72.1686C73.6867 25.7055 70.0816 21.6745 63.061 22.043Z" fill="#5C414B"/>
<path d="M58.5061 30.7719C55.7179 27.3863 57.1146 24.2542 57.1146 24.2542C57.1146 24.2542 53.9521 24.2542 53.9521 27.9399C53.9521 30.8884 54.7111 33.8138 54.7111 33.8138H58.506V30.7719H58.5061Z" fill="#503441"/>
<path d="M71.4088 33.0769H70.6499L69.6497 31.3042C69.4918 31.0243 69.163 30.881 68.8397 30.9384C63.8412 31.8264 60.5561 30.698 59.3114 30.1332C58.9853 29.9852 58.5971 30.0825 58.3876 30.3667C57.6195 31.4087 56.772 32.2299 56.2637 32.6843C55.9815 32.9366 55.6152 33.077 55.2316 33.077H54.6855C54.6851 33.077 54.6848 33.0772 54.6844 33.0772C54.6013 33.0787 54.5163 33.0873 54.4298 33.1034C53.6911 33.242 53.1934 33.9279 53.1934 34.6586V35.1928C53.1934 35.8978 53.6582 36.563 54.3651 36.7233C54.5244 36.7595 54.6793 36.7696 54.8277 36.7582C55.2051 36.7289 55.5346 36.9956 55.6025 37.3573C56.2477 40.7919 59.3373 43.3969 63.0602 43.3969C66.783 43.3969 69.8726 40.7919 70.5178 37.3573C70.5833 37.009 70.8929 36.7553 71.2526 36.7627H71.4091C72.2474 36.7627 72.9271 36.1026 72.9271 35.2883V34.5512C72.9269 33.7369 72.2472 33.0769 71.4088 33.0769Z" fill="#C39772"/>
<path d="M58.5062 36.0254V30.2541C58.4649 30.2895 58.4208 30.3215 58.3876 30.3667C57.6194 31.4086 56.772 32.2298 56.2636 32.6842C55.9815 32.9365 55.6152 33.0769 55.2316 33.0769H54.6855C54.6851 33.0769 54.6848 33.0772 54.6844 33.0772C54.6013 33.0786 54.5162 33.0872 54.4298 33.1034C53.6911 33.242 53.1934 33.9279 53.1934 34.6585V35.1927C53.1934 35.8978 53.6582 36.563 54.3651 36.7233C54.5244 36.7594 54.6793 36.7696 54.8277 36.7581C55.2051 36.7288 55.5345 36.9955 55.6025 37.3572C56.2477 40.7918 59.3373 43.3968 63.0601 43.3968C63.5762 43.3968 64.0782 43.3421 64.5651 43.2467C61.1072 42.5588 58.5062 39.5871 58.5062 36.0254Z" fill="#B48764"/>
<path d="M63.0606 49.3171L57.5232 44.6113C57.2225 44.3557 56.7693 44.3704 56.4867 44.6448L54.7119 46.3686L58.2387 51.5065C58.77 52.2806 59.8977 52.3891 60.575 51.7313L63.0606 49.3171Z" fill="#EDEBED"/>
<path d="M63.0605 49.3171L68.598 44.6113C68.8987 44.3557 69.3519 44.3704 69.6344 44.6448L71.4092 46.3686L67.8825 51.5065C67.3511 52.2806 66.2234 52.3891 65.5461 51.7313L63.0605 49.3171Z" fill="#EDEBED"/>
<path d="M75.0204 53.1815L78.3224 49.9745C78.7831 50.7046 79.0337 51.5617 78.9966 52.4586L78.4255 66.3071C78.3929 67.0978 77.7235 67.7224 76.9088 67.7224H73.6865V56.3089C73.6865 55.136 74.1663 54.0109 75.0204 53.1815Z" fill="#EDEBED"/>
<path d="M55.5833 58.1396H59.1533C59.6345 58.1396 60.0247 57.7607 60.0247 57.2933V56.7745C60.0247 56.3071 59.6345 55.9282 59.1533 55.9282H55.5833C55.102 55.9282 54.7119 56.3071 54.7119 56.7745V57.2933C54.7119 57.7607 55.102 58.1396 55.5833 58.1396Z" fill="#EDEBED"/>
<path d="M49.5911 52.5042L45.4964 50.7681H31.8268L27.7321 52.5042C26.0083 53.2349 24.9245 54.9199 25.0041 56.7449L25.4216 66.3106C25.456 67.0998 26.1248 67.7224 26.9382 67.7224H50.3852C51.1986 67.7224 51.8673 67.0998 51.9018 66.3106L52.3193 56.7449C52.3987 54.9199 51.3149 53.2349 49.5911 52.5042Z" fill="#5D5360"/>
<path d="M42.4561 45.6086H34.8662V52.9799H42.4561V45.6086Z" fill="#FAD7A5"/>
<path d="M34.8672 47.7494C36.0284 48.2673 37.3147 48.5568 38.662 48.5568C40.0095 48.5568 41.2957 48.2673 42.4569 47.7494V45.6082H34.8672V47.7494Z" fill="#F0C891"/>
<path d="M38.6616 30.8654C41.1767 30.8654 43.2157 28.8851 43.2157 26.4423C43.2157 23.9995 41.1767 22.0192 38.6616 22.0192C36.1464 22.0192 34.1074 23.9995 34.1074 26.4423C34.1074 28.8851 36.1464 30.8654 38.6616 30.8654Z" fill="#DEAF73"/>
<path d="M38.661 42.6596C43.6914 42.6596 47.7693 38.8641 47.7693 34.1822C47.7693 29.5002 43.6914 25.7048 38.661 25.7048C33.6306 25.7048 29.5527 29.5002 29.5527 34.1822C29.5527 38.8641 33.6306 42.6596 38.661 42.6596Z" fill="#D59F63"/>
<path d="M35.6255 35.2882C32.5896 32.3396 32.1358 29.7976 32.2075 28.2023C30.5678 29.7354 29.5537 31.8485 29.5537 34.1825C29.5537 35.7812 30.0311 37.2742 30.8586 38.5485L35.6255 35.2882Z" fill="#CD915A"/>
<path d="M47.3154 36.7932C47.2547 36.7741 46.8802 36.7625 46.8802 36.7625C46.4777 36.7625 46.0915 36.6071 45.8069 36.3307L45.1518 35.6944C44.8889 35.4391 44.5415 35.2856 44.1702 35.2654C42.6929 35.1851 38.5963 34.8282 35.3416 33.2771C34.9942 33.1116 34.5697 33.2018 34.3614 33.5185C33.5088 34.815 32.4539 35.8438 31.8623 36.3724C31.5809 36.6239 31.2156 36.7624 30.8332 36.7624H30.2872C30.2868 36.7624 30.2865 36.7626 30.286 36.7626C30.2029 36.7641 30.1179 36.7727 30.0313 36.7888C29.2926 36.9274 28.7949 37.6133 28.7949 38.344V38.8782C28.7949 39.5832 29.2597 40.2484 29.9668 40.4087C30.126 40.4448 30.281 40.455 30.4293 40.4436C30.8066 40.4143 31.1361 40.681 31.204 41.0427C31.8493 44.4773 34.9389 47.0823 38.6617 47.0823C42.3845 47.0823 45.4741 44.4773 46.1194 41.0427C46.1873 40.681 46.5168 40.4143 46.8942 40.4436C47.0426 40.455 47.1975 40.4448 47.3566 40.4087C48.0636 40.2484 48.5285 39.5832 48.5285 38.8782V38.2065C48.5284 37.5128 47.9948 37.0075 47.3154 36.7932Z" fill="#FFE1B4"/>
<path d="M34.1077 39.7111V33.8846C33.3077 35.0071 32.3966 35.8949 31.8622 36.3726C31.5808 36.6241 31.2155 36.7626 30.8331 36.7626H30.2871C30.2867 36.7626 30.2864 36.7628 30.2859 36.7628C30.2028 36.7642 30.1178 36.7728 30.0313 36.789C29.2926 36.9276 28.7949 37.6135 28.7949 38.3441V38.8783C28.7949 39.5834 29.2597 40.2486 29.9668 40.4089C30.126 40.445 30.281 40.4552 30.4293 40.4437C30.8066 40.4144 31.1361 40.6812 31.204 41.0429C31.8493 44.4775 34.9389 47.0825 38.6617 47.0825C39.1778 47.0825 39.6798 47.0278 40.1667 46.9324C36.7088 46.2445 34.1077 43.2728 34.1077 39.7111Z" fill="#FAD7A5"/>
<path d="M29.0815 56.7044L26.3083 53.4724C25.4461 54.3286 24.9497 55.5001 25.004 56.745L25.4215 66.3106C25.456 67.0999 26.1248 67.7225 26.9381 67.7225H30.3128V60.0078C30.3129 58.8006 29.8771 57.6317 29.0815 56.7044Z" fill="#6F6571"/>
<path d="M48.2421 56.7044L51.0153 53.4724C51.8775 54.3285 52.3738 55.5 52.3195 56.7449L51.9021 66.3105C51.8676 67.0998 51.1988 67.7224 50.3854 67.7224H47.0107V60.0077C47.0107 58.8006 47.4464 57.6318 48.2421 56.7044Z" fill="#6F6571"/>
<path d="M43.7523 49.078C43.456 48.7902 42.9754 48.7902 42.679 49.078L39.01 52.6415C38.8177 52.8282 38.5059 52.8282 38.3137 52.6415L34.6446 49.078C34.3483 48.7902 33.8676 48.7902 33.5713 49.078L31.8311 50.7682L34.6394 55.1954C34.8836 55.5805 35.4239 55.663 35.7782 55.3695L37.4614 53.9745C37.6352 53.8305 37.9029 53.9505 37.9029 54.1723V67.7224H39.4209V54.1723C39.4209 53.9505 39.6885 53.8305 39.8624 53.9745L41.5455 55.3695C41.8998 55.663 42.4401 55.5805 42.6844 55.1954L45.4927 50.7682L43.7523 49.078Z" fill="#6F6571"/>
<path d="M32.7024 61.8253H35.5135C35.9947 61.8253 36.3848 61.4464 36.3848 60.979V60.4603C36.3848 59.9929 35.9947 59.614 35.5135 59.614H32.7024C32.2212 59.614 31.8311 59.9929 31.8311 60.4603V60.979C31.8309 61.4464 32.2212 61.8253 32.7024 61.8253Z" fill="#6F6571"/>
</svg>
