<svg width="97" height="91" viewBox="0 0 97 91" fill="none" xmlns="http://www.w3.org/2000/svg">
<path d="M82 -6.5567e-07C90.2843 -2.93553e-07 97 6.71573 97 15L97 76C97 84.2843 90.2843 91 82 91L23.1963 91C16.3302 91 10.3406 86.338 8.65522 79.6819L0.93231 49.182C0.320425 46.7654 0.320425 44.2345 0.93231 41.818L8.65522 11.3181C10.3406 4.66198 16.3302 -3.52619e-06 23.1963 -3.22606e-06L82 -6.5567e-07Z" fill="#EFEFEF"/>
<path d="M73.9682 46C73.9682 56.23 67.8225 65.0248 59.0218 68.8934C58.7579 69.0094 58.5371 68.5639 58.2685 68.671C55.4074 69.8114 52.2405 70.5748 48.9727 70.5748C46.9182 70.5748 45.176 70.4128 43.2656 69.9453C42.9152 69.8596 42.3134 70.1014 41.969 70.0011C31.5733 66.9726 23.9771 57.3733 23.9771 46C23.9771 32.1953 35.168 21.0044 48.9726 21.0044C50.6216 21.0044 52.2331 21.1641 53.7928 21.4688C54.2963 21.5671 54.7336 22.1852 55.2258 22.3134C63.6878 24.5159 70.0625 30.5938 72.5369 38.9426C72.6511 39.3279 73.1604 39.6598 73.2562 40.0527C73.7216 41.9588 73.9682 43.9506 73.9682 46Z" fill="#99E6FC"/>
<path d="M73.9674 45.9999C73.9674 59.8046 62.7766 70.9954 48.972 70.9954C45.4425 70.9954 42.0843 70.2645 39.0403 68.9446C41.2746 69.6001 43.6396 69.9514 46.0868 69.9514C59.8914 69.9514 71.0822 58.7595 71.0822 44.9548C71.0822 34.6819 64.886 25.8572 56.0264 22.0135C66.3962 25.0587 73.9674 34.6447 73.9674 45.9999Z" fill="#62DBFB"/>
<path d="M73.256 40.0526C72.9621 40.2553 72.6411 40.4175 72.2965 40.529C69.9101 41.3004 65.1069 39.2857 63.5574 42.1439C62.8491 43.4536 63.0923 44.9199 63.3197 46.2488C63.4785 47.1835 63.831 49.1183 62.9763 49.8414C62.0314 50.6409 60.0099 49.9653 59.0471 49.5767C57.6382 49.0079 56.3342 48.1926 55.1494 47.2455C53.2349 45.715 51.469 43.8185 49.9138 41.9367C48.5647 40.3048 47.0523 37.9906 48.0973 35.852C48.3046 35.4263 48.5951 35.0242 48.6525 34.5546C48.7831 33.4937 48.0624 32.9137 47.8056 31.9858C46.8945 28.686 50.9172 27.1759 52.4027 24.9021C53.0795 23.8649 53.5762 22.6858 53.7924 21.4695C63.3513 23.3368 70.9621 30.6525 73.256 40.0526Z" fill="#D1F19E"/>
<path d="M73.2564 40.0526C72.9625 40.2553 72.6415 40.4175 72.2968 40.5289C71.8463 40.6742 71.3103 40.7203 70.7247 40.7192C69.2889 32.3035 63.6468 25.3234 56.0383 22.0181C64.5309 24.516 71.1449 31.4013 73.2564 40.0526Z" fill="#BBEC6C"/>
<path d="M42.4265 37.0262C42.4625 38.5769 42.276 40.2311 41.3105 41.445C40.2633 42.7616 38.5114 43.2935 36.8413 43.4959C35.782 43.6243 34.6756 43.6439 33.6831 43.2517C33.2205 43.0688 32.7966 42.8018 32.3759 42.5365C31.1078 41.7366 29.6836 40.6571 29.7435 39.159C29.8053 37.6168 31.4479 36.6265 32.963 36.3323C34.4777 36.0381 36.1093 36.1244 37.4704 35.3976C38.5645 34.8135 39.509 33.5975 40.9077 33.8728C42.299 34.1468 42.3978 35.7837 42.4265 37.0262Z" fill="#D1F19E"/>
<path d="M59.0213 68.8928C55.9457 70.2454 52.5469 70.9953 48.9725 70.9953C46.541 70.9953 44.1907 70.6485 41.9687 70.0009C41.9439 69.8568 41.9327 69.7058 41.9338 69.5482C41.9564 66.931 42.7064 64.1932 44.0218 61.9319C44.9701 60.3034 46.6965 58.7684 45.2752 56.8427C44.594 55.9192 43.5376 55.3527 42.4745 54.9214C41.3021 54.4472 39.8483 53.8053 39.8224 52.5418C39.7998 51.4415 40.9136 50.7084 41.8889 50.1982C45.6717 48.2173 48.9849 49.8548 50.664 53.4822C51.1167 54.4586 51.4524 55.5498 51.5222 56.6276C51.5887 57.6727 51.3375 58.7369 51.7023 59.7584C51.9152 60.3541 52.333 60.8564 52.806 61.2753C54.7982 63.0456 57.9515 63.7044 58.9606 66.1719C59.313 67.037 59.304 68.0021 59.0213 68.8928Z" fill="#D1F19E"/>
<path d="M59.0254 66.3467C59.3103 67.1655 59.2844 68.0618 59.0209 68.8929C55.9453 70.2455 52.5466 70.9954 48.9721 70.9954C46.5407 70.9954 44.1903 70.6486 41.9684 70.001C41.9469 69.8749 41.9357 69.7431 41.9346 69.6068C43.2848 69.8343 44.6723 69.9515 46.0868 69.9515C50.8224 69.9516 55.2516 68.635 59.0254 66.3467Z" fill="#BBEC6C"/>
<path d="M30.5317 74C34.6913 74 38.0633 70.6279 38.0633 66.4683C38.0633 62.3087 34.6913 58.9366 30.5317 58.9366C26.372 58.9366 23 62.3087 23 66.4683C23 70.6279 26.372 74 30.5317 74Z" fill="#EBD5F6"/>
<path d="M38.0633 66.4678C38.0633 70.6278 34.6915 73.9997 30.5314 73.9997C28.8016 73.9997 27.2091 73.4162 25.9377 72.4366C26.7159 72.7091 27.5538 72.8578 28.4255 72.8578C32.5856 72.8578 35.9574 69.486 35.9574 65.3259C35.9574 62.8968 34.8064 60.7356 33.0203 59.3583C35.9573 60.3853 38.0633 63.1805 38.0633 66.4678Z" fill="#E5CAF3"/>
<path d="M34.3806 72.9426C33.2541 73.6143 31.9377 73.9995 30.5315 73.9995C29.1253 73.9995 27.8099 73.6143 26.6833 72.9426C27.0279 72.1905 27.5863 71.5576 28.2803 71.1202C28.5039 70.9799 28.6839 70.7863 28.8088 70.5617C28.9328 70.3372 29.0005 70.0817 29.0005 69.8174C29.0005 69.3374 28.7789 68.8805 28.3936 68.5931C27.5188 67.9408 26.9525 66.8974 26.9525 65.7224C26.9525 63.6609 28.6937 62.0068 30.7862 62.1511C32.5293 62.2721 33.9501 63.6687 34.0982 65.4088C34.2086 66.7057 33.6269 67.8729 32.6822 68.5833C32.4877 68.7295 32.3338 68.9163 32.2273 69.1273C32.1219 69.3392 32.0638 69.5744 32.0638 69.8173C32.0638 70.3467 32.3349 70.8384 32.783 71.1201C33.4776 71.5577 34.0361 72.1906 34.3806 72.9426Z" fill="#8D9CA8"/>
<path d="M34.3807 72.942C33.2534 73.6143 31.937 73.9995 30.5315 73.9995C29.1249 73.9995 27.8095 73.6143 26.6833 72.942C26.7239 72.8542 26.7667 72.7685 26.8128 72.6841C27.3331 72.7979 27.8726 72.8576 28.4256 72.8576C30.1587 72.8576 31.7557 72.272 33.0283 71.2877C33.6093 71.7134 34.0778 72.282 34.3807 72.942Z" fill="#7A8C98"/>
<path d="M67.4125 33.0633C71.5722 33.0633 74.9442 29.6913 74.9442 25.5317C74.9442 21.372 71.5722 18 67.4125 18C63.2529 18 59.8809 21.372 59.8809 25.5317C59.8809 29.6913 63.2529 33.0633 67.4125 33.0633Z" fill="#EBD5F6"/>
<path d="M74.9444 25.5312C74.9444 29.6913 71.5726 33.0631 67.4125 33.0631C65.6827 33.0631 64.0902 32.4797 62.8188 31.5C63.5971 31.7726 64.4349 31.9213 65.3066 31.9213C69.4667 31.9213 72.8385 28.5494 72.8385 24.3894C72.8385 21.9603 71.6875 19.7991 69.9014 18.4218C72.8384 19.4488 74.9444 22.2439 74.9444 25.5312Z" fill="#E5CAF3"/>
<path d="M71.2617 32.0062C70.1352 32.6779 68.8188 33.0631 67.4126 33.0631C66.0064 33.0631 64.691 32.6779 63.5645 32.0062C63.909 31.2541 64.4675 30.6212 65.1614 30.1838C65.385 30.0434 65.565 29.8499 65.6899 29.6253C65.8139 29.4008 65.8816 29.1453 65.8816 28.881C65.8816 28.401 65.66 27.9441 65.2747 27.6567C64.3999 27.0044 63.8336 25.961 63.8336 24.786C63.8336 22.7245 65.5748 21.0704 67.6673 21.2147C69.4104 21.3357 70.8312 22.7323 70.9793 24.4724C71.0897 25.7694 70.508 26.9365 69.5633 27.6469C69.3688 27.7931 69.2149 27.9799 69.1085 28.1909C69.003 28.4028 68.9449 28.638 68.9449 28.8809C68.9449 29.4103 69.216 29.902 69.6641 30.1837C70.3587 30.6212 70.9172 31.2542 71.2617 32.0062Z" fill="#8D9CA8"/>
<path d="M71.2618 32.0055C70.1345 32.6779 68.8181 33.063 67.4126 33.063C66.006 33.063 64.6906 32.6779 63.5645 32.0055C63.605 31.9177 63.6478 31.8321 63.694 31.7476C64.2142 31.8614 64.7537 31.9211 65.3067 31.9211C67.0398 31.9211 68.6368 31.3355 69.9094 30.3513C70.4904 30.7768 70.9589 31.3456 71.2618 32.0055Z" fill="#7A8C98"/>
</svg>
