<svg width="215" height="203" viewBox="0 0 215 203" fill="none" xmlns="http://www.w3.org/2000/svg">
<path opacity="0.3" d="M71.1641 -15.0848C61.1916 -1.11406 72.4509 21.7722 57.7908 32.2043C43.4984 42.3607 26.2647 25.3109 12.7995 33.9967C-7.1456 46.9104 -4.15845 107.067 24.4265 144.752C33.0203 156.057 40.2814 160.515 43.3605 173.245C49.9782 200.589 25.4834 216.582 29.9872 230.093C40.0976 260.562 200.256 287.768 265.606 197.142C296.121 154.816 301.268 93.2804 274.889 46.2211C227.186 -38.7524 93.499 -46.3811 71.1641 -15.0848Z" fill="#F4F7FA"/>
<path d="M262.019 108.535C280.816 100.768 288.077 81.6502 288.812 79.5821C303.472 39.0486 264.225 -28.8291 206.826 -46.3385C173.37 -56.5408 123.461 -52.7724 102.872 -22.2113C96.944 -13.3877 94.6462 -4.15046 93.773 2.97279C98.2308 1.18049 105.124 -1.07138 113.672 -1.48499C145.428 -3.13942 178.792 21.0337 192.396 51.227C202.276 73.1023 194.601 82.2936 206.918 95.6669C219.372 109.132 242.718 116.439 262.019 108.535Z" fill="url(#paint0_linear)"/>
<path d="M117.256 -16.7425C128.47 -20.4191 140.188 -22.4411 151.907 -22.579C163.626 -22.6709 175.345 -20.9705 186.467 -17.5238C197.588 -14.0771 208.112 -8.74612 217.441 -1.94457C226.77 4.85698 234.951 13.267 241.293 22.78C244.509 27.5595 247.175 32.6147 249.427 37.8537C251.679 43.0927 253.379 48.5615 254.574 54.1223C255.815 59.683 256.55 65.3356 256.78 71.0342C257.01 76.7328 256.734 82.4314 255.999 88.0381C255.263 93.6907 254.068 99.2515 252.46 104.674C250.806 110.097 248.737 115.382 246.256 120.483C241.293 130.64 234.767 140.015 227 148.195C224.978 150.309 225.07 153.664 227.184 155.732C229.298 157.754 232.653 157.662 234.721 155.548C234.767 155.502 234.813 155.456 234.859 155.41C243.039 146.173 249.794 135.695 254.758 124.436C257.239 118.829 259.261 112.992 260.87 107.064C262.432 101.136 263.489 95.0694 264.041 88.9572C264.592 82.845 264.684 76.7328 264.225 70.6206C263.765 64.5084 262.754 58.4881 261.238 52.5597C259.721 46.6314 257.653 40.8868 255.079 35.372C252.46 29.8573 249.427 24.5723 245.842 19.6549C238.719 9.82027 229.849 1.31833 219.877 -5.3913C209.904 -12.1469 198.829 -17.2021 187.294 -20.3271C175.759 -23.4522 163.764 -24.7849 151.861 -24.2334C139.959 -23.682 128.24 -21.2003 117.164 -17.1102C117.072 -17.0642 117.026 -16.9723 117.072 -16.8804C117.072 -16.7425 117.164 -16.6966 117.256 -16.7425Z" fill="url(#paint1_linear)"/>
<path opacity="0.3" d="M108.616 -14.5826C119.231 -18.9025 127.274 -10.5844 151.493 -6.54022C179.664 -1.80671 184.168 -11.6414 194.37 -5.48322C218.268 8.9471 197.036 61.797 223.323 78.663C233.939 85.4645 246.347 82.6152 249.564 81.8799C266.798 77.9277 281.274 61.2915 288.351 37.5779C292.763 52.6516 293.222 67.3577 288.811 79.5821C288.075 81.6042 280.814 100.768 262.018 108.535C242.762 116.485 219.416 109.132 206.916 95.6209C194.6 82.2935 202.229 73.0563 192.394 51.181C178.791 20.9877 145.427 -3.13944 113.671 -1.53096C105.49 -1.11736 98.8268 0.95068 94.369 2.69703C98.4592 -8.05678 103.836 -12.6065 108.616 -14.5826Z" fill="white"/>
<path d="M63.9024 21.9538L72.818 -38.1112L92.7171 -36.0892C94.4175 -36.4108 97.5885 -34.6645 98.3238 -32.8722L124.427 28.0201C125.254 29.9043 124.013 32.0642 122.129 32.0642L114.684 31.7425V173.61C114.684 176.138 112.846 177.93 110.594 177.654L92.7171 181.606C90.5572 181.331 70.5661 170.531 70.5661 168.095V25.8601L66.0624 25.8141C64.3161 25.8141 63.1671 23.7461 63.9024 21.9538Z" fill="url(#paint2_linear)"/>
<path d="M94.9239 31.0526L114.639 31.696V173.563C114.639 176.091 112.801 177.883 110.549 177.608L92.672 181.56C91.7988 181.468 87.8466 179.538 83.5726 177.194L94.9239 31.0526Z" fill="url(#paint3_linear)"/>
<path d="M44.646 26.8705L70.5195 -36.5953C71.3926 -38.7553 74.0121 -38.8472 74.8853 -36.8251L102.092 27.0083C102.873 28.8926 101.678 31.0525 99.7937 31.0525L94.9223 31.0066V177.791C94.9223 180.319 93.0841 182.111 90.8782 181.836L54.9862 177.194C52.8722 176.918 51.1718 174.758 51.1718 172.323V30.7768L46.714 30.7308C45.0596 30.7308 43.9107 28.6628 44.646 26.8705Z" fill="url(#paint4_linear)"/>
<path d="M150.025 189.372L168.729 185.052C171.073 185.374 173.003 183.536 173.003 181.054V65.1522C173.003 62.6246 171.073 60.5565 168.729 60.4646L128.655 59.2698C126.449 59.2238 107.837 60.2808 107.837 60.2808L124.703 175.034C124.657 177.47 150.025 189.372 150.025 189.372Z" fill="url(#paint5_linear)"/>
<path d="M108.801 184.179L148.461 189.326C150.805 189.648 152.689 187.856 152.689 185.328V65.9793C152.689 63.4977 150.805 61.3837 148.461 61.3377L108.801 60.1429C106.641 60.0969 104.849 61.9811 104.849 64.3708V179.262C104.849 181.698 106.595 183.858 108.801 184.179Z" fill="url(#paint6_linear)"/>
<path d="M212.617 197.507L232.332 193.141C234.906 193.462 237.02 191.624 237.02 188.959L236.423 107.754C236.423 105.134 234.309 102.836 231.735 102.698L187.709 100.079C185.273 99.9411 165.052 102.744 165.052 102.744L183.94 182.387C183.94 184.915 210.181 197.185 212.617 197.507Z" fill="url(#paint7_linear)"/>
<path d="M167.854 191.808L211.467 197.461C214.04 197.782 216.108 195.944 216.108 193.325V109.5C216.108 106.881 214.04 104.629 211.467 104.445L167.854 101.825C165.464 101.688 163.534 103.618 163.534 106.145V186.707C163.534 189.189 165.464 191.486 167.854 191.808Z" fill="url(#paint8_linear)"/>
<path d="M121.395 172.46V204.859L133.39 206.146V173.655L121.395 172.46Z" fill="url(#paint9_linear)"/>
<path opacity="0.4" d="M121.395 182.387V188.913C122.866 189.51 124.336 189.924 126.266 190.153C129.299 190.475 131.873 190.107 133.344 189.28V184.593C131.873 183.444 129.299 182.525 126.266 182.249C124.336 181.973 122.866 182.065 121.395 182.387Z" fill="url(#paint10_linear)"/>
<path d="M78.9306 179.261L91.6606 124.527C91.9823 123.149 93.315 122.184 94.6478 122.23L184.125 124.298C185.825 124.344 187.066 125.538 186.836 127.101L178.197 190.475C177.967 192.267 176.266 193.554 174.474 193.37L80.7689 182.341C79.4821 182.203 78.609 180.778 78.9306 179.261Z" fill="url(#paint11_linear)"/>
<path d="M90.3265 121.816L180.263 123.976C181.964 124.022 183.204 125.217 182.975 126.779L174.289 189.969C174.059 191.762 172.359 193.049 170.566 192.865L76.4017 181.835C75.023 181.697 74.1498 180.273 74.5175 178.756L87.2934 124.16C87.6151 122.735 88.9938 121.77 90.3265 121.816Z" fill="url(#paint12_linear)"/>
<path d="M168.684 127.469L167.397 136.017C167.305 136.568 167.719 137.074 168.27 137.074L177.094 137.441C177.691 137.487 178.243 137.028 178.334 136.43L179.575 127.744C179.667 127.193 179.208 126.733 178.656 126.687L169.924 126.458C169.281 126.458 168.776 126.917 168.684 127.469Z" fill="url(#paint13_linear)"/>
<path d="M166.846 139.555L165.513 148.287C165.421 148.885 165.835 149.344 166.386 149.39L175.302 149.896C175.899 149.942 176.451 149.482 176.543 148.885L177.783 140.015C177.875 139.418 177.416 138.958 176.864 138.912L168.041 138.544C167.443 138.59 166.938 139.004 166.846 139.555Z" fill="url(#paint14_linear)"/>
<path d="M164.961 152.009L163.583 160.971C163.491 161.568 163.904 162.074 164.456 162.12L173.463 162.809C174.061 162.855 174.612 162.396 174.704 161.798L175.991 152.699C176.083 152.101 175.623 151.596 175.072 151.55L166.156 150.998C165.559 150.952 165.053 151.412 164.961 152.009Z" fill="url(#paint15_linear)"/>
<path d="M163.031 164.739L161.653 173.931C161.561 174.528 161.974 175.08 162.526 175.126L171.625 175.999C172.223 176.045 172.82 175.585 172.912 174.988L174.245 165.659C174.337 165.061 173.877 164.51 173.28 164.464L164.272 163.774C163.675 163.682 163.123 164.142 163.031 164.739Z" fill="url(#paint16_linear)"/>
<path d="M161.055 177.791L159.63 187.212C159.538 187.855 159.952 188.407 160.549 188.453L169.741 189.51C170.338 189.556 170.936 189.142 171.027 188.499L172.36 178.894C172.452 178.25 171.993 177.699 171.395 177.653L162.296 176.78C161.698 176.688 161.147 177.147 161.055 177.791Z" fill="url(#paint17_linear)"/>
<path d="M156.321 127.101L154.943 135.511C154.851 136.062 155.219 136.522 155.77 136.568L164.318 136.936C164.869 136.982 165.421 136.522 165.513 135.971L166.8 127.469C166.891 126.917 166.478 126.458 165.926 126.458L157.516 126.228C156.919 126.136 156.413 126.549 156.321 127.101Z" fill="url(#paint18_linear)"/>
<path d="M154.344 139.004L152.919 147.598C152.827 148.149 153.195 148.655 153.747 148.701L162.34 149.206C162.892 149.252 163.443 148.793 163.535 148.241L164.868 139.509C164.96 138.958 164.546 138.452 163.949 138.452L155.447 138.085C154.987 138.039 154.436 138.452 154.344 139.004Z" fill="url(#paint19_linear)"/>
<path d="M152.368 151.182L150.943 160.006C150.851 160.603 151.219 161.109 151.77 161.155L160.456 161.798C161.008 161.844 161.605 161.384 161.697 160.787L163.076 151.826C163.168 151.228 162.754 150.769 162.157 150.723L153.563 150.217C152.965 150.217 152.46 150.631 152.368 151.182Z" fill="url(#paint20_linear)"/>
<path d="M150.302 163.682L148.831 172.69C148.739 173.287 149.107 173.793 149.658 173.885L158.436 174.712C159.033 174.758 159.585 174.298 159.677 173.701L161.101 164.509C161.193 163.912 160.78 163.407 160.182 163.361L151.496 162.671C150.945 162.671 150.394 163.131 150.302 163.682Z" fill="url(#paint21_linear)"/>
<path d="M148.186 176.504L146.67 185.741C146.578 186.339 146.945 186.89 147.497 186.982L156.367 187.993C156.964 188.039 157.515 187.626 157.607 186.982L159.032 177.561C159.124 176.964 158.71 176.412 158.113 176.366L149.335 175.539C148.83 175.447 148.324 175.907 148.186 176.504Z" fill="url(#paint22_linear)"/>
<path d="M144.326 126.733C144.418 126.182 144.877 125.768 145.429 125.768L153.563 125.998C154.115 125.998 154.482 126.458 154.39 127.009L153.012 135.373C152.92 135.925 152.414 136.338 151.863 136.338L143.683 136.017C143.131 136.017 142.809 135.557 142.901 135.005L144.326 126.733Z" fill="url(#paint23_linear)"/>
<path d="M142.256 138.452L140.786 146.908C140.694 147.46 141.016 147.919 141.567 147.965L149.839 148.471C150.391 148.517 150.896 148.057 150.988 147.506L152.413 138.912C152.505 138.36 152.137 137.901 151.586 137.855L143.359 137.487C142.854 137.487 142.394 137.901 142.256 138.452Z" fill="url(#paint24_linear)"/>
<path d="M140.144 150.447L138.627 159.087C138.627 159.133 138.582 159.179 138.582 159.225C138.536 159.73 138.903 160.144 139.363 160.19L147.727 160.833C148.278 160.879 148.83 160.42 148.922 159.868L150.392 151.09C150.484 150.539 150.117 150.033 149.565 149.987L141.293 149.482C140.741 149.436 140.282 149.896 140.144 150.447Z" fill="url(#paint25_linear)"/>
<path d="M137.983 162.717L136.42 171.587C136.329 172.184 136.65 172.69 137.202 172.736L145.658 173.517C146.209 173.563 146.761 173.149 146.853 172.552L148.369 163.544C148.461 162.947 148.093 162.441 147.542 162.396L139.178 161.752C138.58 161.706 138.121 162.12 137.983 162.717Z" fill="url(#paint26_linear)"/>
<path d="M135.778 175.309L134.169 184.409C134.077 185.006 134.399 185.558 134.951 185.604L143.453 186.569C144.004 186.615 144.556 186.201 144.647 185.604L146.164 176.366C146.256 175.769 145.888 175.217 145.337 175.171L136.881 174.344C136.375 174.252 135.87 174.712 135.778 175.309Z" fill="url(#paint27_linear)"/>
<path d="M132.745 126.412C132.837 125.906 133.297 125.446 133.802 125.492L141.661 125.722C142.166 125.722 142.488 126.182 142.396 126.687L140.926 134.913C140.834 135.465 140.374 135.879 139.823 135.879L131.918 135.557C131.413 135.557 131.137 135.097 131.229 134.546L132.745 126.412Z" fill="url(#paint28_linear)"/>
<path d="M130.586 137.947C130.678 137.395 131.137 136.982 131.643 137.028L139.547 137.395C140.053 137.441 140.374 137.855 140.283 138.406L138.766 146.816C138.674 147.368 138.169 147.781 137.663 147.781L129.713 147.322C129.207 147.276 128.931 146.816 129.023 146.265L130.586 137.947Z" fill="url(#paint29_linear)"/>
<path d="M128.379 149.711C128.471 149.16 128.931 148.746 129.482 148.746L137.479 149.252C138.03 149.298 138.306 149.757 138.214 150.309L136.698 158.949C136.606 159.5 136.1 159.96 135.595 159.914L127.552 159.316C127.047 159.27 126.725 158.811 126.863 158.213L128.379 149.711Z" fill="url(#paint30_linear)"/>
<path d="M126.127 161.752L124.473 170.438C124.381 170.989 124.657 171.495 125.208 171.587L133.296 172.368C133.848 172.414 134.307 172 134.399 171.403L135.962 162.579C136.054 162.028 135.732 161.522 135.227 161.476L127.184 160.833C126.679 160.787 126.219 161.201 126.127 161.752Z" fill="url(#paint31_linear)"/>
<path d="M123.784 174.114L122.084 183.03C121.992 183.627 122.268 184.133 122.819 184.225L130.999 185.144C131.551 185.19 132.01 184.776 132.148 184.179L133.757 175.125C133.849 174.528 133.527 174.023 133.022 173.977L124.887 173.195C124.382 173.103 123.922 173.517 123.784 174.114Z" fill="url(#paint32_linear)"/>
<path d="M121.395 126.09C121.487 125.584 121.992 125.171 122.498 125.171L130.173 125.401C130.678 125.401 131.046 125.86 130.954 126.366L129.437 134.454C129.345 135.005 128.794 135.419 128.288 135.373L120.568 135.051C120.062 135.051 119.694 134.592 119.832 134.04L121.395 126.09Z" fill="url(#paint33_linear)"/>
<path d="M119.142 137.395C119.234 136.844 119.785 136.476 120.291 136.476L128.058 136.798C128.563 136.798 128.931 137.258 128.839 137.809L127.276 146.081C127.184 146.633 126.633 147.046 126.127 147L118.315 146.541C117.809 146.495 117.442 146.035 117.533 145.53L119.142 137.395Z" fill="url(#paint34_linear)"/>
<path d="M116.845 148.976C116.937 148.425 117.488 148.011 117.994 148.057L125.806 148.517C126.312 148.563 126.679 149.022 126.587 149.574L124.979 158.03C124.887 158.581 124.336 158.995 123.83 158.949L115.972 158.351C115.466 158.305 115.098 157.846 115.19 157.294L116.845 148.976Z" fill="url(#paint35_linear)"/>
<path d="M114.455 160.833L112.755 169.381C112.663 169.932 112.985 170.438 113.49 170.484L121.441 171.219C121.946 171.265 122.544 170.851 122.636 170.254L124.29 161.568C124.382 161.017 124.014 160.511 123.509 160.465L115.65 159.868C115.191 159.822 114.685 160.19 114.547 160.649C114.547 160.741 114.455 160.787 114.455 160.833Z" fill="url(#paint36_linear)"/>
<path d="M112.066 172.966L110.273 181.697C110.135 182.295 110.503 182.8 111.009 182.846L119.005 183.765C119.51 183.811 120.108 183.398 120.2 182.8L121.9 173.931C121.992 173.333 121.624 172.828 121.119 172.782L113.168 172C112.709 171.955 112.157 172.414 112.066 172.966Z" fill="url(#paint37_linear)"/>
<path d="M110.687 125.768C110.779 125.263 111.238 124.849 111.698 124.849L119.097 125.033C119.602 125.033 119.878 125.492 119.786 125.998L118.178 133.948C118.086 134.454 117.58 134.868 117.075 134.868L109.676 134.546C109.216 134.546 108.94 134.086 109.032 133.581L110.687 125.768Z" fill="url(#paint38_linear)"/>
<path d="M108.343 136.936C108.435 136.43 108.894 136.017 109.354 136.017L116.799 136.338C117.304 136.338 117.626 136.798 117.488 137.349L115.834 145.484C115.742 146.035 115.236 146.449 114.731 146.403L107.24 145.943C106.734 145.897 106.505 145.484 106.596 144.932L108.343 136.936Z" fill="url(#paint39_linear)"/>
<path d="M105.954 148.287C106.046 147.735 106.505 147.322 107.011 147.368L114.548 147.827C115.053 147.873 115.375 148.333 115.237 148.838L113.582 157.156C113.491 157.708 112.939 158.121 112.434 158.076L104.897 157.478C104.391 157.432 104.115 156.973 104.253 156.421L105.954 148.287Z" fill="url(#paint40_linear)"/>
<path d="M103.472 159.96L101.68 168.37C101.542 168.921 101.818 169.427 102.323 169.473L109.952 170.208C110.458 170.254 110.963 169.841 111.055 169.289L112.755 160.741C112.801 160.603 112.755 160.465 112.755 160.328C112.664 159.96 112.388 159.73 112.02 159.684L104.483 159.087C104.07 158.995 103.61 159.408 103.472 159.96Z" fill="url(#paint41_linear)"/>
<path d="M100.99 171.862L99.1977 180.456C99.0599 181.008 99.3356 181.513 99.8411 181.605L107.516 182.478C108.021 182.524 108.527 182.111 108.665 181.559L110.411 172.828C110.503 172.276 110.181 171.771 109.676 171.725L102.047 170.989C101.542 170.897 101.082 171.311 100.99 171.862Z" fill="url(#paint42_linear)"/>
<path d="M100.024 125.447C100.116 124.941 100.621 124.573 101.081 124.573L108.204 124.757C108.663 124.757 108.939 125.171 108.847 125.676L107.193 133.489C107.101 133.994 106.641 134.408 106.182 134.408L98.9666 134.086C98.5071 134.086 98.2313 133.627 98.3232 133.121L100.024 125.447Z" fill="url(#paint43_linear)"/>
<path d="M97.5896 136.43C97.6815 135.925 98.187 135.511 98.6466 135.557L105.816 135.879C106.275 135.879 106.551 136.338 106.459 136.844L104.759 144.84C104.667 145.392 104.207 145.759 103.748 145.759L96.4866 145.346C96.0271 145.3 95.7054 144.886 95.8433 144.335L97.5896 136.43Z" fill="url(#paint44_linear)"/>
<path d="M95.1054 147.644C95.2433 147.138 95.7029 146.725 96.2084 146.771L103.469 147.23C103.929 147.276 104.205 147.69 104.113 148.241L102.367 156.421C102.275 156.973 101.815 157.386 101.31 157.341L93.9565 156.789C93.4969 156.743 93.1753 156.284 93.3131 155.778L95.1054 147.644Z" fill="url(#paint45_linear)"/>
<path d="M92.5786 159.087L90.7403 167.359C90.6024 167.91 90.9241 168.37 91.4297 168.416L98.7827 169.105C99.2882 169.151 99.7478 168.738 99.8397 168.186L101.632 159.822C101.77 159.271 101.494 158.811 100.989 158.765L93.6356 158.168C93.176 158.122 92.6705 158.535 92.5786 159.087Z" fill="url(#paint46_linear)"/>
<path d="M89.9581 170.806L88.0739 179.262C87.9361 179.813 88.2578 180.319 88.7633 180.365L96.1623 181.192C96.6678 181.238 97.1274 180.824 97.2193 180.273L99.0575 171.679C99.1954 171.127 98.9197 170.622 98.4141 170.576L91.0152 169.841C90.6015 169.841 90.096 170.254 89.9581 170.806Z" fill="url(#paint47_linear)"/>
<path d="M89.8225 125.171C89.9144 124.665 90.4199 124.298 90.8795 124.298L97.773 124.482C98.2325 124.482 98.4623 124.895 98.3704 125.401L96.67 133.121C96.5781 133.627 96.1185 134.04 95.659 133.995L88.6736 133.719C88.214 133.719 87.9383 133.259 88.0762 132.754L89.8225 125.171Z" fill="url(#paint48_linear)"/>
<path d="M87.3398 135.971C87.4777 135.465 87.9372 135.097 88.3968 135.097L95.3362 135.419C95.7958 135.419 96.0256 135.879 95.9336 136.384L94.1873 144.243C94.0494 144.748 93.6358 145.162 93.1763 145.116L86.1449 144.702C85.6854 144.656 85.4096 144.243 85.5475 143.737L87.3398 135.971Z" fill="url(#paint49_linear)"/>
<path d="M84.7657 146.954C84.9036 146.449 85.3631 146.035 85.8227 146.081L92.854 146.495C93.3136 146.541 93.5434 146.954 93.4515 147.506L91.6592 155.548C91.5213 156.1 91.1077 156.467 90.6481 156.467L83.5708 155.916C83.1113 155.87 82.8355 155.41 82.9734 154.905L84.7657 146.954Z" fill="url(#paint50_linear)"/>
<path d="M82.1467 158.259L80.2625 166.394C80.1246 166.945 80.4463 167.405 80.9059 167.451L88.0291 168.14C88.4887 168.186 88.9482 167.772 89.0402 167.221L90.8784 158.995C90.9244 158.857 90.9703 158.765 90.9703 158.627C90.9244 158.259 90.6946 157.984 90.3269 157.938L83.2037 157.386C82.7441 157.34 82.2846 157.708 82.1467 158.259Z" fill="url(#paint51_linear)"/>
<path d="M79.4812 169.749L77.551 178.067C77.4132 178.618 77.7349 179.124 78.1944 179.17L85.3636 179.997C85.8232 180.043 86.2827 179.629 86.4206 179.078L88.3048 170.668C88.4427 170.116 88.2129 169.657 87.7074 169.611L80.5382 168.921C80.0786 168.829 79.6191 169.243 79.4812 169.749Z" fill="url(#paint52_linear)"/>
<path opacity="0.2" d="M172.268 126.55C171.027 127.147 169.74 127.745 168.499 128.48L167.35 136.017C167.258 136.568 167.672 137.074 168.223 137.074L177.047 137.441C177.644 137.487 178.196 137.028 178.288 136.43L179.529 127.745C179.621 127.193 179.161 126.733 178.61 126.688L172.268 126.55Z" fill="url(#paint53_linear)"/>
<path opacity="0.2" d="M166.845 139.555L165.512 148.287C165.42 148.884 165.834 149.344 166.385 149.39L175.301 149.895C175.898 149.941 176.45 149.482 176.542 148.884L177.782 140.015C177.874 139.417 177.415 138.958 176.863 138.912L168.04 138.544C167.442 138.59 166.937 139.004 166.845 139.555Z" fill="url(#paint54_linear)"/>
<path opacity="0.2" d="M164.961 152.01L163.582 160.971C163.49 161.568 163.904 162.074 164.455 162.12L173.462 162.809C174.06 162.855 174.611 162.396 174.703 161.798L175.99 152.699C176.082 152.101 175.622 151.596 175.071 151.55L166.155 150.998C165.558 150.953 165.052 151.412 164.961 152.01Z" fill="url(#paint55_linear)"/>
<path opacity="0.2" d="M163.03 164.739L161.652 173.931C161.56 174.528 161.974 175.08 162.525 175.125L171.624 175.999C172.222 176.045 172.819 175.585 172.911 174.988L174.244 165.658C174.336 165.061 173.876 164.51 173.279 164.464L164.271 163.774C163.674 163.682 163.122 164.142 163.03 164.739Z" fill="url(#paint56_linear)"/>
<path opacity="0.2" d="M161.054 177.791L159.629 187.212C159.537 187.856 159.951 188.407 160.548 188.453L169.74 189.51C170.337 189.556 170.935 189.142 171.026 188.499L172.359 178.894C172.451 178.251 171.992 177.699 171.394 177.653L162.295 176.78C161.697 176.688 161.146 177.148 161.054 177.791Z" fill="url(#paint57_linear)"/>
<path opacity="0.2" d="M165.464 135.925L166.429 129.721C163.258 131.559 160.179 133.857 157.146 136.568L164.315 136.89C164.821 136.936 165.372 136.476 165.464 135.925Z" fill="url(#paint58_linear)"/>
<path opacity="0.2" d="M155.585 138.039C155.172 138.452 154.804 138.866 154.344 139.326L152.966 147.598C152.874 148.149 153.241 148.655 153.793 148.701L162.387 149.206C162.938 149.252 163.49 148.793 163.582 148.241L164.914 139.509C165.006 138.958 164.593 138.452 164.041 138.452L155.585 138.039Z" fill="url(#paint59_linear)"/>
<path opacity="0.2" d="M152.368 151.182L150.943 160.006C150.852 160.603 151.219 161.109 151.771 161.155L160.456 161.798C161.008 161.844 161.605 161.384 161.697 160.787L163.076 151.825C163.168 151.228 162.754 150.768 162.157 150.722L153.563 150.217C152.966 150.217 152.46 150.631 152.368 151.182Z" fill="url(#paint60_linear)"/>
<path opacity="0.2" d="M150.299 163.682L148.829 172.69C148.737 173.287 149.104 173.793 149.656 173.885L158.433 174.712C159.031 174.758 159.582 174.298 159.674 173.701L161.099 164.509C161.191 163.912 160.777 163.406 160.18 163.36L151.494 162.671C150.943 162.671 150.391 163.131 150.299 163.682Z" fill="url(#paint61_linear)"/>
<path opacity="0.2" d="M148.187 176.504L146.67 185.741C146.578 186.339 146.946 186.89 147.497 186.982L156.367 187.993C156.964 188.039 157.516 187.626 157.608 186.982L159.032 177.561C159.124 176.964 158.711 176.412 158.113 176.366L149.335 175.539C148.83 175.447 148.324 175.907 148.187 176.504Z" fill="url(#paint62_linear)"/>
<path opacity="0.2" d="M150.989 147.506L151.908 141.899C150.208 143.829 148.599 145.989 147.083 148.333L149.794 148.471C150.392 148.471 150.897 148.057 150.989 147.506Z" fill="url(#paint63_linear)"/>
<path opacity="0.2" d="M148.968 159.868L150.439 151.09C150.53 150.539 150.163 150.033 149.611 149.987L146.211 149.758C145.843 150.401 145.429 150.998 145.108 151.688C143.177 155.089 141.018 157.524 138.628 159.225C138.582 159.73 138.949 160.144 139.455 160.19L147.819 160.833C148.325 160.879 148.83 160.466 148.968 159.868Z" fill="url(#paint64_linear)"/>
<path opacity="0.2" d="M137.983 162.717L136.42 171.587C136.329 172.184 136.65 172.69 137.202 172.736L145.658 173.517C146.209 173.563 146.761 173.149 146.853 172.552L148.369 163.544C148.461 162.947 148.093 162.441 147.542 162.395L139.178 161.752C138.58 161.706 138.121 162.12 137.983 162.717Z" fill="url(#paint65_linear)"/>
<path opacity="0.2" d="M135.778 175.309L134.169 184.409C134.077 185.006 134.399 185.557 134.951 185.603L143.453 186.568C144.004 186.614 144.556 186.201 144.647 185.603L146.164 176.366C146.256 175.769 145.888 175.217 145.337 175.171L136.881 174.344C136.375 174.252 135.87 174.712 135.778 175.309Z" fill="url(#paint66_linear)"/>
<path opacity="0.2" d="M134.444 161.385C131.732 162.35 128.837 162.625 125.942 162.488L124.425 170.438C124.333 170.989 124.609 171.495 125.161 171.587L133.249 172.368C133.8 172.414 134.26 172.001 134.352 171.403L135.914 162.579C136.006 162.028 135.731 161.522 135.179 161.477L134.444 161.385Z" fill="url(#paint67_linear)"/>
<path opacity="0.2" d="M123.785 174.115L122.084 183.03C121.992 183.627 122.268 184.133 122.82 184.225L131 185.144C131.551 185.19 132.011 184.776 132.149 184.179L133.757 175.126C133.849 174.528 133.527 174.023 133.022 173.977L124.888 173.195C124.382 173.103 123.922 173.517 123.785 174.115Z" fill="url(#paint68_linear)"/>
<path opacity="0.2" d="M114.592 160.695C114.592 160.741 114.5 160.787 114.5 160.833L112.8 169.381C112.708 169.932 113.03 170.438 113.535 170.484L121.486 171.219C121.991 171.265 122.589 170.851 122.681 170.254L124.197 162.35C120.888 162.074 117.763 161.43 114.592 160.695Z" fill="url(#paint69_linear)"/>
<path opacity="0.2" d="M112.065 172.965L110.272 181.697C110.134 182.295 110.502 182.8 111.008 182.846L119.004 183.765C119.509 183.811 120.107 183.398 120.199 182.8L121.899 173.931C121.991 173.333 121.623 172.828 121.118 172.782L113.167 172C112.708 171.954 112.156 172.414 112.065 172.965Z" fill="url(#paint70_linear)"/>
<path opacity="0.2" d="M103.471 159.96L101.679 168.37C101.541 168.921 101.817 169.427 102.323 169.473L109.951 170.208C110.457 170.254 110.962 169.84 111.054 169.289L112.755 160.741C112.801 160.603 112.755 160.465 112.755 160.328C111.468 160.006 110.181 159.73 108.894 159.454L104.528 159.087C104.069 158.995 103.609 159.408 103.471 159.96Z" fill="url(#paint71_linear)"/>
<path opacity="0.2" d="M100.989 171.863L99.1969 180.457C99.059 181.008 99.3348 181.514 99.8403 181.605L107.515 182.479C108.021 182.525 108.526 182.111 108.664 181.56L110.41 172.828C110.502 172.276 110.18 171.771 109.675 171.725L102.046 170.99C101.541 170.898 101.081 171.311 100.989 171.863Z" fill="url(#paint72_linear)"/>
<path opacity="0.2" d="M92.5791 159.087L90.7408 167.359C90.6029 167.91 90.9246 168.37 91.4301 168.416L98.7832 169.105C99.2887 169.151 99.7483 168.738 99.8402 168.186L101.632 159.822C101.77 159.271 101.495 158.811 100.989 158.765L93.636 158.168C93.1765 158.122 92.671 158.535 92.5791 159.087Z" fill="url(#paint73_linear)"/>
<path opacity="0.2" d="M89.9585 170.806L88.0743 179.262C87.9364 179.813 88.2581 180.319 88.7637 180.365L96.1626 181.192C96.6681 181.238 97.1277 180.824 97.2196 180.273L99.0579 171.679C99.1958 171.127 98.92 170.622 98.4145 170.576L91.0155 169.841C90.6019 169.841 90.0964 170.254 89.9585 170.806Z" fill="url(#paint74_linear)"/>
<path opacity="0.2" d="M80.5846 165.015L80.2629 166.348C80.125 166.899 80.4467 167.359 80.9062 167.405L88.0295 168.094C88.4891 168.14 88.9486 167.727 89.0405 167.175L90.8788 158.949C90.9247 158.811 90.9707 158.719 90.9707 158.581C87.7997 159.454 84.7206 161.109 81.7794 163.912C81.3199 164.28 81.0901 164.648 80.5846 165.015Z" fill="url(#paint75_linear)"/>
<path opacity="0.2" d="M79.4816 169.748L77.5514 178.067C77.4135 178.618 77.7352 179.124 78.1948 179.17L85.364 179.997C85.8235 180.043 86.2831 179.629 86.421 179.078L88.3052 170.668C88.4431 170.116 88.2133 169.657 87.7078 169.611L80.5386 168.921C80.079 168.829 79.6194 169.243 79.4816 169.748Z" fill="url(#paint76_linear)"/>
<path d="M199.796 216.808C199.75 218.416 201.726 219.657 204.207 219.657C206.965 219.611 209.722 219.611 212.48 219.657C213.445 219.657 214.364 219.657 215.329 219.657C217.811 219.657 219.741 218.416 219.741 216.808C219.511 205.135 219.281 193.462 219.097 181.789C216.754 182.065 214.456 182.249 212.112 182.294C208.252 182.386 204.391 182.203 200.531 181.743C200.255 193.462 200.025 205.135 199.796 216.808Z" fill="url(#paint77_linear)"/>
<path d="M68.1767 114.435C74.7484 116.411 75.7594 129.141 76.4028 136.954C77.0922 145.778 77.9194 155.566 72.2668 164.344C65.1895 175.419 50.5294 180.796 34.9042 179.28C35.088 178.269 35.2259 177.258 35.4097 176.247C51.4025 170.135 55.7684 163.287 56.8714 158.232C59.2151 147.478 47.726 140.585 50.7132 128.958C52.9651 120.18 62.3861 112.689 68.1767 114.435Z" fill="url(#paint78_linear)"/>
<path d="M45.3791 122.891C48.9178 117.652 52.4105 112.321 55.9032 107.036C56.5925 105.979 56.9602 104.784 57.1899 103.498C58.5686 104.601 59.9014 105.887 61.0962 107.45C64.4051 119.674 67.5301 135.897 67.8518 155.291C68.0816 167.377 65.3242 203.958 63.9915 213.15C63.486 213.242 63.3481 212.001 62.8426 212.093C62.2451 212.231 62.1073 213.288 61.5099 213.425C59.7635 194.859 57.7414 178.131 56.7304 169.491C56.3627 166.55 55.3517 157.818 50.6641 150.741C50.5722 150.649 43.6328 141.136 41.2431 137.322C40.4618 136.081 39.4508 134.426 38.3019 132.22C41.0133 129.417 43.1273 126.2 45.3791 122.891Z" fill="url(#paint79_linear)"/>
<path d="M61.3734 203.361C61.6491 202.718 63.1657 204.326 64.5444 205.981C64.3605 208.37 64.1767 210.76 63.9929 213.196C64.4984 212.874 65.0958 212.552 65.8311 212.369C66.6583 212.185 68.1289 212.461 68.2668 212.874C68.9562 215.356 62.7061 215.907 62.0627 215.126C61.3734 214.345 61.5572 213.426 61.5572 213.426C62.2006 209.841 62.1087 207.405 61.787 205.705C61.5112 204.51 61.1895 203.683 61.3734 203.361Z" fill="url(#paint80_linear)"/>
<path d="M63.9942 213.15C63.4887 213.242 63.3508 212.001 62.8453 212.093C62.2478 212.231 62.11 213.288 61.5126 213.426C60.8692 206.624 60.1798 200.098 59.5364 194.124C61.6504 193.894 63.7644 193.802 65.8784 193.802C65.1891 202.258 64.4997 209.657 63.9942 213.15Z" fill="url(#paint81_linear)"/>
<path opacity="0.25" d="M45.3816 122.891C48.9203 117.652 52.413 112.321 55.9056 107.036C56.595 105.979 56.9626 104.785 57.1924 103.498C58.5711 104.601 59.9038 105.887 61.0987 107.45C63.5344 116.411 65.8322 127.579 67.0271 140.585C63.3965 140.355 59.9498 142.515 58.8928 145.042C56.7788 150.327 63.4425 154.463 63.3506 165.539C63.3046 171.605 61.1447 173.122 62.1098 178.682C62.3855 180.107 63.0748 183.278 62.7531 187.598C62.6153 189.482 62.4774 189.069 62.3395 190.815C62.0178 195.732 63.1668 200.236 62.6612 203.269C62.4774 204.372 62.1098 205.153 61.9719 205.429C61.6042 206.164 61.1447 206.716 60.823 207.038C59.2145 191.045 57.5601 177.074 56.6409 169.445C56.2733 166.504 55.2622 157.772 50.5747 150.695C50.4828 150.603 43.5433 141.09 41.1536 137.276C40.3724 136.035 39.3613 134.38 38.2124 132.175C41.0158 129.417 43.1297 126.2 45.3816 122.891Z" fill="url(#paint82_linear)"/>
<path d="M102.598 124.224L103.379 125.005C103.379 125.005 104.988 126.062 105.769 126.89C106.55 127.717 106.78 128.544 106.091 129.509C105.401 130.474 104.16 129.739 103.103 129.142C102.46 128.774 102.001 127.671 101.679 126.706C101.495 126.062 100.576 124.914 100.576 124.914L102.598 124.224Z" fill="url(#paint83_linear)"/>
<path d="M83.7095 79.3707C88.0294 87.7807 85.1341 91.3653 87.8915 98.1669C90.6489 104.922 94.6471 104.233 100.208 113.884C102.322 117.56 103.563 120.823 104.298 123.075C104.022 123.397 103.655 123.719 103.287 124.04C103.057 124.27 102.69 124.592 102.092 125.005C101.541 125.419 100.621 126.062 99.4266 126.798C95.9799 126.246 90.2353 124.776 86.0992 119.95C85.3639 119.077 84.8584 118.434 84.215 117.331C82.101 113.654 82.147 110.07 77.6432 100.924C74.2425 94.0308 73.691 93.4793 73.3693 90.4002C72.588 82.8634 76.4944 74.6831 79.6653 74.7291C81.3198 74.7751 82.5146 77.0269 83.7095 79.3707Z" fill="url(#paint84_linear)"/>
<path d="M82.1937 77.0269C84.4456 81.117 84.1698 85.2071 83.9401 86.9994C83.1588 92.5602 79.8499 96.3286 79.0227 97.2937C75.1624 102.027 72.9565 112.919 79.8959 139.757C78.2874 140.447 71.5778 147.156 70.5667 142.699C69.188 136.678 66.7064 96.3286 66.7983 143.296C66.7983 143.893 65.5575 143.434 64.9141 143.48C60.3184 143.847 54.9875 143.526 49.2889 141.825C40.4193 139.16 34.4909 134.197 31.4578 131.209C35.502 126.246 40.2815 119.307 44.0499 110.299C51.2191 93.1116 51.0353 77.5324 50.254 68.9385C53.5629 67.8356 63.8571 64.8484 73.6458 69.5819C76.0815 70.7768 79.8499 72.707 82.1937 77.0269Z" fill="url(#paint85_linear)"/>
<path d="M3.28556 111.632L66.1539 136.954C67.8084 137.597 69.6466 136.816 70.29 135.162L84.5365 99.4077C85.1799 97.7533 84.3986 95.915 82.7442 95.2716L19.8299 69.9496C18.1754 69.3063 16.3372 70.0875 15.6938 71.7419L1.4473 107.496C0.849869 109.105 1.63113 110.943 3.28556 111.632Z" fill="#EA645E"/>
<path d="M2.09163 112L65.006 137.322C66.6604 137.965 68.4987 137.184 69.1421 135.529L83.3886 99.7754C84.0319 98.121 83.2507 96.2827 81.5962 95.6393L18.6819 70.3173C17.0275 69.6739 15.1892 70.4552 14.5458 72.1096L0.299347 107.864C-0.34404 109.472 0.437202 111.356 2.09163 112Z" fill="url(#paint86_linear)"/>
<path d="M55.9037 103.636C52.503 103.682 49.4239 106.531 49.0103 109.978C48.9184 110.943 49.0103 111.862 49.332 112.689L41.7492 116.182C41.1058 114.344 40.876 112.276 41.1058 110.116C42.0249 102.257 49.0562 95.6853 56.8688 95.5474H56.9148L55.9957 103.682C55.9497 103.636 55.9037 103.636 55.9037 103.636Z" fill="white"/>
<path d="M49.2867 112.689C50.022 114.757 51.9982 116.228 54.4339 116.182C57.8346 116.136 60.9597 113.287 61.3733 109.84C61.7869 106.393 59.3512 103.636 55.9504 103.682L56.8695 95.5473C64.7281 95.4095 70.3807 101.751 69.4616 109.702C68.5425 117.698 61.3733 124.224 53.5147 124.27C47.8621 124.316 43.4043 121.007 41.7039 116.182L49.2867 112.689Z" fill="#FFC244"/>
<path d="M10.9144 91.871L37.1555 102.625C37.2934 102.671 37.4313 102.625 37.4772 102.487L38.4883 100.005C38.5342 99.8675 38.4883 99.7296 38.3504 99.6836L12.1093 88.9758C11.9714 88.9298 11.8335 88.9758 11.7876 89.1137L10.7765 91.5953C10.7306 91.6872 10.7765 91.8251 10.9144 91.871Z" fill="#4C53A5"/>
<path d="M13.1196 86.5859L39.3607 97.3398C39.4986 97.3857 39.6365 97.3398 39.6824 97.2019L40.6935 94.7202C40.7394 94.5824 40.6935 94.4445 40.5556 94.3985L14.3145 83.6907C14.1766 83.6447 14.0387 83.6907 13.9928 83.8286L12.9817 86.3102C12.9358 86.3562 12.9817 86.54 13.1196 86.5859Z" fill="#4C53A5"/>
<path d="M6.59373 102.809L32.8348 113.562C32.9727 113.608 33.1106 113.562 33.1565 113.424L34.1676 110.943C34.2135 110.805 34.1676 110.667 34.0297 110.621L7.78859 99.9133C7.65072 99.8673 7.51284 99.9133 7.46689 100.051L6.45584 102.533C6.40988 102.625 6.45586 102.763 6.59373 102.809Z" fill="#4C53A5"/>
<path d="M8.79893 97.5238L35.04 108.278C35.1779 108.324 35.3158 108.278 35.3617 108.14L36.3728 105.658C36.4187 105.52 36.3728 105.382 36.2349 105.336L9.99378 94.6285C9.85591 94.5825 9.71804 94.6285 9.67208 94.7664L8.66106 97.248C8.61511 97.3399 8.66106 97.4778 8.79893 97.5238Z" fill="#4C53A5"/>
<path d="M36.1442 120.686L36.4659 121.743C36.4659 121.743 37.385 123.443 37.7067 124.546C38.0284 125.649 37.7986 126.476 36.7875 126.982C35.7305 127.487 34.9952 126.292 34.3059 125.235C33.8923 124.592 33.9842 123.397 34.168 122.432C34.3059 121.743 33.9842 120.318 33.9842 120.318L36.1442 120.686Z" fill="url(#paint87_linear)"/>
<path d="M59.3998 69.9956C57.3317 67.1003 50.76 68.8007 49.9328 69.0305C43.5908 70.7309 39.8683 75.4184 34.4454 82.3579C30.2634 87.7348 28.1494 90.4002 27.0465 94.6742C25.3001 101.384 26.8626 107.174 27.5979 110.116C28.9307 115.263 31.1366 118.893 32.6531 121.007C33.3884 121.145 34.3076 121.283 35.3186 121.283C36.2378 121.283 37.065 121.191 37.8003 121.099C39.1789 118.847 41.0172 115.263 41.9363 110.575C42.4878 107.634 42.3499 106.025 42.5338 101.843C42.9014 93.2955 43.0393 89.0215 44.1882 86.9075C47.9107 80.0141 56.7343 82.4498 59.3998 75.4184C59.4917 74.775 60.7325 71.8338 59.3998 69.9956Z" fill="url(#paint88_linear)"/>
<path d="M35.4083 176.247C39.3146 174.776 42.5316 173.214 45.1511 171.697C45.8864 174.041 46.254 176.615 46.2081 179.188C42.5775 179.648 38.7631 179.694 34.9028 179.28C35.0866 178.269 35.2704 177.258 35.4083 176.247Z" fill="url(#paint89_linear)"/>
<path d="M35.7782 176.844L35.4105 176.247C35.4105 176.247 34.7671 175.879 34.4914 176.661C34.2157 177.442 32.5153 181.486 32.4234 183.324C32.8829 184.427 34.1238 183.508 34.3535 182.727C34.6293 181.991 35.5024 179.188 35.5024 179.188L35.7782 176.844Z" fill="url(#paint90_linear)"/>
<path d="M64.9603 30.611C64.179 30.9786 61.6514 32.2195 59.1238 34.793C55.9068 38.1478 54.712 41.7324 54.4822 42.5137C54.0226 43.9843 52.4141 49.2233 54.5741 53.9568C58.1127 61.7235 69.9235 64.343 69.8776 64.4809C69.8776 64.5268 69.464 64.389 69.464 64.2511C69.418 63.7915 73.1864 63.7456 76.3115 62.5507C79.3446 61.4018 80.9531 59.3797 84.4917 55.5194C87.7087 51.9807 89.3631 50.1884 89.9605 47.9825C91.5231 42.4677 88.3061 36.0339 83.8943 32.4952C79.2067 28.7268 73.7839 28.8646 72.2673 28.9106C68.7746 29.0025 66.1092 30.0595 64.9603 30.611Z" fill="#26264F"/>
<path d="M68.9578 60.758C68.9578 61.6311 68.9119 66.2727 66.8439 67.008C66.3843 67.1919 66.0166 67.054 64.0405 67.0999C62.8916 67.1459 61.9725 67.1919 61.375 67.2378C61.4669 68.0191 61.6967 69.0761 62.1103 70.2709C64.6839 77.4861 73.002 82.4953 75.8054 80.703C77.276 79.7839 77.3679 76.9346 77.4138 75.7857C77.5057 74.0394 77.0462 72.6147 76.7704 71.8335C75.7594 71.0982 74.7024 70.3169 73.5994 69.5816C72.9101 69.0761 72.1748 68.6165 71.4854 68.157C71.5314 67.2838 71.5774 66.3646 71.6233 65.4915C70.7502 63.929 69.831 62.3664 68.9578 60.758Z" fill="url(#paint91_linear)"/>
<path d="M68.038 62.4585C68.038 62.4585 68.038 66.2729 71.0711 67.5137C73.7825 68.6167 77.3671 62.2287 76.3101 60.1147C75.9425 59.4254 74.8855 58.5982 73.8285 58.4144C73.0932 58.2765 70.0601 58.2765 69.1869 60.6662C68.9111 59.9309 68.4056 59.4254 67.9001 59.4254C67.8082 59.4254 67.5784 59.4714 67.3946 59.6092C66.7053 60.1147 66.8891 61.3096 68.038 62.4585Z" fill="url(#paint92_linear)"/>
<defs>
<linearGradient id="paint0_linear" x1="164.177" y1="164.414" x2="201.152" y2="-3.31318" gradientUnits="userSpaceOnUse">
<stop stop-color="#24ABB5"/>
<stop offset="1" stop-color="#40CF9F"/>
</linearGradient>
<linearGradient id="paint1_linear" x1="235.835" y1="44.3432" x2="59.9221" y2="118.194" gradientUnits="userSpaceOnUse">
<stop stop-color="#24ABB5"/>
<stop offset="1" stop-color="#40CF9F"/>
</linearGradient>
<linearGradient id="paint2_linear" x1="-34.4014" y1="145.118" x2="124.086" y2="50.938" gradientUnits="userSpaceOnUse">
<stop stop-color="#FCB148"/>
<stop offset="0.0520724" stop-color="#FDBA46"/>
<stop offset="0.1424" stop-color="#FFC244"/>
<stop offset="0.3183" stop-color="#FFC444"/>
<stop offset="0.4849" stop-color="#FDB946"/>
<stop offset="0.7754" stop-color="#F99C4D"/>
<stop offset="0.8658" stop-color="#F8924F"/>
<stop offset="1" stop-color="#F8924F"/>
</linearGradient>
<linearGradient id="paint3_linear" x1="-16.3257" y1="175.534" x2="142.162" y2="81.3543" gradientUnits="userSpaceOnUse">
<stop stop-color="#FCB148"/>
<stop offset="0.0520724" stop-color="#FDBA46"/>
<stop offset="0.1424" stop-color="#FFC244"/>
<stop offset="0.3183" stop-color="#FFC444"/>
<stop offset="0.4849" stop-color="#FDB946"/>
<stop offset="0.7754" stop-color="#F99C4D"/>
<stop offset="0.8658" stop-color="#F8924F"/>
<stop offset="1" stop-color="#F8924F"/>
</linearGradient>
<linearGradient id="paint4_linear" x1="183.126" y1="29.5404" x2="-51.7014" y2="127.869" gradientUnits="userSpaceOnUse">
<stop stop-color="#FCB148"/>
<stop offset="0.0520724" stop-color="#FDBA46"/>
<stop offset="0.1424" stop-color="#FFC244"/>
<stop offset="0.3183" stop-color="#FFC444"/>
<stop offset="0.4849" stop-color="#FDB946"/>
<stop offset="0.7754" stop-color="#F99C4D"/>
<stop offset="0.8658" stop-color="#F8924F"/>
<stop offset="1" stop-color="#F8924F"/>
</linearGradient>
<linearGradient id="paint5_linear" x1="1.00332" y1="204.697" x2="159.491" y2="110.517" gradientUnits="userSpaceOnUse">
<stop stop-color="#FCB148"/>
<stop offset="0.0520724" stop-color="#FDBA46"/>
<stop offset="0.1424" stop-color="#FFC244"/>
<stop offset="0.3183" stop-color="#FFC444"/>
<stop offset="0.4849" stop-color="#FDB946"/>
<stop offset="0.7754" stop-color="#F99C4D"/>
<stop offset="0.8658" stop-color="#F8924F"/>
<stop offset="1" stop-color="#F8924F"/>
</linearGradient>
<linearGradient id="paint6_linear" x1="208.945" y1="91.2014" x2="-25.8827" y2="189.53" gradientUnits="userSpaceOnUse">
<stop stop-color="#FCB148"/>
<stop offset="0.0520724" stop-color="#FDBA46"/>
<stop offset="0.1424" stop-color="#FFC244"/>
<stop offset="0.3183" stop-color="#FFC444"/>
<stop offset="0.4849" stop-color="#FDB946"/>
<stop offset="0.7754" stop-color="#F99C4D"/>
<stop offset="0.8658" stop-color="#F8924F"/>
<stop offset="1" stop-color="#F8924F"/>
</linearGradient>
<linearGradient id="paint7_linear" x1="27.9136" y1="249.983" x2="186.401" y2="155.803" gradientUnits="userSpaceOnUse">
<stop stop-color="#FCB148"/>
<stop offset="0.0520724" stop-color="#FDBA46"/>
<stop offset="0.1424" stop-color="#FFC244"/>
<stop offset="0.3183" stop-color="#FFC444"/>
<stop offset="0.4849" stop-color="#FDB946"/>
<stop offset="0.7754" stop-color="#F99C4D"/>
<stop offset="0.8658" stop-color="#F8924F"/>
<stop offset="1" stop-color="#F8924F"/>
</linearGradient>
<linearGradient id="paint8_linear" x1="226.863" y1="134.148" x2="-7.9641" y2="232.476" gradientUnits="userSpaceOnUse">
<stop stop-color="#FCB148"/>
<stop offset="0.0520724" stop-color="#FDBA46"/>
<stop offset="0.1424" stop-color="#FFC244"/>
<stop offset="0.3183" stop-color="#FFC444"/>
<stop offset="0.4849" stop-color="#FDB946"/>
<stop offset="0.7754" stop-color="#F99C4D"/>
<stop offset="0.8658" stop-color="#F8924F"/>
<stop offset="1" stop-color="#F8924F"/>
</linearGradient>
<linearGradient id="paint9_linear" x1="123.801" y1="167.644" x2="128.598" y2="224.365" gradientUnits="userSpaceOnUse">
<stop stop-color="#EBEFF2"/>
<stop offset="0.4737" stop-color="#D2D9E1"/>
<stop offset="0.9946" stop-color="#B7C0CE"/>
</linearGradient>
<linearGradient id="paint10_linear" x1="125.496" y1="192.807" x2="127.612" y2="187.002" gradientUnits="userSpaceOnUse">
<stop stop-color="#EBEFF2"/>
<stop offset="0.4737" stop-color="#D2D9E1"/>
<stop offset="0.9946" stop-color="#B7C0CE"/>
</linearGradient>
<linearGradient id="paint11_linear" x1="94.635" y1="120.398" x2="180.203" y2="188.759" gradientUnits="userSpaceOnUse">
<stop stop-color="#EBEFF2"/>
<stop offset="0.4737" stop-color="#D2D9E1"/>
<stop offset="0.9946" stop-color="#B7C0CE"/>
</linearGradient>
<linearGradient id="paint12_linear" x1="183.025" y1="159.075" x2="74.4396" y2="159.075" gradientUnits="userSpaceOnUse">
<stop stop-color="#EBEFF2"/>
<stop offset="0.4737" stop-color="#D2D9E1"/>
<stop offset="0.9946" stop-color="#B7C0CE"/>
</linearGradient>
<linearGradient id="paint13_linear" x1="96.5428" y1="65.5232" x2="187.413" y2="138.12" gradientUnits="userSpaceOnUse">
<stop stop-color="#AA80F9"/>
<stop offset="0.9964" stop-color="#6165D7"/>
</linearGradient>
<linearGradient id="paint14_linear" x1="87.4932" y1="71.5833" x2="180.513" y2="145.898" gradientUnits="userSpaceOnUse">
<stop stop-color="#AA80F9"/>
<stop offset="0.9964" stop-color="#6165D7"/>
</linearGradient>
<linearGradient id="paint15_linear" x1="78.0703" y1="77.668" x2="173.32" y2="153.764" gradientUnits="userSpaceOnUse">
<stop stop-color="#AA80F9"/>
<stop offset="0.9964" stop-color="#6165D7"/>
</linearGradient>
<linearGradient id="paint16_linear" x1="68.255" y1="83.7742" x2="165.818" y2="161.718" gradientUnits="userSpaceOnUse">
<stop stop-color="#AA80F9"/>
<stop offset="0.9964" stop-color="#6165D7"/>
</linearGradient>
<linearGradient id="paint17_linear" x1="58.0255" y1="89.8965" x2="157.99" y2="169.759" gradientUnits="userSpaceOnUse">
<stop stop-color="#AA80F9"/>
<stop offset="0.9964" stop-color="#6165D7"/>
</linearGradient>
<linearGradient id="paint18_linear" x1="93.674" y1="73.4806" x2="181.307" y2="143.492" gradientUnits="userSpaceOnUse">
<stop stop-color="#AA80F9"/>
<stop offset="0.9964" stop-color="#6165D7"/>
</linearGradient>
<linearGradient id="paint19_linear" x1="84.9541" y1="79.7147" x2="174.624" y2="151.353" gradientUnits="userSpaceOnUse">
<stop stop-color="#AA80F9"/>
<stop offset="0.9964" stop-color="#6165D7"/>
</linearGradient>
<linearGradient id="paint20_linear" x1="75.8849" y1="85.9837" x2="167.666" y2="159.309" gradientUnits="userSpaceOnUse">
<stop stop-color="#AA80F9"/>
<stop offset="0.9964" stop-color="#6165D7"/>
</linearGradient>
<linearGradient id="paint21_linear" x1="66.4488" y1="92.2853" x2="160.419" y2="167.359" gradientUnits="userSpaceOnUse">
<stop stop-color="#AA80F9"/>
<stop offset="0.9964" stop-color="#6165D7"/>
</linearGradient>
<linearGradient id="paint22_linear" x1="56.6214" y1="98.6154" x2="152.862" y2="175.503" gradientUnits="userSpaceOnUse">
<stop stop-color="#AA80F9"/>
<stop offset="0.9964" stop-color="#6165D7"/>
</linearGradient>
<linearGradient id="paint23_linear" x1="90.693" y1="81.0187" x2="175.045" y2="148.409" gradientUnits="userSpaceOnUse">
<stop stop-color="#AA80F9"/>
<stop offset="0.9964" stop-color="#6165D7"/>
</linearGradient>
<linearGradient id="paint24_linear" x1="82.2777" y1="87.408" x2="168.58" y2="156.356" gradientUnits="userSpaceOnUse">
<stop stop-color="#AA80F9"/>
<stop offset="0.9964" stop-color="#6165D7"/>
</linearGradient>
<linearGradient id="paint25_linear" x1="73.555" y1="93.8617" x2="161.845" y2="164.398" gradientUnits="userSpaceOnUse">
<stop stop-color="#AA80F9"/>
<stop offset="0.9964" stop-color="#6165D7"/>
</linearGradient>
<linearGradient id="paint26_linear" x1="64.4722" y1="100.333" x2="154.846" y2="172.534" gradientUnits="userSpaceOnUse">
<stop stop-color="#AA80F9"/>
<stop offset="0.9964" stop-color="#6165D7"/>
</linearGradient>
<linearGradient id="paint27_linear" x1="55.0318" y1="106.857" x2="147.553" y2="180.773" gradientUnits="userSpaceOnUse">
<stop stop-color="#AA80F9"/>
<stop offset="0.9964" stop-color="#6165D7"/>
</linearGradient>
<linearGradient id="paint28_linear" x1="87.6067" y1="88.1481" x2="168.634" y2="152.882" gradientUnits="userSpaceOnUse">
<stop stop-color="#AA80F9"/>
<stop offset="0.9964" stop-color="#6165D7"/>
</linearGradient>
<linearGradient id="paint29_linear" x1="79.5192" y1="94.702" x2="162.375" y2="160.896" gradientUnits="userSpaceOnUse">
<stop stop-color="#AA80F9"/>
<stop offset="0.9964" stop-color="#6165D7"/>
</linearGradient>
<linearGradient id="paint30_linear" x1="71.1204" y1="101.309" x2="155.869" y2="169.015" gradientUnits="userSpaceOnUse">
<stop stop-color="#AA80F9"/>
<stop offset="0.9964" stop-color="#6165D7"/>
</linearGradient>
<linearGradient id="paint31_linear" x1="62.3419" y1="107.921" x2="149.119" y2="177.248" gradientUnits="userSpaceOnUse">
<stop stop-color="#AA80F9"/>
<stop offset="0.9964" stop-color="#6165D7"/>
</linearGradient>
<linearGradient id="paint32_linear" x1="53.2703" y1="114.624" x2="142.079" y2="185.574" gradientUnits="userSpaceOnUse">
<stop stop-color="#AA80F9"/>
<stop offset="0.9964" stop-color="#6165D7"/>
</linearGradient>
<linearGradient id="paint33_linear" x1="83.4057" y1="93.9806" x2="162.984" y2="157.556" gradientUnits="userSpaceOnUse">
<stop stop-color="#AA80F9"/>
<stop offset="0.9964" stop-color="#6165D7"/>
</linearGradient>
<linearGradient id="paint34_linear" x1="75.499" y1="100.58" x2="156.823" y2="165.55" gradientUnits="userSpaceOnUse">
<stop stop-color="#AA80F9"/>
<stop offset="0.9964" stop-color="#6165D7"/>
</linearGradient>
<linearGradient id="paint35_linear" x1="67.299" y1="107.237" x2="150.429" y2="173.65" gradientUnits="userSpaceOnUse">
<stop stop-color="#AA80F9"/>
<stop offset="0.9964" stop-color="#6165D7"/>
</linearGradient>
<linearGradient id="paint36_linear" x1="58.9705" y1="114.107" x2="143.728" y2="181.821" gradientUnits="userSpaceOnUse">
<stop stop-color="#AA80F9"/>
<stop offset="0.9964" stop-color="#6165D7"/>
</linearGradient>
<linearGradient id="paint37_linear" x1="49.9855" y1="120.748" x2="136.88" y2="190.169" gradientUnits="userSpaceOnUse">
<stop stop-color="#AA80F9"/>
<stop offset="0.9964" stop-color="#6165D7"/>
</linearGradient>
<linearGradient id="paint38_linear" x1="80.2673" y1="100.385" x2="156.454" y2="161.251" gradientUnits="userSpaceOnUse">
<stop stop-color="#AA80F9"/>
<stop offset="0.9964" stop-color="#6165D7"/>
</linearGradient>
<linearGradient id="paint39_linear" x1="72.6558" y1="107.125" x2="150.497" y2="169.313" gradientUnits="userSpaceOnUse">
<stop stop-color="#AA80F9"/>
<stop offset="0.9964" stop-color="#6165D7"/>
</linearGradient>
<linearGradient id="paint40_linear" x1="64.7668" y1="113.93" x2="144.318" y2="177.484" gradientUnits="userSpaceOnUse">
<stop stop-color="#AA80F9"/>
<stop offset="0.9964" stop-color="#6165D7"/>
</linearGradient>
<linearGradient id="paint41_linear" x1="56.564" y1="120.794" x2="137.914" y2="185.785" gradientUnits="userSpaceOnUse">
<stop stop-color="#AA80F9"/>
<stop offset="0.9964" stop-color="#6165D7"/>
</linearGradient>
<linearGradient id="paint42_linear" x1="48.0817" y1="127.728" x2="131.256" y2="194.177" gradientUnits="userSpaceOnUse">
<stop stop-color="#AA80F9"/>
<stop offset="0.9964" stop-color="#6165D7"/>
</linearGradient>
<linearGradient id="paint43_linear" x1="76.416" y1="106.014" x2="150.165" y2="164.933" gradientUnits="userSpaceOnUse">
<stop stop-color="#AA80F9"/>
<stop offset="0.9964" stop-color="#6165D7"/>
</linearGradient>
<linearGradient id="paint44_linear" x1="69.0307" y1="112.837" x2="144.354" y2="173.014" gradientUnits="userSpaceOnUse">
<stop stop-color="#AA80F9"/>
<stop offset="0.9964" stop-color="#6165D7"/>
</linearGradient>
<linearGradient id="paint45_linear" x1="61.3774" y1="119.731" x2="138.328" y2="181.207" gradientUnits="userSpaceOnUse">
<stop stop-color="#AA80F9"/>
<stop offset="0.9964" stop-color="#6165D7"/>
</linearGradient>
<linearGradient id="paint46_linear" x1="53.4438" y1="126.676" x2="132.094" y2="189.511" gradientUnits="userSpaceOnUse">
<stop stop-color="#AA80F9"/>
<stop offset="0.9964" stop-color="#6165D7"/>
</linearGradient>
<linearGradient id="paint47_linear" x1="45.2256" y1="133.708" x2="125.616" y2="197.932" gradientUnits="userSpaceOnUse">
<stop stop-color="#AA80F9"/>
<stop offset="0.9964" stop-color="#6165D7"/>
</linearGradient>
<linearGradient id="paint48_linear" x1="72.6341" y1="111.338" x2="143.921" y2="168.29" gradientUnits="userSpaceOnUse">
<stop stop-color="#AA80F9"/>
<stop offset="0.9964" stop-color="#6165D7"/>
</linearGradient>
<linearGradient id="paint49_linear" x1="65.4651" y1="118.239" x2="138.25" y2="176.387" gradientUnits="userSpaceOnUse">
<stop stop-color="#AA80F9"/>
<stop offset="0.9964" stop-color="#6165D7"/>
</linearGradient>
<linearGradient id="paint50_linear" x1="58.0465" y1="125.214" x2="132.379" y2="184.599" gradientUnits="userSpaceOnUse">
<stop stop-color="#AA80F9"/>
<stop offset="0.9964" stop-color="#6165D7"/>
</linearGradient>
<linearGradient id="paint51_linear" x1="50.3721" y1="132.247" x2="126.312" y2="192.916" gradientUnits="userSpaceOnUse">
<stop stop-color="#AA80F9"/>
<stop offset="0.9964" stop-color="#6165D7"/>
</linearGradient>
<linearGradient id="paint52_linear" x1="42.4005" y1="139.368" x2="120.014" y2="201.374" gradientUnits="userSpaceOnUse">
<stop stop-color="#AA80F9"/>
<stop offset="0.9964" stop-color="#6165D7"/>
</linearGradient>
<linearGradient id="paint53_linear" x1="168.907" y1="127.985" x2="178.877" y2="135.95" gradientUnits="userSpaceOnUse">
<stop stop-color="#AA80F9"/>
<stop offset="0.9964" stop-color="#6165D7"/>
</linearGradient>
<linearGradient id="paint54_linear" x1="166.488" y1="139.768" x2="177.22" y2="148.343" gradientUnits="userSpaceOnUse">
<stop stop-color="#AA80F9"/>
<stop offset="0.9964" stop-color="#6165D7"/>
</linearGradient>
<linearGradient id="paint55_linear" x1="164.518" y1="152.286" x2="175.507" y2="161.066" gradientUnits="userSpaceOnUse">
<stop stop-color="#AA80F9"/>
<stop offset="0.9964" stop-color="#6165D7"/>
</linearGradient>
<linearGradient id="paint56_linear" x1="162.496" y1="165.119" x2="173.753" y2="174.112" gradientUnits="userSpaceOnUse">
<stop stop-color="#AA80F9"/>
<stop offset="0.9964" stop-color="#6165D7"/>
</linearGradient>
<linearGradient id="paint57_linear" x1="160.421" y1="178.281" x2="171.955" y2="187.495" gradientUnits="userSpaceOnUse">
<stop stop-color="#AA80F9"/>
<stop offset="0.9964" stop-color="#6165D7"/>
</linearGradient>
<linearGradient id="paint58_linear" x1="160.643" y1="132.187" x2="165.525" y2="136.087" gradientUnits="userSpaceOnUse">
<stop stop-color="#AA80F9"/>
<stop offset="0.9964" stop-color="#6165D7"/>
</linearGradient>
<linearGradient id="paint59_linear" x1="154.191" y1="139.473" x2="164.303" y2="147.552" gradientUnits="userSpaceOnUse">
<stop stop-color="#AA80F9"/>
<stop offset="0.9964" stop-color="#6165D7"/>
</linearGradient>
<linearGradient id="paint60_linear" x1="151.875" y1="151.574" x2="162.464" y2="160.034" gradientUnits="userSpaceOnUse">
<stop stop-color="#AA80F9"/>
<stop offset="0.9964" stop-color="#6165D7"/>
</linearGradient>
<linearGradient id="paint61_linear" x1="149.733" y1="164.174" x2="160.575" y2="172.836" gradientUnits="userSpaceOnUse">
<stop stop-color="#AA80F9"/>
<stop offset="0.9964" stop-color="#6165D7"/>
</linearGradient>
<linearGradient id="paint62_linear" x1="147.539" y1="177.09" x2="158.642" y2="185.961" gradientUnits="userSpaceOnUse">
<stop stop-color="#AA80F9"/>
<stop offset="0.9964" stop-color="#6165D7"/>
</linearGradient>
<linearGradient id="paint63_linear" x1="149.397" y1="144.978" x2="151.716" y2="146.831" gradientUnits="userSpaceOnUse">
<stop stop-color="#AA80F9"/>
<stop offset="0.9964" stop-color="#6165D7"/>
</linearGradient>
<linearGradient id="paint64_linear" x1="142.937" y1="153.756" x2="149.7" y2="159.159" gradientUnits="userSpaceOnUse">
<stop stop-color="#AA80F9"/>
<stop offset="0.9964" stop-color="#6165D7"/>
</linearGradient>
<linearGradient id="paint65_linear" x1="137.373" y1="163.257" x2="147.8" y2="171.588" gradientUnits="userSpaceOnUse">
<stop stop-color="#AA80F9"/>
<stop offset="0.9964" stop-color="#6165D7"/>
</linearGradient>
<linearGradient id="paint66_linear" x1="135.065" y1="175.937" x2="145.74" y2="184.466" gradientUnits="userSpaceOnUse">
<stop stop-color="#AA80F9"/>
<stop offset="0.9964" stop-color="#6165D7"/>
</linearGradient>
<linearGradient id="paint67_linear" x1="125.814" y1="162.704" x2="135.43" y2="170.386" gradientUnits="userSpaceOnUse">
<stop stop-color="#AA80F9"/>
<stop offset="0.9964" stop-color="#6165D7"/>
</linearGradient>
<linearGradient id="paint68_linear" x1="123.019" y1="174.827" x2="133.265" y2="183.013" gradientUnits="userSpaceOnUse">
<stop stop-color="#AA80F9"/>
<stop offset="0.9964" stop-color="#6165D7"/>
</linearGradient>
<linearGradient id="paint69_linear" x1="113.539" y1="161.974" x2="123.253" y2="169.735" gradientUnits="userSpaceOnUse">
<stop stop-color="#AA80F9"/>
<stop offset="0.9964" stop-color="#6165D7"/>
</linearGradient>
<linearGradient id="paint70_linear" x1="111.308" y1="173.679" x2="121.333" y2="181.689" gradientUnits="userSpaceOnUse">
<stop stop-color="#AA80F9"/>
<stop offset="0.9964" stop-color="#6165D7"/>
</linearGradient>
<linearGradient id="paint71_linear" x1="102.691" y1="160.724" x2="112.077" y2="168.223" gradientUnits="userSpaceOnUse">
<stop stop-color="#AA80F9"/>
<stop offset="0.9964" stop-color="#6165D7"/>
</linearGradient>
<linearGradient id="paint72_linear" x1="100.153" y1="172.674" x2="109.75" y2="180.341" gradientUnits="userSpaceOnUse">
<stop stop-color="#AA80F9"/>
<stop offset="0.9964" stop-color="#6165D7"/>
</linearGradient>
<linearGradient id="paint73_linear" x1="91.829" y1="159.808" x2="100.903" y2="167.058" gradientUnits="userSpaceOnUse">
<stop stop-color="#AA80F9"/>
<stop offset="0.9964" stop-color="#6165D7"/>
</linearGradient>
<linearGradient id="paint74_linear" x1="89.1521" y1="171.623" x2="98.4272" y2="179.033" gradientUnits="userSpaceOnUse">
<stop stop-color="#AA80F9"/>
<stop offset="0.9964" stop-color="#6165D7"/>
</linearGradient>
<linearGradient id="paint75_linear" x1="83.6822" y1="161.15" x2="90.0014" y2="166.198" gradientUnits="userSpaceOnUse">
<stop stop-color="#AA80F9"/>
<stop offset="0.9964" stop-color="#6165D7"/>
</linearGradient>
<linearGradient id="paint76_linear" x1="78.6278" y1="170.637" x2="87.5826" y2="177.791" gradientUnits="userSpaceOnUse">
<stop stop-color="#AA80F9"/>
<stop offset="0.9964" stop-color="#6165D7"/>
</linearGradient>
<linearGradient id="paint77_linear" x1="209.004" y1="188.556" x2="211.938" y2="263.505" gradientUnits="userSpaceOnUse">
<stop stop-color="#FF9085"/>
<stop offset="1" stop-color="#FB6FBB"/>
</linearGradient>
<linearGradient id="paint78_linear" x1="19.1138" y1="193.007" x2="72.7098" y2="132.634" gradientUnits="userSpaceOnUse">
<stop stop-color="#40447E"/>
<stop offset="0.9964" stop-color="#1C2C5A"/>
</linearGradient>
<linearGradient id="paint79_linear" x1="69.6505" y1="136.312" x2="52.0276" y2="170.965" gradientUnits="userSpaceOnUse">
<stop stop-color="#40447E"/>
<stop offset="0.9964" stop-color="#3C3B6B"/>
</linearGradient>
<linearGradient id="paint80_linear" x1="66.7656" y1="196.525" x2="60.9317" y2="231.936" gradientUnits="userSpaceOnUse">
<stop stop-color="#AB316D"/>
<stop offset="1" stop-color="#792D3D"/>
</linearGradient>
<linearGradient id="paint81_linear" x1="63.0347" y1="195.857" x2="57.163" y2="231.497" gradientUnits="userSpaceOnUse">
<stop stop-color="#AB316D"/>
<stop offset="1" stop-color="#792D3D"/>
</linearGradient>
<linearGradient id="paint82_linear" x1="61.6971" y1="130.013" x2="50.433" y2="168.186" gradientUnits="userSpaceOnUse">
<stop stop-color="#40447E"/>
<stop offset="0.9964" stop-color="#3C3B6B"/>
</linearGradient>
<linearGradient id="paint83_linear" x1="106.315" y1="129.194" x2="96.6346" y2="122.202" gradientUnits="userSpaceOnUse">
<stop stop-color="#311944"/>
<stop offset="1" stop-color="#A03976"/>
</linearGradient>
<linearGradient id="paint84_linear" x1="104.158" y1="96.8763" x2="83.0923" y2="102.43" gradientUnits="userSpaceOnUse">
<stop stop-color="#AA80F9"/>
<stop offset="0.9964" stop-color="#6165D7"/>
</linearGradient>
<linearGradient id="paint85_linear" x1="75.3529" y1="98.5423" x2="8.6885" y2="138.015" gradientUnits="userSpaceOnUse">
<stop stop-color="#AA80F9"/>
<stop offset="0.9964" stop-color="#6165D7"/>
</linearGradient>
<linearGradient id="paint86_linear" x1="83.6034" y1="103.828" x2="0.0878567" y2="103.828" gradientUnits="userSpaceOnUse">
<stop stop-color="#FF9085"/>
<stop offset="1" stop-color="#FB6FBB"/>
</linearGradient>
<linearGradient id="paint87_linear" x1="37.1507" y1="126.802" x2="31.8046" y2="116.124" gradientUnits="userSpaceOnUse">
<stop stop-color="#311944"/>
<stop offset="1" stop-color="#A03976"/>
</linearGradient>
<linearGradient id="paint88_linear" x1="52.3822" y1="81.9386" x2="20.2234" y2="112.717" gradientUnits="userSpaceOnUse">
<stop stop-color="#AA80F9"/>
<stop offset="0.9964" stop-color="#6165D7"/>
</linearGradient>
<linearGradient id="paint89_linear" x1="55.6374" y1="167.624" x2="24.5914" y2="188.742" gradientUnits="userSpaceOnUse">
<stop stop-color="#AB316D"/>
<stop offset="1" stop-color="#792D3D"/>
</linearGradient>
<linearGradient id="paint90_linear" x1="54.5912" y1="166.082" x2="23.545" y2="187.201" gradientUnits="userSpaceOnUse">
<stop stop-color="#AB316D"/>
<stop offset="1" stop-color="#792D3D"/>
</linearGradient>
<linearGradient id="paint91_linear" x1="64.1145" y1="84.3875" x2="76.6586" y2="56.6263" gradientUnits="userSpaceOnUse">
<stop stop-color="#311944"/>
<stop offset="1" stop-color="#893976"/>
</linearGradient>
<linearGradient id="paint92_linear" x1="68.195" y1="81.3347" x2="71.1883" y2="64.1442" gradientUnits="userSpaceOnUse">
<stop stop-color="#311944"/>
<stop offset="1" stop-color="#A03976"/>
</linearGradient>
</defs>
</svg>
