<svg width="215" height="203" viewBox="0 0 215 203" fill="none" xmlns="http://www.w3.org/2000/svg">
<path opacity="0.3" d="M71.2407 -5.08493C61.2681 8.88582 72.5274 31.7721 57.8673 42.2042C43.5749 52.3606 26.3412 35.3108 12.876 43.9965C-7.06906 56.9103 -4.08191 117.067 24.503 154.751C33.0968 166.057 40.358 170.515 43.437 183.244C50.0548 210.589 25.56 226.581 30.0637 240.093C40.1741 270.562 200.332 297.768 265.682 207.142C296.197 164.816 301.344 103.28 274.965 56.2209C227.263 -28.7525 93.5755 -36.3813 71.2407 -5.08493Z" fill="#F4F7FA"/>
<path d="M175.365 75.9925C181.99 69.7782 190.718 59.6342 194.693 45.3321C199.857 26.552 192.226 17.0934 193.048 -14.6637C193.551 -34.7232 194.145 -48.7512 204.243 -56.2449C212.148 -62.1394 224.988 -63.3274 232.802 -57.8899C239.29 -53.3662 243.037 -43.7705 244.179 -36.8708C245.139 -31.2505 244.362 -27.2295 247.606 -24.2594C250.896 -21.2436 254.46 -22.9799 257.568 -20.741C263.828 -16.2173 260.218 -1.22977 259.624 1.192C253.135 28.1512 228.324 46.383 217.403 54.1966C208.401 60.6394 194.419 69.2755 175.365 75.9925Z" fill="url(#paint0_linear)"/>
<g opacity="0.5">
<path opacity="0.5" d="M167.78 81.0645L167.505 80.3791C179.02 75.9926 188.936 70.7378 196.932 64.8433C208.767 56.1158 216.078 46.1089 218.774 35.0967C220.876 26.4606 220.099 17.5504 219.048 5.1674C218.225 -4.70242 216.718 -11.6479 215.392 -17.7251C213.656 -25.7215 212.331 -32.0272 213.245 -41.2116C214.204 -50.5331 217.22 -59.7633 222.338 -68.6735L222.932 -68.308C217.906 -59.4434 214.89 -50.3047 213.93 -41.1203C213.016 -32.0729 214.341 -25.8129 216.078 -17.8622C217.403 -11.7392 218.865 -4.79381 219.733 5.12171C220.739 17.0934 221.561 26.552 219.413 35.2795C216.672 46.4288 209.269 56.5727 197.298 65.4373C189.347 71.3775 179.386 76.6323 167.78 81.0645Z" fill="white"/>
<path opacity="0.5" d="M220.328 25.0441L220.191 24.8156C220.145 24.7242 213.611 15.2656 205.249 7.08648C196.933 -1.04699 177.467 -3.88 177.239 -3.88L177.33 -4.5654C177.376 -4.5654 182.357 -3.8343 188.297 -2.14364C193.78 -0.544363 201.274 2.24295 205.752 6.58384C213.474 14.169 219.597 22.7594 220.648 24.2216C241.073 17.8702 262.777 -29.9254 263.006 -30.428L263.646 -30.1538C263.6 -30.0168 258.071 -17.8166 250.029 -4.97665C239.245 12.2955 229.33 22.3481 220.602 24.9527L220.328 25.0441Z" fill="white"/>
<path opacity="0.5" d="M200.405 63.0155L200.771 62.4215C205.98 53.3742 205.203 43.8242 198.486 34.1371C193.46 26.8718 186.789 22.2568 186.697 22.2111L187.108 21.6171C187.154 21.6628 193.962 26.3692 199.08 33.7259C205.751 43.3216 206.665 53.1 201.776 62.1473C204.244 61.7818 212.88 60.3196 223.663 56.5727C235.407 52.4603 252.176 44.6467 265.336 30.8472L290.924 4.02502L291.427 4.52765L265.839 31.3498C252.587 45.2864 235.681 53.1 223.846 57.2581C211.052 61.7361 201.228 62.9698 201.136 62.9698L200.405 63.0155Z" fill="white"/>
</g>
<g opacity="0.5">
<path opacity="0.5" d="M139.267 90.6602C134.424 90.6602 129.626 90.3403 124.782 89.6549C104.951 86.959 85.9426 79.0083 68.3048 66.077L68.716 65.483C86.2624 78.3686 105.18 86.2279 124.874 88.9238C151.102 92.4879 177.558 86.2736 203.375 70.3722C230.289 53.8311 249.891 30.9386 261.543 14.6717C269.631 3.38534 274.429 -10.6883 275.8 -27.2294L276.485 -27.1837C275.114 -10.5055 270.271 3.7052 262.092 15.0829C250.394 31.3955 230.746 54.3338 203.695 70.9662C182.539 84.0803 160.88 90.6602 139.267 90.6602Z" fill="white"/>
<path opacity="0.5" d="M245.597 83.1208C235.042 83.1208 220.831 80.4248 203.879 70.7835L203.696 70.6921V70.5093C203.696 70.2351 202.051 44.3268 215.942 15.3571L229.97 -13.8412L230.609 -13.5213L216.581 15.6769C203.376 43.1388 204.244 67.8591 204.381 70.2351C216.49 77.0892 234.813 84.6286 253.959 81.7956C265.428 80.105 271.871 75.3985 271.916 75.3528L272.328 75.9012C272.282 75.9468 265.748 80.7447 254.096 82.481C251.628 82.8923 248.795 83.1208 245.597 83.1208Z" fill="white"/>
</g>
<path d="M132.961 206.174C132.367 206.174 131.773 206.174 131.179 206.128C117.791 205.717 106.915 198.68 100.518 186.251C100.244 185.703 99.97 185.155 99.6958 184.606C93.2073 186.069 86.2162 185.292 79.2251 182.185C65.2428 175.97 55.7842 162.354 51.8089 142.888C48.8845 128.54 49.9354 116.157 49.9811 115.655L57.0637 116.294C57.0637 116.431 56.0584 128.312 58.8 141.654C62.3641 158.927 70.2234 170.396 82.1495 175.742C88.044 178.346 93.0702 178.712 97.2284 177.935C94.3954 168.02 95.0351 157.693 99.3303 151.296C102.209 147 106.504 144.853 111.439 145.264C116.74 145.675 120.669 148.554 122.223 153.123C124.645 160.252 120.898 170.487 113.313 177.432C111.165 179.397 108.88 180.997 106.458 182.23C106.596 182.504 106.733 182.779 106.87 183.053C109.84 188.856 117.014 198.634 131.453 199.091C141.14 199.411 148.04 196.944 152.015 191.826C159.463 182.185 154.757 165.872 154.711 165.689L161.519 163.679C161.748 164.501 167.277 183.647 157.635 196.121C152.381 202.792 144.11 206.174 132.961 206.174ZM110.251 152.255C108.149 152.255 106.504 153.215 105.225 155.18C102.529 159.246 101.661 167.151 103.945 175.468C105.819 174.417 107.372 173.229 108.56 172.178C114.638 166.649 116.877 159.292 115.552 155.408C115.14 154.22 114.226 152.575 110.891 152.301C110.617 152.255 110.434 152.255 110.251 152.255Z" fill="url(#paint1_linear)"/>
<path d="M17.3109 84.5829L22.2458 113.37C22.3829 114.284 22.6114 115.152 22.8855 115.974C22.8855 115.974 22.9312 116.066 22.9769 116.294C23.4796 117.894 24.165 119.356 24.9874 120.772C28.2317 126.667 35.6341 135.851 49.9819 134.435C48.6567 133.338 47.2859 132.196 45.8694 131.145C46.3264 131.099 46.7833 130.962 47.2402 130.871L54.5969 129.591C66.3859 127.581 74.2452 116.569 72.2347 104.734L67.2998 75.9469L17.3109 84.5829Z" fill="url(#paint2_linear)"/>
<path opacity="0.2" d="M17.3109 84.5829L22.2458 113.37C22.3829 114.284 22.6114 115.152 22.8855 115.974C22.8855 115.974 22.9312 116.066 22.9769 116.294C23.4796 117.894 24.165 119.356 24.9874 120.772C28.2317 126.667 35.6341 135.851 49.9819 134.435C48.6567 133.338 47.2859 132.196 45.8694 131.145C46.3264 131.099 46.7833 130.962 47.2402 130.871L54.5969 129.591C66.3859 127.581 74.2452 116.569 72.2347 104.734L67.2998 75.9469L17.3109 84.5829Z" fill="url(#paint3_linear)"/>
<path d="M23.6622 60.5025H23.5708H23.4794C21.9258 60.7766 21.012 62.1931 21.2861 63.7467L26.8607 96.1435C27.1349 97.6971 28.5057 98.8851 30.0136 98.611H30.105H30.1964C31.75 98.3368 32.7095 96.7832 32.4811 95.2296L26.9064 62.8328C26.6323 61.2793 25.2158 60.2283 23.6622 60.5025Z" fill="url(#paint4_linear)"/>
<path d="M53.5911 55.3391H53.4997H53.4083C51.8547 55.6132 50.7581 57.0754 50.9865 58.629L56.5612 91.0258C56.8353 92.5794 58.3889 93.7217 59.9425 93.4476H60.0339H60.1253C61.6789 93.1734 62.7755 91.5741 62.5013 90.0206L56.9267 57.6238C56.6983 56.1159 55.1447 55.1106 53.5911 55.3391Z" fill="url(#paint5_linear)"/>
<path opacity="0.8" d="M57.8865 88.1014C58.0693 89.2437 57.2925 90.3404 56.1502 90.5688L32.3895 94.6356C31.2471 94.8183 30.1505 94.0416 29.922 92.8992C29.7393 91.7569 30.5161 90.6602 31.6584 90.4318L55.4191 86.365C56.5614 86.1365 57.6581 86.9133 57.8865 88.1014Z" fill="url(#paint6_linear)"/>
<path opacity="0.8" d="M59.5308 97.8798C59.7136 99.0221 58.9368 100.119 57.7945 100.347L34.0338 104.414C32.8914 104.597 31.7948 103.82 31.5663 102.678C31.3835 101.535 32.1603 100.439 33.3027 100.21L57.0634 96.1434C58.2514 95.9607 59.3481 96.7375 59.5308 97.8798Z" fill="url(#paint7_linear)"/>
<path opacity="0.8" d="M61.2221 107.658C61.4049 108.801 60.6281 109.897 59.4858 110.126L35.7251 114.192C34.5827 114.375 33.4861 113.598 33.2576 112.456C33.0748 111.314 33.8516 110.217 34.994 109.989L58.7547 105.922C59.9427 105.739 61.0393 106.516 61.2221 107.658Z" fill="url(#paint8_linear)"/>
<path d="M73.7878 77.5004C73.7878 77.5004 70.9548 75.0787 68.8529 73.982V74.0277C68.2132 73.6165 67.3907 73.5251 66.6139 73.6622L17.082 82.1155C15.2543 82.4354 14.0206 84.0803 14.3404 85.9081C14.3861 86.1365 14.4775 86.4564 14.5232 86.4564V86.5021C14.6603 86.8677 14.843 87.1875 15.0715 87.4617C15.5284 88.0557 16.2595 88.8782 17.4019 89.5179C17.5847 89.655 17.7674 89.7463 17.9502 89.8377C19.7323 90.9344 20.4634 91.8026 21.8799 91.8482C22.5653 91.8482 32.1609 89.2437 42.9446 86.3193L69.4926 81.75C71.2747 81.4301 72.4627 79.7394 72.2343 78.0031C73.2395 77.7289 73.7878 77.5004 73.7878 77.5004Z" fill="url(#paint9_linear)"/>
<path d="M24.9414 60.5481C24.9414 60.5481 30.8816 62.7871 31.2928 65.7572C27.5459 65.94 28.5055 83.9433 28.5055 83.9433L24.1189 80.8361C24.1189 80.8361 19.3668 59.9084 24.9414 60.5481Z" fill="url(#paint10_linear)"/>
<path d="M54.8707 55.4304C54.8707 55.4304 60.8109 57.6694 61.2221 60.6395C57.4752 60.8222 58.4348 78.8255 58.4348 78.8255L54.0482 75.7184C54.0482 75.7184 49.2961 54.745 54.8707 55.4304Z" fill="url(#paint11_linear)"/>
<path d="M36.6384 98.5653C36.9126 100.119 35.8616 101.581 34.3081 101.855C32.7545 102.129 31.2923 101.078 31.0181 99.5248L25.4892 67.0366C25.215 65.4831 26.266 64.0209 27.8196 63.7467C29.3731 63.4725 30.8353 64.5235 31.1095 66.0771L36.6384 98.5653Z" fill="url(#paint12_linear)"/>
<path opacity="0.3" d="M31.3837 65.8943L36.9584 98.2911C37.2325 99.8447 36.0902 101.17 34.5366 101.444H34.628L28.1395 63.701H28.0481C29.6017 63.4268 31.1096 64.3407 31.3837 65.8943Z" fill="url(#paint13_linear)"/>
<path d="M61.1299 60.9136C60.8558 59.36 59.3936 58.309 57.84 58.5832C56.2864 58.8574 55.2811 60.3196 55.5096 61.8732L61.0842 94.3613C61.3584 95.9149 62.8206 96.9659 64.3742 96.6917C65.9277 96.4175 66.933 94.9553 66.7045 93.4018L61.1299 60.9136Z" fill="url(#paint14_linear)"/>
<path opacity="0.3" d="M55.5092 61.7817L61.0838 94.1785C61.358 95.7321 62.7745 96.646 64.3281 96.3718L57.8396 58.6289C56.286 58.8574 55.235 60.2282 55.5092 61.7817Z" fill="url(#paint15_linear)"/>
<path d="M21.8342 87.7815L26.7691 116.477C28.7797 128.266 39.8832 136.171 51.6722 134.115L59.0289 132.835C70.8178 130.825 78.7685 119.676 76.7123 107.887L71.7774 79.1911L21.8342 87.7815Z" fill="url(#paint16_linear)"/>
<path d="M75.1128 79.6023C75.4326 81.43 74.1989 83.1664 72.3711 83.4863L22.7021 91.9853C20.8744 92.3051 19.138 91.0714 18.8182 89.2437V89.198C18.4983 87.3702 19.7321 85.6339 21.5598 85.314L71.2288 76.815C73.0565 76.4951 74.7929 77.7289 75.1128 79.5566V79.6023Z" fill="url(#paint17_linear)"/>
<path opacity="0.8" d="M62.3643 91.2542C62.5471 92.3965 61.7703 93.4932 60.628 93.7216L36.8673 97.7884C35.7249 97.9711 34.6283 97.1943 34.3998 96.052C34.217 94.9097 34.9938 93.813 36.1362 93.5845L59.8969 89.5178C61.0849 89.335 62.1815 90.1118 62.3643 91.2542Z" fill="url(#paint18_linear)"/>
<path opacity="0.8" d="M64.054 101.078C64.2368 102.221 63.46 103.317 62.3177 103.546L38.557 107.612C37.4146 107.795 36.318 107.018 36.0895 105.876C35.9067 104.734 36.6835 103.637 37.8259 103.409L61.5866 99.3419C62.7289 99.1135 63.8712 99.8902 64.054 101.078Z" fill="url(#paint19_linear)"/>
<path opacity="0.8" d="M65.7452 110.857C65.928 111.999 65.1512 113.096 64.0088 113.324L40.2481 117.391C39.1058 117.574 38.0091 116.797 37.7807 115.655C37.5979 114.512 38.3747 113.416 39.517 113.187L63.2777 109.12C64.4201 108.892 65.5167 109.714 65.7452 110.857Z" fill="url(#paint20_linear)"/>
<path opacity="0.8" d="M62.3186 91.8939C62.2273 92.8077 61.4962 93.5845 60.5366 93.7673L36.9587 97.834C35.7706 98.0168 34.6283 97.2857 34.4455 96.0977C34.3541 95.5037 34.4912 94.9554 34.8111 94.4984C34.9938 94.2243 35.3137 93.9958 35.6336 93.813C35.5879 94.0415 35.5879 94.2243 35.6336 94.407C35.8163 95.5951 36.9587 96.3718 38.1467 96.1891L61.7246 92.1223C61.9531 92.0766 62.1359 91.9853 62.3186 91.8939Z" fill="url(#paint21_linear)"/>
<path opacity="0.8" d="M64.008 101.672C63.9166 102.586 63.1855 103.363 62.2259 103.546L38.648 107.612C37.46 107.795 36.3176 107.064 36.1348 105.876C36.0435 105.282 36.1805 104.734 36.5004 104.277C36.6832 104.003 37.003 103.774 37.3229 103.591C37.2772 103.82 37.2772 104.003 37.3229 104.185C37.5057 105.374 38.648 106.15 39.836 105.968L63.414 101.901C63.6424 101.855 63.8252 101.764 64.008 101.672Z" fill="url(#paint22_linear)"/>
<path opacity="0.8" d="M65.6993 111.451C65.6079 112.365 64.8768 113.141 63.9172 113.324L40.3393 117.391C39.1512 117.574 38.0089 116.843 37.8261 115.655C37.7347 115.061 37.8718 114.512 38.1917 114.055C38.3745 113.781 38.6943 113.553 39.0142 113.37C38.9685 113.598 38.9685 113.781 39.0142 113.964C39.1969 115.152 40.3393 115.929 41.5273 115.746L65.1052 111.679C65.288 111.634 65.5165 111.542 65.6993 111.451Z" fill="url(#paint23_linear)"/>
<path opacity="0.75" d="M230.608 38.2953C230.608 -0.178753 197.846 -31.3875 157.407 -31.3875C116.968 -31.3875 84.2057 -0.178753 84.2057 38.2953C84.2057 61.6447 96.2688 82.344 114.82 94.9554C122.68 100.302 127.432 109.166 127.432 118.67V124.017C127.432 135.623 136.845 144.99 148.405 144.99H166.409C178.015 144.99 187.382 135.577 187.382 124.017V118.67C187.382 109.166 192.134 100.302 199.993 94.9554C218.545 82.344 230.608 61.6904 230.608 38.2953Z" fill="#F4F7FA"/>
<path d="M173.674 176.107C173.674 180.859 166.409 184.698 157.453 184.698C148.497 184.698 141.232 180.859 141.232 176.107C141.232 171.355 148.497 167.517 157.453 167.517C166.363 167.517 173.674 171.355 173.674 176.107Z" fill="url(#paint24_linear)"/>
<path d="M135.839 160.754V169.527C135.839 172.497 137.53 175.239 140.226 176.519C143.927 178.301 150.142 180.22 159.143 179.991C166.454 179.808 171.206 178.62 174.222 177.341C177.147 176.153 179.02 173.229 179.02 170.076V165.232L135.839 160.754Z" fill="url(#paint25_linear)"/>
<path opacity="0.3" d="M135.839 168.431C136.479 169.07 137.256 169.619 138.124 170.03C142.282 172.041 169.653 176.473 176.233 174.005C177.101 173.686 177.878 173.274 178.517 172.726C178.792 171.903 178.974 171.035 178.974 170.121V165.278L135.839 160.8V168.431Z" fill="url(#paint26_linear)"/>
<path d="M137.759 154.768C135.337 154.494 133.235 156.413 133.235 158.881V159.109C133.235 162.445 135.109 165.506 138.125 166.923C142.283 168.933 169.653 173.366 176.233 170.898C179.569 169.665 181.625 166.786 181.625 163.267V163.085C181.625 160.983 180.026 159.201 177.924 158.972L137.759 154.768Z" fill="url(#paint27_linear)"/>
<path opacity="0.3" d="M177.924 158.972L137.759 154.768C136.16 154.586 134.743 155.362 133.921 156.596C134.743 158.515 136.205 160.069 138.125 161.028C142.283 163.039 170.796 168.065 176.233 165.506C178.335 164.501 180.026 162.811 180.894 160.8C180.254 159.749 179.157 159.064 177.924 158.972Z" fill="url(#paint28_linear)"/>
<path d="M136.205 140.558C134.56 140.558 133.235 141.883 133.235 143.528V150.382C133.235 153.717 135.109 156.779 138.125 158.195C142.283 160.206 170.796 165.232 176.233 162.673C179.432 161.165 181.625 158.058 181.625 154.54V143.528C181.625 141.883 180.3 140.558 178.655 140.558H136.205Z" fill="url(#paint29_linear)"/>
<path d="M181.031 142.705C181.031 145.767 170.475 148.28 157.407 148.28C144.384 148.28 133.783 145.767 133.783 142.705C133.783 139.644 144.339 137.131 157.407 137.131C170.475 137.131 181.031 139.598 181.031 142.705Z" fill="url(#paint30_linear)"/>
<path d="M230.608 38.2953C230.608 -0.178753 197.846 -31.3875 157.407 -31.3875C116.968 -31.3875 84.2057 -0.178753 84.2057 38.2953C84.2057 61.6447 96.2688 82.344 114.82 94.9554C122.68 100.302 127.432 109.166 127.432 118.67V124.017C127.432 135.623 136.845 144.99 148.405 144.99H166.409C178.015 144.99 187.382 135.577 187.382 124.017V118.67C187.382 109.166 192.134 100.302 199.993 94.9554C218.545 82.344 230.608 61.6904 230.608 38.2953Z" fill="url(#paint31_linear)"/>
<path opacity="0.5" d="M157.407 142.34C166.946 142.34 174.679 140.519 174.679 138.273C174.679 136.027 166.946 134.206 157.407 134.206C147.868 134.206 140.135 136.027 140.135 138.273C140.135 140.519 147.868 142.34 157.407 142.34Z" fill="#F4F7FA"/>
<path opacity="0.3" d="M158.732 93.2647C160.286 66.3969 205.568 60.1368 205.385 36.1477C205.248 21.3886 187.291 10.4221 183.407 8.18316C155.077 -7.99239 120.258 10.6963 113.038 -2.55485C111.256 -5.84479 112.079 -9.45459 112.581 -11.4651C113.313 -14.5723 114.958 -17.451 117.379 -20.0555C97.4111 -7.62684 84.2057 13.8949 84.2057 38.2953C84.2057 61.6447 96.2688 82.3439 114.82 94.9554C122.68 100.302 127.432 109.166 127.432 118.67V124.017C127.432 135.623 136.845 144.99 148.405 144.99H166.409C178.015 144.99 187.382 135.577 187.382 124.017V119.767C184.914 121.686 182.081 122.966 178.929 122.966C168.145 122.874 157.955 106.653 158.732 93.2647Z" fill="url(#paint32_linear)"/>
<path opacity="0.44" d="M158.595 101.764C193.37 101.764 221.561 74.5754 221.561 41.0369C221.561 7.4984 193.37 -19.6899 158.595 -19.6899C123.82 -19.6899 95.6292 7.4984 95.6292 41.0369C95.6292 74.5754 123.82 101.764 158.595 101.764Z" fill="#F4F7FA"/>
<path d="M181.259 -6.07321L132.275 47.891L152.38 47.7539L136.068 88.3755L185.005 34.0915L166.819 34.1372L181.259 -6.07321Z" fill="white"/>
<path d="M87.6333 25.7753L74.702 48.1195L52.7234 36.4219L56.5617 50.8611L78.586 62.5587L91.4716 40.2144L87.6333 25.7753Z" fill="url(#paint33_linear)"/>
<path d="M235.224 -8.67775L218.271 -15.4861C213.428 -21.8375 207.442 -27.4121 200.451 -31.9358C165.815 -54.4171 117.791 -43.9989 93.345 -8.63206C83.201 6.0356 78.4032 22.9879 79.4085 39.986C79.5912 43.2759 80.0025 46.6116 80.6422 49.9015C81.1905 52.7345 79.3171 55.5675 76.3927 56.2529C73.514 56.9383 70.7267 55.202 70.1783 52.3689C69.7214 49.9929 69.3559 47.5711 69.0817 45.1951C66.8427 24.4958 72.2802 3.65954 84.6175 -14.2524C112.445 -54.4628 167.14 -66.3888 206.528 -40.7547C211.417 -37.5561 215.85 -33.9463 219.871 -29.971C226.222 -23.711 231.386 -16.4914 235.224 -8.67775Z" fill="url(#paint34_linear)"/>
<path d="M230.197 86.822C202.37 127.032 147.675 138.958 108.241 113.324C103.352 110.171 98.9195 106.516 94.8984 102.541C88.7755 96.4176 83.7492 89.3808 79.9109 81.75L97.8228 89.6093C102.438 95.2753 107.967 100.302 114.364 104.46C149 126.941 197.024 116.523 221.47 81.156C231.614 66.4883 236.412 49.536 235.406 32.5379C235.224 29.248 234.812 25.9123 234.173 22.6224C233.624 19.7894 235.498 16.9564 238.422 16.271C241.301 15.5856 244.088 17.3219 244.636 20.1549C245.093 22.531 245.459 24.9528 245.733 27.3289C247.972 48.1195 242.58 68.9558 230.197 86.822Z" fill="url(#paint35_linear)"/>
<path d="M51.9741 129.016C51.5058 137.758 51.9741 145.251 52.7546 151.417C53.6132 158.052 54.3157 159.301 54.3937 163.828C54.5498 173.74 51.1936 174.911 49.7106 185.917C48.0715 198.171 50.4911 208.162 51.5058 211.986C52.3644 215.343 53.301 218.074 54.0815 219.948C55.0962 221.04 56.8914 220.806 58.6866 220.572C60.2477 209.489 61.9649 199.108 63.604 188.024C67.1163 171.477 70.7067 154.852 74.2191 138.304C66.7261 135.26 59.311 132.138 51.9741 129.016Z" fill="url(#paint36_linear)"/>
<path opacity="0.3" d="M58.6082 220.65C60.1693 209.567 61.8865 199.186 63.5256 188.102C67.038 171.555 70.6284 154.93 74.1407 138.383C66.7257 135.26 59.3888 132.138 51.9737 129.016C51.9737 129.563 51.8957 130.187 51.8957 130.733C61.8084 140.88 63.2914 148.373 62.7451 153.369C62.1206 159.457 58.5302 162.189 58.4522 171.009C58.3741 177.331 60.1693 178.58 59.701 184.278C59.0766 191.615 55.6423 195.439 53.769 199.498C51.9738 203.479 50.9591 209.176 53.1445 217.684C53.4567 218.543 53.769 219.323 54.0031 220.026C55.0178 221.04 56.735 220.806 58.6082 220.65Z" fill="url(#paint37_linear)"/>
<path d="M64.6981 138.461C69.5374 148.373 71.957 156.022 73.2839 160.784C74.0645 163.672 74.7669 166.638 74.6889 170.462C74.5328 175.145 73.2839 178.97 72.2692 181.312C70.8643 184.356 69.4593 187.946 68.4447 192.083C65.1664 205.352 67.3519 216.904 69.3032 223.616C70.6301 224.241 71.957 224.865 73.2059 225.489C76.9524 217.216 81.7136 205.352 85.6943 190.6C87.8798 182.56 89.5189 176.238 90.1433 168.121C90.8458 159.535 90.7677 145.876 85.0699 129.016C78.3573 132.138 71.5668 135.338 64.6981 138.461Z" fill="url(#paint38_linear)"/>
<path d="M73.9855 64.3885C82.4152 66.574 88.8936 68.6814 91.3913 73.3646C94.0451 78.36 88.8936 81.5601 86.7081 91.8631C83.3519 107.63 92.0157 114.342 88.035 130.187C86.7081 135.495 84.5227 139.553 83.0397 141.973C80.0737 144.002 75.3905 146.734 69.2243 148.295C60.2483 150.637 56.1115 148.529 44.3255 148.217C25.0465 147.749 21.7682 153.056 13.3385 148.92C4.90885 144.705 -0.710907 134.87 1.47457 131.046C2.80147 128.782 6.15772 130.499 11.4653 128.002C18.2559 124.723 17.6315 119.494 23.2513 115.513C31.2907 109.815 38.0813 116.84 44.9499 111.845C51.9747 106.771 53.8479 93.2681 51.7405 84.9164C50.3356 79.4527 50.8039 73.7549 49.9453 68.2131C49.8673 67.7448 49.8672 67.0423 50.1795 66.2618C51.5064 63.2178 57.2823 63.1397 61.5752 63.0616C68.2877 62.9836 73.2831 64.2324 73.9855 64.3885Z" fill="url(#paint39_linear)"/>
<path opacity="0.3" d="M14.8988 142.988C17.7087 141.427 16.6941 136.275 20.8309 134.012C24.6554 131.826 27.2312 135.339 32.7729 134.09C39.8757 132.529 40.0318 125.894 46.8224 124.333C51.6617 123.24 52.9105 126.362 59.7011 127.065C66.5698 127.767 75.7019 125.66 82.0242 118.869C84.678 115.981 86.3171 112.781 87.3318 109.815C88.6587 115.903 90.2197 121.757 88.0343 130.265C86.7074 135.573 84.5219 139.631 83.0389 142.051C80.0729 144.08 75.3897 146.812 69.2236 148.373C60.2475 150.715 56.1107 148.607 44.3247 148.295C25.0457 147.827 21.7675 153.135 13.3378 148.998C7.95213 146.344 3.7373 141.349 1.94208 137.056C9.12293 143.144 12.8694 144.08 14.8988 142.988Z" fill="url(#paint40_linear)"/>
<path d="M75.4694 49.6366C75.4694 49.6366 78.1232 53.9295 78.5134 57.0516C78.9037 60.1737 75.3133 60.1737 75.3133 60.1737L75.5474 62.1251C75.7816 63.7642 76.9524 65.1691 78.5915 65.6374L79.9965 66.0277C79.9965 66.0277 71.0204 68.6034 65.8689 65.4033L67.2739 65.1691C69.3032 64.8569 70.7862 63.1397 70.8643 61.1104V60.2518C70.9423 60.3298 68.6788 50.6513 75.4694 49.6366Z" fill="url(#paint41_linear)"/>
<path d="M89.4398 100.605L103.255 76.799C103.411 76.4868 103.802 76.3307 104.114 76.4087L123.393 80.9358C123.939 81.0919 124.173 81.6383 123.861 82.1066L107.86 107.708C107.704 108.02 107.314 108.176 106.924 108.02L89.9862 101.932L89.4398 100.605Z" fill="url(#paint42_linear)"/>
<path d="M92.7963 97.8732L103.958 78.5942C104.114 78.36 104.348 78.2039 104.66 78.282L120.271 81.9505C120.661 82.0285 120.895 82.4968 120.661 82.8871L107.704 103.571C107.548 103.805 107.236 103.961 106.924 103.805L93.1865 98.8099L92.7963 97.8732Z" fill="url(#paint43_linear)"/>
<path d="M107.235 78.8283L108.094 77.2672C108.25 77.0331 108.484 76.955 108.718 77.0331L116.758 78.8283C117.148 78.9063 117.304 79.2966 117.148 79.6869L116.133 81.404C115.977 81.6382 115.743 81.7162 115.509 81.6382L107.547 79.6869C107.235 79.6088 107.079 79.1405 107.235 78.8283Z" fill="url(#paint44_linear)"/>
<path d="M117.774 85.4628L103.568 82.1065C103.412 82.0285 103.256 81.8724 103.334 81.7163C103.412 81.5602 103.568 81.4041 103.724 81.4821L117.852 84.8384C118.008 84.9164 118.164 85.0725 118.086 85.2286C118.086 85.3848 117.93 85.4628 117.774 85.4628Z" fill="white"/>
<path d="M116.915 86.8678C116.915 86.8678 116.915 86.7897 116.915 86.8678L102.787 83.3554C102.631 83.2773 102.475 83.1212 102.553 82.9651C102.631 82.809 102.787 82.6529 102.943 82.7309L116.993 86.1653C117.149 86.2433 117.305 86.3994 117.227 86.5556C117.227 86.7117 117.071 86.8678 116.915 86.8678Z" fill="white"/>
<path d="M109.501 88.3507C109.501 88.3507 109.423 88.3507 109.501 88.3507L101.774 86.2433C101.618 86.1652 101.461 86.0091 101.54 85.853C101.618 85.6969 101.774 85.5408 101.93 85.6189L109.579 87.7263C109.735 87.8044 109.891 87.9605 109.813 88.1166C109.813 88.2727 109.657 88.3507 109.501 88.3507Z" fill="white"/>
<path d="M111.762 101.386C111.762 101.386 115.196 99.5904 115.743 98.0293C116.289 96.5463 116.445 93.6584 116.445 93.6584L114.182 97.483C114.182 97.483 113.323 97.1708 113.089 95.7658C112.855 94.3609 112.074 95.5316 112.23 96.5463C112.308 97.7171 111.762 101.386 111.762 101.386Z" fill="url(#paint45_linear)"/>
<path d="M90.0656 71.7254C91.6267 72.8962 93.9682 75.0036 95.9196 78.1257C101.461 87.0238 98.027 95.6096 102.944 99.278C104.349 100.293 106.925 101.307 111.92 100.137L113.638 101.307C113.638 101.307 114.652 112.937 100.837 111.923C86.9435 110.908 81.8701 92.9558 81.8701 92.9558L90.0656 71.7254Z" fill="url(#paint46_linear)"/>
<path d="M74.3762 54.1637C73.9079 54.1637 73.4396 53.6173 73.2055 53.7734C72.8932 54.0076 72.9713 54.8661 73.2835 55.4125C73.5957 55.8808 73.986 56.115 74.2201 56.2711C73.9079 56.8174 73.5177 57.598 73.3616 58.6127C73.0494 60.8762 74.3762 62.5933 75.0007 63.6861C77.5764 68.2912 74.6104 76.0965 71.02 80.1552C68.132 83.4334 66.571 82.3407 64.8538 84.9945C61.5756 90.146 66.8832 95.2975 65.4783 102.01C63.2928 112.313 47.5261 116.372 46.9017 116.528C46.6675 116.606 46.4334 116.606 46.1992 116.684C39.0964 118.323 28.4032 120.743 20.3637 115.357C14.3537 111.376 11.2316 103.883 11.2316 97.0927C11.2316 95.2975 11.3096 88.5849 16.4611 82.7309C17.2416 81.7943 22.0809 76.3306 29.0276 75.7843C32.6961 75.472 33.5547 76.7209 36.2865 75.7843C40.1111 74.4574 42.2185 70.7889 43.5454 68.5254C45.965 64.3105 44.7942 63.53 46.6675 61.4226C50.2579 57.2858 54.9411 60.0176 58.7657 56.3491C62.5903 52.7587 59.8585 48.3097 63.5269 45.1876C67.3515 41.9094 75.0787 42.4557 76.952 45.8901C78.435 48.9341 75.7812 54.1637 74.3762 54.1637Z" fill="url(#paint47_linear)"/>
<defs>
<linearGradient id="paint0_linear" x1="218.295" y1="30.3976" x2="217.373" y2="170.464" gradientUnits="userSpaceOnUse">
<stop offset="0.00359712" stop-color="#E38DDD"/>
<stop offset="1" stop-color="#9571F6"/>
</linearGradient>
<linearGradient id="paint1_linear" x1="49.7312" y1="160.899" x2="163.225" y2="160.899" gradientUnits="userSpaceOnUse">
<stop offset="0.003597" stop-color="#26264F"/>
<stop offset="1" stop-color="#444B8C"/>
</linearGradient>
<linearGradient id="paint2_linear" x1="40.3151" y1="105.91" x2="107.016" y2="28.7515" gradientUnits="userSpaceOnUse">
<stop offset="0.003597" stop-color="#6165D7"/>
<stop offset="1" stop-color="#AA80F9"/>
</linearGradient>
<linearGradient id="paint3_linear" x1="40.3151" y1="105.91" x2="107.016" y2="28.7515" gradientUnits="userSpaceOnUse">
<stop offset="0.003597" stop-color="#6165D7"/>
<stop offset="1" stop-color="#AA80F9"/>
</linearGradient>
<linearGradient id="paint4_linear" x1="39.3324" y1="47.1378" x2="20.7558" y2="95.415" gradientUnits="userSpaceOnUse">
<stop stop-color="#EBEFF2"/>
<stop offset="0.4737" stop-color="#D2D9E1"/>
<stop offset="0.9946" stop-color="#B7C0CE"/>
</linearGradient>
<linearGradient id="paint5_linear" x1="69.249" y1="41.9588" x2="50.6477" y2="90.3001" gradientUnits="userSpaceOnUse">
<stop stop-color="#EBEFF2"/>
<stop offset="0.4737" stop-color="#D2D9E1"/>
<stop offset="0.9946" stop-color="#B7C0CE"/>
</linearGradient>
<linearGradient id="paint6_linear" x1="43.6264" y1="88.5253" x2="44.4454" y2="94.7415" gradientUnits="userSpaceOnUse">
<stop stop-color="#444B8C"/>
<stop offset="0.9964" stop-color="#26264F"/>
</linearGradient>
<linearGradient id="paint7_linear" x1="45.3036" y1="98.3124" x2="46.1226" y2="104.529" gradientUnits="userSpaceOnUse">
<stop stop-color="#444B8C"/>
<stop offset="0.9964" stop-color="#26264F"/>
</linearGradient>
<linearGradient id="paint8_linear" x1="46.982" y1="108.1" x2="47.801" y2="114.316" gradientUnits="userSpaceOnUse">
<stop stop-color="#444B8C"/>
<stop offset="0.9964" stop-color="#26264F"/>
</linearGradient>
<linearGradient id="paint9_linear" x1="43.5785" y1="78.1382" x2="45.511" y2="92.8056" gradientUnits="userSpaceOnUse">
<stop offset="0.003597" stop-color="#6165D7"/>
<stop offset="1" stop-color="#AA80F9"/>
</linearGradient>
<linearGradient id="paint10_linear" x1="33.5856" y1="52.448" x2="22.3733" y2="81.5868" gradientUnits="userSpaceOnUse">
<stop stop-color="#EBEFF2"/>
<stop offset="0.4737" stop-color="#D2D9E1"/>
<stop offset="0.9946" stop-color="#B7C0CE"/>
</linearGradient>
<linearGradient id="paint11_linear" x1="63.5118" y1="47.3176" x2="52.2995" y2="76.4565" gradientUnits="userSpaceOnUse">
<stop stop-color="#EBEFF2"/>
<stop offset="0.4737" stop-color="#D2D9E1"/>
<stop offset="0.9946" stop-color="#B7C0CE"/>
</linearGradient>
<linearGradient id="paint12_linear" x1="29.1274" y1="68.1915" x2="35.2228" y2="114.455" gradientUnits="userSpaceOnUse">
<stop stop-color="#EBEFF2"/>
<stop offset="0.4737" stop-color="#D2D9E1"/>
<stop offset="0.9946" stop-color="#B7C0CE"/>
</linearGradient>
<linearGradient id="paint13_linear" x1="44.2802" y1="50.9025" x2="26.0893" y2="98.1774" gradientUnits="userSpaceOnUse">
<stop stop-color="#EBEFF2"/>
<stop offset="0.4737" stop-color="#D2D9E1"/>
<stop offset="0.9946" stop-color="#B7C0CE"/>
</linearGradient>
<linearGradient id="paint14_linear" x1="58.0611" y1="63.2312" x2="67.726" y2="108.882" gradientUnits="userSpaceOnUse">
<stop stop-color="#EBEFF2"/>
<stop offset="0.4737" stop-color="#D2D9E1"/>
<stop offset="0.9946" stop-color="#B7C0CE"/>
</linearGradient>
<linearGradient id="paint15_linear" x1="38.3158" y1="51.9227" x2="71.2107" y2="90.4297" gradientUnits="userSpaceOnUse">
<stop stop-color="#EBEFF2"/>
<stop offset="0.4737" stop-color="#D2D9E1"/>
<stop offset="0.9946" stop-color="#B7C0CE"/>
</linearGradient>
<linearGradient id="paint16_linear" x1="48.0692" y1="88.5593" x2="56.246" y2="150.619" gradientUnits="userSpaceOnUse">
<stop offset="0.003597" stop-color="#6165D7"/>
<stop offset="1" stop-color="#AA80F9"/>
</linearGradient>
<linearGradient id="paint17_linear" x1="46.4905" y1="106.055" x2="47.108" y2="78.4606" gradientUnits="userSpaceOnUse">
<stop offset="0.003597" stop-color="#6165D7"/>
<stop offset="1" stop-color="#AA80F9"/>
</linearGradient>
<linearGradient id="paint18_linear" x1="48.1303" y1="91.7111" x2="48.9493" y2="97.9272" gradientUnits="userSpaceOnUse">
<stop stop-color="#444B8C"/>
<stop offset="0.9964" stop-color="#26264F"/>
</linearGradient>
<linearGradient id="paint19_linear" x1="49.8072" y1="101.498" x2="50.6262" y2="107.714" gradientUnits="userSpaceOnUse">
<stop stop-color="#444B8C"/>
<stop offset="0.9964" stop-color="#26264F"/>
</linearGradient>
<linearGradient id="paint20_linear" x1="51.4855" y1="111.285" x2="52.3046" y2="117.502" gradientUnits="userSpaceOnUse">
<stop stop-color="#444B8C"/>
<stop offset="0.9964" stop-color="#26264F"/>
</linearGradient>
<linearGradient id="paint21_linear" x1="48.1996" y1="92.6152" x2="48.856" y2="97.5971" gradientUnits="userSpaceOnUse">
<stop stop-color="#444B8C"/>
<stop offset="0.9964" stop-color="#26264F"/>
</linearGradient>
<linearGradient id="paint22_linear" x1="49.8757" y1="102.4" x2="50.5326" y2="107.385" gradientUnits="userSpaceOnUse">
<stop stop-color="#444B8C"/>
<stop offset="0.9964" stop-color="#26264F"/>
</linearGradient>
<linearGradient id="paint23_linear" x1="51.5537" y1="112.184" x2="52.2111" y2="117.173" gradientUnits="userSpaceOnUse">
<stop stop-color="#444B8C"/>
<stop offset="0.9964" stop-color="#26264F"/>
</linearGradient>
<linearGradient id="paint24_linear" x1="155.893" y1="188.3" x2="157.193" y2="177.9" gradientUnits="userSpaceOnUse">
<stop offset="0.003597" stop-color="#26264F"/>
<stop offset="1" stop-color="#444B8C"/>
</linearGradient>
<linearGradient id="paint25_linear" x1="150.547" y1="178.821" x2="163.546" y2="155.422" gradientUnits="userSpaceOnUse">
<stop offset="0.003597" stop-color="#26264F"/>
<stop offset="1" stop-color="#444B8C"/>
</linearGradient>
<linearGradient id="paint26_linear" x1="135.845" y1="167.732" x2="178.99" y2="167.732" gradientUnits="userSpaceOnUse">
<stop offset="0.003597" stop-color="#26264F"/>
<stop offset="1" stop-color="#444B8C"/>
</linearGradient>
<linearGradient id="paint27_linear" x1="151.784" y1="172.427" x2="164.621" y2="147.728" gradientUnits="userSpaceOnUse">
<stop offset="0.003597" stop-color="#26264F"/>
<stop offset="1" stop-color="#444B8C"/>
</linearGradient>
<linearGradient id="paint28_linear" x1="133.912" y1="160.461" x2="180.902" y2="160.461" gradientUnits="userSpaceOnUse">
<stop offset="0.003597" stop-color="#26264F"/>
<stop offset="1" stop-color="#444B8C"/>
</linearGradient>
<linearGradient id="paint29_linear" x1="133.216" y1="151.971" x2="181.62" y2="151.971" gradientUnits="userSpaceOnUse">
<stop offset="0.003597" stop-color="#26264F"/>
<stop offset="1" stop-color="#444B8C"/>
</linearGradient>
<linearGradient id="paint30_linear" x1="156.215" y1="148.319" x2="160.982" y2="126.004" gradientUnits="userSpaceOnUse">
<stop offset="0.003597" stop-color="#26264F"/>
<stop offset="1" stop-color="#444B8C"/>
</linearGradient>
<linearGradient id="paint31_linear" x1="147.062" y1="23.7993" x2="241.629" y2="173.937" gradientUnits="userSpaceOnUse">
<stop stop-color="#FCB148"/>
<stop offset="0.0520724" stop-color="#FDBA46"/>
<stop offset="0.1424" stop-color="#FFC244"/>
<stop offset="0.3183" stop-color="#FFC444"/>
<stop offset="0.4849" stop-color="#FDB946"/>
<stop offset="0.7754" stop-color="#F99C4D"/>
<stop offset="0.8658" stop-color="#F8924F"/>
<stop offset="1" stop-color="#F8924F"/>
</linearGradient>
<linearGradient id="paint32_linear" x1="150.38" y1="-10.0429" x2="131.531" y2="145.302" gradientUnits="userSpaceOnUse">
<stop stop-color="#FCB148"/>
<stop offset="0.0520724" stop-color="#FDBA46"/>
<stop offset="0.1424" stop-color="#FFC244"/>
<stop offset="0.3183" stop-color="#FFC444"/>
<stop offset="0.4849" stop-color="#FDB946"/>
<stop offset="0.7754" stop-color="#F99C4D"/>
<stop offset="0.8658" stop-color="#F8924F"/>
<stop offset="1" stop-color="#F8924F"/>
</linearGradient>
<linearGradient id="paint33_linear" x1="1764.33" y1="-1228" x2="1892.28" y2="-1324.23" gradientUnits="userSpaceOnUse">
<stop offset="0.003597" stop-color="#6165D7"/>
<stop offset="1" stop-color="#AA80F9"/>
</linearGradient>
<linearGradient id="paint34_linear" x1="122.819" y1="84.2008" x2="66.9712" y2="234.239" gradientUnits="userSpaceOnUse">
<stop offset="0.003597" stop-color="#6165D7"/>
<stop offset="1" stop-color="#AA80F9"/>
</linearGradient>
<linearGradient id="paint35_linear" x1="79.9241" y1="71.5139" x2="246.234" y2="71.5139" gradientUnits="userSpaceOnUse">
<stop offset="0.003597" stop-color="#6165D7"/>
<stop offset="1" stop-color="#AA80F9"/>
</linearGradient>
<linearGradient id="paint36_linear" x1="62.1155" y1="139.291" x2="47.8851" y2="226.148" gradientUnits="userSpaceOnUse">
<stop stop-color="#311944"/>
<stop offset="1" stop-color="#893976"/>
</linearGradient>
<linearGradient id="paint37_linear" x1="62.1151" y1="139.291" x2="47.8848" y2="226.148" gradientUnits="userSpaceOnUse">
<stop stop-color="#311944"/>
<stop offset="1" stop-color="#893976"/>
</linearGradient>
<linearGradient id="paint38_linear" x1="116.874" y1="183.449" x2="46.1097" y2="171.782" gradientUnits="userSpaceOnUse">
<stop stop-color="#311944"/>
<stop offset="1" stop-color="#893976"/>
</linearGradient>
<linearGradient id="paint39_linear" x1="9.12853" y1="187.013" x2="-112.912" y2="372.627" gradientUnits="userSpaceOnUse">
<stop offset="0.00359712" stop-color="#E38DDD"/>
<stop offset="1" stop-color="#9571F6"/>
</linearGradient>
<linearGradient id="paint40_linear" x1="2.03817" y1="130.158" x2="89.1151" y2="130.158" gradientUnits="userSpaceOnUse">
<stop offset="0.00359712" stop-color="#E38DDD"/>
<stop offset="1" stop-color="#9571F6"/>
</linearGradient>
<linearGradient id="paint41_linear" x1="77.7547" y1="55.7779" x2="69.0556" y2="70.8808" gradientUnits="userSpaceOnUse">
<stop stop-color="#FFC444"/>
<stop offset="0.9964" stop-color="#F36F56"/>
</linearGradient>
<linearGradient id="paint42_linear" x1="112.725" y1="83.1616" x2="90.8637" y2="110.662" gradientUnits="userSpaceOnUse">
<stop stop-color="#444B8C"/>
<stop offset="0.9964" stop-color="#26264F"/>
</linearGradient>
<linearGradient id="paint43_linear" x1="110.833" y1="83.7269" x2="91.8465" y2="111.866" gradientUnits="userSpaceOnUse">
<stop stop-color="#FFC444"/>
<stop offset="0.9964" stop-color="#F36F56"/>
</linearGradient>
<linearGradient id="paint44_linear" x1="111.077" y1="81.0359" x2="116.516" y2="72.4981" gradientUnits="userSpaceOnUse">
<stop stop-color="#AA80F9"/>
<stop offset="0.9964" stop-color="#6165D7"/>
</linearGradient>
<linearGradient id="paint45_linear" x1="115.215" y1="95.3488" x2="109.97" y2="101.947" gradientUnits="userSpaceOnUse">
<stop stop-color="#FFC444"/>
<stop offset="0.9964" stop-color="#F36F56"/>
</linearGradient>
<linearGradient id="paint46_linear" x1="28.6247" y1="199.831" x2="-93.4158" y2="385.445" gradientUnits="userSpaceOnUse">
<stop offset="0.00359712" stop-color="#E38DDD"/>
<stop offset="1" stop-color="#9571F6"/>
</linearGradient>
<linearGradient id="paint47_linear" x1="33.6762" y1="123.191" x2="46.0895" y2="71.0199" gradientUnits="userSpaceOnUse">
<stop stop-color="#444B8C"/>
<stop offset="0.9964" stop-color="#26264F"/>
</linearGradient>
</defs>
</svg>
