<svg width="215" height="203" viewBox="0 0 215 203" fill="none" xmlns="http://www.w3.org/2000/svg">
<path opacity="0.3" d="M71.2407 -5.08493C61.2681 8.88582 72.5274 31.7721 57.8673 42.2042C43.5749 52.3606 26.3412 35.3108 12.876 43.9965C-7.06906 56.9103 -4.08191 117.067 24.503 154.751C33.0968 166.057 40.358 170.515 43.437 183.244C50.0548 210.589 25.56 226.581 30.0637 240.093C40.1741 270.562 200.332 297.768 265.682 207.142C296.197 164.816 301.344 103.28 274.965 56.2209C227.263 -28.7525 93.5755 -36.3813 71.2407 -5.08493Z" fill="#F4F7FA"/>
<path d="M145.887 144.57C145.887 145.666 144.547 146.554 142.81 146.554C140.874 146.554 138.938 146.554 137.002 146.554C136.356 146.554 135.661 146.554 135.016 146.554C133.278 146.554 131.888 145.719 131.938 144.57C132.087 136.529 132.236 128.54 132.385 120.499C133.08 85.202 133.775 49.9051 134.42 14.6082C134.42 14.2949 134.519 14.0338 134.619 13.7727C134.966 13.0939 135.612 12.624 136.406 12.624C138.044 12.624 139.682 12.624 141.32 12.624C142.413 12.624 143.306 13.5639 143.306 14.6604C144.001 49.9573 144.696 85.2543 145.341 120.551C145.59 128.54 145.739 136.581 145.887 144.57Z" fill="url(#paint0_linear)"/>
<path d="M146.435 144.466C146.435 145.666 145.094 146.606 143.357 146.554C141.421 146.554 139.485 146.554 137.549 146.554C136.903 146.554 136.208 146.554 135.563 146.554C133.825 146.554 132.435 145.614 132.485 144.466C132.634 135.85 132.783 127.235 132.932 118.619C134.57 118.828 136.208 118.933 137.846 118.985C140.577 119.089 143.257 118.933 145.988 118.567C146.137 127.183 146.286 135.85 146.435 144.466Z" fill="#BFC6D1"/>
<path opacity="0.7" d="M138.54 14.9738L137.299 120.865L137.002 146.502C136.356 146.502 135.661 146.502 135.016 146.502C133.278 146.502 131.888 145.667 131.938 144.518C132.087 136.477 132.236 128.488 132.385 120.447C133.08 85.15 133.775 49.8531 134.42 14.5561C134.42 14.2428 134.519 13.9817 134.619 13.7207L138.54 14.9738Z" fill="url(#paint1_linear)"/>
<path d="M137.747 8.18591V12.102C137.747 12.1542 137.847 12.2064 137.847 12.2586C137.747 14.0339 136.457 15.3915 134.769 15.3915H115.408C113.671 15.3915 112.38 13.9817 112.38 12.102V8.18591C112.38 6.3584 113.621 5.05304 115.408 5.05304H134.769C136.506 5.05304 137.747 6.3584 137.747 8.18591Z" fill="url(#paint2_linear)"/>
<path d="M137.897 12.2586C137.797 14.0339 136.407 15.3915 134.72 15.3915H115.359C113.622 15.3915 112.331 13.9817 112.331 12.102V11.3188C113.572 11.9975 115.26 12.4675 116.402 11.9975C118.933 11.0055 121.217 10.1178 123.699 11.7365C126.231 13.3551 135.712 8.34253 136.805 9.85675C137.251 10.3789 137.599 11.2665 137.897 12.2586Z" fill="url(#paint3_linear)"/>
<path d="M138.889 7.97699L78.0771 24.3723C77.68 24.4767 77.2828 24.7378 77.0346 25.1033L74.9496 28.1318C74.8007 28.3928 74.7511 28.7061 74.9 28.9672C75.0489 29.2283 75.3468 29.3327 75.595 29.2805L138.095 16.9057L138.889 7.97699Z" fill="url(#paint4_linear)"/>
<path opacity="0.7" d="M139.186 14.3993L106.968 19.7252L136.754 9.43893L139.186 14.3993Z" fill="url(#paint5_linear)"/>
<path d="M165.497 -54.0538L164.851 -54.5237C164.553 -54.7848 164.107 -54.837 163.759 -54.7326C163.362 -54.6281 163.064 -54.3148 162.915 -53.9493L140.03 3.22545C139.782 3.7998 139.98 4.4786 140.477 4.8441L145.987 8.96904L148.966 9.96112L166.043 -52.5396C166.192 -53.1139 165.943 -53.7405 165.497 -54.0538Z" fill="url(#paint6_linear)"/>
<path d="M145.689 8.81256L155.369 -27.2154L140.675 5.00092L145.689 8.81256Z" fill="url(#paint7_linear)"/>
<path d="M185.701 58.5729L149.462 9.70023L141.37 14.2429L181.729 59.8783C182.424 60.6615 183.516 60.9226 184.46 60.5571L185.254 60.2438C185.552 60.1394 185.75 59.8783 185.85 59.565C185.999 59.1473 185.899 58.834 185.701 58.5729Z" fill="url(#paint8_linear)"/>
<path d="M147.676 10.9532L163.711 34.6585L143.804 14.3993L147.676 10.9532Z" fill="url(#paint9_linear)"/>
<path d="M151.101 10.7445C151.101 14.3995 143.506 17.0624 140.626 17.0624C137.747 17.0624 135.414 14.1384 135.414 10.4834C135.414 6.82837 137.747 3.90436 140.626 3.90436C143.506 3.90436 151.101 7.14166 151.101 10.7445Z" fill="url(#paint10_linear)"/>
<path opacity="0.8" d="M138.493 15.3915C137.996 15.3915 137.45 15.3392 137.004 15.1826C137.947 16.3313 139.237 17.0623 140.627 17.0623C143.507 17.0623 151.102 14.3994 151.102 10.7444C151.102 10.4311 151.052 10.17 150.953 9.85672C149.762 13.094 141.72 15.3915 138.493 15.3915Z" fill="url(#paint11_linear)"/>
<path d="M232.762 161.07C232.811 162.479 230.974 163.628 228.741 163.628C226.209 163.628 223.677 163.628 221.195 163.628C220.301 163.628 219.457 163.628 218.614 163.628C216.38 163.628 214.543 162.532 214.592 161.07C214.791 150.627 214.99 140.184 215.188 129.741C216.082 83.7923 216.975 37.8436 217.869 -8.15728C217.869 -8.52278 217.968 -8.9405 218.117 -9.25379C218.564 -10.1414 219.457 -10.768 220.45 -10.768C222.585 -10.768 224.72 -10.768 226.854 -10.768C228.244 -10.768 229.436 -9.56707 229.485 -8.15728C230.379 37.7914 231.272 83.7401 232.166 129.689C232.364 140.184 232.563 150.627 232.762 161.07Z" fill="url(#paint12_linear)"/>
<path opacity="0.7" d="M223.131 -7.68741L221.543 130.211L221.146 163.628C220.252 163.628 219.408 163.628 218.564 163.628C216.33 163.628 214.494 162.532 214.543 161.07C214.742 150.627 214.94 140.184 215.139 129.741C216.032 83.7923 216.926 37.8436 217.82 -8.15734C217.82 -8.52284 217.919 -8.94056 218.068 -9.25385L223.131 -7.68741Z" fill="url(#paint13_linear)"/>
<path d="M221.692 -13.17L151.25 30.3769C150.753 30.6902 150.406 31.1601 150.207 31.6822L148.618 36.2249C148.47 36.5904 148.569 37.0081 148.867 37.2692C149.165 37.5303 149.562 37.5825 149.86 37.4258L223.827 -1.73499L221.692 -13.17Z" fill="url(#paint14_linear)"/>
<path opacity="0.7" d="M224.224 -5.23329L185.801 13.6161L219.508 -10.5592L224.224 -5.23329Z" fill="url(#paint15_linear)"/>
<path d="M339.244 211.3L205.259 218.819C205.259 218.819 205.259 218.715 205.259 218.662C205.259 218.662 205.259 218.662 205.259 218.61C205.259 218.453 205.309 218.297 205.309 218.14H205.259C210.621 182.687 216.727 147.442 221.244 112.458C221.244 112.354 221.294 112.197 221.343 112.145C221.343 112.093 221.343 111.936 221.393 111.936L324.301 111.623C324.301 111.623 324.302 111.779 324.351 111.832C329.315 144.936 334.28 177.935 339.194 210.778C339.194 210.935 339.244 211.091 339.244 211.248C339.244 211.248 339.244 211.248 339.244 211.3C339.244 211.3 339.244 211.196 339.244 211.3Z" fill="url(#paint16_linear)"/>
<path opacity="0.5" d="M225.563 72.7752L225.662 114.547L225.762 114.599L221.443 142.638L210.174 215.582L209.727 218.506L209.429 220.542C207.096 220.02 205.706 219.446 205.359 218.715H205.259C205.259 218.715 205.259 218.61 205.259 218.558C205.259 218.558 205.259 218.558 205.259 218.506C205.259 218.453 205.259 218.401 205.259 218.349C205.259 218.245 205.309 218.088 205.359 217.983H205.309C210.67 182.53 216.776 147.285 221.294 112.302C221.294 112.145 221.195 111.936 221.145 111.779C221.145 111.571 221.344 111.362 221.344 111.153L221.294 71.5742L225.563 72.7752Z" fill="white"/>
<path d="M93.1143 193.182V221.691L82.888 221.848V193.286L93.1143 193.182Z" fill="url(#paint17_linear)"/>
<path opacity="0.4" d="M93.1143 201.902V207.645C91.8733 208.063 90.5826 208.324 88.9444 208.324C86.363 208.376 84.1291 207.802 82.888 206.966V202.841C84.1291 201.954 86.363 201.379 88.9444 201.327C90.5826 201.327 91.8733 201.536 93.1143 201.902Z" fill="url(#paint18_linear)"/>
<path d="M129.207 202.528L118.336 153.342C118.087 152.141 116.896 151.149 115.804 151.045L39.5532 145.823C38.1136 145.719 37.0711 146.659 37.22 148.069L44.5671 204.512C44.7657 206.079 46.2053 207.384 47.7442 207.332L127.569 205.087C128.76 205.087 129.505 203.886 129.207 202.528Z" fill="url(#paint19_linear)"/>
<path d="M119.526 151.097L42.829 145.823C41.3894 145.719 40.2973 146.659 40.4958 148.068L47.8925 204.408C48.0911 205.974 49.5307 207.28 51.0696 207.227L131.341 204.982C132.533 204.93 133.228 203.781 132.93 202.424L122.008 153.394C121.76 152.141 120.618 151.149 119.526 151.097Z" fill="url(#paint20_linear)"/>
<path d="M52.7569 149.844L53.849 157.467C53.8987 157.989 53.6008 158.355 53.1044 158.355L45.6084 157.989C45.112 157.989 44.6155 157.519 44.5659 156.997L43.4738 149.269C43.4241 148.747 43.7716 148.382 44.268 148.434L51.7144 148.904C52.2108 148.904 52.6576 149.322 52.7569 149.844Z" fill="url(#paint21_linear)"/>
<path d="M54.2976 160.652L55.4394 168.484C55.5386 169.007 55.1912 169.424 54.6947 169.372L47.0995 169.111C46.603 169.111 46.1066 168.641 46.057 168.119L45.0145 160.182C44.9648 159.66 45.3123 159.295 45.8088 159.295L53.3047 159.66C53.7515 159.712 54.2479 160.13 54.2976 160.652Z" fill="url(#paint22_linear)"/>
<path d="M55.8857 171.722L57.0274 179.71C57.1267 180.233 56.7792 180.65 56.2828 180.65L48.5883 180.546C48.0918 180.546 47.5954 180.076 47.5458 179.554L46.4536 171.408C46.404 170.886 46.7515 170.468 47.2479 170.468L54.8432 170.677C55.3892 170.782 55.836 171.199 55.8857 171.722Z" fill="url(#paint23_linear)"/>
<path d="M57.5719 183.052L58.7633 191.25C58.8626 191.772 58.5151 192.242 58.0186 192.242L50.2744 192.294C49.778 192.294 49.2816 191.876 49.1823 191.302L48.0405 182.947C47.9909 182.425 48.3384 181.955 48.8348 182.008L56.5294 182.112C57.0258 182.112 57.4726 182.53 57.5719 183.052Z" fill="url(#paint24_linear)"/>
<path d="M59.2605 194.696L60.5016 203.102C60.6009 203.677 60.2534 204.094 59.7569 204.147L51.9135 204.303C51.417 204.303 50.9206 203.886 50.8213 203.311L49.6796 194.748C49.5803 194.174 49.9774 193.756 50.4738 193.756L58.218 193.704C58.6648 193.704 59.1612 194.174 59.2605 194.696Z" fill="url(#paint25_linear)"/>
<path d="M63.282 150.47L64.4734 157.989C64.5727 158.459 64.2748 158.877 63.7784 158.825L56.5306 158.459C56.0342 158.459 55.5874 157.989 55.4882 157.519L54.396 149.896C54.3464 149.426 54.6939 149.008 55.1407 149.06L62.3388 149.53C62.7359 149.583 63.1827 150 63.282 150.47Z" fill="url(#paint26_linear)"/>
<path d="M64.9197 161.122L66.1111 168.798C66.2104 169.32 65.9125 169.685 65.4161 169.685L58.0691 169.424C57.5726 169.424 57.1259 168.954 57.0266 168.484L55.8848 160.704C55.8352 160.182 56.1826 159.817 56.6294 159.817L63.8772 160.182C64.4233 160.234 64.8701 160.652 64.9197 161.122Z" fill="url(#paint27_linear)"/>
<path d="M66.6576 172.035L67.8987 179.919C67.9979 180.441 67.7001 180.859 67.2037 180.859L59.807 180.755C59.3105 180.755 58.8638 180.337 58.7645 179.763L57.5731 171.774C57.4738 171.252 57.8709 170.834 58.3673 170.886L65.6648 171.095C66.1115 171.095 66.5583 171.513 66.6576 172.035Z" fill="url(#paint28_linear)"/>
<path d="M68.3957 183.209L69.6367 191.25C69.736 191.772 69.4382 192.242 68.9417 192.242L61.4458 192.294C60.9493 192.294 60.4529 191.876 60.4033 191.302L59.2118 183.104C59.1126 182.582 59.5097 182.164 60.0061 182.164L67.4028 182.269C67.8496 182.217 68.2964 182.687 68.3957 183.209Z" fill="url(#paint29_linear)"/>
<path d="M70.183 194.644L71.4737 202.894C71.573 203.416 71.2751 203.886 70.7787 203.886L63.2331 204.042C62.7367 204.042 62.2402 203.625 62.141 203.05L60.8999 194.644C60.8006 194.122 61.1978 193.652 61.6942 193.652L69.1405 193.599C69.6369 193.652 70.0837 194.069 70.183 194.644Z" fill="url(#paint30_linear)"/>
<path d="M73.458 151.149C73.3587 150.679 72.9615 150.262 72.5148 150.209L65.5648 149.739C65.1181 149.687 64.8202 150.053 64.8698 150.575L66.0613 158.041C66.1605 158.511 66.6073 158.929 67.0541 158.981L74.0537 159.347C74.5004 159.347 74.7983 158.981 74.699 158.511L73.458 151.149Z" fill="url(#paint31_linear)"/>
<path d="M75.2467 161.592L76.5374 169.163C76.6367 169.685 76.3388 170.051 75.8921 170.051L68.8429 169.842C68.3961 169.842 67.9493 169.424 67.85 168.902L66.6586 161.226C66.5593 160.704 66.9068 160.339 67.3536 160.391L74.3532 160.704C74.7503 160.704 75.1474 161.122 75.2467 161.592Z" fill="url(#paint32_linear)"/>
<path d="M77.0344 172.296L78.3251 180.024C78.3251 180.076 78.3748 180.128 78.3748 180.128C78.3748 180.598 78.1266 180.911 77.6798 180.911L70.5313 180.807C70.0349 180.807 69.5881 180.389 69.5384 179.867L68.2974 172.035C68.1981 171.513 68.5456 171.147 68.9924 171.147L76.0416 171.356C76.538 171.408 76.9351 171.826 77.0344 172.296Z" fill="url(#paint33_linear)"/>
<path d="M78.8706 183.313L80.211 191.25C80.3103 191.772 80.0124 192.19 79.5656 192.19L72.3675 192.242C71.8711 192.242 71.4243 191.824 71.3747 191.302L70.084 183.261C69.9847 182.739 70.3322 182.321 70.7789 182.321L77.8778 182.426C78.3742 182.373 78.7714 182.791 78.8706 183.313Z" fill="url(#paint34_linear)"/>
<path d="M80.7562 194.539L82.1461 202.685C82.2454 203.207 81.9476 203.677 81.5008 203.677L74.253 203.834C73.7566 203.834 73.3098 203.416 73.2105 202.894L71.9198 194.644C71.8205 194.122 72.168 193.652 72.6148 193.652L79.813 193.6C80.2597 193.6 80.6569 194.017 80.7562 194.539Z" fill="url(#paint35_linear)"/>
<path d="M83.3377 151.776C83.2384 151.306 82.8413 150.888 82.4442 150.888L75.7424 150.47C75.2957 150.418 75.0474 150.784 75.1467 151.306L76.3878 158.668C76.4871 159.138 76.8842 159.556 77.331 159.608L84.0823 159.921C84.5291 159.921 84.7773 159.556 84.6781 159.086L83.3377 151.776Z" fill="url(#paint36_linear)"/>
<path d="M85.1741 162.062C85.0748 161.592 84.6776 161.175 84.2309 161.175L77.4795 160.861C77.0327 160.861 76.7845 161.227 76.8838 161.697L78.1745 169.216C78.2738 169.738 78.6709 170.103 79.1177 170.155L85.9187 170.364C86.3655 170.364 86.6137 169.999 86.5144 169.477L85.1741 162.062Z" fill="url(#paint37_linear)"/>
<path d="M87.06 172.609C86.9607 172.14 86.5636 171.722 86.1168 171.67L79.3158 171.461C78.869 171.461 78.6208 171.826 78.6704 172.348L79.9612 180.076C80.0604 180.598 80.4576 181.016 80.9044 181.016L87.755 181.12C88.2018 181.12 88.45 180.703 88.3507 180.233L87.06 172.609Z" fill="url(#paint38_linear)"/>
<path d="M88.9969 183.418L90.3869 191.198C90.4861 191.72 90.2379 192.138 89.7912 192.138L82.8909 192.19C82.4441 192.19 82.047 191.772 81.9477 191.25L80.6073 183.366C80.508 182.843 80.8059 182.426 81.2527 182.426L88.1033 182.53C88.5005 182.478 88.8976 182.896 88.9969 183.418Z" fill="url(#paint39_linear)"/>
<path d="M90.9809 194.435L92.4205 202.424C92.5198 202.946 92.2716 203.364 91.8248 203.416L84.8749 203.573C84.4281 203.573 83.9813 203.155 83.9317 202.633L82.5417 194.539C82.4424 194.017 82.7403 193.6 83.1871 193.6L90.0873 193.547C90.4845 193.495 90.8816 193.913 90.9809 194.435Z" fill="url(#paint40_linear)"/>
<path d="M93.017 152.35C92.9177 151.88 92.471 151.462 92.0738 151.462L85.5211 151.045C85.0743 150.992 84.7764 151.358 84.8757 151.828L86.1664 159.086C86.2657 159.556 86.7125 159.973 87.1096 159.973L93.712 160.287C94.1588 160.287 94.4567 159.921 94.3574 159.451L93.017 152.35Z" fill="url(#paint41_linear)"/>
<path d="M94.9552 162.532C94.8559 162.062 94.4092 161.644 94.012 161.644L87.4096 161.331C86.9628 161.331 86.665 161.697 86.7642 162.167L88.1046 169.581C88.2039 170.051 88.6507 170.469 89.0974 170.469L95.7495 170.678C96.1963 170.678 96.4941 170.312 96.3949 169.842L94.9552 162.532Z" fill="url(#paint42_linear)"/>
<path d="M96.89 172.871C96.7907 172.401 96.3439 171.983 95.8971 171.983L89.2451 171.774C88.7983 171.774 88.5004 172.14 88.5501 172.662L89.9401 180.233C90.0393 180.755 90.4861 181.12 90.9329 181.173L97.6346 181.277C98.0814 181.277 98.3792 180.912 98.28 180.389L96.89 172.871Z" fill="url(#paint43_linear)"/>
<path d="M98.9262 183.522L100.366 191.198C100.465 191.72 100.167 192.137 99.7205 192.137L92.9692 192.19C92.5224 192.19 92.026 191.772 91.9763 191.25L90.5863 183.47C90.487 182.948 90.7849 182.582 91.2317 182.582L97.9334 182.687C98.3305 182.687 98.7277 183 98.8766 183.47C98.8766 183.418 98.9262 183.47 98.9262 183.522Z" fill="url(#paint44_linear)"/>
<path d="M101.012 194.383L102.501 202.215C102.6 202.737 102.302 203.155 101.856 203.155L95.0547 203.311C94.6079 203.311 94.1115 202.894 94.0122 202.372L92.5726 194.435C92.4733 193.913 92.7712 193.495 93.2179 193.495L99.9693 193.443C100.416 193.443 100.913 193.861 101.012 194.383Z" fill="url(#paint45_linear)"/>
<path d="M102.152 152.977C102.053 152.507 101.706 152.141 101.259 152.089L94.9542 151.671C94.557 151.619 94.2592 151.984 94.3585 152.454L95.6988 159.608C95.7981 160.078 96.1952 160.495 96.642 160.495L102.947 160.809C103.344 160.809 103.592 160.443 103.493 160.025L102.152 152.977Z" fill="url(#paint46_linear)"/>
<path d="M104.138 162.949C104.039 162.48 103.691 162.114 103.244 162.062L96.8903 161.749C96.4931 161.749 96.1953 162.114 96.2946 162.584L97.6846 169.894C97.7838 170.364 98.2306 170.782 98.6278 170.782L104.982 170.99C105.379 170.99 105.627 170.625 105.528 170.155L104.138 162.949Z" fill="url(#paint47_linear)"/>
<path d="M106.171 173.131C106.072 172.661 105.675 172.244 105.278 172.244L98.8738 172.035C98.427 172.035 98.1788 172.4 98.2781 172.87L99.7177 180.337C99.817 180.807 100.264 181.225 100.661 181.225L107.065 181.329C107.462 181.329 107.71 180.964 107.611 180.441L106.171 173.131Z" fill="url(#paint48_linear)"/>
<path d="M108.257 183.626L109.746 191.145C109.845 191.668 109.647 192.033 109.2 192.033L102.697 192.085C102.25 192.085 101.853 191.668 101.754 191.198L100.314 183.574C100.264 183.418 100.314 183.313 100.314 183.209C100.364 182.895 100.612 182.687 100.91 182.687L107.313 182.739C107.81 182.739 108.157 183.104 108.257 183.626Z" fill="url(#paint49_linear)"/>
<path d="M110.443 194.278L111.982 202.006C112.081 202.528 111.882 202.946 111.436 202.946L104.883 203.102C104.436 203.102 104.039 202.685 103.94 202.163L102.45 194.33C102.351 193.808 102.649 193.391 103.046 193.391L109.549 193.338C109.946 193.391 110.294 193.808 110.443 194.278Z" fill="url(#paint50_linear)"/>
<path d="M111.236 153.551C111.137 153.081 110.74 152.715 110.343 152.715L104.237 152.298C103.84 152.246 103.591 152.611 103.691 153.081L105.13 160.13C105.23 160.6 105.577 160.965 105.974 161.018L112.13 161.331C112.527 161.331 112.775 161.018 112.676 160.548L111.236 153.551Z" fill="url(#paint51_linear)"/>
<path d="M113.322 163.367C113.223 162.897 112.826 162.532 112.379 162.48L106.273 162.166C105.876 162.166 105.628 162.532 105.727 162.95L107.167 170.155C107.266 170.625 107.613 171.043 108.06 171.043L114.265 171.252C114.663 171.252 114.911 170.886 114.811 170.416L113.322 163.367Z" fill="url(#paint52_linear)"/>
<path d="M115.407 173.445C115.308 172.975 114.861 172.557 114.464 172.557L108.308 172.348C107.911 172.348 107.663 172.714 107.762 173.184L109.252 180.546C109.351 181.016 109.698 181.433 110.145 181.433L116.4 181.538C116.797 181.538 117.046 181.172 116.946 180.703L115.407 173.445Z" fill="url(#paint53_linear)"/>
<path d="M117.592 183.679L119.131 191.093C119.23 191.563 118.982 191.981 118.535 191.981L112.28 192.033C111.883 192.033 111.486 191.615 111.387 191.145L109.848 183.627C109.749 183.157 109.947 182.739 110.394 182.739L116.649 182.791C117.046 182.843 117.493 183.209 117.592 183.679Z" fill="url(#paint54_linear)"/>
<path d="M119.775 194.226L121.364 201.797C121.463 202.319 121.215 202.685 120.768 202.737L114.464 202.894C114.066 202.894 113.669 202.476 113.57 202.006L112.031 194.33C111.932 193.808 112.13 193.443 112.577 193.443L118.882 193.391C119.279 193.338 119.676 193.704 119.775 194.226Z" fill="url(#paint55_linear)"/>
<path d="M119.925 154.073C119.825 153.655 119.428 153.238 119.031 153.238L113.124 152.872C112.726 152.872 112.528 153.185 112.627 153.655L114.116 160.548C114.216 161.018 114.563 161.383 114.96 161.435L120.917 161.749C121.315 161.749 121.513 161.435 121.414 160.965L119.925 154.073Z" fill="url(#paint56_linear)"/>
<path d="M122.059 163.785C121.959 163.315 121.562 162.95 121.165 162.95L115.258 162.689C114.86 162.689 114.662 163.002 114.761 163.472L116.25 170.521C116.35 170.991 116.697 171.356 117.094 171.408L123.101 171.617C123.498 171.617 123.697 171.252 123.597 170.782L122.059 163.785Z" fill="url(#paint57_linear)"/>
<path d="M124.242 173.654C124.143 173.184 123.746 172.818 123.349 172.818L117.392 172.662C116.994 172.662 116.796 173.027 116.895 173.497L118.434 180.703C118.533 181.173 118.881 181.59 119.278 181.59L125.334 181.695C125.732 181.695 125.93 181.329 125.831 180.859L124.242 173.654Z" fill="url(#paint58_linear)"/>
<path d="M126.477 183.783L128.066 191.093C128.165 191.563 127.917 191.981 127.519 191.981L121.463 192.033C121.066 192.033 120.669 191.668 120.57 191.145L118.981 183.731C118.981 183.627 118.931 183.522 118.931 183.418C118.981 183.104 119.18 182.896 119.477 182.896L125.534 182.948C125.931 182.948 126.328 183.313 126.477 183.783Z" fill="url(#paint59_linear)"/>
<path d="M128.711 194.122L130.349 201.588C130.449 202.058 130.2 202.476 129.803 202.476L123.697 202.633C123.3 202.633 122.903 202.267 122.804 201.745L121.215 194.174C121.116 193.704 121.314 193.286 121.712 193.286L127.818 193.234C128.215 193.286 128.612 193.652 128.711 194.122Z" fill="url(#paint60_linear)"/>
<path opacity="0.2" d="M49.6791 148.747C50.7215 149.374 51.8137 150 52.9058 150.731L53.8987 157.467C53.9483 157.989 53.6504 158.355 53.154 158.355L45.658 157.989C45.1616 157.989 44.6652 157.519 44.6155 156.997L43.4738 149.269C43.4241 148.747 43.7716 148.382 44.268 148.434L49.6791 148.747Z" fill="url(#paint61_linear)"/>
<path opacity="0.2" d="M54.2971 160.652L55.4389 168.485C55.5382 169.007 55.1907 169.424 54.6942 169.372L47.099 169.111C46.6025 169.111 46.1061 168.641 46.0565 168.119L45.014 160.182C44.9644 159.66 45.3119 159.295 45.8083 159.295L53.3043 159.66C53.751 159.713 54.2475 160.13 54.2971 160.652Z" fill="url(#paint62_linear)"/>
<path opacity="0.2" d="M55.8852 171.722L57.027 179.711C57.1262 180.233 56.7787 180.65 56.2823 180.65L48.5878 180.546C48.0913 180.546 47.5949 180.076 47.5453 179.554L46.4531 171.408C46.4035 170.886 46.751 170.469 47.2474 170.469L54.8427 170.677C55.3888 170.782 55.8355 171.2 55.8852 171.722Z" fill="url(#paint63_linear)"/>
<path opacity="0.2" d="M57.5739 183.052L58.7654 191.25C58.8646 191.772 58.5171 192.242 58.0207 192.242L50.2765 192.294C49.7801 192.294 49.2837 191.876 49.1844 191.302L48.0426 182.948C47.993 182.425 48.3405 181.956 48.8369 182.008L56.5314 182.112C57.0279 182.112 57.4747 182.53 57.5739 183.052Z" fill="url(#paint64_linear)"/>
<path opacity="0.2" d="M59.26 194.696L60.5011 203.103C60.6004 203.677 60.2529 204.095 59.7565 204.147L51.913 204.303C51.4166 204.303 50.9201 203.886 50.8208 203.311L49.6791 194.748C49.5798 194.174 49.9769 193.756 50.4733 193.756L58.2175 193.704C58.6643 193.704 59.1608 194.174 59.26 194.696Z" fill="url(#paint65_linear)"/>
<path opacity="0.2" d="M55.4392 157.519L54.6449 151.985C57.3256 153.864 59.9566 156.11 62.5877 158.773L56.4817 158.459C55.9852 158.459 55.5385 158.042 55.4392 157.519Z" fill="url(#paint66_linear)"/>
<path opacity="0.2" d="M63.926 160.182C64.2735 160.6 64.621 160.966 64.9685 161.383L66.1103 168.798C66.2095 169.32 65.9117 169.685 65.4153 169.685L58.0682 169.424C57.5718 169.424 57.125 168.954 57.0257 168.484L55.8839 160.704C55.8343 160.182 56.1818 159.817 56.6286 159.817L63.926 160.182Z" fill="url(#paint67_linear)"/>
<path opacity="0.2" d="M66.6567 172.035L67.8978 179.919C67.9971 180.442 67.6992 180.859 67.2028 180.859L59.8061 180.755C59.3097 180.755 58.8629 180.337 58.7636 179.763L57.5722 171.774C57.4729 171.252 57.8701 170.834 58.3665 170.886L65.6639 171.095C66.1107 171.095 66.5575 171.513 66.6567 172.035Z" fill="url(#paint68_linear)"/>
<path opacity="0.2" d="M68.3948 183.209L69.6359 191.25C69.7352 191.772 69.4373 192.242 68.9409 192.242L61.4449 192.294C60.9485 192.294 60.452 191.876 60.4024 191.302L59.211 183.104C59.1117 182.582 59.5088 182.165 60.0053 182.165L67.402 182.269C67.8488 182.217 68.2955 182.687 68.3948 183.209Z" fill="url(#paint69_linear)"/>
<path opacity="0.2" d="M70.1822 194.644L71.4729 202.894C71.5721 203.416 71.2743 203.886 70.7779 203.886L63.2322 204.042C62.7358 204.042 62.2394 203.625 62.1401 203.05L60.899 194.644C60.7998 194.122 61.1969 193.652 61.6933 193.652L69.1397 193.6C69.6361 193.652 70.0829 194.069 70.1822 194.644Z" fill="url(#paint70_linear)"/>
<path opacity="0.2" d="M67.8001 168.85L67.0058 163.837C68.4454 165.665 69.8354 167.701 71.1261 169.894L68.7929 169.842C68.2965 169.79 67.8497 169.372 67.8001 168.85Z" fill="url(#paint71_linear)"/>
<path opacity="0.2" d="M69.5371 179.919L68.296 172.087C68.1968 171.565 68.5443 171.199 68.991 171.199L71.8703 171.304C72.2178 171.878 72.5156 172.453 72.8135 173.079C74.4517 176.212 76.2885 178.562 78.3238 180.233C78.3238 180.703 78.0756 181.016 77.6288 181.016L70.4803 180.911C70.0832 180.859 69.6364 180.441 69.5371 179.919Z" fill="url(#paint72_linear)"/>
<path opacity="0.2" d="M78.8693 183.313L80.2096 191.25C80.3089 191.772 80.0111 192.19 79.5643 192.19L72.3662 192.242C71.8697 192.242 71.423 191.824 71.3733 191.302L70.0826 183.261C69.9833 182.739 70.3308 182.321 70.7776 182.321L77.8764 182.426C78.3729 182.373 78.77 182.791 78.8693 183.313Z" fill="url(#paint73_linear)"/>
<path opacity="0.2" d="M80.7548 194.539L82.1448 202.685C82.2441 203.207 81.9462 203.677 81.4994 203.677L74.2517 203.834C73.7553 203.834 73.3085 203.416 73.2092 202.894L71.9185 194.644C71.8192 194.122 72.1667 193.652 72.6135 193.652L79.8116 193.6C80.2584 193.6 80.6555 194.017 80.7548 194.539Z" fill="url(#paint74_linear)"/>
<path opacity="0.2" d="M81.8973 182.426C84.1809 183.47 86.7126 183.992 89.1451 184.096L90.4358 191.198C90.5351 191.72 90.2869 192.137 89.8401 192.137L82.9398 192.19C82.493 192.19 82.0959 191.772 81.9966 191.25L80.6563 183.365C80.557 182.843 80.8052 182.426 81.3016 182.426H81.8973Z" fill="url(#paint75_linear)"/>
<path opacity="0.2" d="M90.9833 194.435L92.4229 202.424C92.5222 202.946 92.274 203.364 91.8272 203.416L84.8773 203.572C84.4305 203.572 83.9837 203.155 83.9341 202.633L82.5441 194.539C82.4448 194.017 82.7427 193.599 83.1894 193.599L90.0897 193.547C90.4869 193.495 90.884 193.913 90.9833 194.435Z" fill="url(#paint76_linear)"/>
<path opacity="0.2" d="M98.8265 183.365C98.8265 183.418 98.9258 183.47 98.9258 183.522L100.365 191.198C100.465 191.72 100.167 192.137 99.7201 192.137L92.9687 192.19C92.5219 192.19 92.0255 191.772 91.9759 191.25L90.6852 184.149C93.4651 184.096 96.0962 183.783 98.8265 183.365Z" fill="url(#paint77_linear)"/>
<path opacity="0.2" d="M101.011 194.383L102.5 202.215C102.599 202.737 102.301 203.155 101.854 203.155L95.0534 203.311C94.6067 203.311 94.1102 202.894 94.0109 202.372L92.5713 194.435C92.472 193.913 92.7699 193.495 93.2167 193.495L99.968 193.443C100.415 193.443 100.911 193.861 101.011 194.383Z" fill="url(#paint78_linear)"/>
<path opacity="0.2" d="M108.257 183.627L109.746 191.145C109.846 191.668 109.647 192.033 109.2 192.033L102.697 192.085C102.25 192.085 101.853 191.668 101.754 191.198L100.314 183.574C100.265 183.418 100.314 183.313 100.314 183.209C101.406 183.052 102.499 182.896 103.64 182.739L107.364 182.791C107.81 182.739 108.158 183.104 108.257 183.627Z" fill="url(#paint79_linear)"/>
<path opacity="0.2" d="M110.443 194.278L111.982 202.006C112.081 202.528 111.883 202.946 111.436 202.946L104.883 203.103C104.436 203.103 104.039 202.685 103.94 202.163L102.451 194.331C102.351 193.808 102.649 193.391 103.046 193.391L109.55 193.338C109.947 193.391 110.294 193.808 110.443 194.278Z" fill="url(#paint80_linear)"/>
<path opacity="0.2" d="M117.591 183.679L119.13 191.093C119.229 191.563 118.981 191.981 118.534 191.981L112.279 192.033C111.882 192.033 111.485 191.615 111.386 191.145L109.847 183.627C109.747 183.157 109.946 182.739 110.393 182.739L116.648 182.791C117.045 182.843 117.492 183.209 117.591 183.679Z" fill="url(#paint81_linear)"/>
<path opacity="0.2" d="M119.774 194.226L121.363 201.797C121.462 202.319 121.214 202.685 120.767 202.737L114.462 202.894C114.065 202.894 113.668 202.476 113.569 202.006L112.03 194.331C111.931 193.808 112.129 193.443 112.576 193.443L118.881 193.391C119.278 193.339 119.675 193.704 119.774 194.226Z" fill="url(#paint82_linear)"/>
<path opacity="0.2" d="M127.817 189.892L128.065 191.093C128.164 191.563 127.916 191.981 127.519 191.981L121.463 192.033C121.066 192.033 120.668 191.668 120.569 191.145L118.981 183.731C118.981 183.627 118.931 183.522 118.931 183.418C121.661 184.41 124.243 186.133 126.774 188.848C127.172 189.161 127.37 189.527 127.817 189.892Z" fill="url(#paint83_linear)"/>
<path opacity="0.2" d="M128.711 194.122L130.349 201.588C130.448 202.058 130.2 202.476 129.803 202.476L123.697 202.633C123.3 202.633 122.903 202.267 122.803 201.745L121.215 194.174C121.115 193.704 121.314 193.286 121.711 193.286L127.817 193.234C128.214 193.286 128.611 193.652 128.711 194.122Z" fill="url(#paint84_linear)"/>
<path d="M177.064 191.145V232.812L161.923 233.073V191.302L177.064 191.145Z" fill="url(#paint85_linear)"/>
<path d="M230.181 204.825L214.295 132.926C213.898 131.151 212.21 129.689 210.572 129.584L99.0261 121.857C96.8914 121.7 95.3525 123.11 95.6504 125.146L106.472 207.749C106.77 210.047 108.855 211.979 111.089 211.874L227.848 208.585C229.536 208.533 230.628 206.81 230.181 204.825Z" fill="url(#paint86_linear)"/>
<path d="M216.033 129.584L103.941 121.909C101.806 121.752 100.267 123.162 100.515 125.198L111.337 207.593C111.635 209.89 113.72 211.77 116.004 211.718L233.358 208.428C235.046 208.376 236.138 206.653 235.691 204.669L219.756 132.926C219.359 131.099 217.671 129.689 216.033 129.584Z" fill="url(#paint87_linear)"/>
<path d="M118.387 127.757L120.025 138.879C120.124 139.61 119.628 140.184 118.933 140.132L107.912 139.61C107.168 139.558 106.473 138.931 106.373 138.2L104.834 126.922C104.735 126.191 105.281 125.616 105.976 125.669L116.848 126.347C117.592 126.4 118.238 127.026 118.387 127.757Z" fill="url(#paint88_linear)"/>
<path d="M120.672 143.526L122.31 154.961C122.409 155.692 121.913 156.318 121.218 156.266L110.098 155.901C109.353 155.901 108.658 155.222 108.559 154.491L107.02 142.899C106.921 142.168 107.467 141.594 108.162 141.594L119.182 142.116C119.877 142.168 120.572 142.795 120.672 143.526Z" fill="url(#paint89_linear)"/>
<path d="M123.003 159.764L124.691 171.46C124.79 172.244 124.294 172.87 123.599 172.818L112.38 172.661C111.635 172.661 110.94 171.983 110.841 171.199L109.252 159.294C109.153 158.511 109.699 157.937 110.444 157.937L121.564 158.25C122.209 158.355 122.904 158.981 123.003 159.764Z" fill="url(#paint90_linear)"/>
<path d="M125.437 176.369L127.174 188.378C127.273 189.161 126.777 189.84 126.082 189.84L114.764 189.892C114.019 189.892 113.274 189.266 113.175 188.43L111.537 176.264C111.438 175.481 111.984 174.854 112.728 174.854L123.947 175.011C124.593 174.959 125.288 175.585 125.437 176.369Z" fill="url(#paint91_linear)"/>
<path d="M127.868 193.391L129.655 205.713C129.754 206.549 129.258 207.175 128.513 207.227L117.046 207.488C116.301 207.488 115.557 206.862 115.457 206.026L113.769 193.547C113.67 192.764 114.216 192.085 114.961 192.085L126.279 192.033C127.074 191.929 127.769 192.607 127.868 193.391Z" fill="url(#paint92_linear)"/>
<path d="M133.775 128.697L135.513 139.662C135.612 140.393 135.215 140.967 134.52 140.915L123.896 140.393C123.201 140.341 122.506 139.714 122.407 138.983L120.769 127.861C120.67 127.13 121.166 126.608 121.861 126.66L132.385 127.339C133.031 127.391 133.626 128.018 133.775 128.697Z" fill="url(#paint93_linear)"/>
<path d="M136.209 144.257L137.946 155.483C138.045 156.214 137.648 156.788 136.953 156.788L126.231 156.423C125.536 156.423 124.841 155.796 124.741 155.013L123.053 143.63C122.954 142.899 123.451 142.325 124.195 142.377L134.819 142.899C135.464 142.899 136.06 143.526 136.209 144.257Z" fill="url(#paint94_linear)"/>
<path d="M138.691 160.182L140.478 171.669C140.578 172.452 140.181 173.027 139.486 173.027L128.664 172.87C127.969 172.87 127.224 172.244 127.125 171.46L125.387 159.764C125.288 159.033 125.784 158.407 126.529 158.459L137.252 158.772C137.947 158.825 138.592 159.451 138.691 160.182Z" fill="url(#paint95_linear)"/>
<path d="M141.272 176.525L143.109 188.326C143.208 189.109 142.811 189.736 142.066 189.736L131.145 189.788C130.4 189.788 129.705 189.161 129.606 188.378L127.869 176.421C127.769 175.638 128.266 175.011 129.01 175.011L139.832 175.115C140.478 175.115 141.123 175.742 141.272 176.525Z" fill="url(#paint96_linear)"/>
<path d="M143.853 193.234L145.74 205.348C145.889 206.131 145.442 206.81 144.697 206.81L133.677 207.071C132.932 207.071 132.237 206.444 132.088 205.609L130.301 193.338C130.202 192.555 130.698 191.876 131.443 191.876L142.364 191.824C143.109 191.824 143.754 192.451 143.853 193.234Z" fill="url(#paint97_linear)"/>
<path d="M148.669 129.637C148.57 128.958 147.974 128.331 147.279 128.279L137.103 127.6C136.408 127.548 135.961 128.07 136.11 128.801L137.847 139.714C137.946 140.445 138.592 141.072 139.287 141.072L149.513 141.594C150.158 141.646 150.605 141.072 150.456 140.341L148.669 129.637Z" fill="url(#paint98_linear)"/>
<path d="M151.251 144.935L153.088 156.005C153.187 156.736 152.79 157.31 152.145 157.31L141.819 156.997C141.124 156.997 140.479 156.37 140.38 155.639L138.592 144.413C138.493 143.682 138.94 143.108 139.635 143.16L149.861 143.63C150.507 143.63 151.152 144.256 151.251 144.935Z" fill="url(#paint99_linear)"/>
<path d="M153.882 160.652L155.768 171.982C155.768 172.034 155.818 172.087 155.818 172.139C155.867 172.818 155.421 173.288 154.825 173.288L144.4 173.131C143.705 173.131 143.06 172.504 142.911 171.721L141.074 160.234C140.975 159.503 141.421 158.929 142.116 158.929L152.442 159.242C153.137 159.294 153.782 159.921 153.882 160.652Z" fill="url(#paint100_linear)"/>
<path d="M156.564 176.682L158.5 188.273C158.649 189.057 158.202 189.683 157.556 189.683L147.032 189.735C146.337 189.735 145.692 189.109 145.543 188.326L143.657 176.577C143.557 175.794 144.004 175.22 144.699 175.22L155.124 175.324C155.819 175.324 156.464 175.951 156.564 176.682Z" fill="url(#paint101_linear)"/>
<path d="M159.344 193.129L161.33 204.982C161.479 205.765 161.032 206.392 160.387 206.444L149.763 206.705C149.068 206.705 148.373 206.078 148.274 205.295L146.338 193.234C146.238 192.451 146.685 191.824 147.38 191.824L157.904 191.772C158.599 191.72 159.245 192.346 159.344 193.129Z" fill="url(#paint102_linear)"/>
<path d="M163.113 130.577C163.014 129.898 162.418 129.271 161.773 129.271L151.993 128.645C151.348 128.592 150.951 129.115 151.1 129.846L152.937 140.602C153.036 141.333 153.632 141.907 154.327 141.959L164.156 142.429C164.801 142.481 165.149 141.907 165 141.228L163.113 130.577Z" fill="url(#paint103_linear)"/>
<path d="M165.795 145.614C165.646 144.883 165.1 144.309 164.455 144.309L154.576 143.839C153.931 143.787 153.534 144.361 153.682 145.092L155.569 156.109C155.668 156.84 156.264 157.467 156.959 157.467L166.887 157.78C167.533 157.78 167.88 157.258 167.781 156.527L165.795 145.614Z" fill="url(#paint104_linear)"/>
<path d="M168.575 161.07C168.426 160.339 167.88 159.764 167.235 159.712L157.306 159.399C156.661 159.399 156.264 159.973 156.413 160.704L158.349 171.982C158.498 172.714 159.094 173.34 159.739 173.34L169.767 173.497C170.412 173.497 170.759 172.922 170.66 172.191L168.575 161.07Z" fill="url(#paint105_linear)"/>
<path d="M171.406 176.838L173.441 188.221C173.59 188.952 173.193 189.579 172.547 189.579L162.42 189.631C161.725 189.631 161.179 189.004 161.03 188.273L159.045 176.734C158.896 176.003 159.293 175.376 159.988 175.376L170.016 175.481C170.711 175.481 171.257 176.107 171.406 176.838Z" fill="url(#paint106_linear)"/>
<path d="M174.284 192.973L176.369 204.669C176.518 205.452 176.121 206.079 175.476 206.079L165.299 206.34C164.604 206.34 164.008 205.713 163.909 204.93L161.874 193.077C161.725 192.294 162.122 191.667 162.817 191.667L172.944 191.615C173.589 191.615 174.135 192.242 174.284 192.973Z" fill="url(#paint107_linear)"/>
<path d="M177.261 131.464C177.112 130.785 176.467 130.211 175.871 130.159L166.29 129.532C165.645 129.48 165.198 130.002 165.297 130.681L167.233 141.281C167.382 141.959 168.028 142.586 168.623 142.586L178.254 143.056C178.85 143.108 179.346 142.534 179.197 141.855L177.261 131.464Z" fill="url(#paint108_linear)"/>
<path d="M180.091 146.293C179.942 145.614 179.297 144.988 178.701 144.988L169.021 144.518C168.375 144.466 167.928 145.04 168.028 145.719L170.013 156.579C170.162 157.31 170.808 157.885 171.453 157.937L181.183 158.25C181.828 158.25 182.275 157.728 182.126 156.997L180.091 146.293Z" fill="url(#paint109_linear)"/>
<path d="M182.97 161.488C182.821 160.757 182.176 160.182 181.53 160.182L171.8 159.869C171.155 159.869 170.708 160.391 170.807 161.122L172.793 172.244C172.942 172.975 173.587 173.601 174.233 173.601L184.062 173.758C184.707 173.758 185.154 173.184 185.005 172.453L182.97 161.488Z" fill="url(#paint110_linear)"/>
<path d="M185.9 176.995L188.034 188.221C188.183 188.952 187.736 189.579 187.091 189.579L177.212 189.631C176.567 189.631 175.872 189.005 175.723 188.274L173.688 176.891C173.539 176.16 173.986 175.585 174.631 175.585L184.41 175.69C185.006 175.69 185.602 176.16 185.8 176.839C185.85 176.839 185.9 176.943 185.9 176.995Z" fill="url(#paint111_linear)"/>
<path d="M188.929 192.868L191.113 204.356C191.262 205.087 190.815 205.713 190.17 205.765L180.192 205.974C179.547 205.974 178.852 205.4 178.703 204.617L176.618 192.973C176.469 192.242 176.916 191.615 177.611 191.615L187.539 191.563C188.085 191.563 188.78 192.137 188.929 192.868Z" fill="url(#paint112_linear)"/>
<path d="M190.615 132.3C190.466 131.621 189.92 131.047 189.325 131.047L180.091 130.472C179.495 130.42 179.098 130.942 179.247 131.621L181.233 142.064C181.382 142.743 181.978 143.317 182.623 143.369L191.856 143.839C192.452 143.891 192.8 143.317 192.651 142.638L190.615 132.3Z" fill="url(#paint113_linear)"/>
<path d="M193.546 146.92C193.397 146.241 192.851 145.667 192.255 145.614L182.972 145.197C182.377 145.145 181.979 145.719 182.079 146.398L184.114 157.049C184.263 157.728 184.859 158.355 185.504 158.355L194.837 158.668C195.432 158.668 195.78 158.146 195.631 157.467L193.546 146.92Z" fill="url(#paint114_linear)"/>
<path d="M196.525 161.853C196.376 161.174 195.83 160.6 195.234 160.548L185.852 160.287C185.207 160.287 184.859 160.809 184.958 161.54L187.043 172.453C187.192 173.184 187.838 173.758 188.433 173.758L197.816 173.915C198.412 173.915 198.759 173.34 198.61 172.662L196.525 161.853Z" fill="url(#paint115_linear)"/>
<path d="M199.601 177.152L201.786 188.169C201.935 188.9 201.587 189.475 200.991 189.475L191.46 189.527C190.815 189.527 190.219 188.953 190.07 188.222L187.935 177.048C187.886 176.839 187.935 176.682 187.935 176.473C188.035 176.003 188.382 175.742 188.829 175.742L198.211 175.847C198.906 175.847 199.452 176.421 199.601 177.152Z" fill="url(#paint116_linear)"/>
<path d="M202.73 192.764L204.964 204.042C205.113 204.773 204.766 205.4 204.17 205.4L194.589 205.609C193.944 205.609 193.348 205.035 193.199 204.251L191.015 192.816C190.866 192.085 191.313 191.459 191.908 191.459L201.39 191.407C201.986 191.459 202.582 192.033 202.73 192.764Z" fill="url(#paint117_linear)"/>
<path d="M203.92 133.135C203.771 132.456 203.176 131.934 202.58 131.882L193.694 131.308C193.098 131.255 192.751 131.778 192.9 132.456L194.985 142.743C195.134 143.421 195.68 143.996 196.275 144.048L205.261 144.518C205.856 144.57 206.204 144.048 206.055 143.369L203.92 133.135Z" fill="url(#paint118_linear)"/>
<path d="M206.95 147.546C206.801 146.868 206.205 146.293 205.609 146.293L196.624 145.876C196.028 145.823 195.681 146.398 195.83 147.077L197.964 157.572C198.113 158.25 198.659 158.825 199.255 158.877L208.34 159.19C208.935 159.19 209.283 158.668 209.134 157.989L206.95 147.546Z" fill="url(#paint119_linear)"/>
<path d="M210.025 162.219C209.876 161.54 209.231 160.965 208.685 160.965L199.65 160.704C199.054 160.704 198.707 161.226 198.856 161.957L201.04 172.714C201.189 173.445 201.735 174.019 202.331 174.019L211.465 174.176C212.061 174.176 212.408 173.601 212.259 172.922L210.025 162.219Z" fill="url(#paint120_linear)"/>
<path d="M213.204 177.256L215.487 188.117C215.636 188.848 215.239 189.422 214.643 189.422L205.459 189.475C204.864 189.475 204.268 188.9 204.119 188.169L201.885 177.152C201.736 176.421 202.034 175.847 202.679 175.899L211.814 176.003C212.459 176.003 213.055 176.578 213.204 177.256Z" fill="url(#paint121_linear)"/>
<path d="M216.43 192.659L218.763 203.781C218.912 204.512 218.515 205.139 217.919 205.139L208.685 205.348C208.09 205.348 207.494 204.773 207.345 204.042L205.062 192.764C204.913 192.033 205.21 191.458 205.856 191.458L215.089 191.406C215.685 191.354 216.281 191.928 216.43 192.659Z" fill="url(#paint122_linear)"/>
<path d="M216.629 133.97C216.48 133.344 215.885 132.769 215.339 132.717L206.75 132.143C206.155 132.091 205.857 132.613 206.006 133.239L208.14 143.369C208.289 144.048 208.786 144.622 209.382 144.622L218.069 145.04C218.615 145.092 218.962 144.57 218.814 143.891L216.629 133.97Z" fill="url(#paint123_linear)"/>
<path d="M219.758 148.121C219.609 147.442 219.013 146.92 218.467 146.867L209.78 146.45C209.184 146.397 208.886 146.92 209.035 147.598L211.219 157.937C211.368 158.616 211.865 159.19 212.461 159.19L221.247 159.451C221.793 159.451 222.141 158.929 221.992 158.25L219.758 148.121Z" fill="url(#paint124_linear)"/>
<path d="M222.935 162.584C222.786 161.905 222.19 161.331 221.595 161.331L212.858 161.07C212.262 161.07 211.964 161.592 212.113 162.271L214.347 172.87C214.496 173.549 215.042 174.123 215.588 174.123L224.424 174.228C225.02 174.228 225.318 173.706 225.169 172.975L222.935 162.584Z" fill="url(#paint125_linear)"/>
<path opacity="0.2" d="M113.87 126.138C115.409 127.026 116.997 128.018 118.536 129.062L119.976 138.879C120.075 139.61 119.579 140.184 118.884 140.132L107.863 139.61C107.118 139.558 106.423 138.931 106.324 138.2L104.785 126.922C104.686 126.191 105.232 125.616 105.927 125.669L113.87 126.138Z" fill="url(#paint126_linear)"/>
<path opacity="0.2" d="M120.672 143.526L122.31 154.961C122.409 155.692 121.913 156.318 121.218 156.266L110.098 155.901C109.353 155.901 108.658 155.222 108.559 154.491L107.02 142.899C106.921 142.168 107.467 141.594 108.162 141.594L119.183 142.116C119.878 142.168 120.573 142.795 120.672 143.526Z" fill="url(#paint127_linear)"/>
<path opacity="0.2" d="M123.004 159.765L124.692 171.461C124.791 172.244 124.294 172.87 123.599 172.818L112.38 172.662C111.636 172.662 110.941 171.983 110.841 171.2L109.253 159.295C109.154 158.511 109.7 157.937 110.444 157.937L121.564 158.25C122.21 158.355 122.905 158.981 123.004 159.765Z" fill="url(#paint128_linear)"/>
<path opacity="0.2" d="M125.437 176.369L127.175 188.378C127.274 189.161 126.777 189.84 126.082 189.84L114.764 189.892C114.019 189.892 113.275 189.266 113.175 188.43L111.537 176.264C111.438 175.481 111.984 174.855 112.729 174.855L123.948 175.011C124.593 174.959 125.288 175.586 125.437 176.369Z" fill="url(#paint129_linear)"/>
<path opacity="0.2" d="M127.868 193.391L129.655 205.713C129.755 206.549 129.258 207.175 128.514 207.228L117.046 207.489C116.302 207.489 115.557 206.862 115.458 206.027L113.77 193.547C113.671 192.764 114.217 192.085 114.961 192.085L126.28 192.033C127.074 191.929 127.769 192.608 127.868 193.391Z" fill="url(#paint130_linear)"/>
<path opacity="0.2" d="M122.358 138.983L121.166 130.89C125.088 133.657 128.96 136.895 132.783 140.811L123.847 140.341C123.152 140.341 122.457 139.714 122.358 138.983Z" fill="url(#paint131_linear)"/>
<path opacity="0.2" d="M134.72 142.899C135.266 143.474 135.713 144.1 136.259 144.675L137.947 155.483C138.046 156.214 137.649 156.788 136.954 156.788L126.231 156.423C125.536 156.423 124.841 155.796 124.742 155.013L123.054 143.63C122.955 142.899 123.451 142.325 124.146 142.377L134.72 142.899Z" fill="url(#paint132_linear)"/>
<path opacity="0.2" d="M138.692 160.182L140.479 171.669C140.578 172.453 140.181 173.027 139.486 173.027L128.664 172.87C127.969 172.87 127.224 172.244 127.125 171.461L125.388 159.765C125.288 159.034 125.785 158.407 126.529 158.459L137.252 158.772C137.947 158.825 138.592 159.451 138.692 160.182Z" fill="url(#paint133_linear)"/>
<path opacity="0.2" d="M141.272 176.525L143.109 188.326C143.209 189.109 142.811 189.736 142.067 189.736L131.145 189.788C130.401 189.788 129.706 189.161 129.607 188.378L127.869 176.421C127.77 175.638 128.266 175.011 129.011 175.011L139.833 175.116C140.478 175.116 141.124 175.742 141.272 176.525Z" fill="url(#paint134_linear)"/>
<path opacity="0.2" d="M143.854 193.234L145.74 205.348C145.889 206.131 145.442 206.81 144.698 206.81L133.677 207.071C132.932 207.071 132.237 206.444 132.088 205.609L130.301 193.338C130.202 192.555 130.698 191.876 131.443 191.876L142.364 191.824C143.109 191.824 143.754 192.451 143.854 193.234Z" fill="url(#paint135_linear)"/>
<path opacity="0.2" d="M140.379 155.587L139.237 148.277C141.372 150.993 143.357 153.917 145.244 157.102L141.868 156.997C141.173 156.945 140.478 156.318 140.379 155.587Z" fill="url(#paint136_linear)"/>
<path opacity="0.2" d="M142.96 171.722L141.123 160.235C141.024 159.504 141.471 158.929 142.166 158.929L146.385 159.034C146.882 159.869 147.328 160.757 147.775 161.644C150.158 166.239 152.888 169.633 155.867 172.087C155.916 172.766 155.47 173.236 154.874 173.236L144.449 173.079C143.754 173.132 143.059 172.505 142.96 171.722Z" fill="url(#paint137_linear)"/>
<path opacity="0.2" d="M156.563 176.682L158.5 188.274C158.648 189.057 158.202 189.684 157.556 189.684L147.032 189.736C146.337 189.736 145.692 189.109 145.543 188.326L143.656 176.578C143.557 175.794 144.004 175.22 144.699 175.22L155.124 175.325C155.819 175.325 156.464 175.951 156.563 176.682Z" fill="url(#paint138_linear)"/>
<path opacity="0.2" d="M159.341 193.13L161.327 204.982C161.476 205.766 161.029 206.392 160.384 206.444L149.76 206.705C149.065 206.705 148.37 206.079 148.271 205.296L146.335 193.234C146.236 192.451 146.683 191.824 147.378 191.824L157.902 191.772C158.597 191.72 159.242 192.346 159.341 193.13Z" fill="url(#paint139_linear)"/>
<path opacity="0.2" d="M160.981 175.377C164.357 176.943 167.981 177.622 171.555 177.831L173.442 188.274C173.591 189.005 173.193 189.631 172.548 189.631L162.421 189.683C161.726 189.683 161.18 189.057 161.031 188.326L159.045 176.786C158.896 176.055 159.294 175.429 159.939 175.429L160.981 175.377Z" fill="url(#paint140_linear)"/>
<path opacity="0.2" d="M174.285 192.973L176.37 204.669C176.519 205.452 176.122 206.079 175.476 206.079L165.3 206.34C164.605 206.34 164.009 205.713 163.91 204.93L161.874 193.077C161.725 192.294 162.122 191.668 162.817 191.668L172.944 191.615C173.59 191.615 174.136 192.242 174.285 192.973Z" fill="url(#paint141_linear)"/>
<path opacity="0.2" d="M185.802 176.787C185.802 176.839 185.901 176.943 185.951 176.995L188.085 188.222C188.234 188.953 187.787 189.579 187.142 189.579L177.263 189.631C176.618 189.631 175.923 189.005 175.774 188.274L173.888 177.883C177.909 177.831 181.781 177.361 185.802 176.787Z" fill="url(#paint142_linear)"/>
<path opacity="0.2" d="M188.929 192.868L191.114 204.356C191.263 205.087 190.816 205.713 190.171 205.765L180.192 205.974C179.547 205.974 178.852 205.4 178.703 204.617L176.618 192.973C176.469 192.242 176.916 191.615 177.611 191.615L187.539 191.563C188.086 191.563 188.781 192.137 188.929 192.868Z" fill="url(#paint143_linear)"/>
<path opacity="0.2" d="M199.604 177.152L201.788 188.169C201.937 188.9 201.589 189.475 200.994 189.475L191.462 189.527C190.817 189.527 190.221 188.953 190.072 188.222L187.938 177.048C187.888 176.839 187.938 176.682 187.938 176.473C189.526 176.212 191.165 176.003 192.753 175.794L198.214 175.847C198.909 175.847 199.455 176.421 199.604 177.152Z" fill="url(#paint144_linear)"/>
<path opacity="0.2" d="M202.73 192.764L204.964 204.042C205.113 204.773 204.766 205.4 204.17 205.4L194.589 205.609C193.944 205.609 193.348 205.034 193.199 204.251L191.015 192.816C190.866 192.085 191.313 191.459 191.908 191.459L201.39 191.407C201.986 191.459 202.581 192.033 202.73 192.764Z" fill="url(#paint145_linear)"/>
<path opacity="0.2" d="M213.204 177.256L215.488 188.117C215.637 188.848 215.239 189.422 214.644 189.422L205.46 189.475C204.864 189.475 204.269 188.9 204.12 188.169L201.886 177.152C201.737 176.421 202.035 175.847 202.68 175.899L211.814 176.003C212.46 176.003 213.055 176.578 213.204 177.256Z" fill="url(#paint146_linear)"/>
<path opacity="0.2" d="M216.43 192.66L218.763 203.781C218.912 204.512 218.515 205.139 217.92 205.139L208.686 205.348C208.09 205.348 207.495 204.773 207.346 204.042L205.062 192.764C204.913 192.033 205.211 191.459 205.856 191.459L215.09 191.407C215.686 191.354 216.281 191.929 216.43 192.66Z" fill="url(#paint147_linear)"/>
<path d="M88.454 117.545C88.9504 131.434 89.0001 146.471 88.2554 162.553C87.4115 180.672 85.674 197.433 83.5394 212.627C82.7451 212.679 81.9012 212.679 81.0076 212.627C80.4119 212.627 79.8162 212.575 79.2702 212.523C78.1284 209.39 76.8377 205.213 75.6463 200.304C74.4052 195.083 73.6606 190.436 73.1145 185.998C71.2281 170.281 73.462 168.924 71.9231 157.28C70.5828 146.994 68.6467 146.576 66.3632 131.904C63.8811 116.03 65.7178 113.628 66.6114 112.793C70.3346 109.138 79.2205 111.644 88.454 117.545Z" fill="url(#paint148_linear)"/>
<path opacity="0.3" d="M66.5094 112.793C70.1333 109.295 78.4236 111.436 87.1606 116.762C77.0833 128.197 75.9911 135.611 77.2322 140.415C78.5725 145.845 82.7425 147.411 82.7425 153.364C82.7425 160.674 76.4379 162.606 76.5868 170.334C76.6861 175.451 79.4164 175.398 80.0618 181.716C80.8064 189.183 77.2322 191.741 78.4236 197.276C78.92 199.678 80.3596 202.759 84.4303 205.944C84.1325 208.189 83.8346 210.434 83.5367 212.679C82.7425 212.732 81.8985 212.732 81.005 212.679C80.4093 212.679 79.8136 212.627 79.2675 212.575C78.1257 209.442 76.835 205.265 75.6436 200.357C74.4026 195.135 73.6579 190.488 73.1119 186.05C71.2255 170.334 73.4594 168.976 71.9204 157.332C70.5801 147.046 68.6441 146.628 66.3605 131.956C63.7791 116.031 65.6159 113.681 66.5094 112.793Z" fill="url(#paint149_linear)"/>
<path d="M82.1972 117.284C73.5595 130.598 64.2267 147.202 55.8372 167.044C49.5326 182.03 44.9655 196.127 41.5898 208.659C41.143 208.868 40.0509 209.338 38.7106 209.129C36.8242 208.868 35.732 207.615 35.4342 207.249C34.0442 198.268 34.1931 190.645 34.6895 185.11C34.9874 181.612 35.5335 175.712 37.6681 168.506C40.0509 160.413 41.6891 159.943 44.8166 151.38C48.0433 142.451 47.249 140.258 50.3765 129.136C51.6672 124.541 53.8018 117.754 57.2768 109.608C65.567 112.167 73.9069 114.725 82.1972 117.284Z" fill="url(#paint150_linear)"/>
<path d="M124.941 124.019C125.387 127.361 118.437 132.844 112.083 132.269C103.396 131.486 96.0984 119.32 95.3537 109.713C95.2048 107.676 95.3041 105.588 94.9069 105.535C93.9141 105.379 91.2831 118.015 89.2477 128.719C87.6095 129.345 85.1274 130.024 82.2482 129.554C77.5818 128.771 77.0357 125.69 71.8233 123.706C68.7951 122.557 65.8166 122.557 59.8595 122.557C53.1578 122.557 52.9592 123.445 51.6685 122.766C51.6685 122.766 51.3707 122.557 51.0728 122.348C46.3071 118.746 59.9588 91.2287 56.037 65.9047C55.5902 63.0851 54.9449 60.2133 56.4342 57.3937C60.3063 50.0837 75.5961 49.0916 85.0778 53.8954C87.6592 55.2007 92.0277 58.0725 95.8998 61.101C97.4387 62.3019 99.0769 63.6595 100.765 65.2259C105.977 70.0296 109.452 74.4157 110.048 75.1989C118.983 87.0515 105.58 109.243 114.962 118.38C118.983 122.401 124.543 121.148 124.941 124.019Z" fill="url(#paint151_linear)"/>
<path d="M96.7914 51.2324C96.7914 51.2324 94.3093 54.1564 91.6783 55.6707C89.2954 57.0282 84.0334 54.7308 82.7923 54.4697C81.5513 54.2087 83.0405 57.6548 85.3241 60.0045C87.6076 62.4063 95.2029 67.8366 97.2879 67.8889C99.3232 67.9933 96.9404 66.1136 95.6993 63.9206C94.4583 61.7275 96.1957 57.1849 97.7843 55.7751C99.3728 54.4175 96.7914 51.2324 96.7914 51.2324Z" fill="url(#paint152_linear)"/>
<path d="M100.07 49.7182C102.056 47.6297 101.907 42.9304 100.517 42.1471C100.12 41.9383 99.7722 42.0949 95.1058 45.1756C92.7726 46.6898 91.6308 47.473 91.3826 48.7262C91.2337 49.5094 91.4323 50.4492 91.8294 51.128C92.028 51.4935 92.3755 51.9112 93.1698 52.7467C93.8647 53.4777 93.8151 53.4255 94.0137 53.6343C94.5101 54.1565 95.4533 54.9397 97.0419 55.8273C97.0419 55.4096 97.0915 54.8353 97.1908 54.2609C97.2404 54.052 97.439 53.1122 97.8361 52.329C98.4815 50.9192 99.4247 50.397 100.07 49.7182Z" fill="url(#paint153_linear)"/>
<path d="M95.0055 55.0962C95.0055 55.0962 96.8423 57.1326 99.523 56.3494C101.906 55.6184 101.062 49.8226 99.2748 48.9871C98.6791 48.7261 97.5869 48.7783 96.7927 49.196C96.3459 49.4571 96.197 49.7181 95.4523 50.1359C94.7573 50.5014 94.5091 50.4491 94.3105 50.7102C94.0623 51.0235 94.0127 51.7023 94.807 53.2687C94.2609 52.9032 93.6652 52.7988 93.3177 53.1121C93.2681 53.1643 93.1191 53.3209 93.0695 53.5298C92.8709 54.2086 93.6156 54.9396 95.0055 55.0962Z" fill="url(#paint154_linear)"/>
<path d="M35.0871 110.809C31.3143 108.877 23.1729 103.865 20.6908 94.727C16.5209 79.4804 31.3639 64.9125 39.0088 59.43C47.7955 53.1643 56.5822 52.1722 61.9436 51.5456C68.5956 50.7624 72.6663 50.3447 75.6945 52.9554C83.5876 59.7433 78.822 82.1433 71.0281 84.4407C68.4964 85.1717 67.5035 83.2398 62.1421 81.8822C60.4047 81.4645 47.3984 78.1228 40.647 85.3806C35.931 90.4454 35.2857 99.5307 38.6613 107.989C37.4699 108.929 36.2785 109.869 35.0871 110.809Z" fill="url(#paint155_linear)"/>
<path d="M122.11 104.283C122.11 127.988 104.04 147.255 81.5522 147.569C81.3536 147.569 81.1054 147.569 80.9068 147.569C58.1707 147.569 39.7037 128.197 39.7037 104.231C39.7037 82.0394 55.5893 63.7121 76.0915 61.2058C77.6801 60.997 79.2686 60.8925 80.9068 60.8925C103.693 60.997 122.11 80.3685 122.11 104.283Z" fill="url(#paint156_linear)"/>
<path d="M80.9557 142.451C100.997 142.451 117.244 125.362 117.244 104.282C117.244 83.2022 100.997 66.1134 80.9557 66.1134C60.9141 66.1134 44.6672 83.2022 44.6672 104.282C44.6672 125.362 60.9141 142.451 80.9557 142.451Z" fill="url(#paint157_linear)"/>
<path d="M80.9576 138.378C98.8606 138.378 113.374 123.113 113.374 104.282C113.374 85.4514 98.8606 70.1861 80.9576 70.1861C63.0545 70.1861 48.5411 85.4514 48.5411 104.282C48.5411 123.113 63.0545 138.378 80.9576 138.378Z" fill="url(#paint158_linear)"/>
<path d="M92.6217 77.9661L67.3041 107.781H77.6297L69.2402 130.233L94.6074 100.471H85.0761L92.6217 77.9661Z" fill="url(#paint159_linear)"/>
<path opacity="0.2" d="M73.2124 125.741C72.6664 132.216 73.5599 137.646 76.5385 142.189C77.8292 144.121 79.4674 145.948 81.602 147.619C81.4034 147.619 81.1552 147.619 80.9566 147.619C58.2205 147.619 39.7535 128.248 39.7535 104.281C39.7535 82.09 55.6391 63.7627 76.1413 61.2565C77.432 62.614 78.7227 64.2327 79.8149 66.1124C83.0416 71.5949 84.8784 79.3749 82.4956 90.0266C82.0984 91.8019 81.5524 93.6816 80.907 95.6658C79.4177 100.052 78.127 104.177 76.9853 108.041C76.3399 110.234 75.7442 112.374 75.2478 114.411C74.2549 118.483 73.5103 122.295 73.2124 125.741Z" fill="url(#paint160_linear)"/>
<path d="M126.975 104.282C126.975 127.987 108.905 147.255 86.4171 147.568C86.2185 147.568 85.9703 147.568 85.7717 147.568C63.0355 147.568 44.5686 128.196 44.5686 104.23C44.5686 82.0388 60.4541 63.7115 80.9564 61.2052C82.545 60.9963 84.1335 60.8919 85.7717 60.8919C108.558 60.9963 126.975 80.3679 126.975 104.282Z" fill="url(#paint161_linear)"/>
<path d="M85.8224 142.451C105.864 142.451 122.111 125.362 122.111 104.282C122.111 83.202 105.864 66.1132 85.8224 66.1132C65.7808 66.1132 49.5339 83.202 49.5339 104.282C49.5339 125.362 65.7808 142.451 85.8224 142.451Z" fill="url(#paint162_linear)"/>
<path d="M84.3463 114.817L87.2971 114.857V123H84.3463V114.817ZM84.8313 114.087V93.305L86.8524 92.8188V114.169L84.8313 114.087ZM84.3463 85.0001H87.2971V92.2111L84.3463 92.6973V85.0001ZM93.2391 97.6802C93.1582 97.5452 92.8753 97.3426 92.3902 97.0726C91.9051 96.7755 91.2988 96.4649 90.5712 96.1408C89.8436 95.8167 89.0487 95.5331 88.1863 95.29C87.324 95.047 86.4617 94.9254 85.5993 94.9254C84.4675 94.9254 83.5917 95.128 82.9719 95.5331C82.3791 95.9112 82.0826 96.5054 82.0826 97.3156C82.0826 97.9638 82.3117 98.477 82.7698 98.8551C83.2279 99.2332 83.9016 99.5708 84.7909 99.8679C85.6802 100.138 86.7716 100.462 88.0651 100.84C89.8975 101.326 91.4875 101.92 92.8348 102.623C94.1822 103.298 95.2063 104.176 95.9069 105.256C96.6345 106.336 96.9983 107.768 96.9983 109.55C96.9983 111.171 96.7019 112.548 96.109 113.682C95.5431 114.79 94.7481 115.694 93.7241 116.397C92.7001 117.072 91.5413 117.571 90.2479 117.896C88.9544 118.193 87.6204 118.341 86.2461 118.341C84.8448 118.341 83.4031 118.206 81.921 117.936C80.4658 117.639 79.0645 117.234 77.7171 116.721C76.3697 116.181 75.1301 115.532 73.9983 114.776L76.9087 108.983C77.0434 109.118 77.3937 109.375 77.9596 109.753C78.5525 110.104 79.2801 110.482 80.1424 110.887C81.0317 111.265 82.0153 111.603 83.0932 111.9C84.1711 112.197 85.2625 112.345 86.3674 112.345C87.58 112.345 88.4693 112.156 89.0352 111.778C89.6011 111.4 89.8841 110.874 89.8841 110.198C89.8841 109.469 89.5742 108.902 88.9544 108.497C88.3615 108.092 87.5396 107.727 86.4886 107.403C85.4646 107.079 84.2789 106.714 82.9315 106.309C81.1799 105.769 79.7247 105.161 78.566 104.486C77.4341 103.811 76.5853 102.987 76.0194 102.015C75.4804 101.043 75.2109 99.8274 75.2109 98.3689C75.2109 96.3433 75.6825 94.6419 76.6257 93.2645C77.5958 91.86 78.8893 90.8067 80.5062 90.1045C82.1231 89.3753 83.8882 89.0107 85.8015 89.0107C87.1758 89.0107 88.4828 89.1728 89.7224 89.4969C90.962 89.821 92.1342 90.2261 93.2391 90.7122C94.3439 91.1984 95.314 91.6845 96.1494 92.1706L93.2391 97.6802Z" fill="white"/>
<path opacity="0.2" d="M78.0764 125.742C77.5303 132.217 78.4239 137.647 81.4024 142.19C82.6931 144.121 84.3313 145.949 86.4659 147.62C86.2674 147.62 86.0192 147.62 85.8206 147.62C63.0844 147.62 44.6175 128.248 44.6175 104.282C44.6175 82.0907 60.503 63.7634 81.0053 61.2572C82.296 62.6147 83.5867 64.2334 84.6788 66.1131C87.9056 71.5956 89.7423 79.3756 87.3595 90.0273C86.9624 91.8026 86.4163 93.6823 85.771 95.6665C84.2817 100.052 82.991 104.177 81.8492 108.041C81.2039 110.234 80.6082 112.375 80.1117 114.411C79.0692 118.484 78.3743 122.296 78.0764 125.742Z" fill="url(#paint163_linear)"/>
<path d="M36.5765 109.608C36.5765 109.608 39.9522 106.58 42.2358 106.058C43.4272 105.797 44.9661 106.945 46.1079 108.146C46.7036 108.721 46.1575 109.765 45.3632 109.556C43.9732 109.19 42.484 108.825 42.2358 108.982C41.7393 109.138 40.1011 113.054 36.5765 109.608Z" fill="url(#paint164_linear)"/>
<path d="M122.307 127.1C122.307 127.1 121.711 123.758 124.541 120.939C127.371 118.119 126.725 121.565 126.477 123.288C126.179 124.959 122.307 127.1 122.307 127.1Z" fill="url(#paint165_linear)"/>
<path d="M223.726 237.356C234.995 238.035 238.321 238.766 243.633 236.834C248.597 235.058 253.71 231.508 253.264 229.889C252.966 228.74 249.789 228.74 247.952 228.74C242.938 228.74 238.818 230.359 235.889 231.925C238.371 230.15 240.903 228.375 243.385 226.547C245.122 225.869 248.101 224.511 250.732 221.535C252.37 219.707 256.143 214.695 254.703 212.293C253.214 209.787 246.214 210.309 242.144 213.859C240.208 215.582 240.208 216.888 237.577 219.864C235.194 222.579 232.761 224.302 231.024 225.346C232.612 223.206 234.846 219.916 236.534 215.478C239.116 208.69 241.052 197.986 237.775 196.054C235.591 194.749 231.272 197.412 229.088 200.597C227.35 203.155 227.499 205.296 226.308 213.494C225.762 217.044 225.265 219.968 224.918 221.744C221.592 214.016 220.599 207.541 220.4 202.738C220.152 196.576 221.095 191.773 218.861 190.519C216.876 189.371 213.302 191.616 211.514 193.704C204.217 202.163 213.848 222.005 214.84 224.041C212.16 221.9 208.486 218.559 204.912 213.755C201.09 208.586 199.501 204.774 197.515 205.087C195.579 205.453 194.289 209.734 194.437 213.076C194.835 222.422 206.401 227.905 207.642 228.427C206.649 228.584 205.011 228.74 203.075 228.375C198.756 227.487 197.416 224.772 193.047 223.832C191.36 223.467 187.934 223.101 187.537 224.198C186.793 226.182 195.43 233.492 205.954 236.311C209.926 237.356 208.983 236.468 223.726 237.356Z" fill="url(#paint166_linear)"/>
<path opacity="0.28" d="M219.059 222.004C217.669 217.983 215.237 218.401 214.194 214.851C213.201 211.352 215.386 210.256 214.84 205.139C214.443 201.327 213.053 200.753 212.953 198.142C212.904 196.21 213.549 193.599 216.528 190.362C217.421 190.101 218.265 190.101 218.96 190.519C221.194 191.772 220.251 196.628 220.499 202.737C220.697 207.488 221.69 214.015 225.016 221.743C225.364 219.968 225.86 217.096 226.406 213.493C227.598 205.295 227.449 203.155 229.186 200.596C231.371 197.463 235.689 194.8 237.874 196.053C238.023 196.106 238.122 196.21 238.221 196.314C237.129 197.098 236.136 198.038 235.292 199.239C232.413 203.259 234.051 206.183 231.42 214.12C228.888 221.795 226.357 222.265 224.321 228.844C223.676 230.933 223.08 233.752 222.931 237.251C222.187 237.198 221.492 237.146 220.846 237.146C220.102 234.535 219.754 232.186 219.605 230.254C219.258 225.92 220.002 224.719 219.059 222.004Z" fill="url(#paint167_linear)"/>
<defs>
<linearGradient id="paint0_linear" x1="141.745" y1="37.4151" x2="130.983" y2="298.795" gradientUnits="userSpaceOnUse">
<stop stop-color="#EBEFF2"/>
<stop offset="0.9946" stop-color="#B7C0CE"/>
</linearGradient>
<linearGradient id="paint1_linear" x1="137.296" y1="38.4083" x2="126.65" y2="296.978" gradientUnits="userSpaceOnUse">
<stop stop-color="#EBEFF2"/>
<stop offset="0.9946" stop-color="#B7C0CE"/>
</linearGradient>
<linearGradient id="paint2_linear" x1="125.221" y1="6.71069" x2="124.327" y2="28.4091" gradientUnits="userSpaceOnUse">
<stop stop-color="#EBEFF2"/>
<stop offset="0.9946" stop-color="#B7C0CE"/>
</linearGradient>
<linearGradient id="paint3_linear" x1="125.186" y1="10.3605" x2="124.652" y2="23.3362" gradientUnits="userSpaceOnUse">
<stop stop-color="#EBEFF2"/>
<stop offset="0.9946" stop-color="#B7C0CE"/>
</linearGradient>
<linearGradient id="paint4_linear" x1="111.565" y1="6.49299" x2="85.3109" y2="81.9962" gradientUnits="userSpaceOnUse">
<stop stop-color="#EBEFF2"/>
<stop offset="0.9946" stop-color="#B7C0CE"/>
</linearGradient>
<linearGradient id="paint5_linear" x1="125.512" y1="9.34041" x2="113.01" y2="45.2955" gradientUnits="userSpaceOnUse">
<stop stop-color="#EBEFF2"/>
<stop offset="0.9946" stop-color="#B7C0CE"/>
</linearGradient>
<linearGradient id="paint6_linear" x1="160.153" y1="-43.2601" x2="117.717" y2="78.7813" gradientUnits="userSpaceOnUse">
<stop stop-color="#EBEFF2"/>
<stop offset="0.9946" stop-color="#B7C0CE"/>
</linearGradient>
<linearGradient id="paint7_linear" x1="151.993" y1="-21.1174" x2="128.163" y2="47.4148" gradientUnits="userSpaceOnUse">
<stop stop-color="#EBEFF2"/>
<stop offset="0.9946" stop-color="#B7C0CE"/>
</linearGradient>
<linearGradient id="paint8_linear" x1="163.075" y1="38.7155" x2="139.287" y2="107.125" gradientUnits="userSpaceOnUse">
<stop stop-color="#EBEFF2"/>
<stop offset="0.9946" stop-color="#B7C0CE"/>
</linearGradient>
<linearGradient id="paint9_linear" x1="156.059" y1="17.2423" x2="145.096" y2="48.7701" gradientUnits="userSpaceOnUse">
<stop stop-color="#EBEFF2"/>
<stop offset="0.9946" stop-color="#B7C0CE"/>
</linearGradient>
<linearGradient id="paint10_linear" x1="143.41" y1="6.46124" x2="142.355" y2="32.0903" gradientUnits="userSpaceOnUse">
<stop stop-color="#EBEFF2"/>
<stop offset="0.9946" stop-color="#B7C0CE"/>
</linearGradient>
<linearGradient id="paint11_linear" x1="144.122" y1="11.0088" x2="143.511" y2="25.8437" gradientUnits="userSpaceOnUse">
<stop stop-color="#EBEFF2"/>
<stop offset="0.9946" stop-color="#B7C0CE"/>
</linearGradient>
<linearGradient id="paint12_linear" x1="227.344" y1="21.5322" x2="213.333" y2="361.824" gradientUnits="userSpaceOnUse">
<stop stop-color="#EBEFF2"/>
<stop offset="0.9946" stop-color="#B7C0CE"/>
</linearGradient>
<linearGradient id="paint13_linear" x1="221.553" y1="22.825" x2="207.692" y2="359.458" gradientUnits="userSpaceOnUse">
<stop stop-color="#EBEFF2"/>
<stop offset="0.9946" stop-color="#B7C0CE"/>
</linearGradient>
<linearGradient id="paint14_linear" x1="186.988" y1="-4.67842" x2="182.685" y2="99.8423" gradientUnits="userSpaceOnUse">
<stop stop-color="#EBEFF2"/>
<stop offset="0.9946" stop-color="#B7C0CE"/>
</linearGradient>
<linearGradient id="paint15_linear" x1="205.413" y1="-6.39685" x2="203.364" y2="43.3766" gradientUnits="userSpaceOnUse">
<stop stop-color="#EBEFF2"/>
<stop offset="0.9946" stop-color="#B7C0CE"/>
</linearGradient>
<linearGradient id="paint16_linear" x1="279.27" y1="-81.2977" x2="266.119" y2="420.621" gradientUnits="userSpaceOnUse">
<stop stop-color="#AA80F9"/>
<stop offset="0.9964" stop-color="#6165D7"/>
</linearGradient>
<linearGradient id="paint17_linear" x1="91.0427" y1="188.756" x2="82.2511" y2="237.454" gradientUnits="userSpaceOnUse">
<stop stop-color="#EBEFF2"/>
<stop offset="0.4737" stop-color="#D2D9E1"/>
<stop offset="0.9946" stop-color="#B7C0CE"/>
</linearGradient>
<linearGradient id="paint18_linear" x1="89.5995" y1="210.778" x2="88.0803" y2="205.414" gradientUnits="userSpaceOnUse">
<stop stop-color="#EBEFF2"/>
<stop offset="0.4737" stop-color="#D2D9E1"/>
<stop offset="0.9946" stop-color="#B7C0CE"/>
</linearGradient>
<linearGradient id="paint19_linear" x1="115.822" y1="149.498" x2="42.5514" y2="202.366" gradientUnits="userSpaceOnUse">
<stop stop-color="#EBEFF2"/>
<stop offset="0.4737" stop-color="#D2D9E1"/>
<stop offset="0.9946" stop-color="#B7C0CE"/>
</linearGradient>
<linearGradient id="paint20_linear" x1="40.5028" y1="176.514" x2="133.029" y2="176.514" gradientUnits="userSpaceOnUse">
<stop stop-color="#EBEFF2"/>
<stop offset="0.4737" stop-color="#D2D9E1"/>
<stop offset="0.9946" stop-color="#B7C0CE"/>
</linearGradient>
<linearGradient id="paint21_linear" x1="114.196" y1="101.053" x2="36.3841" y2="157.197" gradientUnits="userSpaceOnUse">
<stop stop-color="#AA80F9"/>
<stop offset="0.9964" stop-color="#6165D7"/>
</linearGradient>
<linearGradient id="paint22_linear" x1="121.909" y1="107.105" x2="42.2567" y2="164.577" gradientUnits="userSpaceOnUse">
<stop stop-color="#AA80F9"/>
<stop offset="0.9964" stop-color="#6165D7"/>
</linearGradient>
<linearGradient id="paint23_linear" x1="129.938" y1="113.208" x2="48.3763" y2="172.058" gradientUnits="userSpaceOnUse">
<stop stop-color="#AA80F9"/>
<stop offset="0.9964" stop-color="#6165D7"/>
</linearGradient>
<linearGradient id="paint24_linear" x1="138.3" y1="119.361" x2="54.7574" y2="179.64" gradientUnits="userSpaceOnUse">
<stop stop-color="#AA80F9"/>
<stop offset="0.9964" stop-color="#6165D7"/>
</linearGradient>
<linearGradient id="paint25_linear" x1="147.017" y1="125.562" x2="61.4181" y2="187.325" gradientUnits="userSpaceOnUse">
<stop stop-color="#AA80F9"/>
<stop offset="0.9964" stop-color="#6165D7"/>
</linearGradient>
<linearGradient id="paint26_linear" x1="116.641" y1="108.283" x2="41.6013" y2="162.428" gradientUnits="userSpaceOnUse">
<stop stop-color="#AA80F9"/>
<stop offset="0.9964" stop-color="#6165D7"/>
</linearGradient>
<linearGradient id="paint27_linear" x1="124.07" y1="114.462" x2="47.286" y2="169.865" gradientUnits="userSpaceOnUse">
<stop stop-color="#AA80F9"/>
<stop offset="0.9964" stop-color="#6165D7"/>
</linearGradient>
<linearGradient id="paint28_linear" x1="131.798" y1="120.7" x2="53.2066" y2="177.407" gradientUnits="userSpaceOnUse">
<stop stop-color="#AA80F9"/>
<stop offset="0.9964" stop-color="#6165D7"/>
</linearGradient>
<linearGradient id="paint29_linear" x1="139.841" y1="126.995" x2="59.3748" y2="185.055" gradientUnits="userSpaceOnUse">
<stop stop-color="#AA80F9"/>
<stop offset="0.9964" stop-color="#6165D7"/>
</linearGradient>
<linearGradient id="paint30_linear" x1="148.214" y1="133.347" x2="65.8035" y2="192.809" gradientUnits="userSpaceOnUse">
<stop stop-color="#AA80F9"/>
<stop offset="0.9964" stop-color="#6165D7"/>
</linearGradient>
<linearGradient id="paint31_linear" x1="119.18" y1="115.154" x2="46.9496" y2="167.272" gradientUnits="userSpaceOnUse">
<stop stop-color="#AA80F9"/>
<stop offset="0.9964" stop-color="#6165D7"/>
</linearGradient>
<linearGradient id="paint32_linear" x1="126.351" y1="121.446" x2="52.4508" y2="174.768" gradientUnits="userSpaceOnUse">
<stop stop-color="#AA80F9"/>
<stop offset="0.9964" stop-color="#6165D7"/>
</linearGradient>
<linearGradient id="paint33_linear" x1="133.786" y1="127.818" x2="58.1835" y2="182.368" gradientUnits="userSpaceOnUse">
<stop stop-color="#AA80F9"/>
<stop offset="0.9964" stop-color="#6165D7"/>
</linearGradient>
<linearGradient id="paint34_linear" x1="141.524" y1="134.235" x2="64.1375" y2="190.073" gradientUnits="userSpaceOnUse">
<stop stop-color="#AA80F9"/>
<stop offset="0.9964" stop-color="#6165D7"/>
</linearGradient>
<linearGradient id="paint35_linear" x1="149.568" y1="140.726" x2="70.3423" y2="197.89" gradientUnits="userSpaceOnUse">
<stop stop-color="#AA80F9"/>
<stop offset="0.9964" stop-color="#6165D7"/>
</linearGradient>
<linearGradient id="paint36_linear" x1="121.811" y1="121.674" x2="52.428" y2="171.737" gradientUnits="userSpaceOnUse">
<stop stop-color="#AA80F9"/>
<stop offset="0.9964" stop-color="#6165D7"/>
</linearGradient>
<linearGradient id="paint37_linear" x1="128.702" y1="128.084" x2="57.7534" y2="179.277" gradientUnits="userSpaceOnUse">
<stop stop-color="#AA80F9"/>
<stop offset="0.9964" stop-color="#6165D7"/>
</linearGradient>
<linearGradient id="paint38_linear" x1="135.858" y1="134.566" x2="63.2886" y2="186.928" gradientUnits="userSpaceOnUse">
<stop stop-color="#AA80F9"/>
<stop offset="0.9964" stop-color="#6165D7"/>
</linearGradient>
<linearGradient id="paint39_linear" x1="143.339" y1="141.082" x2="69.0324" y2="194.698" gradientUnits="userSpaceOnUse">
<stop stop-color="#AA80F9"/>
<stop offset="0.9964" stop-color="#6165D7"/>
</linearGradient>
<linearGradient id="paint40_linear" x1="151.068" y1="147.702" x2="75.0214" y2="202.573" gradientUnits="userSpaceOnUse">
<stop stop-color="#AA80F9"/>
<stop offset="0.9964" stop-color="#6165D7"/>
</linearGradient>
<linearGradient id="paint41_linear" x1="125.39" y1="127.141" x2="57.2484" y2="176.308" gradientUnits="userSpaceOnUse">
<stop stop-color="#AA80F9"/>
<stop offset="0.9964" stop-color="#6165D7"/>
</linearGradient>
<linearGradient id="paint42_linear" x1="132.129" y1="133.576" x2="62.4918" y2="183.822" gradientUnits="userSpaceOnUse">
<stop stop-color="#AA80F9"/>
<stop offset="0.9964" stop-color="#6165D7"/>
</linearGradient>
<linearGradient id="paint43_linear" x1="139.116" y1="140.086" x2="67.9318" y2="191.448" gradientUnits="userSpaceOnUse">
<stop stop-color="#AA80F9"/>
<stop offset="0.9964" stop-color="#6165D7"/>
</linearGradient>
<linearGradient id="paint44_linear" x1="146.214" y1="146.794" x2="73.6357" y2="199.162" gradientUnits="userSpaceOnUse">
<stop stop-color="#AA80F9"/>
<stop offset="0.9964" stop-color="#6165D7"/>
</linearGradient>
<linearGradient id="paint45_linear" x1="153.87" y1="153.352" x2="79.4628" y2="207.04" gradientUnits="userSpaceOnUse">
<stop stop-color="#AA80F9"/>
<stop offset="0.9964" stop-color="#6165D7"/>
</linearGradient>
<linearGradient id="paint46_linear" x1="128.066" y1="133.026" x2="62.8273" y2="180.098" gradientUnits="userSpaceOnUse">
<stop stop-color="#AA80F9"/>
<stop offset="0.9964" stop-color="#6165D7"/>
</linearGradient>
<linearGradient id="paint47_linear" x1="134.551" y1="139.562" x2="67.8965" y2="187.656" gradientUnits="userSpaceOnUse">
<stop stop-color="#AA80F9"/>
<stop offset="0.9964" stop-color="#6165D7"/>
</linearGradient>
<linearGradient id="paint48_linear" x1="141.272" y1="146.178" x2="73.152" y2="195.329" gradientUnits="userSpaceOnUse">
<stop stop-color="#AA80F9"/>
<stop offset="0.9964" stop-color="#6165D7"/>
</linearGradient>
<linearGradient id="paint49_linear" x1="148.262" y1="152.87" x2="78.6025" y2="203.132" gradientUnits="userSpaceOnUse">
<stop stop-color="#AA80F9"/>
<stop offset="0.9964" stop-color="#6165D7"/>
</linearGradient>
<linearGradient id="paint50_linear" x1="155.491" y1="159.646" x2="84.2698" y2="211.036" gradientUnits="userSpaceOnUse">
<stop stop-color="#AA80F9"/>
<stop offset="0.9964" stop-color="#6165D7"/>
</linearGradient>
<linearGradient id="paint51_linear" x1="131.346" y1="138.286" x2="68.1948" y2="183.852" gradientUnits="userSpaceOnUse">
<stop stop-color="#AA80F9"/>
<stop offset="0.9964" stop-color="#6165D7"/>
</linearGradient>
<linearGradient id="paint52_linear" x1="137.641" y1="144.878" x2="73.1422" y2="191.416" gradientUnits="userSpaceOnUse">
<stop stop-color="#AA80F9"/>
<stop offset="0.9964" stop-color="#6165D7"/>
</linearGradient>
<linearGradient id="paint53_linear" x1="144.161" y1="151.552" x2="78.2685" y2="199.096" gradientUnits="userSpaceOnUse">
<stop stop-color="#AA80F9"/>
<stop offset="0.9964" stop-color="#6165D7"/>
</linearGradient>
<linearGradient id="paint54_linear" x1="150.922" y1="158.295" x2="83.5741" y2="206.889" gradientUnits="userSpaceOnUse">
<stop stop-color="#AA80F9"/>
<stop offset="0.9964" stop-color="#6165D7"/>
</linearGradient>
<linearGradient id="paint55_linear" x1="157.923" y1="165.136" x2="89.0853" y2="214.805" gradientUnits="userSpaceOnUse">
<stop stop-color="#AA80F9"/>
<stop offset="0.9964" stop-color="#6165D7"/>
</linearGradient>
<linearGradient id="paint56_linear" x1="134.57" y1="143.272" x2="73.5275" y2="187.317" gradientUnits="userSpaceOnUse">
<stop stop-color="#AA80F9"/>
<stop offset="0.9964" stop-color="#6165D7"/>
</linearGradient>
<linearGradient id="paint57_linear" x1="140.677" y1="149.914" x2="78.3519" y2="194.885" gradientUnits="userSpaceOnUse">
<stop stop-color="#AA80F9"/>
<stop offset="0.9964" stop-color="#6165D7"/>
</linearGradient>
<linearGradient id="paint58_linear" x1="146.998" y1="156.643" x2="83.3472" y2="202.569" gradientUnits="userSpaceOnUse">
<stop stop-color="#AA80F9"/>
<stop offset="0.9964" stop-color="#6165D7"/>
</linearGradient>
<linearGradient id="paint59_linear" x1="153.538" y1="163.441" x2="88.5116" y2="210.361" gradientUnits="userSpaceOnUse">
<stop stop-color="#AA80F9"/>
<stop offset="0.9964" stop-color="#6165D7"/>
</linearGradient>
<linearGradient id="paint60_linear" x1="160.331" y1="170.341" x2="93.8709" y2="218.295" gradientUnits="userSpaceOnUse">
<stop stop-color="#AA80F9"/>
<stop offset="0.9964" stop-color="#6165D7"/>
</linearGradient>
<linearGradient id="paint61_linear" x1="52.5328" y1="150.275" x2="43.996" y2="156.435" gradientUnits="userSpaceOnUse">
<stop stop-color="#AA80F9"/>
<stop offset="0.9964" stop-color="#6165D7"/>
</linearGradient>
<linearGradient id="paint62_linear" x1="54.596" y1="160.837" x2="45.406" y2="167.468" gradientUnits="userSpaceOnUse">
<stop stop-color="#AA80F9"/>
<stop offset="0.9964" stop-color="#6165D7"/>
</linearGradient>
<linearGradient id="paint63_linear" x1="56.2743" y1="172.01" x2="46.864" y2="178.8" gradientUnits="userSpaceOnUse">
<stop stop-color="#AA80F9"/>
<stop offset="0.9964" stop-color="#6165D7"/>
</linearGradient>
<linearGradient id="paint64_linear" x1="57.9976" y1="183.464" x2="48.3588" y2="190.419" gradientUnits="userSpaceOnUse">
<stop stop-color="#AA80F9"/>
<stop offset="0.9964" stop-color="#6165D7"/>
</linearGradient>
<linearGradient id="paint65_linear" x1="59.7638" y1="195.212" x2="49.8877" y2="202.338" gradientUnits="userSpaceOnUse">
<stop stop-color="#AA80F9"/>
<stop offset="0.9964" stop-color="#6165D7"/>
</linearGradient>
<linearGradient id="paint66_linear" x1="59.575" y1="154.629" x2="55.3947" y2="157.645" gradientUnits="userSpaceOnUse">
<stop stop-color="#AA80F9"/>
<stop offset="0.9964" stop-color="#6165D7"/>
</linearGradient>
<linearGradient id="paint67_linear" x1="65.0723" y1="161.554" x2="56.4135" y2="167.802" gradientUnits="userSpaceOnUse">
<stop stop-color="#AA80F9"/>
<stop offset="0.9964" stop-color="#6165D7"/>
</linearGradient>
<linearGradient id="paint68_linear" x1="67.046" y1="172.388" x2="57.9783" y2="178.931" gradientUnits="userSpaceOnUse">
<stop stop-color="#AA80F9"/>
<stop offset="0.9964" stop-color="#6165D7"/>
</linearGradient>
<linearGradient id="paint69_linear" x1="68.8708" y1="183.647" x2="59.5869" y2="190.345" gradientUnits="userSpaceOnUse">
<stop stop-color="#AA80F9"/>
<stop offset="0.9964" stop-color="#6165D7"/>
</linearGradient>
<linearGradient id="paint70_linear" x1="70.7424" y1="195.188" x2="61.2341" y2="202.049" gradientUnits="userSpaceOnUse">
<stop stop-color="#AA80F9"/>
<stop offset="0.9964" stop-color="#6165D7"/>
</linearGradient>
<linearGradient id="paint71_linear" x1="69.1587" y1="166.779" x2="67.1729" y2="168.212" gradientUnits="userSpaceOnUse">
<stop stop-color="#AA80F9"/>
<stop offset="0.9964" stop-color="#6165D7"/>
</linearGradient>
<linearGradient id="paint72_linear" x1="74.6633" y1="175.018" x2="68.8728" y2="179.196" gradientUnits="userSpaceOnUse">
<stop stop-color="#AA80F9"/>
<stop offset="0.9964" stop-color="#6165D7"/>
</linearGradient>
<linearGradient id="paint73_linear" x1="79.4034" y1="183.822" x2="70.4748" y2="190.264" gradientUnits="userSpaceOnUse">
<stop stop-color="#AA80F9"/>
<stop offset="0.9964" stop-color="#6165D7"/>
</linearGradient>
<linearGradient id="paint74_linear" x1="81.3695" y1="195.164" x2="72.2287" y2="201.759" gradientUnits="userSpaceOnUse">
<stop stop-color="#AA80F9"/>
<stop offset="0.9964" stop-color="#6165D7"/>
</linearGradient>
<linearGradient id="paint75_linear" x1="89.2516" y1="184.252" x2="81.0177" y2="190.193" gradientUnits="userSpaceOnUse">
<stop stop-color="#AA80F9"/>
<stop offset="0.9964" stop-color="#6165D7"/>
</linearGradient>
<linearGradient id="paint76_linear" x1="91.6377" y1="195.144" x2="82.8637" y2="201.475" gradientUnits="userSpaceOnUse">
<stop stop-color="#AA80F9"/>
<stop offset="0.9964" stop-color="#6165D7"/>
</linearGradient>
<linearGradient id="paint77_linear" x1="99.7143" y1="184.586" x2="91.3962" y2="190.587" gradientUnits="userSpaceOnUse">
<stop stop-color="#AA80F9"/>
<stop offset="0.9964" stop-color="#6165D7"/>
</linearGradient>
<linearGradient id="paint78_linear" x1="101.615" y1="195.064" x2="93.0302" y2="201.258" gradientUnits="userSpaceOnUse">
<stop stop-color="#AA80F9"/>
<stop offset="0.9964" stop-color="#6165D7"/>
</linearGradient>
<linearGradient id="paint79_linear" x1="108.957" y1="184.347" x2="100.92" y2="190.146" gradientUnits="userSpaceOnUse">
<stop stop-color="#AA80F9"/>
<stop offset="0.9964" stop-color="#6165D7"/>
</linearGradient>
<linearGradient id="paint80_linear" x1="111.12" y1="195.066" x2="102.903" y2="200.995" gradientUnits="userSpaceOnUse">
<stop stop-color="#AA80F9"/>
<stop offset="0.9964" stop-color="#6165D7"/>
</linearGradient>
<linearGradient id="paint81_linear" x1="118.213" y1="184.404" x2="110.442" y2="190.01" gradientUnits="userSpaceOnUse">
<stop stop-color="#AA80F9"/>
<stop offset="0.9964" stop-color="#6165D7"/>
</linearGradient>
<linearGradient id="paint82_linear" x1="120.492" y1="195.014" x2="112.55" y2="200.745" gradientUnits="userSpaceOnUse">
<stop stop-color="#AA80F9"/>
<stop offset="0.9964" stop-color="#6165D7"/>
</linearGradient>
<linearGradient id="paint83_linear" x1="125.154" y1="186.232" x2="119.743" y2="190.136" gradientUnits="userSpaceOnUse">
<stop stop-color="#AA80F9"/>
<stop offset="0.9964" stop-color="#6165D7"/>
</linearGradient>
<linearGradient id="paint84_linear" x1="129.462" y1="194.983" x2="121.794" y2="200.516" gradientUnits="userSpaceOnUse">
<stop stop-color="#AA80F9"/>
<stop offset="0.9964" stop-color="#6165D7"/>
</linearGradient>
<linearGradient id="paint85_linear" x1="173.962" y1="184.647" x2="161.095" y2="255.92" gradientUnits="userSpaceOnUse">
<stop stop-color="#EBEFF2"/>
<stop offset="0.4737" stop-color="#D2D9E1"/>
<stop offset="0.9946" stop-color="#B7C0CE"/>
</linearGradient>
<linearGradient id="paint86_linear" x1="210.628" y1="127.25" x2="103.468" y2="204.571" gradientUnits="userSpaceOnUse">
<stop stop-color="#EBEFF2"/>
<stop offset="0.4737" stop-color="#D2D9E1"/>
<stop offset="0.9946" stop-color="#B7C0CE"/>
</linearGradient>
<linearGradient id="paint87_linear" x1="100.473" y1="166.763" x2="235.795" y2="166.763" gradientUnits="userSpaceOnUse">
<stop stop-color="#EBEFF2"/>
<stop offset="0.4737" stop-color="#D2D9E1"/>
<stop offset="0.9946" stop-color="#B7C0CE"/>
</linearGradient>
<linearGradient id="paint88_linear" x1="208.251" y1="56.3989" x2="94.4504" y2="138.511" gradientUnits="userSpaceOnUse">
<stop stop-color="#AA80F9"/>
<stop offset="0.9964" stop-color="#6165D7"/>
</linearGradient>
<linearGradient id="paint89_linear" x1="219.531" y1="65.2497" x2="103.038" y2="149.304" gradientUnits="userSpaceOnUse">
<stop stop-color="#AA80F9"/>
<stop offset="0.9964" stop-color="#6165D7"/>
</linearGradient>
<linearGradient id="paint90_linear" x1="231.272" y1="74.1763" x2="111.987" y2="160.246" gradientUnits="userSpaceOnUse">
<stop stop-color="#AA80F9"/>
<stop offset="0.9964" stop-color="#6165D7"/>
</linearGradient>
<linearGradient id="paint91_linear" x1="243.506" y1="83.1755" x2="121.323" y2="171.335" gradientUnits="userSpaceOnUse">
<stop stop-color="#AA80F9"/>
<stop offset="0.9964" stop-color="#6165D7"/>
</linearGradient>
<linearGradient id="paint92_linear" x1="256.252" y1="92.2443" x2="131.062" y2="182.574" gradientUnits="userSpaceOnUse">
<stop stop-color="#AA80F9"/>
<stop offset="0.9964" stop-color="#6165D7"/>
</linearGradient>
<linearGradient id="paint93_linear" x1="211.826" y1="66.9743" x2="102.079" y2="146.162" gradientUnits="userSpaceOnUse">
<stop stop-color="#AA80F9"/>
<stop offset="0.9964" stop-color="#6165D7"/>
</linearGradient>
<linearGradient id="paint94_linear" x1="222.692" y1="76.0106" x2="110.394" y2="157.038" gradientUnits="userSpaceOnUse">
<stop stop-color="#AA80F9"/>
<stop offset="0.9964" stop-color="#6165D7"/>
</linearGradient>
<linearGradient id="paint95_linear" x1="233.995" y1="85.1333" x2="119.053" y2="168.069" gradientUnits="userSpaceOnUse">
<stop stop-color="#AA80F9"/>
<stop offset="0.9964" stop-color="#6165D7"/>
</linearGradient>
<linearGradient id="paint96_linear" x1="245.756" y1="94.3405" x2="128.073" y2="179.254" gradientUnits="userSpaceOnUse">
<stop stop-color="#AA80F9"/>
<stop offset="0.9964" stop-color="#6165D7"/>
</linearGradient>
<linearGradient id="paint97_linear" x1="258.002" y1="103.629" x2="137.474" y2="190.595" gradientUnits="userSpaceOnUse">
<stop stop-color="#AA80F9"/>
<stop offset="0.9964" stop-color="#6165D7"/>
</linearGradient>
<linearGradient id="paint98_linear" x1="215.541" y1="77.0228" x2="109.903" y2="153.245" gradientUnits="userSpaceOnUse">
<stop stop-color="#AA80F9"/>
<stop offset="0.9964" stop-color="#6165D7"/>
</linearGradient>
<linearGradient id="paint99_linear" x1="226.027" y1="86.2235" x2="117.947" y2="164.208" gradientUnits="userSpaceOnUse">
<stop stop-color="#AA80F9"/>
<stop offset="0.9964" stop-color="#6165D7"/>
</linearGradient>
<linearGradient id="paint100_linear" x1="236.899" y1="95.5432" x2="126.329" y2="175.324" gradientUnits="userSpaceOnUse">
<stop stop-color="#AA80F9"/>
<stop offset="0.9964" stop-color="#6165D7"/>
</linearGradient>
<linearGradient id="paint101_linear" x1="248.218" y1="104.929" x2="135.039" y2="186.592" gradientUnits="userSpaceOnUse">
<stop stop-color="#AA80F9"/>
<stop offset="0.9964" stop-color="#6165D7"/>
</linearGradient>
<linearGradient id="paint102_linear" x1="259.985" y1="114.421" x2="144.116" y2="198.026" gradientUnits="userSpaceOnUse">
<stop stop-color="#AA80F9"/>
<stop offset="0.9964" stop-color="#6165D7"/>
</linearGradient>
<linearGradient id="paint103_linear" x1="219.386" y1="86.558" x2="117.912" y2="159.776" gradientUnits="userSpaceOnUse">
<stop stop-color="#AA80F9"/>
<stop offset="0.9964" stop-color="#6165D7"/>
</linearGradient>
<linearGradient id="paint104_linear" x1="229.466" y1="95.9331" x2="125.702" y2="170.803" gradientUnits="userSpaceOnUse">
<stop stop-color="#AA80F9"/>
<stop offset="0.9964" stop-color="#6165D7"/>
</linearGradient>
<linearGradient id="paint105_linear" x1="239.933" y1="105.412" x2="133.798" y2="181.993" gradientUnits="userSpaceOnUse">
<stop stop-color="#AA80F9"/>
<stop offset="0.9964" stop-color="#6165D7"/>
</linearGradient>
<linearGradient id="paint106_linear" x1="250.873" y1="114.942" x2="142.198" y2="193.356" gradientUnits="userSpaceOnUse">
<stop stop-color="#AA80F9"/>
<stop offset="0.9964" stop-color="#6165D7"/>
</linearGradient>
<linearGradient id="paint107_linear" x1="262.179" y1="124.624" x2="150.959" y2="204.873" gradientUnits="userSpaceOnUse">
<stop stop-color="#AA80F9"/>
<stop offset="0.9964" stop-color="#6165D7"/>
</linearGradient>
<linearGradient id="paint108_linear" x1="224.622" y1="94.5531" x2="124.963" y2="166.462" gradientUnits="userSpaceOnUse">
<stop stop-color="#AA80F9"/>
<stop offset="0.9964" stop-color="#6165D7"/>
</linearGradient>
<linearGradient id="paint109_linear" x1="234.474" y1="103.965" x2="132.629" y2="177.451" gradientUnits="userSpaceOnUse">
<stop stop-color="#AA80F9"/>
<stop offset="0.9964" stop-color="#6165D7"/>
</linearGradient>
<linearGradient id="paint110_linear" x1="244.694" y1="113.486" x2="140.586" y2="188.604" gradientUnits="userSpaceOnUse">
<stop stop-color="#AA80F9"/>
<stop offset="0.9964" stop-color="#6165D7"/>
</linearGradient>
<linearGradient id="paint111_linear" x1="255.075" y1="123.297" x2="148.928" y2="199.886" gradientUnits="userSpaceOnUse">
<stop stop-color="#AA80F9"/>
<stop offset="0.9964" stop-color="#6165D7"/>
</linearGradient>
<linearGradient id="paint112_linear" x1="266.273" y1="132.888" x2="157.451" y2="211.408" gradientUnits="userSpaceOnUse">
<stop stop-color="#AA80F9"/>
<stop offset="0.9964" stop-color="#6165D7"/>
</linearGradient>
<linearGradient id="paint113_linear" x1="228.533" y1="103.161" x2="133.121" y2="172.005" gradientUnits="userSpaceOnUse">
<stop stop-color="#AA80F9"/>
<stop offset="0.9964" stop-color="#6165D7"/>
</linearGradient>
<linearGradient id="paint114_linear" x1="238.021" y1="112.72" x2="140.537" y2="183.059" gradientUnits="userSpaceOnUse">
<stop stop-color="#AA80F9"/>
<stop offset="0.9964" stop-color="#6165D7"/>
</linearGradient>
<linearGradient id="paint115_linear" x1="247.853" y1="122.395" x2="148.227" y2="194.28" gradientUnits="userSpaceOnUse">
<stop stop-color="#AA80F9"/>
<stop offset="0.9964" stop-color="#6165D7"/>
</linearGradient>
<linearGradient id="paint116_linear" x1="258.075" y1="132.183" x2="156.196" y2="205.693" gradientUnits="userSpaceOnUse">
<stop stop-color="#AA80F9"/>
<stop offset="0.9964" stop-color="#6165D7"/>
</linearGradient>
<linearGradient id="paint117_linear" x1="268.646" y1="142.093" x2="164.483" y2="217.251" gradientUnits="userSpaceOnUse">
<stop stop-color="#AA80F9"/>
<stop offset="0.9964" stop-color="#6165D7"/>
</linearGradient>
<linearGradient id="paint118_linear" x1="233.332" y1="110.854" x2="140.973" y2="177.495" gradientUnits="userSpaceOnUse">
<stop stop-color="#AA80F9"/>
<stop offset="0.9964" stop-color="#6165D7"/>
</linearGradient>
<linearGradient id="paint119_linear" x1="242.539" y1="120.494" x2="148.208" y2="188.558" gradientUnits="userSpaceOnUse">
<stop stop-color="#AA80F9"/>
<stop offset="0.9964" stop-color="#6165D7"/>
</linearGradient>
<linearGradient id="paint120_linear" x1="252.072" y1="130.255" x2="155.703" y2="199.789" gradientUnits="userSpaceOnUse">
<stop stop-color="#AA80F9"/>
<stop offset="0.9964" stop-color="#6165D7"/>
</linearGradient>
<linearGradient id="paint121_linear" x1="261.961" y1="140.117" x2="163.464" y2="211.186" gradientUnits="userSpaceOnUse">
<stop stop-color="#AA80F9"/>
<stop offset="0.9964" stop-color="#6165D7"/>
</linearGradient>
<linearGradient id="paint122_linear" x1="272.201" y1="150.121" x2="171.524" y2="222.764" gradientUnits="userSpaceOnUse">
<stop stop-color="#AA80F9"/>
<stop offset="0.9964" stop-color="#6165D7"/>
</linearGradient>
<linearGradient id="paint123_linear" x1="238.047" y1="118.145" x2="148.771" y2="182.562" gradientUnits="userSpaceOnUse">
<stop stop-color="#AA80F9"/>
<stop offset="0.9964" stop-color="#6165D7"/>
</linearGradient>
<linearGradient id="paint124_linear" x1="246.981" y1="127.86" x2="155.829" y2="193.63" gradientUnits="userSpaceOnUse">
<stop stop-color="#AA80F9"/>
<stop offset="0.9964" stop-color="#6165D7"/>
</linearGradient>
<linearGradient id="paint125_linear" x1="256.226" y1="137.7" x2="163.136" y2="204.869" gradientUnits="userSpaceOnUse">
<stop stop-color="#AA80F9"/>
<stop offset="0.9964" stop-color="#6165D7"/>
</linearGradient>
<linearGradient id="paint126_linear" x1="118.069" y1="128.387" x2="105.583" y2="137.396" gradientUnits="userSpaceOnUse">
<stop stop-color="#AA80F9"/>
<stop offset="0.9964" stop-color="#6165D7"/>
</linearGradient>
<linearGradient id="paint127_linear" x1="121.085" y1="143.834" x2="107.645" y2="153.532" gradientUnits="userSpaceOnUse">
<stop stop-color="#AA80F9"/>
<stop offset="0.9964" stop-color="#6165D7"/>
</linearGradient>
<linearGradient id="paint128_linear" x1="123.539" y1="160.175" x2="109.777" y2="170.105" gradientUnits="userSpaceOnUse">
<stop stop-color="#AA80F9"/>
<stop offset="0.9964" stop-color="#6165D7"/>
</linearGradient>
<linearGradient id="paint129_linear" x1="126.059" y1="176.928" x2="111.962" y2="187.099" gradientUnits="userSpaceOnUse">
<stop stop-color="#AA80F9"/>
<stop offset="0.9964" stop-color="#6165D7"/>
</linearGradient>
<linearGradient id="paint130_linear" x1="128.644" y1="194.108" x2="114.2" y2="204.53" gradientUnits="userSpaceOnUse">
<stop stop-color="#AA80F9"/>
<stop offset="0.9964" stop-color="#6165D7"/>
</linearGradient>
<linearGradient id="paint131_linear" x1="128.365" y1="134.755" x2="122.251" y2="139.166" gradientUnits="userSpaceOnUse">
<stop stop-color="#AA80F9"/>
<stop offset="0.9964" stop-color="#6165D7"/>
</linearGradient>
<linearGradient id="paint132_linear" x1="136.409" y1="144.883" x2="123.745" y2="154.021" gradientUnits="userSpaceOnUse">
<stop stop-color="#AA80F9"/>
<stop offset="0.9964" stop-color="#6165D7"/>
</linearGradient>
<linearGradient id="paint133_linear" x1="139.295" y1="160.728" x2="126.034" y2="170.297" gradientUnits="userSpaceOnUse">
<stop stop-color="#AA80F9"/>
<stop offset="0.9964" stop-color="#6165D7"/>
</linearGradient>
<linearGradient id="paint134_linear" x1="141.963" y1="177.194" x2="128.385" y2="186.991" gradientUnits="userSpaceOnUse">
<stop stop-color="#AA80F9"/>
<stop offset="0.9964" stop-color="#6165D7"/>
</linearGradient>
<linearGradient id="paint135_linear" x1="144.699" y1="194.074" x2="130.793" y2="204.107" gradientUnits="userSpaceOnUse">
<stop stop-color="#AA80F9"/>
<stop offset="0.9964" stop-color="#6165D7"/>
</linearGradient>
<linearGradient id="paint136_linear" x1="142.382" y1="152.526" x2="139.478" y2="154.621" gradientUnits="userSpaceOnUse">
<stop stop-color="#AA80F9"/>
<stop offset="0.9964" stop-color="#6165D7"/>
</linearGradient>
<linearGradient id="paint137_linear" x1="150.433" y1="164.575" x2="141.964" y2="170.685" gradientUnits="userSpaceOnUse">
<stop stop-color="#AA80F9"/>
<stop offset="0.9964" stop-color="#6165D7"/>
</linearGradient>
<linearGradient id="paint138_linear" x1="157.368" y1="177.45" x2="144.31" y2="186.872" gradientUnits="userSpaceOnUse">
<stop stop-color="#AA80F9"/>
<stop offset="0.9964" stop-color="#6165D7"/>
</linearGradient>
<linearGradient id="paint139_linear" x1="160.243" y1="194.039" x2="146.874" y2="203.685" gradientUnits="userSpaceOnUse">
<stop stop-color="#AA80F9"/>
<stop offset="0.9964" stop-color="#6165D7"/>
</linearGradient>
<linearGradient id="paint140_linear" x1="171.771" y1="178.08" x2="159.729" y2="186.769" gradientUnits="userSpaceOnUse">
<stop stop-color="#AA80F9"/>
<stop offset="0.9964" stop-color="#6165D7"/>
</linearGradient>
<linearGradient id="paint141_linear" x1="175.258" y1="194.009" x2="162.426" y2="203.268" gradientUnits="userSpaceOnUse">
<stop stop-color="#AA80F9"/>
<stop offset="0.9964" stop-color="#6165D7"/>
</linearGradient>
<linearGradient id="paint142_linear" x1="187.07" y1="178.568" x2="174.905" y2="187.346" gradientUnits="userSpaceOnUse">
<stop stop-color="#AA80F9"/>
<stop offset="0.9964" stop-color="#6165D7"/>
</linearGradient>
<linearGradient id="paint143_linear" x1="189.851" y1="193.892" x2="177.296" y2="202.952" gradientUnits="userSpaceOnUse">
<stop stop-color="#AA80F9"/>
<stop offset="0.9964" stop-color="#6165D7"/>
</linearGradient>
<linearGradient id="paint144_linear" x1="200.591" y1="178.219" x2="188.837" y2="186.7" gradientUnits="userSpaceOnUse">
<stop stop-color="#AA80F9"/>
<stop offset="0.9964" stop-color="#6165D7"/>
</linearGradient>
<linearGradient id="paint145_linear" x1="203.752" y1="193.895" x2="191.734" y2="202.566" gradientUnits="userSpaceOnUse">
<stop stop-color="#AA80F9"/>
<stop offset="0.9964" stop-color="#6165D7"/>
</linearGradient>
<linearGradient id="paint146_linear" x1="214.125" y1="178.302" x2="202.761" y2="186.502" gradientUnits="userSpaceOnUse">
<stop stop-color="#AA80F9"/>
<stop offset="0.9964" stop-color="#6165D7"/>
</linearGradient>
<linearGradient id="paint147_linear" x1="217.46" y1="193.819" x2="205.844" y2="202.201" gradientUnits="userSpaceOnUse">
<stop stop-color="#AA80F9"/>
<stop offset="0.9964" stop-color="#6165D7"/>
</linearGradient>
<linearGradient id="paint148_linear" x1="88.8023" y1="161.871" x2="65.0319" y2="161.871" gradientUnits="userSpaceOnUse">
<stop stop-color="#444B8C"/>
<stop offset="0.9964" stop-color="#3E4177"/>
</linearGradient>
<linearGradient id="paint149_linear" x1="88.7997" y1="161.872" x2="65.0295" y2="161.872" gradientUnits="userSpaceOnUse">
<stop stop-color="#444B8C"/>
<stop offset="0.9964" stop-color="#3E4177"/>
</linearGradient>
<linearGradient id="paint150_linear" x1="82.2013" y1="159.407" x2="34.3491" y2="159.407" gradientUnits="userSpaceOnUse">
<stop stop-color="#444B8C"/>
<stop offset="0.9964" stop-color="#3E4177"/>
</linearGradient>
<linearGradient id="paint151_linear" x1="79.4502" y1="156.732" x2="98.7511" y2="52.863" gradientUnits="userSpaceOnUse">
<stop stop-color="#311944"/>
<stop offset="1" stop-color="#893976"/>
</linearGradient>
<linearGradient id="paint152_linear" x1="90.3442" y1="69.9945" x2="90.3442" y2="49.7928" gradientUnits="userSpaceOnUse">
<stop stop-color="#FFC444"/>
<stop offset="0.9964" stop-color="#F36F56"/>
</linearGradient>
<linearGradient id="paint153_linear" x1="93.595" y1="66.1927" x2="97.4398" y2="43.1249" gradientUnits="userSpaceOnUse">
<stop stop-color="#444B8C"/>
<stop offset="0.9964" stop-color="#3E4177"/>
</linearGradient>
<linearGradient id="paint154_linear" x1="107.797" y1="56.716" x2="89.3226" y2="49.6886" gradientUnits="userSpaceOnUse">
<stop stop-color="#FFC444"/>
<stop offset="0.9964" stop-color="#F36F56"/>
</linearGradient>
<linearGradient id="paint155_linear" x1="37.7062" y1="149.721" x2="57.1444" y2="45.1138" gradientUnits="userSpaceOnUse">
<stop stop-color="#311944"/>
<stop offset="1" stop-color="#893976"/>
</linearGradient>
<linearGradient id="paint156_linear" x1="79.7984" y1="129.055" x2="84.3163" y2="41.2689" gradientUnits="userSpaceOnUse">
<stop stop-color="#311944"/>
<stop offset="1" stop-color="#A03976"/>
</linearGradient>
<linearGradient id="paint157_linear" x1="79.7976" y1="129.055" x2="84.3155" y2="41.2684" gradientUnits="userSpaceOnUse">
<stop stop-color="#311944"/>
<stop offset="1" stop-color="#A03976"/>
</linearGradient>
<linearGradient id="paint158_linear" x1="79.7995" y1="129.055" x2="84.3173" y2="41.2686" gradientUnits="userSpaceOnUse">
<stop stop-color="#311944"/>
<stop offset="1" stop-color="#A03976"/>
</linearGradient>
<linearGradient id="paint159_linear" x1="79.7977" y1="128.898" x2="84.3155" y2="41.112" gradientUnits="userSpaceOnUse">
<stop stop-color="#311944"/>
<stop offset="1" stop-color="#A03976"/>
</linearGradient>
<linearGradient id="paint160_linear" x1="60.5588" y1="128.063" x2="65.0767" y2="40.2774" gradientUnits="userSpaceOnUse">
<stop stop-color="#311944"/>
<stop offset="1" stop-color="#A03976"/>
</linearGradient>
<linearGradient id="paint161_linear" x1="132.186" y1="-107.124" x2="79.3706" y2="110.468" gradientUnits="userSpaceOnUse">
<stop stop-color="#FCB148"/>
<stop offset="0.0520724" stop-color="#FDBA46"/>
<stop offset="0.1424" stop-color="#FFC244"/>
<stop offset="0.3183" stop-color="#FFC444"/>
<stop offset="0.4849" stop-color="#FDB946"/>
<stop offset="0.7754" stop-color="#F99C4D"/>
<stop offset="0.8658" stop-color="#F8924F"/>
<stop offset="1" stop-color="#F8924F"/>
</linearGradient>
<linearGradient id="paint162_linear" x1="86.0236" y1="113.226" x2="87.7181" y2="174.983" gradientUnits="userSpaceOnUse">
<stop offset="0.3183" stop-color="#FFC444"/>
<stop offset="0.5033" stop-color="#FDB946"/>
<stop offset="0.6054" stop-color="#FCB148"/>
<stop offset="0.6253" stop-color="#FBA94A"/>
<stop offset="0.6758" stop-color="#F99C4D"/>
<stop offset="0.7404" stop-color="#F8944E"/>
<stop offset="0.8658" stop-color="#F8924F"/>
<stop offset="1" stop-color="#F8924F"/>
</linearGradient>
<linearGradient id="paint163_linear" x1="44.618" y1="104.438" x2="88.4575" y2="104.438" gradientUnits="userSpaceOnUse">
<stop stop-color="#FCB148"/>
<stop offset="0.0520724" stop-color="#FDBA46"/>
<stop offset="0.1424" stop-color="#FFC244"/>
<stop offset="0.3183" stop-color="#FFC444"/>
<stop offset="0.4849" stop-color="#FDB946"/>
<stop offset="0.7754" stop-color="#F99C4D"/>
<stop offset="0.8658" stop-color="#F8924F"/>
<stop offset="1" stop-color="#F8924F"/>
</linearGradient>
<linearGradient id="paint164_linear" x1="38.5783" y1="105.803" x2="30.0188" y2="97.2684" gradientUnits="userSpaceOnUse">
<stop stop-color="#FFC444"/>
<stop offset="0.9964" stop-color="#F36F56"/>
</linearGradient>
<linearGradient id="paint165_linear" x1="125.54" y1="131.978" x2="123.71" y2="119.127" gradientUnits="userSpaceOnUse">
<stop stop-color="#FFC444"/>
<stop offset="0.9964" stop-color="#F36F56"/>
</linearGradient>
<linearGradient id="paint166_linear" x1="220.231" y1="239.387" x2="222.146" y2="207.39" gradientUnits="userSpaceOnUse">
<stop stop-color="#FF9085"/>
<stop offset="1" stop-color="#FB6FBB"/>
</linearGradient>
<linearGradient id="paint167_linear" x1="212.96" y1="213.76" x2="238.173" y2="213.76" gradientUnits="userSpaceOnUse">
<stop stop-color="#FF9085"/>
<stop offset="1" stop-color="#FB6FBB"/>
</linearGradient>
</defs>
</svg>
