<svg width="215" height="203" viewBox="0 0 215 203" fill="none" xmlns="http://www.w3.org/2000/svg">
<path opacity="0.3" d="M71.2388 0.915133C61.2663 14.8859 72.5256 37.7722 57.8655 48.2043C43.5731 58.3607 26.3394 41.3108 12.8742 49.9966C-7.07089 62.9103 -4.08374 123.067 24.5012 160.752C33.095 172.057 40.3561 176.515 43.4352 189.245C50.0529 216.589 25.5581 232.581 30.0619 246.093C40.1723 276.562 200.33 303.768 265.68 213.142C296.196 170.816 301.343 109.28 274.964 62.221C227.261 -22.7524 93.5737 -30.3812 71.2388 0.915133Z" fill="#F4F7FA"/>
<path d="M84.9388 32.6266C87.9852 32.9036 90.6992 30.4111 90.9762 27.1432C91.2531 23.8198 89.0376 20.9396 85.9912 20.7181C85.8251 20.7181 85.6589 20.7181 85.5481 20.7181C85.3819 19.001 85.1604 17.3394 84.7727 15.7331C84.9388 15.6777 85.0496 15.6223 85.2158 15.5669C87.9852 14.1268 89.2038 10.582 87.9298 7.59097C86.6559 4.59998 83.3326 3.32605 80.5631 4.76615C80.397 4.82154 80.2862 4.93232 80.12 4.98771C79.2338 3.60299 78.2368 2.32905 77.129 1.1105C77.2398 0.999723 77.3506 0.833559 77.406 0.722782C79.1784 -1.99126 78.5691 -5.75769 76.0767 -7.58551C73.5842 -9.46872 70.1501 -8.74867 68.3776 -6.03463C68.2669 -5.86846 68.2115 -5.75769 68.1561 -5.59153C66.7714 -6.25619 65.2759 -6.81007 63.725 -7.25318C63.725 -7.41935 63.7804 -7.58551 63.7804 -7.75168C64.0573 -11.075 64.6666 -14.786 61.6202 -14.9522C54.5859 -15.4507 53.035 -11.9612 52.758 -8.6379C52.758 -8.47173 52.758 -8.30556 52.758 -8.1394C51.2072 -7.97323 49.6563 -7.6409 48.1054 -7.19779C48.05 -7.36396 47.9946 -7.53013 47.9392 -7.6409C46.6653 -10.6319 46.8868 -12.6259 43.9513 -11.5181C37.5816 -9.08101 36.5846 -5.48075 37.8585 -2.48976C37.9139 -2.32359 38.0247 -2.21282 38.0801 -2.04665C36.8061 -1.04965 35.5876 0.0581188 34.4798 1.27667C34.369 1.16589 34.2582 1.05511 34.0921 0.944333C31.5996 -0.93888 28.1655 -0.218826 26.3931 2.49522C24.6206 5.20926 25.2299 8.97569 27.7224 10.8035C27.8332 10.9143 27.9993 10.9697 28.1101 11.0805C27.4454 12.6313 26.9469 14.2376 26.5038 15.8439C26.3377 15.8439 26.1715 15.7885 26.0607 15.7885C23.0144 15.5115 20.3003 18.004 20.0234 21.272C19.7464 24.5953 21.962 27.4755 25.0083 27.697C25.1745 27.697 25.3407 27.697 25.4515 27.697C25.6176 29.4141 25.8392 31.0757 26.2269 32.682C26.0607 32.7374 25.95 32.7928 25.7838 32.8482C23.0144 34.2883 21.7958 37.8332 23.0697 40.8241C24.3437 43.8151 27.667 45.0891 30.4364 43.649C30.6026 43.5936 30.7134 43.4828 30.8795 43.4274C31.7658 44.8121 32.7628 46.0861 33.8705 47.3046C33.7597 47.4154 33.649 47.5816 33.5936 47.6923C31.8211 50.4064 32.4304 54.1728 34.9229 56.0006C37.4154 57.8838 42.8435 56.9976 44.6159 54.2836C44.7267 54.1174 42.8435 54.1728 42.8989 54.0066C44.2836 54.6713 45.7791 55.2252 47.33 55.6683C47.33 55.8345 47.2746 56.0006 47.2746 56.1668C46.9976 59.4901 49.2132 62.3703 52.2595 62.5919C55.3059 62.8688 58.02 60.3763 58.2969 57.1084C58.2969 56.9422 58.2969 56.7761 58.2969 56.6099C59.8478 56.4437 61.3987 56.1114 62.9496 55.6683C63.0049 55.8345 63.0603 56.0006 63.1157 56.1114C64.3897 59.1024 67.713 60.3763 70.4824 58.9362C73.2518 57.4961 74.4704 53.9512 73.1964 50.9603C73.1411 50.7941 73.0303 50.6833 72.9749 50.5172C74.2488 49.5202 75.4674 48.4124 76.5752 47.1938C76.6859 47.3046 76.7967 47.4154 76.9629 47.5262C79.4554 49.4094 82.8895 48.6893 84.6619 45.9753C86.4343 43.2612 85.8251 39.4948 83.3326 37.667C83.2218 37.5562 83.0556 37.5008 82.9448 37.39C83.6095 35.8392 84.108 34.2329 84.5511 32.6266C84.6619 32.5712 84.8281 32.6266 84.9388 32.6266ZM53.6443 45.8091C42.5665 44.8675 34.4244 34.3991 35.4768 22.4351C36.4738 10.4712 46.2776 1.49822 57.2999 2.43982C68.3776 3.38143 76.5198 13.8499 75.4674 25.8138C74.4704 37.7778 64.722 46.7507 53.6443 45.8091Z" fill="#BFC6D1"/>
<path d="M85.1597 15.5117C87.9291 14.0716 89.1477 10.5268 87.8737 7.53578C86.5998 4.5448 83.2765 3.27085 80.507 4.71096C80.3409 4.76635 80.2301 4.87712 80.0639 4.93251C79.1777 3.54779 78.1807 2.27386 77.0729 1.05531C77.1837 0.944529 77.2945 0.778365 77.3499 0.667587C79.1223 -2.04646 80.4516 -7.47453 77.793 -9.08081C72.6972 -12.1272 70.094 -8.85925 68.3215 -6.08982C68.2108 -5.92366 68.1554 -5.81288 68.1 -5.64671C66.7153 -6.31138 65.2198 -6.86526 63.6689 -7.30837C63.6689 -7.47454 63.7243 -7.64071 63.7243 -7.80687C63.8904 -9.57931 63.2812 -11.241 62.2288 -12.4595C61.5641 -7.30837 60.8995 -2.15723 60.3456 3.0493C69.817 5.43101 76.4637 15.0686 75.5221 25.9248C74.7466 35.1193 68.7647 42.5414 61.0656 45.0339C61.0656 46.0309 61.121 47.0279 61.121 48.0802C61.121 50.7943 60.8995 53.5637 60.7333 56.2778C61.5087 56.1116 62.2288 55.9454 62.9488 55.7239C63.0042 55.89 63.0596 56.0562 63.115 56.167C64.3889 59.158 67.2692 60.9858 72.3649 58.5487C75.1897 57.2194 74.4697 53.9514 73.1403 50.9605C73.085 50.7943 72.9742 50.6835 72.9188 50.5174C74.1927 49.5204 75.4113 48.4126 76.5191 47.194C76.6298 47.3048 76.7406 47.4156 76.9068 47.5264C79.3993 49.4096 84.9935 48.3572 86.7659 45.6431C88.5384 42.9291 85.769 39.5504 83.2765 37.6672C83.1657 37.5564 82.9995 37.501 82.8887 37.3902C83.5534 35.8394 84.0519 34.2331 84.495 32.6268C84.6612 32.6268 84.8273 32.6822 84.9381 32.6822C87.9845 32.9592 90.6985 30.4667 90.9755 27.1987C91.2524 23.8754 89.0369 20.9952 85.9905 20.7737C85.8243 20.7737 85.6582 20.7737 85.5474 20.7737C85.3812 19.0566 85.1597 17.395 84.772 15.7887C84.8273 15.6225 84.9935 15.5671 85.1597 15.5117Z" fill="#BFC6D1"/>
<path d="M87.8168 31.8513C90.8631 32.1282 93.5772 29.6357 93.8541 26.3678C94.1311 23.0445 91.9155 20.1643 88.8691 19.9427C88.703 19.9427 88.5368 19.9427 88.426 19.9427C88.2599 18.2257 88.0383 16.564 87.6506 14.9577C87.8168 14.9024 87.9275 14.847 88.0937 14.7916C90.8631 13.3515 92.0817 9.8066 90.8078 6.81561C89.5338 3.82463 86.2105 2.55069 83.4411 3.99079C83.2749 4.04618 83.1641 4.15696 82.998 4.21235C82.1117 2.82764 81.1147 1.5537 80.007 0.335148C80.1177 0.22437 80.2285 0.058198 80.2839 -0.0525789C82.0564 -2.76662 81.4471 -6.53305 78.9546 -8.36087C76.4621 -10.2441 73.028 -9.52403 71.2556 -6.80999C71.1448 -6.64382 71.0894 -6.53304 71.034 -6.36688C69.6493 -7.03154 68.1538 -7.58543 66.6029 -8.02854C66.6029 -8.1947 66.6583 -8.36086 66.6583 -8.52703C66.9353 -11.8503 64.7197 -14.7306 61.6733 -14.9521C58.627 -15.2291 55.9129 -12.7366 55.636 -9.46864C55.636 -9.30248 55.636 -9.13631 55.636 -8.97014C54.0851 -8.80398 52.5342 -8.47165 50.9833 -8.02854C50.9279 -8.1947 50.8726 -8.36087 50.8172 -8.47165C49.5432 -11.4626 46.2199 -12.7366 43.4505 -11.2965C40.681 -9.85636 39.4625 -6.31149 40.7364 -3.3205C40.7918 -3.15434 40.9026 -3.04356 40.958 -2.87739C39.6841 -1.8804 38.4655 -0.772626 37.3577 0.445923C37.247 0.335146 37.1362 0.224365 36.97 0.113588C34.4775 -1.76962 31.0434 -1.04957 29.271 1.66447C27.4986 4.37851 28.1078 8.14494 30.6003 9.97276C30.7111 10.0835 30.8773 10.1389 30.988 10.2497C30.3234 11.8006 29.8249 13.4069 29.3818 15.0131C29.2156 15.0131 29.0494 14.9577 28.9387 14.9577C25.8923 14.6808 23.1782 17.1733 22.9013 20.4412C22.6244 23.7645 24.8399 26.6447 27.8863 26.8663C28.0524 26.8663 28.2186 26.8663 28.3294 26.8663C28.4956 28.5833 28.7171 30.245 29.1048 31.8513C28.9387 31.9067 28.8279 31.962 28.6617 32.0174C25.8923 33.4575 24.6737 37.0024 25.9477 39.9934C27.2216 42.9844 30.5449 44.2583 33.3144 42.8182C33.4805 42.7628 33.5913 42.652 33.7575 42.5967C34.6437 43.9814 35.6407 45.2553 36.7485 46.4739C36.6377 46.5846 36.5269 46.7508 36.4715 46.8616C34.6991 49.5756 35.3084 53.3421 37.8008 55.1699C40.2933 57.0531 43.7274 56.333 45.4999 53.619C45.6106 53.4528 45.666 53.3421 45.7214 53.1759C47.1061 53.8405 48.6016 54.3944 50.1525 54.8375C50.1525 55.0037 50.0971 55.1699 50.0971 55.336C49.8202 58.6594 52.0357 61.5396 55.0821 61.7611C58.1285 62.0381 60.8425 59.5456 61.1194 56.2777C61.1194 56.1115 61.1194 55.9453 61.1194 55.7792C62.6703 55.613 64.2212 55.2807 65.7721 54.8375C65.8275 55.0037 65.8829 55.1699 65.9383 55.2806C67.2122 58.2716 70.5355 59.5456 73.3049 58.1055C76.0744 56.6654 77.2929 53.1205 76.019 50.1295C75.9636 49.9633 75.8528 49.8526 75.7974 49.6864C77.0714 48.6894 78.2899 47.5816 79.3977 46.3631C79.5085 46.4739 79.6192 46.5846 79.7854 46.6954C82.2779 48.5786 85.712 47.8586 87.4844 45.1445C89.2569 42.4305 88.6476 38.6641 86.1551 36.8362C86.0443 36.7255 85.8782 36.6701 85.7674 36.5593C86.432 35.0084 86.9305 33.4021 87.3737 31.7959C87.4844 31.7959 87.6506 31.8513 87.8168 31.8513ZM56.4668 45.0338C45.3891 44.0921 37.247 33.6237 38.2993 21.6598C39.2963 9.69583 49.1001 0.722864 60.1225 1.66447C71.2002 2.60608 79.3423 13.0745 78.2899 25.0385C77.3483 37.0024 67.5445 45.9754 56.4668 45.0338Z" fill="#D8DEE8"/>
<path d="M320.45 34.8533C320.229 34.8533 320.007 34.7979 319.786 34.6317C318.844 33.9117 227.287 -36.5427 211.002 -39.4782C210.947 -39.4782 210.947 -39.4782 210.892 -39.4782C207.735 -40.3645 196.435 -37.1519 155.78 -5.6358C132.517 12.4209 110.694 31.253 110.472 31.4192C110.084 31.7515 109.42 31.7515 109.032 31.3638C108.644 30.9761 108.644 30.4222 109.087 30.0899C109.309 29.9237 131.132 11.0916 154.451 -7.02052C168.132 -17.6551 179.652 -25.9634 188.681 -31.7238C204.134 -41.5276 209.064 -41.9153 211.39 -41.2507C228.284 -38.0935 317.238 30.3114 321.004 33.247C321.447 33.5793 321.503 34.1332 321.115 34.5209C321.004 34.7425 320.727 34.8533 320.45 34.8533Z" fill="url(#paint0_linear)"/>
<path d="M166.806 202.071L103.053 205.284V135.66L166.806 136.547V202.071Z" fill="white"/>
<path d="M131.025 131.285V198.361L115.904 199.801L107.651 200.632V131.673L131.025 131.285Z" fill="url(#paint1_linear)"/>
<path d="M158.054 135.66V195.813L136.508 197.917V136.104L158.054 135.66Z" fill="url(#paint2_linear)"/>
<path opacity="0.3" d="M131.026 176.149V198.36L115.905 199.8C111.862 199.911 109.48 200.133 107.597 200.354V144.744C111.751 146.572 119.339 151.723 123.272 165.958C124.768 171.054 127.814 174.1 131.026 176.149Z" fill="url(#paint3_linear)"/>
<path opacity="0.3" d="M158.055 193.32V195.812L136.509 197.917V178.586C144.762 181.744 154.399 182.63 158.055 193.32Z" fill="url(#paint4_linear)"/>
<path d="M181.764 191.603L110.534 194.428L23.2413 204.232L23.9614 200.631L4.46457 200.521V206.336H4.40918L76.5252 223.618L168.969 215.697L305.059 249.816L363.992 212.706V207.056L181.764 191.603Z" fill="url(#paint5_linear)"/>
<path d="M305.172 244.167L364.16 207.056L350.812 205.727L181.821 185.953L110.591 188.723L4.63293 200.687L76.5273 217.912L169.026 210.047L305.172 244.167Z" fill="#97A6B7"/>
<path d="M76.5251 217.913V223.618L4.40918 206.337L4.63073 200.687L76.5251 217.913Z" fill="url(#paint6_linear)"/>
<path d="M103.054 131.451H94.3578V205.284H103.054V131.451Z" fill="url(#paint7_linear)"/>
<path d="M258.031 209.494L197.048 202.515V131.95L258.031 127.519V209.494Z" fill="#97A6B7"/>
<path d="M248.892 139.427V210.047L230.947 207.555L216.878 205.561L207.849 204.342L206.631 204.176L203.031 203.678V137.931L248.892 139.427Z" fill="white"/>
<path d="M227.347 144.578V207.056L216.712 205.561L207.628 204.342V143.747L209.401 143.858L227.347 144.578Z" fill="url(#paint8_linear)"/>
<path d="M28.2798 134.663V199.911L35.148 201.628V150.449L65.0024 150.394V208.884L75.0832 211.377V130.952L28.2798 134.663Z" fill="url(#paint9_linear)"/>
<path d="M41.5716 201.075L35.1465 201.795V149.231L41.5716 149.12V201.075Z" fill="url(#paint10_linear)"/>
<path opacity="0.3" d="M251.663 193.265V210.546L231.502 207.61V207.555L217.045 205.561L207.685 204.287V143.747L209.568 143.803C213.999 146.517 220.646 153.329 224.301 170.112C225.021 173.435 226.184 176.094 227.514 178.254C228.566 179.916 229.785 181.245 231.114 182.408C236.32 186.895 243.189 188.058 249.004 191.381C249.946 191.935 250.722 192.544 251.663 193.265Z" fill="url(#paint11_linear)"/>
<path d="M75.0844 130.842V211.377L197.05 202.514V131.949L75.0844 130.842ZM152.573 185.399L95.6889 189.775V149.729L152.573 147.79V185.399Z" fill="url(#paint12_linear)"/>
<path d="M269.995 -15.7166V91.3496L103.94 93.0666V17.4612L108.094 16.6304L269.995 -15.7166Z" fill="url(#paint13_linear)"/>
<path d="M269.993 86.7524V91.3496L103.993 93.0667V17.4612L108.148 16.6304C118.284 17.6828 132.795 21.8369 147.141 34.8532C173.285 58.5596 173.285 43.5492 226.015 62.9906C256.146 74.0684 266.947 80.9366 269.993 86.7524Z" fill="url(#paint14_linear)"/>
<path d="M169.077 71.0773L113.577 76.3946V30.2005L169.077 21.2276V71.0773Z" fill="white"/>
<path d="M130.081 32.2498V70.0802L116.788 71.5203V34.3545L120.997 33.6899L130.081 32.2498Z" fill="url(#paint15_linear)"/>
<path d="M147.085 29.591V68.3076L132.85 69.8031V31.8065L147.085 29.591Z" fill="url(#paint16_linear)"/>
<path d="M165.419 26.7664V66.48L150.741 68.0309V29.0927L165.419 26.7664Z" fill="url(#paint17_linear)"/>
<path opacity="0.4" d="M123.546 36.0164C128.642 41.7214 128.254 46.374 130.082 48.9219V70.1357L116.789 71.5204V34.3547L120.998 33.69C121.774 34.2439 122.66 35.0194 123.546 36.0164Z" fill="url(#paint18_linear)"/>
<path opacity="0.4" d="M139.942 50.8605C142.379 50.6943 145.204 50.5835 147.032 50.5282V68.3079L132.797 69.8034V50.5282C134.68 50.9713 136.619 51.082 139.942 50.8605Z" fill="url(#paint19_linear)"/>
<path opacity="0.4" d="M165.42 54.6823V66.4801L150.742 68.031V50.639C156.226 50.8051 161.764 51.9129 165.42 54.6823Z" fill="url(#paint20_linear)"/>
<path d="M72.7553 123.694C73.9738 126.796 75.2477 129.953 76.4663 133.055C76.3001 150.281 75.3585 168.892 73.4199 188.776C71.9244 203.565 70.0412 217.523 67.8257 230.595C65.8317 230.318 63.8377 230.096 61.8437 229.819C59.4066 223.837 56.6926 214.864 57.2465 204.063C57.8003 192.82 61.3452 191.601 62.0099 180.856C62.8407 166.898 57.3018 162.743 55.5294 145.739C54.8647 139.259 54.6986 130.784 56.471 120.704C61.8991 121.701 67.3272 122.698 72.7553 123.694Z" fill="url(#paint21_linear)"/>
<path opacity="0.3" d="M56.4697 120.648C59.4053 121.202 62.3409 121.756 65.2765 122.31C69.8738 132.003 70.5938 141.751 69.3199 145.961C67.492 151.887 63.8364 153.549 63.5595 159.642C63.2825 165.679 66.6612 167.507 68.3783 174.763C69.5414 179.803 68.766 184.234 67.1597 192.986C63.9472 210.544 59.2391 215.64 62.3409 221.732C63.2271 223.45 64.8888 225.554 68.3783 227.382C68.2121 228.435 68.0459 229.542 67.8244 230.595C65.8304 230.318 63.8364 230.096 61.8424 229.819C59.4053 223.837 56.6913 214.864 57.2452 204.064C57.799 192.82 61.3439 191.601 62.0086 180.856C62.8394 166.898 57.3005 162.744 55.5281 145.739C54.8081 139.203 54.6973 130.729 56.4697 120.648Z" fill="url(#paint22_linear)"/>
<path d="M64.3355 128.458C60.3475 143.358 56.5811 159.365 53.3132 176.369C49.3252 196.918 46.5558 216.36 44.6172 234.472C42.4016 234.361 40.1861 234.25 38.0259 234.139C30.7146 216.304 31.1577 204.617 32.9855 197.14C33.7056 194.26 35.478 188.665 36.475 180.136C37.1397 174.209 37.1397 169.612 37.0843 164.128C36.9735 152.109 35.9211 149.395 36.475 140.2C36.9735 131.615 37.3059 127.239 39.9645 124.913C46.9435 118.82 63.1169 127.793 64.3355 128.458Z" fill="url(#paint23_linear)"/>
<path d="M130.359 82.3195C130.359 82.3195 135.012 80.824 135.51 79.9378C136.009 78.9961 136.784 77.5561 136.729 76.836C136.673 76.116 137.836 76.9468 137.338 78.6638C136.839 80.3809 139.11 79.55 139.498 79.3839C140.329 79.1069 143.541 78.2761 143.486 78.4977C143.431 78.7192 144.095 79.4946 142.046 81.0455C140.273 82.3749 137.726 82.3195 136.452 82.7072C135.178 83.0395 135.178 83.0395 135.178 83.0395L131.799 84.0919L130.359 82.3195Z" fill="url(#paint24_linear)"/>
<path d="M132.631 79.4946C133.185 81.0455 133.739 82.5409 134.293 84.0918C131.745 87.4151 125.929 93.951 116.513 96.8866C99.8408 102.038 80.1779 93.231 73.8636 79.8269C70.7618 73.1803 69.8202 63.0996 73.8082 60.4963C74.9159 59.7762 76.7438 59.4439 81.0641 61.1056C92.5295 65.5366 95.3543 74.1773 102.223 78.8853C107.152 82.3194 115.904 84.8673 132.631 79.4946Z" fill="url(#paint25_linear)"/>
<path d="M77.9063 136.268C80.288 132.945 77.9063 129.344 77.8509 122.698C77.7955 115.11 80.7865 114.113 84.6083 101.872C87.1562 93.7296 89.6487 85.9198 88.2086 76.4483C87.5439 71.9065 86.3808 64.2074 80.3988 60.0533C77.297 57.8931 72.9213 57.727 64.1699 57.5054C53.3692 57.2285 47.9965 57.0623 43.7869 58.8348C43.1776 59.1117 30.4383 64.7613 28.7766 75.5067C27.0596 86.4183 38.9127 88.8554 39.3004 103.644C39.4666 110.291 37.4172 120.316 36.0325 126.797C34.7586 133.055 34.0385 134.606 35.1463 136.6C37.7496 141.419 47.0549 140.865 65.6654 139.702C72.9767 139.314 76.1339 138.761 77.9063 136.268Z" fill="url(#paint26_linear)"/>
<path opacity="0.3" d="M52.4825 102.37C51.4855 105.14 48.4945 107.078 46.002 113.891C45.4482 115.331 41.6263 125.799 45.282 128.735C47.3868 130.452 49.6577 127.738 55.0858 127.793C64.5572 127.904 68.4344 136.157 74.7487 134.495C75.8565 134.219 77.2966 133.498 78.8475 131.781C79.0137 133.443 78.8475 134.883 77.8505 136.268C76.0781 138.76 72.9209 139.314 65.6096 139.757C47.0544 140.921 37.7491 141.474 35.0905 136.656C33.9827 134.662 34.7028 133.055 35.9767 126.852C37.306 120.371 39.4108 110.346 39.2446 103.699C38.8015 88.9107 26.9484 86.4736 28.7208 75.562C29.1639 72.6264 30.4932 70.1339 32.0995 67.9738C46.8329 75.2297 55.6397 93.5633 52.4825 102.37Z" fill="url(#paint27_linear)"/>
<path d="M31.6 122.421L34.4802 124.581C35.0895 123.972 36.4188 122.808 38.4682 122.531C40.7391 122.199 43.2316 123.141 43.2316 123.861C43.2316 124.415 41.6253 124.858 41.4038 124.969C39.4098 125.522 38.0251 124.802 37.1942 125.522C36.9173 125.799 36.5296 126.243 35.6987 126.686C35.4772 126.796 35.2556 126.907 35.1448 126.907C33.8155 127.295 31.7661 124.858 31.6 124.636V122.421Z" fill="url(#paint28_linear)"/>
<path d="M43.7311 83.3163C46.3343 78.2206 48.4945 70.3 46.002 58.0591C22.4065 65.2596 9.00242 85.698 12.215 102.979C14.8736 117.27 28.0007 125.135 30.8809 126.852C31.7117 125.301 32.5426 123.75 33.3734 122.199C30.1609 117.99 26.616 111.841 27.7238 105.25C29.33 96.0557 38.4692 93.6186 43.7311 83.3163Z" fill="url(#paint29_linear)"/>
<path d="M64.4462 46.6491C64.4462 46.6491 63.9477 50.6371 62.4522 53.5173C61.1228 56.1206 55.0855 57.3391 53.8115 57.893C52.593 58.3915 55.8609 60.4409 59.295 61.0502C62.7291 61.6594 72.6437 61.6594 74.5269 60.4963C76.4101 59.3331 73.1976 59.1669 70.8159 58.0592C68.4341 56.9514 67.3818 52.0218 67.991 49.8616C68.6557 47.7569 64.4462 46.6491 64.4462 46.6491Z" fill="url(#paint30_linear)"/>
<path d="M70.0406 45.5967C71.9792 43.9905 72.2562 43.7689 72.4777 43.215C73.4747 40.8333 67.105 37.7316 66.6065 38.8947C66.1634 39.9471 65.2218 40.0025 63.2832 41.2764C61.7323 42.3288 60.7353 43.0489 60.4584 44.0458C59.8491 46.1506 62.2308 49.5293 64.5572 49.5847C65.4434 49.6955 65.6649 49.2524 70.0406 45.5967Z" fill="url(#paint31_linear)"/>
<path d="M64.7794 49.9724C64.7794 49.9724 66.4964 52.2988 69.4874 51.8003C72.146 51.3571 71.9799 45.3752 70.1521 44.2674C69.5428 43.8797 68.3796 43.8243 67.4934 44.1566C66.9395 44.3782 66.7733 44.5997 65.9425 44.9321C65.1117 45.209 64.8901 45.1536 64.6686 45.3752C64.3916 45.6521 64.2255 46.3168 64.8901 48.0338C64.3362 47.5907 63.727 47.4246 63.2839 47.7015C63.2285 47.7569 63.0623 47.8677 62.9515 48.0892C62.6192 48.8093 63.3393 49.6401 64.7794 49.9724Z" fill="url(#paint32_linear)"/>
<path d="M71.9257 41.1102C71.9257 41.1102 64.559 43.8796 61.1249 45.8736C60.5156 46.2059 59.7402 45.9844 59.4632 45.3197C58.6324 43.3811 57.7462 39.6147 62.0665 37.4545C67.6053 34.6851 70.6517 37.7869 71.9257 41.1102Z" fill="url(#paint33_linear)"/>
<path d="M71.3714 40.5561C71.3714 40.5561 74.1409 40.113 74.1409 40.8331C74.1409 41.5531 62.897 44.9318 62.897 44.9318L71.3714 40.5561Z" fill="url(#paint34_linear)"/>
<path d="M63.7301 38.95C63.3424 38.1745 62.4561 37.8976 61.5145 37.7868C61.7361 37.676 61.9576 37.5099 62.1792 37.3991C66.998 34.962 69.9336 37.1221 71.4845 39.947C70.2105 40.4455 68.8258 40.9994 68.0504 41.3317C66.4441 42.1071 64.7825 41.2209 63.7301 38.95Z" fill="url(#paint35_linear)"/>
<path d="M88.2121 81.4331C88.2121 81.4331 85.1104 77.5005 82.6733 76.5035C84.2796 82.984 80.8455 95.8896 80.8455 95.8896C80.8455 95.8896 89.3199 88.0798 88.2121 81.4331Z" fill="url(#paint36_linear)"/>
<path d="M39.4697 145.019C49.8273 147.18 67.3301 136.767 69.2687 133.72C71.3735 130.397 82.4512 110.457 86.6607 94.2281C87.7131 90.1294 88.6547 86.1414 88.267 82.9289C88.1009 82.4304 88.2116 81.8765 88.2116 81.378C87.8239 84.4797 85.6084 86.5845 82.4512 87.9692C71.2627 92.8988 47.9441 89.0216 47.9441 89.0216L31.9922 135.548C32.4907 141.419 35.4263 144.189 39.4697 145.019Z" fill="white"/>
<path d="M34.7034 124.415C34.7034 124.415 36.2543 120.648 37.639 121.535C39.0237 122.421 40.7407 120.371 40.353 121.867C39.9653 123.362 39.5222 125.578 37.9159 125.966C36.2543 126.409 33.9833 128.735 34.7034 124.415Z" fill="url(#paint37_linear)"/>
<defs>
<linearGradient id="paint0_linear" x1="107.661" y1="3.30364" x2="319.772" y2="-5.62738" gradientUnits="userSpaceOnUse">
<stop offset="0.003597" stop-color="#26264F"/>
<stop offset="1" stop-color="#444B8C"/>
</linearGradient>
<linearGradient id="paint1_linear" x1="72.0472" y1="138.222" x2="297.342" y2="270.381" gradientUnits="userSpaceOnUse">
<stop offset="0.00359712" stop-color="#E38DDD"/>
<stop offset="1" stop-color="#9571F6"/>
</linearGradient>
<linearGradient id="paint2_linear" x1="80.9377" y1="127.858" x2="284.828" y2="247.461" gradientUnits="userSpaceOnUse">
<stop offset="0.00359712" stop-color="#E38DDD"/>
<stop offset="1" stop-color="#9571F6"/>
</linearGradient>
<linearGradient id="paint3_linear" x1="128.527" y1="184.742" x2="199.054" y2="226.113" gradientUnits="userSpaceOnUse">
<stop offset="0.00359712" stop-color="#E38DDD"/>
<stop offset="1" stop-color="#9571F6"/>
</linearGradient>
<linearGradient id="paint4_linear" x1="151.977" y1="195.897" x2="192.715" y2="219.794" gradientUnits="userSpaceOnUse">
<stop offset="0.00359712" stop-color="#E38DDD"/>
<stop offset="1" stop-color="#9571F6"/>
</linearGradient>
<linearGradient id="paint5_linear" x1="4.43156" y1="220.714" x2="363.998" y2="220.714" gradientUnits="userSpaceOnUse">
<stop stop-color="#EBEFF2"/>
<stop offset="0.4737" stop-color="#D2D9E1"/>
<stop offset="0.9946" stop-color="#B7C0CE"/>
</linearGradient>
<linearGradient id="paint6_linear" x1="-60.6635" y1="212.134" x2="11.4269" y2="212.134" gradientUnits="userSpaceOnUse">
<stop stop-color="#EBEFF2"/>
<stop offset="0.4737" stop-color="#D2D9E1"/>
<stop offset="0.9946" stop-color="#B7C0CE"/>
</linearGradient>
<linearGradient id="paint7_linear" x1="61.3616" y1="32.3787" x2="94.6111" y2="153.523" gradientUnits="userSpaceOnUse">
<stop stop-color="#EBEFF2"/>
<stop offset="0.4737" stop-color="#D2D9E1"/>
<stop offset="0.9946" stop-color="#B7C0CE"/>
</linearGradient>
<linearGradient id="paint8_linear" x1="175.262" y1="149.703" x2="380.109" y2="269.867" gradientUnits="userSpaceOnUse">
<stop offset="0.00359712" stop-color="#E38DDD"/>
<stop offset="1" stop-color="#9571F6"/>
</linearGradient>
<linearGradient id="paint9_linear" x1="64.4807" y1="100.786" x2="23.174" y2="333.996" gradientUnits="userSpaceOnUse">
<stop stop-color="#EBEFF2"/>
<stop offset="0.4737" stop-color="#D2D9E1"/>
<stop offset="0.9946" stop-color="#B7C0CE"/>
</linearGradient>
<linearGradient id="paint10_linear" x1="52.1856" y1="166.672" x2="28.3092" y2="181.342" gradientUnits="userSpaceOnUse">
<stop stop-color="#EBEFF2"/>
<stop offset="0.4737" stop-color="#D2D9E1"/>
<stop offset="0.9946" stop-color="#B7C0CE"/>
</linearGradient>
<linearGradient id="paint11_linear" x1="244.666" y1="195.274" x2="351.668" y2="258.042" gradientUnits="userSpaceOnUse">
<stop offset="0.00359712" stop-color="#E38DDD"/>
<stop offset="1" stop-color="#9571F6"/>
</linearGradient>
<linearGradient id="paint12_linear" x1="358.365" y1="41.8885" x2="104.859" y2="184.208" gradientUnits="userSpaceOnUse">
<stop stop-color="#EBEFF2"/>
<stop offset="0.4737" stop-color="#D2D9E1"/>
<stop offset="0.9946" stop-color="#B7C0CE"/>
</linearGradient>
<linearGradient id="paint13_linear" x1="182.346" y1="80.5177" x2="141.304" y2="312.23" gradientUnits="userSpaceOnUse">
<stop stop-color="#EBEFF2"/>
<stop offset="0.4737" stop-color="#D2D9E1"/>
<stop offset="0.9946" stop-color="#B7C0CE"/>
</linearGradient>
<linearGradient id="paint14_linear" x1="180.344" y1="91.81" x2="157.376" y2="221.479" gradientUnits="userSpaceOnUse">
<stop stop-color="#EBEFF2"/>
<stop offset="0.4737" stop-color="#D2D9E1"/>
<stop offset="0.9946" stop-color="#B7C0CE"/>
</linearGradient>
<linearGradient id="paint15_linear" x1="119.589" y1="74.9897" x2="86.2383" y2="271.39" gradientUnits="userSpaceOnUse">
<stop offset="0.00359712" stop-color="#E38DDD"/>
<stop offset="1" stop-color="#9571F6"/>
</linearGradient>
<linearGradient id="paint16_linear" x1="135.994" y1="73.4402" x2="101.717" y2="275.295" gradientUnits="userSpaceOnUse">
<stop offset="0.00359712" stop-color="#E38DDD"/>
<stop offset="1" stop-color="#9571F6"/>
</linearGradient>
<linearGradient id="paint17_linear" x1="154.007" y1="71.7532" x2="118.846" y2="278.818" gradientUnits="userSpaceOnUse">
<stop offset="0.00359712" stop-color="#E38DDD"/>
<stop offset="1" stop-color="#9571F6"/>
</linearGradient>
<linearGradient id="paint18_linear" x1="130.002" y1="59.1048" x2="174.084" y2="84.9639" gradientUnits="userSpaceOnUse">
<stop offset="0.00359712" stop-color="#E38DDD"/>
<stop offset="1" stop-color="#9571F6"/>
</linearGradient>
<linearGradient id="paint19_linear" x1="145.303" y1="63.3099" x2="177.011" y2="81.9096" gradientUnits="userSpaceOnUse">
<stop offset="0.00359712" stop-color="#E38DDD"/>
<stop offset="1" stop-color="#9571F6"/>
</linearGradient>
<linearGradient id="paint20_linear" x1="162.387" y1="63.8161" x2="193.239" y2="81.914" gradientUnits="userSpaceOnUse">
<stop offset="0.00359712" stop-color="#E38DDD"/>
<stop offset="1" stop-color="#9571F6"/>
</linearGradient>
<linearGradient id="paint21_linear" x1="76.4636" y1="175.618" x2="55.0302" y2="175.618" gradientUnits="userSpaceOnUse">
<stop stop-color="#444B8C"/>
<stop offset="0.9964" stop-color="#26264F"/>
</linearGradient>
<linearGradient id="paint22_linear" x1="76.4623" y1="175.618" x2="55.0289" y2="175.618" gradientUnits="userSpaceOnUse">
<stop stop-color="#444B8C"/>
<stop offset="0.9964" stop-color="#26264F"/>
</linearGradient>
<linearGradient id="paint23_linear" x1="64.3622" y1="178.68" x2="31.8266" y2="178.68" gradientUnits="userSpaceOnUse">
<stop stop-color="#444B8C"/>
<stop offset="0.9964" stop-color="#26264F"/>
</linearGradient>
<linearGradient id="paint24_linear" x1="137.805" y1="79.5311" x2="299.664" y2="41.6896" gradientUnits="userSpaceOnUse">
<stop stop-color="#FFC444"/>
<stop offset="0.9964" stop-color="#F36F56"/>
</linearGradient>
<linearGradient id="paint25_linear" x1="33.5363" y1="36.9361" x2="149.14" y2="111.895" gradientUnits="userSpaceOnUse">
<stop offset="0.003597" stop-color="#6165D7"/>
<stop offset="1" stop-color="#AA80F9"/>
</linearGradient>
<linearGradient id="paint26_linear" x1="-1.03649" y1="182.536" x2="71.5785" y2="78.287" gradientUnits="userSpaceOnUse">
<stop offset="0.003597" stop-color="#6165D7"/>
<stop offset="1" stop-color="#AA80F9"/>
</linearGradient>
<linearGradient id="paint27_linear" x1="-1.02976" y1="182.541" x2="71.5854" y2="78.2915" gradientUnits="userSpaceOnUse">
<stop stop-color="#AA80F9"/>
<stop offset="0.9964" stop-color="#6165D7"/>
</linearGradient>
<linearGradient id="paint28_linear" x1="37.551" y1="117.912" x2="36.0113" y2="162.714" gradientUnits="userSpaceOnUse">
<stop stop-color="#FFC444"/>
<stop offset="0.9964" stop-color="#F36F56"/>
</linearGradient>
<linearGradient id="paint29_linear" x1="-21.401" y1="168.351" x2="51.2143" y2="64.1017" gradientUnits="userSpaceOnUse">
<stop offset="0.003597" stop-color="#6165D7"/>
<stop offset="1" stop-color="#AA80F9"/>
</linearGradient>
<linearGradient id="paint30_linear" x1="69.539" y1="66.4705" x2="57.8677" y2="49.3019" gradientUnits="userSpaceOnUse">
<stop stop-color="#FFC444"/>
<stop offset="0.9964" stop-color="#F36F56"/>
</linearGradient>
<linearGradient id="paint31_linear" x1="60.9312" y1="57.7871" x2="67.9248" y2="40.0246" gradientUnits="userSpaceOnUse">
<stop stop-color="#444B8C"/>
<stop offset="0.9964" stop-color="#3E4177"/>
</linearGradient>
<linearGradient id="paint32_linear" x1="78.3121" y1="53.2727" x2="59.6747" y2="43.1214" gradientUnits="userSpaceOnUse">
<stop stop-color="#FFC444"/>
<stop offset="0.9964" stop-color="#F36F56"/>
</linearGradient>
<linearGradient id="paint33_linear" x1="65.3045" y1="42.4361" x2="62.3152" y2="69.7109" gradientUnits="userSpaceOnUse">
<stop stop-color="#FFC444"/>
<stop offset="0.9964" stop-color="#F36F56"/>
</linearGradient>
<linearGradient id="paint34_linear" x1="72.9733" y1="45.8102" x2="69.4376" y2="43.3997" gradientUnits="userSpaceOnUse">
<stop stop-color="#FFC444"/>
<stop offset="0.9964" stop-color="#F36F56"/>
</linearGradient>
<linearGradient id="paint35_linear" x1="66.074" y1="34.7966" x2="67.623" y2="51.7938" gradientUnits="userSpaceOnUse">
<stop stop-color="#FFC444"/>
<stop offset="0.9964" stop-color="#F36F56"/>
</linearGradient>
<linearGradient id="paint36_linear" x1="89.0029" y1="83.8639" x2="78.1475" y2="87.2851" gradientUnits="userSpaceOnUse">
<stop stop-color="#D8DEE8"/>
<stop offset="1" stop-color="white"/>
</linearGradient>
<linearGradient id="paint37_linear" x1="37.9155" y1="110.403" x2="36.3758" y2="155.205" gradientUnits="userSpaceOnUse">
<stop stop-color="#FFC444"/>
<stop offset="0.9964" stop-color="#F36F56"/>
</linearGradient>
</defs>
</svg>
