<svg width="229" height="203" viewBox="0 0 229 203" fill="none" xmlns="http://www.w3.org/2000/svg">
<path opacity="0.3" d="M85.2389 0.915133C75.2664 14.8859 86.5257 37.7722 71.8656 48.2043C57.5731 58.3607 40.3395 41.3108 26.8742 49.9966C6.92917 62.9103 9.91632 123.067 38.5012 160.752C47.0951 172.057 54.3562 176.515 57.4353 189.245C64.053 216.589 39.5582 232.581 44.0619 246.093C54.1723 276.562 214.33 303.768 279.681 213.142C310.196 170.816 315.343 109.28 288.964 62.221C241.261 -22.7524 107.574 -30.3812 85.2389 0.915133Z" fill="#F4F7FA"/>
<path d="M15.3279 15.1505L28.3837 11.4203L27.389 15.9587L15.3279 15.1505Z" fill="url(#paint0_linear)"/>
<path d="M68.4197 12.415H26.5169C22.6623 12.415 19.2429 15.3992 19.2429 19.2538V49.7795C19.2429 60.4106 28.1955 69.2388 38.8888 69.2388H56.11C66.7411 69.2388 75.0098 60.4106 75.0098 49.7795V19.2538C75.0098 15.3992 72.2743 12.415 68.4197 12.415Z" fill="url(#paint1_linear)"/>
<path d="M31.1179 228.955C56.6078 246.549 72.7099 242.881 81.7868 236.726C85.6414 241.264 89.9312 245.865 94.5939 250.403C109.888 265.386 130.777 281.364 143.646 281.364C156.018 281.364 165.717 273.966 171.872 259.978C176.224 249.968 177.156 240.145 177.218 239.71L169.198 238.902C169.136 239.275 165.717 272.909 143.709 272.909C135.316 272.909 117.348 261.097 100.127 244.248C95.713 239.897 91.6098 235.545 87.9417 231.255C93.2262 225.038 96.7077 216.458 97.7025 206.884C98.7594 197.061 97.0186 187.673 93.0397 181.145C87.8174 172.628 79.4244 169.83 70.0366 173.561C60.7111 177.229 56.67 185.249 58.5351 196.004C60.1515 205.454 66.5551 217.453 76.5023 230.198C72.9586 232.374 68.8554 233.431 64.1926 233.306C55.9239 233.12 46.2875 229.265 35.5942 221.867C-5.74912 193.331 9.29612 166.225 26.766 134.891C36.7133 117.048 46.9714 98.521 46.2875 79.1238L38.2054 79.4347C38.8271 96.345 29.1907 113.753 19.8029 130.601C11.0369 146.33 1.96001 162.619 1.08963 179.032C-0.0916121 197.932 9.79349 214.282 31.1179 228.955ZM66.4307 194.512C65.2495 187.736 67.239 183.694 72.8343 181.456C74.6372 180.71 76.3158 180.399 77.8701 180.399C81.2895 180.399 84.025 182.14 86.2009 185.684C90.7394 193.082 91.2367 206.449 86.8848 217.142C85.7657 219.878 84.3358 222.427 82.595 224.665C73.6425 213.225 67.7985 202.47 66.4307 194.512Z" fill="url(#paint2_linear)"/>
<path d="M55.924 58.6698V77.5696C55.924 77.6939 55.9241 77.8183 55.8619 77.9426H55.924C55.924 77.9426 55.8619 78.067 55.7997 78.2535C55.6754 78.5643 55.4267 78.813 55.178 79.0617C54.1211 80.1186 51.8208 81.5485 46.9093 81.9215C47.8419 80.989 48.2771 80.3051 48.5258 79.3725H40.8166C39.6976 79.3725 39.0759 78.6887 39.0759 77.5696V58.6698H55.924Z" fill="url(#paint3_linear)"/>
<path opacity="0.5" d="M55.924 58.6698V77.5696C55.924 77.6939 55.9241 77.8183 55.8619 77.9426H55.924C55.924 77.9426 55.8619 78.067 55.7997 78.2535C55.6754 78.5643 55.4267 78.813 55.178 79.0617C54.1211 80.1186 51.8208 81.5485 46.9093 81.9215C47.8419 80.989 48.2771 80.3051 48.5258 79.3725H40.8166C39.6976 79.3725 39.0759 78.6887 39.0759 77.5696V58.6698H55.924Z" fill="url(#paint4_linear)"/>
<path d="M48.8965 60.9701V79.9321C48.8965 81.0512 48.0261 82.1081 46.9071 82.1081H33.9135C32.7944 82.1081 31.924 81.0512 31.924 79.9321V60.9701H48.8965Z" fill="url(#paint5_linear)"/>
<path d="M26.1438 -7.66598H23.0353C21.108 -7.66598 19.2429 -5.86303 19.2429 -3.50056V16.4561H29.3145V-3.50056C29.2524 -5.9252 28.0711 -7.66598 26.1438 -7.66598Z" fill="white"/>
<path d="M28.5697 -7.66594H25.4611C23.5339 -7.66594 21.7931 -5.86299 21.7931 -3.50052V16.4562H32.8594V-3.50052C32.7973 -5.92516 30.4969 -7.66594 28.5697 -7.66594Z" fill="#BFC8D6"/>
<path d="M56.5474 -7.66598H53.4389C51.5116 -7.66598 49.8951 -5.86303 49.8951 -3.50056V16.4561H59.9667V-3.50056C59.9046 -5.9252 58.4747 -7.66598 56.5474 -7.66598Z" fill="white"/>
<path d="M58.9731 -7.66594H55.8646C53.9373 -7.66594 52.4452 -5.86299 52.4452 -3.50052V16.4562H62.0194V-3.50052C61.9573 -5.92516 60.9004 -7.66594 58.9731 -7.66594Z" fill="#BFC8D6"/>
<path d="M29.8745 71.7257C19.2434 71.7257 11.1612 62.7732 11.1612 52.142V21.6164C11.1612 17.7618 13.7102 14.9019 17.5647 14.9019H59.4676C63.3222 14.9019 65.436 17.7618 65.436 21.6164V52.142C65.436 62.7732 57.789 71.7257 47.1579 71.7257H29.8745Z" fill="url(#paint6_linear)"/>
<path opacity="0.6" d="M64.4388 21.6163V52.142C64.4388 52.7637 64.5009 53.3232 64.4388 53.9449C63.7549 60.8458 59.0921 66.5655 52.7507 68.7415C50.9478 69.3632 49.1449 69.7362 47.1554 69.7362H29.872C25.8931 69.7362 22.4116 68.3684 19.4896 66.1925C15.262 63.0218 12.6508 57.8616 12.6508 52.2041V21.6163C12.6508 18.7564 14.7024 16.394 17.5623 16.394H59.4651C62.0141 16.394 64.0036 18.1969 64.4388 20.6215C64.5009 20.9946 64.4388 21.3054 64.4388 21.6163Z" fill="white"/>
<path opacity="0.1" d="M64.4391 21.6164V53.945C62.947 60.8459 59.0925 66.5656 52.6889 68.7416C50.886 69.3633 49.083 69.7363 47.0936 69.7363H29.8102C25.8313 69.7363 22.2254 68.3685 19.3034 66.1926C30.8671 62.1515 40.1927 60.9703 49.083 34.8587C52.7511 24.1032 56.2948 19.5026 59.2168 16.4562H59.4655C62.0145 16.4562 64.0039 18.2592 64.4391 20.6838C64.5013 20.9947 64.4391 21.3055 64.4391 21.6164Z" fill="url(#paint7_linear)"/>
<path d="M21.9181 14.9018L32.0519 12.415H49.8948V14.9018H21.9181Z" fill="url(#paint8_linear)"/>
<path d="M55.5513 14.8398L62.7009 12.4773L69.1045 12.5395L63.1983 16.021C63.2605 15.9588 60.6493 14.2181 55.5513 14.8398Z" fill="url(#paint9_linear)"/>
<path d="M348.083 220.46V183.22L36.9827 182.784V219.714L104.5 235.691L348.083 220.46Z" fill="#D8DEE8"/>
<path d="M103.876 198.079L36.9806 183.655V98.1085L103.876 98.7302V198.079Z" fill="url(#paint10_linear)"/>
<path d="M363.5 97.7974L348.082 98.1082V184.152L193.091 192.98L128.869 196.648L103.877 198.078V98.7299L211.494 68.0799L275.654 6.15816L363.5 97.7974ZM319.546 176.567V91.3316L225.047 91.1451V181.354L319.546 176.567Z" fill="url(#paint11_linear)"/>
<g opacity="0.2">
<path opacity="0.2" d="M365.056 98.1705L278.079 6.96651L275.406 4.16884L272.795 6.71781L209.008 68.0178L102.137 98.1083L87.5271 102.274V104.512H103.878V103.082L211.122 72.8672L275.655 10.8832L358.963 98.1705H365.056Z" fill="#D8DEE8"/>
</g>
<path d="M275.406 -0.556168L278.079 2.2415L366.113 94.378L368.413 96.7405V102.833H368.102L363.564 98.0461L275.655 6.15823L211.122 68.08L104.748 99.6004L87.5271 104.387V97.4866L102.137 93.3833L209.008 63.2928L272.795 1.99282L275.406 -0.556168Z" fill="white"/>
<path d="M318.615 92.5134V175.387L226.168 180.111V92.4512L318.615 92.5134ZM313.704 167.553V97.9222L291.509 97.9844V168.548L313.704 167.553ZM285.416 168.796V97.9844L262.413 98.0465V169.853L285.416 168.796ZM256.196 170.164V98.0465L232.322 98.1087V171.221L256.196 170.164Z" fill="white"/>
<path d="M224.674 181.666V90.959L320.105 91.0212V176.816L224.674 181.666ZM227.596 93.9432V178.557L317.059 174.019V94.0054L227.596 93.9432ZM230.829 172.775V96.6787L257.624 96.6165V171.594L230.829 172.775ZM233.813 99.6007V169.667L254.702 168.734V99.5385L233.813 99.6007ZM260.919 171.408V96.5543L286.906 96.4922V170.226L260.919 171.408ZM263.903 99.5385V168.299L283.922 167.366V99.4763L263.903 99.5385ZM289.953 170.102V96.4922L315.132 96.43V168.921L289.953 170.102ZM292.937 99.4763V166.993L312.21 166.123V99.4142L292.937 99.4763Z" fill="white"/>
<path d="M275.405 -0.556179L272.793 1.99281L209.007 63.2928L131.667 67.3339L189.796 13.6808L192.22 11.4427L275.405 -0.556179Z" fill="url(#paint12_linear)"/>
<path d="M153.239 142.498L186.002 142.063V214.491L153.239 216.356V142.498Z" fill="#F4F7FA"/>
<path d="M147.21 212.875V145.109L183.58 144.674V210.077L147.21 212.875Z" fill="#97A6B7"/>
<path d="M128.871 218.284V133.856L192.968 133.235V214.119L186.005 214.492V142.249L153.242 142.747V216.854L128.871 218.284Z" fill="#D8DEE8"/>
<path d="M209.007 63.2932L102.136 93.3837L87.5257 97.4869L22.3711 96.9896L35.4891 93.4458L131.667 67.3343L209.007 63.2932Z" fill="url(#paint13_linear)"/>
<path d="M87.5257 104.388L22.3711 102.958V96.9896L87.5257 97.4869V104.388Z" fill="white"/>
<path d="M175.62 71.3128C175.62 71.8102 175.061 72.2453 174.377 72.2453C173.693 72.2453 173.134 71.8102 173.134 71.3128V68.0177C173.134 67.5204 173.693 67.0852 174.377 67.0852C175.061 67.0852 175.62 67.5204 175.62 68.0177V71.3128Z" fill="url(#paint14_linear)"/>
<path d="M133.843 83.0011C133.843 83.685 133.283 84.2445 132.6 84.2445C131.916 84.2445 131.356 83.685 131.356 83.0011V78.4627C131.356 77.7788 131.916 77.2193 132.6 77.2193C133.283 77.2193 133.843 77.7788 133.843 78.4627V83.0011Z" fill="url(#paint15_linear)"/>
<path d="M211.307 58.8789C211.307 59.5628 210.747 60.1223 210.063 60.1223C209.379 60.1223 208.82 59.5628 208.82 58.8789V54.3405C208.82 53.6566 209.379 53.0971 210.063 53.0971C210.747 53.0971 211.307 53.6566 211.307 54.3405V58.8789Z" fill="url(#paint16_linear)"/>
<path d="M138.378 63.4173C138.378 64.1012 137.818 64.6607 137.135 64.6607C136.451 64.6607 135.891 64.1012 135.891 63.4173V58.8789C135.891 58.195 136.451 57.6355 137.135 57.6355C137.818 57.6355 138.378 58.195 138.378 58.8789V63.4173Z" fill="url(#paint17_linear)"/>
<path d="M187.93 66.4018L118.05 66.6505C117.118 66.6505 115.128 66.9614 113.76 67.3344L23.9864 92.016C22.8673 92.3269 22.3078 92.8864 22.9295 93.5703L79.3181 95.7463C80.6236 95.8084 81.9914 95.6219 83.2348 95.3111C97.5962 91.4565 187.495 67.7696 187.495 67.7696C189.173 67.3344 189.049 66.4018 187.93 66.4018Z" fill="url(#paint18_linear)"/>
<path d="M187.494 66.4016L115.501 66.7124C114.568 66.7124 112.703 67.0233 111.335 67.3963L23.9858 92.0158C22.8668 92.3266 22.6181 92.5753 23.3641 92.6375L79.6905 94.4404C80.5609 94.4404 82.3639 94.2539 83.6694 93.8809L186.748 67.2098C188.302 66.7746 188.613 66.4016 187.494 66.4016Z" fill="url(#paint19_linear)"/>
<path d="M119.358 68.391L109.411 71.1265C108.416 71.4373 107.111 71.6238 106.427 71.6238H99.8366C99.1527 71.6238 99.3392 71.3751 100.334 71.1265L110.033 68.391C111.027 68.0801 112.519 67.8936 113.265 67.8936H120.042C120.788 67.8936 120.415 68.1423 119.358 68.391Z" fill="url(#paint20_linear)"/>
<path d="M130.923 68.3912L120.727 71.1889C119.67 71.4998 118.116 71.6863 117.432 71.6863H110.655C109.972 71.6863 110.407 71.4376 111.402 71.1889L121.411 68.3912C122.468 68.0804 123.711 67.8939 124.457 67.8317H131.42C132.104 67.8939 131.98 68.0804 130.923 68.3912Z" fill="url(#paint21_linear)"/>
<path d="M142.983 67.8317H135.771C135.025 67.8317 133.471 68.0804 132.414 68.3912L122.156 71.1889C121.099 71.4998 120.912 71.6863 121.596 71.6863H128.559C129.305 71.6863 130.673 71.4376 131.73 71.1889L142.237 68.3291C143.418 68.0804 143.791 67.8317 142.983 67.8317Z" fill="url(#paint22_linear)"/>
<path d="M154.983 67.8317H147.585C146.839 67.8317 145.533 68.0804 144.414 68.3912L133.845 71.2511C132.788 71.5619 132.291 71.7485 133.037 71.8106H140.187C140.933 71.8106 142.611 71.5619 143.73 71.2511L154.548 68.3912C155.605 68.0804 155.729 67.8317 154.983 67.8317Z" fill="url(#paint23_linear)"/>
<path d="M167.293 67.7693H159.708C158.9 67.7693 157.284 68.018 156.165 68.3288L145.347 71.1887C144.228 71.4995 144.041 71.7482 144.788 71.7482H152.124C152.87 71.7482 154.362 71.4995 155.481 71.1887L166.547 68.2667C167.666 68.018 168.039 67.7693 167.293 67.7693Z" fill="url(#paint24_linear)"/>
<path d="M179.913 67.7693H172.079C171.271 67.7693 169.903 68.018 168.722 68.3288L157.594 71.2509C156.474 71.5617 155.915 71.8104 156.723 71.8104H164.308C165.116 71.8104 166.919 71.5617 168.038 71.2509L179.477 68.2667C180.659 68.018 180.721 67.7693 179.913 67.7693Z" fill="url(#paint25_linear)"/>
<path d="M103.316 72.8672L93.7422 75.5405C92.7475 75.7892 91.5041 76.0379 90.8824 76.0379L84.541 75.9757C83.9193 75.9757 84.0437 75.727 85.0384 75.4783L94.4261 72.805C95.4208 72.5563 96.8508 72.3077 97.5346 72.3077H104.063C104.684 72.3077 104.373 72.5563 103.316 72.8672Z" fill="url(#paint26_linear)"/>
<path d="M114.447 72.9295L104.624 75.6028C103.629 75.8515 102.137 76.1002 101.453 76.1002L94.9254 76.038C94.2416 76.038 94.6768 75.7893 95.6715 75.5407L105.308 72.8673C106.303 72.5565 107.546 72.37 108.23 72.37H114.944C115.566 72.4321 115.504 72.6186 114.447 72.9295Z" fill="url(#paint27_linear)"/>
<path d="M126.072 72.4319H119.171C118.487 72.4319 116.995 72.6805 115.938 72.9292L106.053 75.6025C105.058 75.8512 104.872 76.0999 105.556 76.0999L112.208 76.1621C112.892 76.1621 114.197 75.9756 115.254 75.6647L125.326 72.9292C126.445 72.6805 126.756 72.4319 126.072 72.4319Z" fill="url(#paint28_linear)"/>
<path d="M137.511 72.4943H130.423C129.677 72.4943 128.434 72.7429 127.377 72.9916L117.243 75.7271C116.186 76.038 115.751 76.2245 116.435 76.2245L123.274 76.2867C124.02 76.2867 125.636 76.1001 126.693 75.7893L137.075 72.9916C138.194 72.7429 138.257 72.4943 137.511 72.4943Z" fill="url(#paint29_linear)"/>
<path d="M149.32 72.4943H141.984C141.238 72.4943 139.684 72.7429 138.565 72.9916L128.12 75.7893C127.063 76.1001 126.815 76.2867 127.561 76.2867L134.648 76.3488C135.394 76.3488 136.824 76.1001 137.881 75.8515L148.512 73.0538C149.756 72.7429 150.129 72.4943 149.32 72.4943Z" fill="url(#paint30_linear)"/>
<path d="M161.51 72.5561H153.988C153.241 72.5561 151.874 72.8048 150.755 73.1157L140.061 75.9133C138.942 76.2242 138.445 76.4107 139.191 76.4729L146.465 76.535C147.211 76.535 148.952 76.2864 150.071 76.0377L161.013 73.1778C162.194 72.8048 162.256 72.5561 161.51 72.5561Z" fill="url(#paint31_linear)"/>
<path d="M87.8983 77.1569L78.6971 79.7059C77.7645 79.9546 76.5833 80.2033 75.8994 80.1411L69.8067 80.0789C69.185 80.0789 69.3094 79.8302 70.2419 79.5816L79.2566 77.0326C80.1892 76.7839 81.5569 76.5352 82.2408 76.5352L88.52 76.5974C89.2039 76.6596 88.8309 76.9082 87.8983 77.1569Z" fill="url(#paint32_linear)"/>
<path d="M98.5914 77.2814L89.1415 79.8925C88.1468 80.1412 86.7169 80.3899 86.033 80.3277L79.7538 80.2655C79.1321 80.2655 79.5051 80.0169 80.4377 79.7682L89.7011 77.2192C90.6958 76.9705 91.8149 76.7218 92.4987 76.7218L98.9645 76.784C99.7105 76.784 99.5862 76.9705 98.5914 77.2814Z" fill="url(#paint33_linear)"/>
<path d="M109.103 77.3432L99.4042 79.9544C98.4095 80.2031 97.1661 80.4518 96.4822 80.4518L90.0787 80.3896C89.3948 80.3896 89.5813 80.1409 90.576 79.8922L100.088 77.2811C101.083 77.0324 102.513 76.7837 103.197 76.7837L109.849 76.8459C110.471 76.8459 110.098 77.0946 109.103 77.3432Z" fill="url(#paint34_linear)"/>
<path d="M120.787 76.9702L113.948 76.908C113.264 76.908 112.021 77.0945 111.026 77.4054L101.265 80.0165C100.27 80.2652 99.8351 80.5139 100.519 80.5139L107.109 80.5761C107.793 80.5761 109.347 80.3895 110.404 80.0787L120.414 77.4054C121.408 77.2188 121.47 76.9702 120.787 76.9702Z" fill="url(#paint35_linear)"/>
<path d="M132.103 77.0328L125.078 76.9707C124.332 76.9707 122.84 77.1572 121.783 77.468L111.773 80.1414C110.778 80.39 110.53 80.6387 111.214 80.6387L117.99 80.7009C118.674 80.7009 120.042 80.5144 121.099 80.2035L131.357 77.5302C132.538 77.2815 132.849 77.095 132.103 77.0328Z" fill="url(#paint36_linear)"/>
<path d="M143.79 77.1571L136.578 77.095C135.832 77.095 134.589 77.3436 133.47 77.5923L123.149 80.3278C122.092 80.5765 121.595 80.8252 122.341 80.8252L129.304 80.9495C130.05 80.9495 131.667 80.763 132.786 80.4522L143.355 77.7167C144.474 77.4058 144.536 77.1571 143.79 77.1571Z" fill="url(#paint37_linear)"/>
<path d="M72.9798 81.3223L64.0894 83.8091C63.1568 84.0578 62.0378 84.2443 61.4161 84.2443L55.5099 84.12C54.8882 84.12 55.0747 83.8713 55.9451 83.6226L64.6489 81.198C65.5815 80.9493 66.8871 80.7628 67.5088 80.7628L73.6015 80.8249C74.2854 80.8249 73.9123 81.0736 72.9798 81.3223Z" fill="url(#paint38_linear)"/>
<path d="M83.3028 81.4465L74.1637 83.9334C73.2312 84.182 71.8012 84.3686 71.1795 84.3686L65.149 84.2442C64.5273 84.2442 64.9003 83.9955 65.8329 83.7469L74.7854 81.26C75.718 81.0114 76.837 80.8248 77.5209 80.8248L83.738 80.887C84.3597 80.9492 84.2353 81.1979 83.3028 81.4465Z" fill="url(#paint39_linear)"/>
<path d="M93.3742 81.633L83.9864 84.182C83.0539 84.4307 81.8105 84.6172 81.1888 84.6172L74.9717 84.4928C74.35 84.4928 74.5365 84.2442 75.4691 83.9955L84.6081 81.5087C85.5407 81.26 86.9706 81.0113 87.5923 81.0735L93.9959 81.1356C94.7419 81.1356 94.3689 81.3221 93.3742 81.633Z" fill="url(#paint40_linear)"/>
<path d="M104.251 81.7576L94.615 84.3066C93.6203 84.5552 92.1282 84.7417 91.4443 84.7417L85.1029 84.6174C84.4191 84.6174 84.8543 84.3687 85.849 84.12L95.2367 81.5711C96.2314 81.3224 97.4127 81.0737 98.0966 81.0737L104.687 81.198C105.37 81.2602 105.246 81.5089 104.251 81.7576Z" fill="url(#paint41_linear)"/>
<path d="M114.885 81.9437L105 84.5549C104.005 84.8036 102.7 85.0523 102.016 84.9901L95.4878 84.8657C94.804 84.8657 94.9905 84.6171 95.9852 84.3684L105.622 81.8194C106.616 81.5707 108.046 81.322 108.792 81.322L115.569 81.4464C116.253 81.4464 115.942 81.695 114.885 81.9437Z" fill="url(#paint42_linear)"/>
<path d="M126.757 81.5712L119.794 81.4468C119.11 81.4468 117.867 81.6333 116.81 81.9442L106.925 84.5554C105.93 84.804 105.433 85.0527 106.116 85.0527L112.831 85.1771C113.515 85.1771 115.131 84.9905 116.188 84.7419L126.322 82.1307C127.441 81.8199 127.503 81.6333 126.757 81.5712Z" fill="url(#paint43_linear)"/>
<path d="M58.6186 85.3015L50.0391 87.664C49.1687 87.9127 48.0496 88.0992 47.4901 88.0992L41.8326 87.9749C41.273 87.9749 41.3974 87.7262 42.2677 87.5397L50.6608 85.1772C51.5311 84.9285 52.8367 84.742 53.3963 84.742L59.2403 84.8663C59.862 84.8663 59.5511 85.0528 58.6186 85.3015Z" fill="url(#paint44_linear)"/>
<path d="M68.5645 85.4884L59.7363 87.913C58.8038 88.1617 57.4982 88.3482 56.8765 88.3482L51.0325 88.2239C50.4108 88.2239 50.7838 87.9752 51.7164 87.7887L60.358 85.4262C61.2906 85.1775 62.3475 84.991 62.9692 84.991L68.9376 85.1153C69.5593 85.0532 69.4971 85.2397 68.5645 85.4884Z" fill="url(#paint45_linear)"/>
<path d="M78.2634 85.737L69.2487 88.1616C68.3162 88.4103 67.1349 88.5968 66.5132 88.5968L60.5449 88.4725C59.9232 88.4725 60.1097 88.2238 60.98 87.9751L69.8082 85.5505C70.7408 85.3018 72.0464 85.1153 72.6681 85.1153L78.823 85.2396C79.569 85.2396 79.196 85.4261 78.2634 85.737Z" fill="url(#paint46_linear)"/>
<path d="M88.7062 85.9232L79.4428 88.41C78.5103 88.6587 77.0804 88.8452 76.3965 88.8452L70.3038 88.7208C69.6821 88.7208 70.0551 88.4721 70.9877 88.2235L80.0645 85.7988C80.9971 85.5501 82.1162 85.3636 82.8 85.3636L89.1414 85.488C89.7631 85.4258 89.701 85.6745 88.7062 85.9232Z" fill="url(#paint47_linear)"/>
<path d="M98.9648 86.1096L89.4528 88.5965C88.458 88.8451 87.2146 89.0317 86.5929 89.0317L80.3137 88.8451C79.692 88.8451 79.8785 88.5965 80.8111 88.3478L90.1366 85.861C91.1314 85.6123 92.4991 85.4258 93.183 85.4258L99.6487 85.5501C100.27 85.6745 99.9596 85.861 98.9648 86.1096Z" fill="url(#paint48_linear)"/>
<path d="M109.969 86.3585L100.208 88.9075C100.146 88.9075 100.021 88.9075 99.9593 88.9696C98.9645 89.2183 97.659 89.4048 96.9751 89.3427L90.5094 89.1561C89.8255 89.1561 90.2607 88.9075 91.2554 88.6588L100.83 86.172C100.892 86.172 100.892 86.1098 101.016 86.1098C101.949 85.8611 103.068 85.7368 103.689 85.7368L110.342 85.8611C111.088 85.8611 111.026 86.1098 109.969 86.3585Z" fill="url(#paint49_linear)"/>
<path d="M44.7539 89.1557L36.4852 91.456C35.6148 91.7047 34.5579 91.8912 33.9984 91.8291L28.5274 91.6425C27.9678 91.6425 28.0922 91.3939 28.9626 91.2074L37.1069 88.907C37.9773 88.6584 39.2207 88.4718 39.7802 88.4718L45.4377 88.5962C45.9351 88.7205 45.6242 88.907 44.7539 89.1557Z" fill="url(#paint50_linear)"/>
<path d="M54.3272 89.4043L45.8099 91.7668C44.9395 92.0155 43.6339 92.202 43.0744 92.1398L37.479 91.9533C36.9195 91.9533 37.2304 91.7046 38.1007 91.5181L46.4316 89.2178C47.302 88.9691 48.3589 88.7826 48.9806 88.7826L54.7624 88.907C55.322 88.9691 55.1976 89.1556 54.3272 89.4043Z" fill="url(#paint51_linear)"/>
<path d="M63.7141 89.6529L55.0103 92.0154C54.1399 92.2641 52.9586 92.4506 52.3991 92.4506L46.6172 92.2641C45.9955 92.2641 46.182 92.0154 47.0524 91.7667L55.5698 89.4042C56.4402 89.1555 57.7458 88.969 58.3675 88.969L64.2736 89.0934C64.9575 89.2177 64.6467 89.4042 63.7141 89.6529Z" fill="url(#paint52_linear)"/>
<path d="M73.7874 89.9018L64.8349 92.2642C63.9024 92.5129 62.5346 92.6994 61.9129 92.6373L56.0067 92.4508C55.385 92.4508 55.8202 92.2021 56.6906 92.0156L65.4566 89.6531C66.3892 89.4044 67.4461 89.2179 68.0678 89.2179L74.1605 89.4044C74.7822 89.4666 74.72 89.6531 73.7874 89.9018Z" fill="url(#paint53_linear)"/>
<path d="M83.6731 90.1503L74.534 92.575C73.6015 92.8237 72.358 93.0102 71.7363 93.0102L65.7058 92.8237C65.0841 92.8237 65.2706 92.575 66.2032 92.3263L75.1557 89.9638C76.0883 89.7151 77.456 89.5286 78.0777 89.5286L84.3569 89.7151C84.9165 89.7151 84.6056 89.9017 83.6731 90.1503Z" fill="url(#paint54_linear)"/>
<path d="M94.2409 90.4611L84.8532 92.8857C83.9206 93.1344 82.4285 93.3209 81.7447 93.3209L75.5276 93.1344C74.9059 93.1344 75.3411 92.8857 76.2737 92.6371L85.4749 90.2124C86.4696 89.9637 87.5887 89.7772 88.2104 89.7772L94.6139 89.9637C95.2978 89.9637 95.2356 90.2124 94.2409 90.4611Z" fill="url(#paint55_linear)"/>
<path opacity="0.3" d="M119.358 68.3912L109.411 71.1267C108.416 71.4376 107.111 71.6241 106.427 71.6241H99.8368C99.1529 71.6241 99.3394 71.3754 100.334 71.1267L110.033 68.3912C111.027 68.0804 112.52 67.8939 113.266 67.8939H120.042C120.788 67.8939 120.415 68.1425 119.358 68.3912Z" fill="url(#paint56_linear)"/>
<path opacity="0.3" d="M103.316 72.8671L93.7422 75.5405C92.7475 75.7891 91.5041 76.0378 90.8824 76.0378L84.541 75.9757C83.9193 75.9757 84.0437 75.727 85.0384 75.4783L94.4261 72.805C95.4208 72.5563 96.8508 72.3076 97.5346 72.3076H104.063C104.684 72.3076 104.373 72.5563 103.316 72.8671Z" fill="url(#paint57_linear)"/>
<path opacity="0.3" d="M87.8962 77.1569L78.695 79.7058C77.7625 79.9545 76.5812 80.2032 75.8974 80.141L69.8047 80.0789C69.1829 80.0789 69.3073 79.8302 70.2398 79.5815L79.2546 77.0325C80.1871 76.7838 81.5549 76.5352 82.2387 76.5352L88.518 76.5973C89.2018 76.6595 88.8288 76.9082 87.8962 77.1569Z" fill="url(#paint58_linear)"/>
<path opacity="0.3" d="M72.9777 81.3228L64.0873 83.8096C63.1548 84.0583 62.0357 84.2448 61.414 84.2448L55.5078 84.1204C54.8861 84.1204 55.0726 83.8718 55.943 83.6231L64.6469 81.1984C65.5794 80.9497 66.885 80.7632 67.5067 80.7632L73.5994 80.8254C74.2833 80.8254 73.9103 81.0741 72.9777 81.3228Z" fill="url(#paint59_linear)"/>
<path opacity="0.3" d="M58.6186 85.3012L50.0391 87.6637C49.1687 87.9124 48.0496 88.0989 47.4901 88.0989L41.8326 87.9745C41.273 87.9745 41.3974 87.7259 42.2677 87.5393L50.6608 85.1769C51.5311 84.9282 52.8367 84.7417 53.3963 84.7417L59.2403 84.866C59.862 84.866 59.5511 85.0525 58.6186 85.3012Z" fill="url(#paint60_linear)"/>
<path opacity="0.3" d="M44.7518 89.1559L36.4831 91.4562C35.6127 91.7049 34.5558 91.8914 33.9963 91.8293L28.5253 91.6427C27.9658 91.6427 28.0901 91.3941 28.9605 91.2076L37.1048 88.9073C37.9752 88.6586 39.2186 88.472 39.7781 88.472L45.4357 88.5964C45.933 88.7207 45.6222 88.9072 44.7518 89.1559Z" fill="url(#paint61_linear)"/>
<path opacity="0.3" d="M111.399 71.1889L120.414 68.702C119.73 69.4481 118.114 70.4428 115.067 71.7484H110.591C109.907 71.6862 110.342 71.4375 111.399 71.1889Z" fill="url(#paint62_linear)"/>
<path opacity="0.3" d="M113.447 72.37C111.147 73.2404 108.163 74.3595 104.433 75.6029C103.438 75.8516 102.07 76.1002 101.386 76.1002L94.8584 76.0381C94.1745 76.0381 94.6097 75.7894 95.6044 75.5407L105.241 72.8674C106.236 72.5565 107.479 72.37 108.163 72.37H113.447Z" fill="url(#paint63_linear)"/>
<path opacity="0.3" d="M98.589 77.2816L89.1392 79.8928C88.1444 80.1415 86.7145 80.3902 86.0306 80.328L79.7514 80.2658C79.1297 80.2658 79.5027 80.0171 80.4353 79.7685L89.6987 77.2195C90.6934 76.9708 91.8125 76.7221 92.4964 76.7221L98.9621 76.7843C99.7081 76.7843 99.5838 76.9708 98.589 77.2816Z" fill="url(#paint64_linear)"/>
<path opacity="0.3" d="M83.2998 81.4468L74.1608 83.9336C73.2282 84.1823 71.7983 84.3688 71.1766 84.3688L65.1461 84.2445C64.5244 84.2445 64.8974 83.9958 65.8299 83.7471L74.7825 81.2603C75.715 81.0116 76.8341 80.8251 77.518 80.8251L83.735 80.8873C84.3567 80.9495 84.2324 81.1981 83.2998 81.4468Z" fill="url(#paint65_linear)"/>
<path opacity="0.3" d="M68.5637 85.4881L59.7356 87.9128C58.803 88.1615 57.4974 88.348 56.8757 88.348L51.0317 88.2236C50.41 88.2236 50.783 87.975 51.7156 87.7884L60.3573 85.426C61.2898 85.1773 62.3467 84.9908 62.9684 84.9908L68.9368 85.1151C69.5585 85.0529 69.4963 85.2395 68.5637 85.4881Z" fill="url(#paint66_linear)"/>
<path opacity="0.3" d="M54.3249 89.4045L45.8075 91.767C44.9371 92.0157 43.6315 92.2022 43.072 92.14L37.4767 91.9535C36.9171 91.9535 37.228 91.7048 38.0984 91.5183L46.4292 89.218C47.2996 88.9693 48.3565 88.7828 48.9782 88.7828L54.76 88.9071C55.3196 88.9693 55.1952 89.1558 54.3249 89.4045Z" fill="url(#paint67_linear)"/>
<path opacity="0.3" d="M90.5092 79.8927L98.9644 77.5924C96.291 78.7115 94.5503 79.6441 93.6799 80.4523L90.0118 80.3901C89.328 80.3901 89.5145 80.1414 90.5092 79.8927Z" fill="url(#paint68_linear)"/>
<path opacity="0.3" d="M93.1207 81.1362C92.9964 81.3849 93.1207 81.5714 92.872 81.8201L84.0438 84.1825C83.1113 84.4312 81.8678 84.6177 81.2461 84.6177L75.0291 84.4934C74.4074 84.4934 74.5939 84.2447 75.5265 83.996L84.6655 81.5092C85.5981 81.2605 87.028 81.0118 87.6497 81.074L93.1207 81.1362Z" fill="url(#paint69_linear)"/>
<path opacity="0.3" d="M78.2626 85.7368L69.2479 88.1614C68.3154 88.4101 67.1341 88.5966 66.5124 88.5966L60.5441 88.4723C59.9224 88.4723 60.1089 88.2236 60.9793 87.9749L69.8075 85.5503C70.74 85.3016 72.0456 85.1151 72.6673 85.1151L78.8222 85.2394C79.5682 85.2394 79.1952 85.4259 78.2626 85.7368Z" fill="url(#paint70_linear)"/>
<path opacity="0.3" d="M63.7117 89.6531L55.0078 92.0156C54.1374 92.2643 52.9562 92.4508 52.3967 92.4508L46.6148 92.2642C45.9931 92.2642 46.1796 92.0156 47.05 91.7669L55.5673 89.4044C56.4377 89.1557 57.7433 88.9692 58.365 88.9692L64.2712 89.0936C64.9551 89.2179 64.6442 89.4044 63.7117 89.6531Z" fill="url(#paint71_linear)"/>
<path opacity="0.3" d="M93.1819 82.1929C93.5549 82.8767 94.4253 83.4363 95.9174 83.9958L94.5496 84.3688C93.5549 84.6175 92.0628 84.804 91.379 84.804L85.0376 84.6797C84.3537 84.6797 84.7889 84.431 85.7836 84.1823L93.1819 82.1929Z" fill="url(#paint72_linear)"/>
<path opacity="0.3" d="M88.7054 85.923L79.442 88.4098C78.5095 88.6585 77.0796 88.845 76.3957 88.845L70.303 88.7206C69.6813 88.7206 70.0543 88.4719 70.9869 88.2232L80.0637 85.7986C80.9963 85.5499 82.1154 85.3634 82.7992 85.3634L89.1406 85.4878C89.7623 85.4256 89.7002 85.6743 88.7054 85.923Z" fill="url(#paint73_linear)"/>
<path opacity="0.3" d="M73.7851 89.9019L64.8325 92.2644C63.9 92.5131 62.5322 92.6996 61.9105 92.6374L56.0043 92.4509C55.3826 92.4509 55.8178 92.2023 56.6882 92.0157L65.4542 89.6533C66.3868 89.4046 67.4437 89.2181 68.0654 89.2181L74.1581 89.4046C74.7798 89.4667 74.7176 89.6533 73.7851 89.9019Z" fill="url(#paint74_linear)"/>
<path opacity="0.3" d="M96.0422 84.3688L96.4774 84.2445C97.1613 84.4932 97.783 84.6797 98.3425 84.9284L95.4827 84.8662C94.7988 84.8662 95.0475 84.6175 96.0422 84.3688Z" fill="url(#paint75_linear)"/>
<path opacity="0.3" d="M98.964 86.1094L89.452 88.5962C88.4572 88.8449 87.2138 89.0314 86.5921 89.0314L80.3129 88.8449C79.6912 88.8449 79.8777 88.5962 80.8103 88.3476L90.1358 85.8607C91.1306 85.6121 92.4983 85.4255 93.1822 85.4255L99.6479 85.5499C100.27 85.6742 99.9588 85.8607 98.964 86.1094Z" fill="url(#paint76_linear)"/>
<path opacity="0.3" d="M83.6707 90.1505L74.5316 92.5752C73.5991 92.8238 72.3557 93.0104 71.734 93.0104L65.7034 92.8238C65.0817 92.8238 65.2682 92.5752 66.2008 92.3265L75.1533 89.964C76.0859 89.7153 77.4536 89.5288 78.0753 89.5288L84.3545 89.7153C84.9141 89.7153 84.6032 89.9018 83.6707 90.1505Z" fill="url(#paint77_linear)"/>
<path opacity="0.3" d="M91.3191 88.6584L100.893 86.1716C100.956 86.1716 100.956 86.1094 101.08 86.1094C102.261 86.8555 102.323 87.7259 99.9608 88.9693C98.9661 89.2179 97.6605 89.4045 97.0388 89.3423L90.5731 89.1558C89.8892 89.1558 90.3244 88.9693 91.3191 88.6584Z" fill="url(#paint78_linear)"/>
<path opacity="0.3" d="M94.2385 90.4613L84.8508 92.8859C83.9182 93.1346 82.4262 93.3211 81.7423 93.3211L75.5252 93.1346C74.9035 93.1346 75.3387 92.8859 76.2713 92.6372L85.4725 90.2126C86.4672 89.9639 87.5863 89.7774 88.208 89.7774L94.6116 89.9639C95.2954 89.9639 95.2333 90.2126 94.2385 90.4613Z" fill="url(#paint79_linear)"/>
<path d="M267.509 -4.22415L197.63 2.8011C196.697 2.86327 195.267 3.54714 194.459 4.29318L130.486 62.4225C129.491 63.2929 129.553 64.039 130.486 63.9768L202.417 61.9874C203.536 61.9252 205.215 61.117 206.209 60.1222L268.069 -3.04292C268.877 -3.7268 268.566 -4.28633 267.509 -4.22415Z" fill="url(#paint80_linear)"/>
<path d="M264.588 -3.91315L195.143 3.04992C194.211 3.11209 192.843 3.79597 192.035 4.54201L128.061 62.547C127.067 63.4174 127.005 64.1635 127.937 64.1013L199.371 62.1118C200.49 62.1118 202.293 61.2414 203.226 60.2467L265.147 -2.73192C266.018 -3.47796 265.707 -4.03749 264.588 -3.91315Z" fill="url(#paint81_linear)"/>
<path d="M201.427 5.41216L195.52 10.8831C194.899 11.4427 193.904 11.94 193.22 12.0022L186.568 12.6239C185.884 12.6861 185.76 12.3131 186.381 11.6914L192.35 6.28254C192.971 5.723 194.09 5.22563 194.774 5.16346L201.427 4.54175C202.048 4.47958 202.048 4.85262 201.427 5.41216Z" fill="url(#paint82_linear)"/>
<path d="M212.741 4.35503L206.835 9.8882C206.213 10.4477 204.97 11.0073 204.286 11.0694L197.447 11.6911C196.764 11.7533 196.826 11.3181 197.447 10.7586L203.354 5.28759C203.975 4.72806 204.846 4.2307 205.53 4.16853L212.368 3.48465C213.114 3.36031 213.363 3.7955 212.741 4.35503Z" fill="url(#paint83_linear)"/>
<path d="M223.746 2.36591L216.721 3.04979C215.975 3.11196 214.856 3.67149 214.234 4.23102L208.328 9.76421C207.706 10.3237 207.893 10.7589 208.577 10.6968L215.602 10.0751C216.348 10.0129 217.343 9.51551 217.965 8.8938L223.809 3.29847C224.492 2.67676 224.492 2.24157 223.746 2.36591Z" fill="url(#paint84_linear)"/>
<path d="M235.435 1.18439L228.223 1.86827C227.477 1.93044 226.607 2.4278 225.985 3.0495L220.141 8.64484C219.519 9.20437 219.457 9.70174 220.203 9.5774L227.477 8.95569C228.223 8.89352 229.529 8.33399 230.15 7.71228L235.994 2.05477C236.492 1.49524 236.181 1.12222 235.435 1.18439Z" fill="url(#paint85_linear)"/>
<path d="M191.727 14.3643L185.572 20.0218C184.951 20.6436 183.956 21.1409 183.272 21.2031L176.558 21.7626C175.874 21.8248 175.749 21.3896 176.371 20.8301L182.526 15.2347C183.148 14.6752 184.329 14.1157 185.013 14.0535L191.727 13.494C192.349 13.3696 192.349 13.8048 191.727 14.3643Z" fill="url(#paint86_linear)"/>
<path d="M203.106 13.3698L197.013 19.0895C196.391 19.7112 195.086 20.2085 194.402 20.2707L187.501 20.8302C186.817 20.8924 186.879 20.4572 187.563 19.8355L193.718 14.178C194.34 13.6185 195.272 13.1211 195.956 13.0589L202.795 12.4372C203.479 12.3751 203.727 12.8103 203.106 13.3698Z" fill="url(#paint87_linear)"/>
<path d="M214.171 11.4425L207.083 12.0642C206.337 12.1263 205.218 12.6859 204.597 13.2454L198.504 18.9651C197.882 19.5868 198.006 20.022 198.753 19.9598L205.84 19.4003C206.586 19.3381 207.581 18.7786 208.265 18.219L214.357 12.4372C214.917 11.8155 214.917 11.3803 214.171 11.4425Z" fill="url(#paint88_linear)"/>
<path d="M225.921 10.4475L218.648 11.0692C217.901 11.1314 216.969 11.6288 216.347 12.2505L210.255 18.0323C209.633 18.654 209.508 19.0892 210.255 19.027L217.528 18.4675C218.274 18.4053 219.58 17.8458 220.264 17.2241L226.294 11.3801C226.978 10.7584 226.667 10.3853 225.921 10.4475Z" fill="url(#paint89_linear)"/>
<path d="M237.981 9.39085L230.52 10.0747C229.774 10.1369 228.593 10.6964 227.971 11.3181L221.941 17.1622C221.319 17.7839 221.506 18.2191 222.252 18.1569L229.774 17.5352C230.583 17.473 231.639 16.9135 232.261 16.2918L238.23 10.3856C238.789 9.76388 238.727 9.26651 237.981 9.39085Z" fill="url(#paint90_linear)"/>
<path d="M181.658 23.6283L175.317 29.4724C174.633 30.0941 173.638 30.5914 172.954 30.6536L166.24 31.0888C165.556 31.151 165.431 30.7158 166.115 30.0941L172.457 24.3122C173.078 23.6905 174.26 23.1931 174.944 23.131L181.658 22.6336C182.404 22.5714 182.342 23.0066 181.658 23.6283Z" fill="url(#paint91_linear)"/>
<path d="M193.098 22.7579L186.819 28.6641C186.135 29.2858 184.891 29.8453 184.145 29.9075L177.244 30.4048C176.561 30.467 176.685 29.9697 177.307 29.348L183.648 23.5039C184.27 22.8822 185.202 22.3849 185.948 22.3227L192.849 21.7632C193.533 21.701 193.782 22.1362 193.098 22.7579Z" fill="url(#paint92_linear)"/>
<path d="M204.41 21.8874L198.131 27.8558C197.447 28.4775 196.453 29.037 195.707 29.0992L188.619 29.5966C187.873 29.6587 187.749 29.1614 188.433 28.5397L194.712 22.6335C195.334 22.0118 196.515 21.5144 197.261 21.4522L204.348 20.8927C205.032 20.8305 205.032 21.2657 204.41 21.8874Z" fill="url(#paint93_linear)"/>
<path d="M216.099 19.9604L208.763 20.5199C208.017 20.5821 207.085 21.0794 206.463 21.7011L200.184 27.7317C199.5 28.3534 199.438 28.8507 200.184 28.7886L207.52 28.2912C208.266 28.229 209.634 27.6695 210.255 27.0478L216.472 20.9551C217.156 20.3334 216.845 19.8982 216.099 19.9604Z" fill="url(#paint94_linear)"/>
<path d="M228.225 19.0278L220.703 19.5873C219.957 19.6495 218.713 20.209 218.092 20.8307L211.875 26.9234C211.191 27.5451 211.377 28.0425 212.123 27.9803L219.646 27.4829C220.454 27.4208 221.511 26.8612 222.195 26.2395L228.412 20.0847C229.034 19.4008 228.972 18.9656 228.225 19.0278Z" fill="url(#paint95_linear)"/>
<path d="M240.72 18.033L233.011 18.6547C232.202 18.7169 231.27 19.2764 230.648 19.8982L224.431 26.053C223.809 26.6747 223.685 27.1721 224.493 27.1099L232.265 26.5504C233.073 26.4882 234.503 25.9287 235.124 25.2448L241.279 19.0278C241.839 18.4061 241.528 17.9709 240.72 18.033Z" fill="url(#paint96_linear)"/>
<path d="M171.337 33.2021L164.809 39.2326C164.125 39.8543 163.068 40.4139 162.384 40.476L155.608 40.8491C154.924 40.9112 154.799 40.4139 155.483 39.7922L162.073 33.8238C162.757 33.2021 163.938 32.7047 164.622 32.6426L171.337 32.2074C172.083 32.083 172.021 32.5804 171.337 33.2021Z" fill="url(#paint97_linear)"/>
<path d="M182.837 32.394L176.309 38.4867C175.625 39.1084 174.32 39.668 173.573 39.7301L166.61 40.1032C165.927 40.1653 166.051 39.668 166.735 39.0463L173.263 33.0158C173.947 32.394 174.879 31.8967 175.625 31.8345L182.526 31.3993C183.272 31.3371 183.459 31.7723 182.837 32.394Z" fill="url(#paint98_linear)"/>
<path d="M194.089 31.7104L187.624 37.9275C186.94 38.5492 185.883 39.1087 185.137 39.1709L177.987 39.6061C177.241 39.6683 177.117 39.1709 177.801 38.5492L184.328 32.3943C185.012 31.7726 186.194 31.2131 186.94 31.1509L194.089 30.6535C194.835 30.5914 194.773 31.0266 194.089 31.7104Z" fill="url(#paint99_linear)"/>
<path d="M206.276 30.902L199.81 37.1812C199.126 37.8651 197.759 38.4246 197.013 38.4868L189.677 38.922C188.93 38.9842 189.055 38.4868 189.739 37.8029L196.204 31.5859C196.888 30.9642 197.821 30.4046 198.567 30.3425L205.903 29.8451C206.649 29.7829 206.96 30.2181 206.276 30.902Z" fill="url(#paint100_linear)"/>
<path d="M218.277 30.0938L211.873 36.4352C211.189 37.1191 210.07 37.6786 209.262 37.7408L201.677 38.176C200.869 38.2382 200.745 37.7408 201.429 37.0569L207.894 30.7777C208.578 30.156 209.76 29.5965 210.568 29.5343L218.09 29.037C218.899 28.9748 218.899 29.4721 218.277 30.0938Z" fill="url(#paint101_linear)"/>
<path d="M230.647 28.1665L222.876 28.6639C222.067 28.7261 221.135 29.2856 220.451 29.9073L214.048 36.3108C213.364 36.9947 213.239 37.4921 214.048 37.4299L221.881 36.9947C222.689 36.9325 224.119 36.373 224.803 35.6891L231.207 29.2234C231.828 28.6017 231.455 28.1043 230.647 28.1665Z" fill="url(#paint102_linear)"/>
<path d="M160.58 43.0248L153.803 49.2419C153.119 49.9257 152.062 50.4231 151.316 50.4853L144.54 50.7961C143.856 50.8583 143.794 50.3609 144.478 49.677L151.254 43.5222C151.938 42.9005 153.182 42.3409 153.865 42.2788L160.642 41.9057C161.388 41.9057 161.326 42.4031 160.58 43.0248Z" fill="url(#paint103_linear)"/>
<path d="M172.143 42.4035L165.366 48.7448C164.682 49.4287 163.315 49.9883 162.631 49.9883L155.668 50.2991C154.922 50.3613 155.108 49.8018 155.854 49.18L162.631 42.9008C163.315 42.2791 164.309 41.7196 164.993 41.6574L171.956 41.2844C172.64 41.2844 172.827 41.7818 172.143 42.4035Z" fill="url(#paint104_linear)"/>
<path d="M183.521 41.8438L176.806 48.2474C176.122 48.9313 175.003 49.4908 174.257 49.553L167.108 49.8638C166.362 49.926 166.3 49.3665 166.983 48.7448L173.76 42.4034C174.444 41.7817 175.687 41.2222 176.433 41.16L183.583 40.787C184.205 40.6626 184.205 41.16 183.521 41.8438Z" fill="url(#paint105_linear)"/>
<path d="M195.707 41.1599L188.993 47.6878C188.309 48.3717 186.879 48.9312 186.133 48.9934L178.735 49.3042C177.989 49.3664 178.113 48.8069 178.859 48.123L185.573 41.7195C186.257 41.0356 187.252 40.4761 187.998 40.4761L195.334 40.0409C196.142 39.9787 196.391 40.4761 195.707 41.1599Z" fill="url(#paint106_linear)"/>
<path d="M207.766 40.5382L201.114 47.1282C200.43 47.8121 199.249 48.4338 198.503 48.4338L190.918 48.7447C190.11 48.8068 189.986 48.2473 190.732 47.5634L197.446 41.0355C198.13 40.3517 199.373 39.7921 200.182 39.73L207.766 39.2948C208.388 39.357 208.45 39.8543 207.766 40.5382Z" fill="url(#paint107_linear)"/>
<path d="M220.698 39.7922L214.108 46.5066C214.046 46.5687 213.921 46.5687 213.859 46.6309C213.175 47.3148 211.87 47.8121 211.124 47.8743L203.29 48.2473C202.482 48.3095 202.606 47.75 203.352 47.0661L210.005 40.4139C210.067 40.3517 210.005 40.2895 210.067 40.2274C210.751 39.6057 211.683 39.1705 212.429 39.1083L220.263 38.6731C221.071 38.6109 221.382 39.1083 220.698 39.7922Z" fill="url(#paint108_linear)"/>
<path d="M149.515 53.2829L142.49 59.7486C141.744 60.4325 140.687 60.9921 140.003 60.9921L133.226 61.1786C132.542 61.1786 132.48 60.6812 133.226 59.9973L140.252 53.5938C140.998 52.9099 142.179 52.4125 142.925 52.3504L149.702 52.0395C150.323 52.1017 150.261 52.5991 149.515 53.2829Z" fill="url(#paint109_linear)"/>
<path d="M161.078 52.7856L154.115 59.3135C153.369 59.9974 152.064 60.5569 151.317 60.6191L144.354 60.8678C143.608 60.8678 143.795 60.3704 144.541 59.6865L151.566 53.2208C152.312 52.5369 153.307 51.9774 153.991 51.9774L160.954 51.6666C161.638 51.6044 161.824 52.1017 161.078 52.7856Z" fill="url(#paint110_linear)"/>
<path d="M172.519 52.2884L165.556 58.9406C164.81 59.6245 163.691 60.2462 162.945 60.2462L155.733 60.4949C154.987 60.4949 154.925 59.9975 155.671 59.3137L162.634 52.7236C163.38 52.0397 164.624 51.4802 165.308 51.418L172.457 51.1072C173.265 51.1072 173.203 51.6667 172.519 52.2884Z" fill="url(#paint111_linear)"/>
<path d="M184.765 51.791L177.802 58.5676C177.056 59.2514 175.688 59.8731 174.88 59.8731L167.482 60.1218C166.735 60.1218 166.922 59.5623 167.606 58.8784L174.569 52.2262C175.253 51.5423 176.248 50.9828 177.056 50.9206L184.454 50.6097C185.2 50.6097 185.449 51.1071 184.765 51.791Z" fill="url(#paint112_linear)"/>
<path d="M196.826 51.2937L189.925 58.1325C189.179 58.8785 188.06 59.4381 187.252 59.5002L179.605 59.7489C178.796 59.7489 178.734 59.2515 179.418 58.5055L186.381 51.7289C187.065 51.0451 188.371 50.4233 189.117 50.4233L196.764 50.1125C197.572 50.0503 197.572 50.6098 196.826 51.2937Z" fill="url(#paint113_linear)"/>
<path d="M209.884 50.7963L203.045 57.7594C202.299 58.5054 200.869 59.1271 199.999 59.1271L192.103 59.3758C191.295 59.3758 191.481 58.8163 192.165 58.1324L199.066 51.2936C199.75 50.6098 200.745 49.9881 201.553 49.9881L209.387 49.6772C210.257 49.5529 210.63 50.0502 209.884 50.7963Z" fill="url(#paint114_linear)"/>
<path opacity="0.3" d="M201.423 5.41229L195.517 10.8833C194.896 11.4428 193.901 11.9402 193.217 12.0023L186.565 12.624C185.881 12.6862 185.756 12.3132 186.378 11.6915L192.347 6.28268C192.968 5.72314 194.087 5.22577 194.771 5.1636L201.423 4.54189C202.045 4.47972 202.045 4.85276 201.423 5.41229Z" fill="url(#paint115_linear)"/>
<path opacity="0.3" d="M191.726 14.3649L185.571 20.0224C184.95 20.6441 183.955 21.1414 183.271 21.2036L176.557 21.7631C175.873 21.8253 175.748 21.3901 176.37 20.8306L182.525 15.2352C183.147 14.6757 184.328 14.1162 185.012 14.054L191.726 13.4945C192.348 13.3701 192.348 13.8053 191.726 14.3649Z" fill="url(#paint116_linear)"/>
<path opacity="0.3" d="M181.651 23.6283L175.309 29.4724C174.625 30.0941 173.631 30.5914 172.947 30.6536L166.232 31.0888C165.549 31.151 165.424 30.7158 166.108 30.0941L172.449 24.3122C173.071 23.6905 174.252 23.1932 174.936 23.131L181.651 22.6336C182.397 22.5714 182.335 23.0066 181.651 23.6283Z" fill="url(#paint117_linear)"/>
<path opacity="0.3" d="M171.329 33.2026L164.802 39.2332C164.118 39.8549 163.061 40.4144 162.377 40.4766L155.6 40.8496C154.916 40.9118 154.792 40.4144 155.476 39.7927L162.066 33.8243C162.75 33.2026 163.931 32.7053 164.615 32.6431L171.329 32.2079C172.076 32.0836 172.013 32.5809 171.329 33.2026Z" fill="url(#paint118_linear)"/>
<path opacity="0.3" d="M160.577 43.0253L153.8 49.2424C153.116 49.9263 152.059 50.4236 151.313 50.4858L144.537 50.7966C143.853 50.8588 143.791 50.3614 144.475 49.6776L151.251 43.5227C151.935 42.901 153.178 42.3415 153.862 42.2793L160.639 41.9063C161.385 41.9063 161.323 42.4036 160.577 43.0253Z" fill="url(#paint119_linear)"/>
<path opacity="0.3" d="M149.511 53.2834L142.485 59.7491C141.739 60.433 140.683 60.9925 139.999 60.9925L133.222 61.179C132.538 61.179 132.476 60.6817 133.222 59.9978L140.247 53.5942C140.993 52.9104 142.175 52.413 142.921 52.3508L149.697 52.04C150.319 52.1022 150.257 52.5995 149.511 53.2834Z" fill="url(#paint120_linear)"/>
<path opacity="0.3" d="M197.444 10.759L202.791 5.78536C203.164 7.02877 203.04 8.83172 201.921 11.3185L197.382 11.7537C196.698 11.7537 196.823 11.3185 197.444 10.759Z" fill="url(#paint121_linear)"/>
<path opacity="0.3" d="M201.3 12.562C200.305 14.3649 198.875 16.5409 196.823 19.0899C196.202 19.7116 195.082 20.2089 194.336 20.2711L187.436 20.8306C186.752 20.8928 186.814 20.4576 187.498 19.8359L193.653 14.1784C194.274 13.6189 195.207 13.1215 195.891 13.0593L201.3 12.562Z" fill="url(#paint122_linear)"/>
<path opacity="0.3" d="M193.091 22.7579L186.811 28.6641C186.127 29.2858 184.884 29.8453 184.138 29.9075L177.237 30.4049C176.553 30.467 176.678 29.9697 177.299 29.348L183.641 23.5039C184.262 22.8822 185.195 22.3849 185.941 22.3227L192.842 21.7632C193.526 21.701 193.774 22.1362 193.091 22.7579Z" fill="url(#paint123_linear)"/>
<path opacity="0.3" d="M182.836 32.3941L176.308 38.4867C175.624 39.1085 174.319 39.668 173.573 39.7302L166.609 40.1032C165.926 40.1654 166.05 39.668 166.734 39.0463L173.262 33.0158C173.946 32.3941 174.878 31.8967 175.624 31.8345L182.525 31.3993C183.271 31.3372 183.458 31.7724 182.836 32.3941Z" fill="url(#paint124_linear)"/>
<path opacity="0.3" d="M172.14 42.4036L165.363 48.745C164.679 49.4289 163.311 49.9884 162.628 49.9884L155.665 50.2992C154.918 50.3614 155.105 49.8019 155.851 49.1802L162.628 42.901C163.311 42.2793 164.306 41.7197 164.99 41.6576L171.953 41.2845C172.637 41.2845 172.824 41.7819 172.14 42.4036Z" fill="url(#paint125_linear)"/>
<path opacity="0.3" d="M161.074 52.7861L154.111 59.314C153.365 59.9978 152.059 60.5574 151.313 60.6196L144.35 60.8682C143.604 60.8682 143.791 60.3709 144.537 59.687L151.562 53.2213C152.308 52.5374 153.303 51.9779 153.987 51.9779L160.95 51.667C161.633 51.6049 161.82 52.1022 161.074 52.7861Z" fill="url(#paint126_linear)"/>
<path opacity="0.3" d="M188.367 28.5398L193.962 23.2553C192.781 25.6799 192.346 27.6694 192.595 29.2858L188.554 29.5345C187.808 29.6588 187.683 29.1615 188.367 28.5398Z" fill="url(#paint127_linear)"/>
<path opacity="0.3" d="M193.029 30.7155C193.216 31.2129 193.713 31.6481 193.775 32.0833L187.62 37.9273C186.937 38.549 185.88 39.1085 185.134 39.1707L177.984 39.6059C177.238 39.6681 177.114 39.1707 177.797 38.549L184.325 32.3941C185.009 31.7724 186.19 31.2129 186.937 31.1507L193.029 30.7155Z" fill="url(#paint128_linear)"/>
<path opacity="0.3" d="M183.518 41.8441L176.803 48.2477C176.119 48.9316 175 49.4911 174.254 49.5533L167.105 49.8641C166.359 49.9263 166.296 49.3667 166.98 48.745L173.757 42.4037C174.441 41.782 175.684 41.2224 176.43 41.1603L183.58 40.7872C184.201 40.6629 184.201 41.1602 183.518 41.8441Z" fill="url(#paint129_linear)"/>
<path opacity="0.3" d="M172.513 52.2888L165.55 58.941C164.804 59.6249 163.685 60.2466 162.939 60.2466L155.727 60.4952C154.981 60.4952 154.919 59.9979 155.665 59.314L162.628 52.7239C163.374 52.0401 164.617 51.4805 165.301 51.4184L172.451 51.1075C173.259 51.1075 173.197 51.6671 172.513 52.2888Z" fill="url(#paint130_linear)"/>
<path opacity="0.3" d="M194.832 32.8916C196.324 34.2593 198.189 35.3784 200.738 36.3109L199.805 37.1813C199.121 37.8652 197.754 38.4247 197.007 38.4869L189.671 38.9221C188.925 38.9843 189.05 38.4869 189.734 37.803L194.832 32.8916Z" fill="url(#paint131_linear)"/>
<path opacity="0.3" d="M195.702 41.1602L188.988 47.6881C188.304 48.372 186.874 48.9315 186.128 48.9937L178.729 49.3045C177.983 49.3667 178.108 48.8071 178.854 48.1233L185.568 41.7197C186.252 41.0359 187.247 40.4763 187.993 40.4763L195.329 40.0411C196.137 39.9789 196.386 40.4763 195.702 41.1602Z" fill="url(#paint132_linear)"/>
<path opacity="0.3" d="M184.761 51.7913L177.798 58.5679C177.052 59.2518 175.684 59.8735 174.876 59.8735L167.477 60.1222C166.731 60.1222 166.918 59.5626 167.602 58.8788L174.565 52.2265C175.249 51.5426 176.243 50.9831 177.052 50.9209L184.45 50.6101C185.196 50.6101 185.445 51.1074 184.761 51.7913Z" fill="url(#paint133_linear)"/>
<path opacity="0.3" d="M201.42 37.0571L201.731 36.7462C202.85 37.1814 203.907 37.5545 204.964 37.9275L201.669 38.114C200.923 38.2383 200.737 37.741 201.42 37.0571Z" fill="url(#paint134_linear)"/>
<path opacity="0.3" d="M207.763 40.5385L201.111 47.1285C200.427 47.8124 199.246 48.4341 198.5 48.4341L190.915 48.7449C190.107 48.8071 189.983 48.2476 190.729 47.5637L197.443 41.0358C198.127 40.3519 199.37 39.7924 200.178 39.7302L207.763 39.2951C208.385 39.3572 208.447 39.8546 207.763 40.5385Z" fill="url(#paint135_linear)"/>
<path opacity="0.3" d="M196.824 51.2941L189.923 58.1328C189.177 58.8789 188.058 59.4384 187.249 59.5006L179.602 59.7492C178.794 59.7492 178.732 59.2519 179.416 58.5058L186.379 51.7293C187.063 51.0454 188.369 50.4237 189.115 50.4237L196.762 50.1128C197.57 50.0507 197.57 50.6102 196.824 51.2941Z" fill="url(#paint136_linear)"/>
<path opacity="0.3" d="M203.349 47.0043L210.001 40.4143C210.063 40.3521 210.001 40.2899 210.063 40.2278C212.736 41.782 214.353 43.6471 213.855 46.6313C213.172 47.3152 211.928 47.8126 211.182 47.8747L203.349 48.2478C202.478 48.2478 202.603 47.6882 203.349 47.0043Z" fill="url(#paint137_linear)"/>
<path opacity="0.3" d="M209.875 50.7968L203.037 57.7598C202.291 58.5059 200.861 59.1276 199.99 59.1276L192.095 59.3763C191.287 59.3763 191.473 58.8167 192.157 58.1329L199.058 51.2941C199.742 50.6102 200.736 49.9885 201.545 49.9885L209.378 49.6777C210.248 49.5533 210.622 50.0507 209.875 50.7968Z" fill="url(#paint138_linear)"/>
<path d="M83.0487 126.185C82.3026 138.806 81.2457 151.924 79.878 165.539C78.2615 181.268 76.2721 196.313 74.0961 210.613C71.3606 211.545 68.8738 210.613 68.8738 210.613C68.8738 210.613 65.7031 205.453 63.2785 191.651C61.7242 182.823 61.5999 182.885 61.5999 181.393C61.5377 173.621 64.2732 171.321 64.7706 164.358C65.2679 157.892 63.2163 155.965 61.9729 148.753C61.0403 143.158 60.6673 135.076 63.6515 124.445C70.1172 125.004 76.583 125.564 83.0487 126.185Z" fill="url(#paint139_linear)"/>
<path opacity="0.3" d="M83.0494 126.186C82.3034 138.806 81.2465 151.924 79.8787 165.539C78.2623 181.269 76.2728 196.314 74.0969 210.613C71.3614 211.546 68.8746 210.613 68.8746 210.613C68.9367 209.307 68.9989 207.318 69.2476 204.893C69.9936 198.49 71.1749 196.687 71.2992 192.77C71.4235 187.734 69.6206 187.61 69.2476 182.636C68.6881 174.989 72.9156 173.186 73.2887 166.472C73.7239 159.385 69.2476 157.084 65.8904 148.256C63.9009 143.096 62.098 135.262 63.6522 124.383C70.118 125.004 76.5837 125.564 83.0494 126.186Z" fill="url(#paint140_linear)"/>
<path d="M96.6036 125.813C100.334 138.309 103.94 153.851 105.929 171.881C107.856 189.413 107.856 204.955 107.048 217.763C105.867 218.073 104.686 218.446 103.505 218.757C96.6658 211.608 94.179 204.955 93.2464 200.168C91.8787 193.019 93.9303 190.656 92.1274 182.574C91.6922 180.709 91.1326 178.72 84.2939 165.353C77.766 152.608 76.4604 150.743 75.3413 146.142C73.7871 139.614 74.1601 133.832 74.7818 129.916C82.1179 128.548 89.3297 127.18 96.6036 125.813Z" fill="url(#paint141_linear)"/>
<path d="M125.887 98.7683L137.513 71.4755C138.073 70.1077 137.327 68.5535 135.897 68.1804L114.572 63.0203C113.391 62.7094 112.21 63.3311 111.774 64.4502L101.081 90.624C100.522 91.9295 101.268 93.4216 102.573 93.7947L122.965 100.012C124.146 100.509 125.39 99.8874 125.887 98.7683Z" fill="#26264F"/>
<path d="M125.326 97.4626L136.206 71.9727C136.765 70.7293 136.019 69.2372 134.651 68.9264L114.757 64.0771C113.7 63.8284 112.581 64.3879 112.146 65.3827L102.136 89.8778C101.639 91.1212 102.323 92.489 103.566 92.862L122.59 98.706C123.709 99.079 124.891 98.5195 125.326 97.4626Z" fill="url(#paint142_linear)"/>
<path d="M132.04 90.0024L132.413 86.7695L134.278 83.2258C134.526 82.7285 134.651 82.2311 134.651 81.6716V78.19L132.413 83.3501C132.413 83.3501 130.92 82.0446 130.361 81.7337C129.801 81.485 129.864 82.5419 130.299 82.9771C130.734 83.4123 130.112 86.8317 130.485 87.1425L130.361 89.2563L132.04 90.0024Z" fill="url(#paint143_linear)"/>
<path d="M114.321 69.4861C112.58 65.2585 108.85 62.7717 106.923 61.5283C102.322 58.5441 99.4002 59.1036 88.8934 57.4872C74.9051 55.3734 73.2265 53.3218 68.5015 55.0004C62.3467 57.1763 59.1138 62.7717 57.6217 65.3207C50.1613 78.3143 58.8651 84.9044 56.627 110.705C55.6944 121.274 53.3941 130.413 58.9895 135.822C60.1707 136.941 61.4763 137.563 64.1496 138.744C74.6564 143.469 84.1063 142.661 89.826 142.101C96.1674 141.479 99.3381 141.106 101.017 138.868C103.69 135.325 100.954 130.786 100.457 122.953C100.084 117.357 101.39 112.881 103.939 103.929C109.907 83.2879 117.616 77.6304 114.321 69.4861Z" fill="url(#paint144_linear)"/>
<path d="M90.8809 49.8401C91.5026 47.5398 90.3836 45.4882 90.1349 44.9908C89.078 43.0635 88.8293 42.8149 88.332 42.504L87.6481 42.0688H87.5859C87.1507 41.8823 85.6586 41.8823 85.3478 41.9445C84.3531 42.131 83.3583 46.1099 83.6692 51.643C83.607 51.8296 83.607 52.0782 83.5448 52.2647C83.4205 53.1351 83.2962 54.0055 83.1718 54.8759C83.1096 55.6841 81.9284 55.6841 81.1202 55.6219C77.8252 55.4354 76.2087 55.6841 76.0844 56.1815C75.8357 57.1141 79.6903 60.0982 84.5396 60.7821C91.0053 60.8443 96.2276 60.1604 95.6681 59.1035C95.4194 58.6683 90.4458 57.3627 89.0158 56.0571C87.7103 54.8759 87.8346 53.6325 87.7103 52.7621C88.1455 52.5756 90.3836 51.5187 90.8809 49.8401Z" fill="url(#paint145_linear)"/>
<path d="M89.7007 40.5146C89.7007 42.2554 88.8925 44.0584 88.4573 44.3692C88.3951 44.4314 88.0843 44.6179 87.8356 45.0531C87.7734 45.1152 87.7734 45.1774 87.7113 45.2396C87.3383 46.2965 89.079 47.6021 88.706 48.0994C88.4573 48.4725 87.2761 47.9751 87.1517 48.2859C87.0274 48.5968 88.0221 49.1563 87.8356 49.5294C87.7113 49.778 87.1517 49.5294 86.7165 49.9646C86.53 50.1511 86.5922 50.3376 86.4057 50.8971C86.2814 51.2701 86.157 51.6432 86.0327 51.8297C85.411 52.8244 83.7324 53.1974 83.4215 52.8244C83.3593 52.7 83.4215 52.6379 83.2972 52.2648C83.2972 52.2648 83.235 51.8918 82.9863 51.5188C82.6133 50.9593 81.8051 50.5241 80.9347 49.9024C79.3804 48.7833 78.9452 47.7886 78.8209 47.4777C78.7587 47.3534 78.7587 47.2912 78.6966 47.229C78.2614 45.9856 78.2614 44.1205 78.8831 42.9393C79.8156 41.012 81.9916 41.9446 83.7945 40.0173C85.8462 37.8413 84.6028 34.795 85.7218 34.4841C86.9652 34.0489 89.7007 37.3439 89.7007 40.5146Z" fill="url(#paint146_linear)"/>
<path d="M88.1463 47.7264C87.7111 47.1669 86.9651 47.6643 86.9651 48.4725C86.9651 49.2185 87.7111 50.0267 88.395 49.8402C89.0789 49.6537 88.7059 48.5347 88.1463 47.7264Z" fill="url(#paint147_linear)"/>
<path opacity="0.4" d="M84.4188 134.765C86.2839 131.097 81.7454 126.123 84.6675 120.528C87.2164 115.741 91.7549 116.798 93.8687 112.446C96.4177 107.161 90.8845 103.183 91.071 95.1004C91.3197 85.4639 99.5884 75.8275 104.5 76.6358C107.671 77.1953 108.044 81.9202 110.282 87.0804C108.292 91.3701 105.992 96.779 103.94 104.053C101.391 112.943 100.086 117.42 100.459 123.077C100.956 130.911 103.692 135.449 101.018 138.993C99.3397 141.231 96.169 141.604 89.8276 142.226C84.1079 142.785 74.658 143.593 64.1512 138.868C62.8456 138.247 61.8509 137.811 60.9805 137.376C77.4557 139.739 82.9267 137.687 84.4188 134.765Z" fill="url(#paint148_linear)"/>
<path d="M132.661 89.3186C131.666 88.8834 130.609 88.4482 129.615 88.013C127.874 89.7538 125.698 91.4945 123.833 90.935C121.035 90.1268 121.781 85.0288 118.362 76.0763C114.569 65.9425 110.217 63.3313 108.041 62.3988C106.798 61.9014 105.99 61.5284 104.995 61.7771C100.332 62.8961 98.7781 75.0194 100.084 84.0963C100.83 89.1942 102.26 99.2658 110.466 103.991C111.647 104.675 118.051 108.405 124.454 105.483C129.863 102.996 133.221 96.5303 132.661 89.3186Z" fill="url(#paint149_linear)"/>
<defs>
<linearGradient id="paint0_linear" x1="21.7289" y1="11.9106" x2="22.0781" y2="16.3753" gradientUnits="userSpaceOnUse">
<stop stop-color="#AA80F9"/>
<stop offset="0.9964" stop-color="#6165D7"/>
</linearGradient>
<linearGradient id="paint1_linear" x1="49.032" y1="-27.3655" x2="46.4409" y2="55.9438" gradientUnits="userSpaceOnUse">
<stop stop-color="#AA80F9"/>
<stop offset="0.9964" stop-color="#6165D7"/>
</linearGradient>
<linearGradient id="paint2_linear" x1="98.926" y1="83.2772" x2="83.7997" y2="276.71" gradientUnits="userSpaceOnUse">
<stop stop-color="#AA80F9"/>
<stop offset="0.9964" stop-color="#6165D7"/>
</linearGradient>
<linearGradient id="paint3_linear" x1="47.4076" y1="48.4866" x2="47.6137" y2="93.2352" gradientUnits="userSpaceOnUse">
<stop stop-color="#AA80F9"/>
<stop offset="0.9964" stop-color="#6165D7"/>
</linearGradient>
<linearGradient id="paint4_linear" x1="47.4076" y1="48.4866" x2="47.6137" y2="93.2352" gradientUnits="userSpaceOnUse">
<stop stop-color="#AA80F9"/>
<stop offset="0.9964" stop-color="#6165D7"/>
</linearGradient>
<linearGradient id="paint5_linear" x1="40.362" y1="51.7306" x2="40.55" y2="92.5227" gradientUnits="userSpaceOnUse">
<stop stop-color="#AA80F9"/>
<stop offset="0.9964" stop-color="#6165D7"/>
</linearGradient>
<linearGradient id="paint6_linear" x1="39.6516" y1="35.7841" x2="7.00229" y2="101.385" gradientUnits="userSpaceOnUse">
<stop stop-color="#AA80F9"/>
<stop offset="0.9964" stop-color="#6165D7"/>
</linearGradient>
<linearGradient id="paint7_linear" x1="39.9184" y1="17.946" x2="43.9902" y2="70.0151" gradientUnits="userSpaceOnUse">
<stop stop-color="#AA80F9"/>
<stop offset="0.9964" stop-color="#6165D7"/>
</linearGradient>
<linearGradient id="paint8_linear" x1="35.7651" y1="12.1211" x2="36.0689" y2="16.0057" gradientUnits="userSpaceOnUse">
<stop stop-color="#AA80F9"/>
<stop offset="0.9964" stop-color="#6165D7"/>
</linearGradient>
<linearGradient id="paint9_linear" x1="63.6251" y1="-26.7671" x2="61.0422" y2="56.2825" gradientUnits="userSpaceOnUse">
<stop stop-color="#AA80F9"/>
<stop offset="0.9964" stop-color="#6165D7"/>
</linearGradient>
<linearGradient id="paint10_linear" x1="-41.4942" y1="133.598" x2="142.166" y2="152.311" gradientUnits="userSpaceOnUse">
<stop stop-color="#D8DEE8"/>
<stop offset="1" stop-color="white"/>
</linearGradient>
<linearGradient id="paint11_linear" x1="-8.55621" y1="115.163" x2="379.557" y2="90.9059" gradientUnits="userSpaceOnUse">
<stop stop-color="#D8DEE8"/>
<stop offset="1" stop-color="white"/>
</linearGradient>
<linearGradient id="paint12_linear" x1="302.879" y1="-8.48378" x2="76.769" y2="92.8758" gradientUnits="userSpaceOnUse">
<stop offset="0.00359712" stop-color="#E38DDD"/>
<stop offset="1" stop-color="#9571F6"/>
</linearGradient>
<linearGradient id="paint13_linear" x1="179.978" y1="57.0721" x2="10.5251" y2="117.888" gradientUnits="userSpaceOnUse">
<stop offset="0.00359712" stop-color="#E38DDD"/>
<stop offset="1" stop-color="#9571F6"/>
</linearGradient>
<linearGradient id="paint14_linear" x1="176.064" y1="68.5818" x2="173.112" y2="70.3954" gradientUnits="userSpaceOnUse">
<stop stop-color="#EBEFF2"/>
<stop offset="0.4737" stop-color="#D2D9E1"/>
<stop offset="0.9946" stop-color="#B7C0CE"/>
</linearGradient>
<linearGradient id="paint15_linear" x1="134.678" y1="79.497" x2="131.149" y2="81.6657" gradientUnits="userSpaceOnUse">
<stop stop-color="#EBEFF2"/>
<stop offset="0.4737" stop-color="#D2D9E1"/>
<stop offset="0.9946" stop-color="#B7C0CE"/>
</linearGradient>
<linearGradient id="paint16_linear" x1="212.093" y1="55.3673" x2="208.564" y2="57.536" gradientUnits="userSpaceOnUse">
<stop stop-color="#EBEFF2"/>
<stop offset="0.4737" stop-color="#D2D9E1"/>
<stop offset="0.9946" stop-color="#B7C0CE"/>
</linearGradient>
<linearGradient id="paint17_linear" x1="139.199" y1="59.8916" x2="135.669" y2="62.0603" gradientUnits="userSpaceOnUse">
<stop stop-color="#EBEFF2"/>
<stop offset="0.4737" stop-color="#D2D9E1"/>
<stop offset="0.9946" stop-color="#B7C0CE"/>
</linearGradient>
<linearGradient id="paint18_linear" x1="-11.7558" y1="81.0946" x2="154.342" y2="81.0946" gradientUnits="userSpaceOnUse">
<stop stop-color="#EBEFF2"/>
<stop offset="0.4737" stop-color="#D2D9E1"/>
<stop offset="0.9946" stop-color="#B7C0CE"/>
</linearGradient>
<linearGradient id="paint19_linear" x1="170.725" y1="39.4932" x2="59.1125" y2="108.071" gradientUnits="userSpaceOnUse">
<stop stop-color="#EBEFF2"/>
<stop offset="0.4737" stop-color="#D2D9E1"/>
<stop offset="0.9946" stop-color="#B7C0CE"/>
</linearGradient>
<linearGradient id="paint20_linear" x1="109.739" y1="62.0417" x2="110.695" y2="94.6655" gradientUnits="userSpaceOnUse">
<stop stop-color="#AA80F9"/>
<stop offset="0.9964" stop-color="#6165D7"/>
</linearGradient>
<linearGradient id="paint21_linear" x1="120.84" y1="61.8161" x2="121.809" y2="94.8664" gradientUnits="userSpaceOnUse">
<stop stop-color="#AA80F9"/>
<stop offset="0.9964" stop-color="#6165D7"/>
</linearGradient>
<linearGradient id="paint22_linear" x1="132.089" y1="61.5889" x2="133.071" y2="95.0768" gradientUnits="userSpaceOnUse">
<stop stop-color="#AA80F9"/>
<stop offset="0.9964" stop-color="#6165D7"/>
</linearGradient>
<linearGradient id="paint23_linear" x1="143.823" y1="61.351" x2="144.818" y2="95.2881" gradientUnits="userSpaceOnUse">
<stop stop-color="#AA80F9"/>
<stop offset="0.9964" stop-color="#6165D7"/>
</linearGradient>
<linearGradient id="paint24_linear" x1="155.724" y1="61.111" x2="156.732" y2="95.5098" gradientUnits="userSpaceOnUse">
<stop stop-color="#AA80F9"/>
<stop offset="0.9964" stop-color="#6165D7"/>
</linearGradient>
<linearGradient id="paint25_linear" x1="168.144" y1="60.8596" x2="169.166" y2="95.7334" gradientUnits="userSpaceOnUse">
<stop stop-color="#AA80F9"/>
<stop offset="0.9964" stop-color="#6165D7"/>
</linearGradient>
<linearGradient id="paint26_linear" x1="93.929" y1="62.4434" x2="94.8706" y2="94.5609" gradientUnits="userSpaceOnUse">
<stop stop-color="#AA80F9"/>
<stop offset="0.9964" stop-color="#6165D7"/>
</linearGradient>
<linearGradient id="paint27_linear" x1="104.611" y1="62.3895" x2="105.554" y2="94.5547" gradientUnits="userSpaceOnUse">
<stop stop-color="#AA80F9"/>
<stop offset="0.9964" stop-color="#6165D7"/>
</linearGradient>
<linearGradient id="paint28_linear" x1="115.426" y1="62.1793" x2="116.381" y2="94.7582" gradientUnits="userSpaceOnUse">
<stop stop-color="#AA80F9"/>
<stop offset="0.9964" stop-color="#6165D7"/>
</linearGradient>
<linearGradient id="paint29_linear" x1="126.699" y1="61.9593" x2="127.666" y2="94.9638" gradientUnits="userSpaceOnUse">
<stop stop-color="#AA80F9"/>
<stop offset="0.9964" stop-color="#6165D7"/>
</linearGradient>
<linearGradient id="paint30_linear" x1="138.125" y1="61.7384" x2="139.105" y2="95.1786" gradientUnits="userSpaceOnUse">
<stop stop-color="#AA80F9"/>
<stop offset="0.9964" stop-color="#6165D7"/>
</linearGradient>
<linearGradient id="paint31_linear" x1="150.05" y1="61.5062" x2="151.044" y2="95.3952" gradientUnits="userSpaceOnUse">
<stop stop-color="#AA80F9"/>
<stop offset="0.9964" stop-color="#6165D7"/>
</linearGradient>
<linearGradient id="paint32_linear" x1="78.7064" y1="63.1938" x2="79.6134" y2="94.1351" gradientUnits="userSpaceOnUse">
<stop stop-color="#AA80F9"/>
<stop offset="0.9964" stop-color="#6165D7"/>
</linearGradient>
<linearGradient id="paint33_linear" x1="88.9823" y1="63.0017" x2="89.9006" y2="94.3263" gradientUnits="userSpaceOnUse">
<stop stop-color="#AA80F9"/>
<stop offset="0.9964" stop-color="#6165D7"/>
</linearGradient>
<linearGradient id="paint34_linear" x1="99.3924" y1="62.809" x2="100.322" y2="94.5258" gradientUnits="userSpaceOnUse">
<stop stop-color="#AA80F9"/>
<stop offset="0.9964" stop-color="#6165D7"/>
</linearGradient>
<linearGradient id="paint35_linear" x1="110.228" y1="62.6073" x2="111.169" y2="94.727" gradientUnits="userSpaceOnUse">
<stop stop-color="#AA80F9"/>
<stop offset="0.9964" stop-color="#6165D7"/>
</linearGradient>
<linearGradient id="paint36_linear" x1="121.213" y1="62.406" x2="122.166" y2="94.9378" gradientUnits="userSpaceOnUse">
<stop stop-color="#AA80F9"/>
<stop offset="0.9964" stop-color="#6165D7"/>
</linearGradient>
<linearGradient id="paint37_linear" x1="132.662" y1="62.1942" x2="133.628" y2="95.15" gradientUnits="userSpaceOnUse">
<stop stop-color="#AA80F9"/>
<stop offset="0.9964" stop-color="#6165D7"/>
</linearGradient>
<linearGradient id="paint38_linear" x1="64.0281" y1="63.8217" x2="64.9123" y2="93.9827" gradientUnits="userSpaceOnUse">
<stop stop-color="#AA80F9"/>
<stop offset="0.9964" stop-color="#6165D7"/>
</linearGradient>
<linearGradient id="paint39_linear" x1="73.9285" y1="63.6467" x2="74.8233" y2="94.1717" gradientUnits="userSpaceOnUse">
<stop stop-color="#AA80F9"/>
<stop offset="0.9964" stop-color="#6165D7"/>
</linearGradient>
<linearGradient id="paint40_linear" x1="83.946" y1="63.4722" x2="84.8517" y2="94.369" gradientUnits="userSpaceOnUse">
<stop stop-color="#AA80F9"/>
<stop offset="0.9964" stop-color="#6165D7"/>
</linearGradient>
<linearGradient id="paint41_linear" x1="94.3737" y1="63.2895" x2="95.2907" y2="94.5682" gradientUnits="userSpaceOnUse">
<stop stop-color="#AA80F9"/>
<stop offset="0.9964" stop-color="#6165D7"/>
</linearGradient>
<linearGradient id="paint42_linear" x1="104.94" y1="63.1063" x2="105.868" y2="94.7761" gradientUnits="userSpaceOnUse">
<stop stop-color="#AA80F9"/>
<stop offset="0.9964" stop-color="#6165D7"/>
</linearGradient>
<linearGradient id="paint43_linear" x1="115.944" y1="62.9158" x2="116.884" y2="94.9861" gradientUnits="userSpaceOnUse">
<stop stop-color="#AA80F9"/>
<stop offset="0.9964" stop-color="#6165D7"/>
</linearGradient>
<linearGradient id="paint44_linear" x1="49.865" y1="64.4778" x2="50.7273" y2="93.895" gradientUnits="userSpaceOnUse">
<stop stop-color="#AA80F9"/>
<stop offset="0.9964" stop-color="#6165D7"/>
</linearGradient>
<linearGradient id="paint45_linear" x1="59.403" y1="64.3206" x2="60.2756" y2="94.0838" gradientUnits="userSpaceOnUse">
<stop stop-color="#AA80F9"/>
<stop offset="0.9964" stop-color="#6165D7"/>
</linearGradient>
<linearGradient id="paint46_linear" x1="69.0541" y1="64.164" x2="69.937" y2="94.2803" gradientUnits="userSpaceOnUse">
<stop stop-color="#AA80F9"/>
<stop offset="0.9964" stop-color="#6165D7"/>
</linearGradient>
<linearGradient id="paint47_linear" x1="79.0956" y1="63.9994" x2="79.9891" y2="94.4786" gradientUnits="userSpaceOnUse">
<stop stop-color="#AA80F9"/>
<stop offset="0.9964" stop-color="#6165D7"/>
</linearGradient>
<linearGradient id="paint48_linear" x1="89.2629" y1="63.836" x2="90.1673" y2="94.6857" gradientUnits="userSpaceOnUse">
<stop stop-color="#AA80F9"/>
<stop offset="0.9964" stop-color="#6165D7"/>
</linearGradient>
<linearGradient id="paint49_linear" x1="99.8509" y1="63.665" x2="100.766" y2="94.8951" gradientUnits="userSpaceOnUse">
<stop stop-color="#AA80F9"/>
<stop offset="0.9964" stop-color="#6165D7"/>
</linearGradient>
<linearGradient id="paint50_linear" x1="36.1914" y1="65.156" x2="37.033" y2="93.8642" gradientUnits="userSpaceOnUse">
<stop stop-color="#AA80F9"/>
<stop offset="0.9964" stop-color="#6165D7"/>
</linearGradient>
<linearGradient id="paint51_linear" x1="45.3903" y1="65.0156" x2="46.2416" y2="94.0533" gradientUnits="userSpaceOnUse">
<stop stop-color="#AA80F9"/>
<stop offset="0.9964" stop-color="#6165D7"/>
</linearGradient>
<linearGradient id="paint52_linear" x1="54.6927" y1="64.8772" x2="55.5538" y2="94.2503" gradientUnits="userSpaceOnUse">
<stop stop-color="#AA80F9"/>
<stop offset="0.9964" stop-color="#6165D7"/>
</linearGradient>
<linearGradient id="paint53_linear" x1="64.3714" y1="64.7316" x2="65.2427" y2="94.4498" gradientUnits="userSpaceOnUse">
<stop stop-color="#AA80F9"/>
<stop offset="0.9964" stop-color="#6165D7"/>
</linearGradient>
<linearGradient id="paint54_linear" x1="74.1637" y1="64.5877" x2="75.0452" y2="94.6574" gradientUnits="userSpaceOnUse">
<stop stop-color="#AA80F9"/>
<stop offset="0.9964" stop-color="#6165D7"/>
</linearGradient>
<linearGradient id="paint55_linear" x1="84.355" y1="64.4359" x2="85.247" y2="94.8676" gradientUnits="userSpaceOnUse">
<stop stop-color="#AA80F9"/>
<stop offset="0.9964" stop-color="#6165D7"/>
</linearGradient>
<linearGradient id="paint56_linear" x1="99.4707" y1="69.7911" x2="120.461" y2="69.7911" gradientUnits="userSpaceOnUse">
<stop stop-color="#AA80F9"/>
<stop offset="0.9964" stop-color="#6165D7"/>
</linearGradient>
<linearGradient id="paint57_linear" x1="84.1666" y1="74.1562" x2="104.377" y2="74.1562" gradientUnits="userSpaceOnUse">
<stop stop-color="#AA80F9"/>
<stop offset="0.9964" stop-color="#6165D7"/>
</linearGradient>
<linearGradient id="paint58_linear" x1="69.4127" y1="78.405" x2="88.8863" y2="78.405" gradientUnits="userSpaceOnUse">
<stop stop-color="#AA80F9"/>
<stop offset="0.9964" stop-color="#6165D7"/>
</linearGradient>
<linearGradient id="paint59_linear" x1="55.1843" y1="82.478" x2="73.9602" y2="82.478" gradientUnits="userSpaceOnUse">
<stop stop-color="#AA80F9"/>
<stop offset="0.9964" stop-color="#6165D7"/>
</linearGradient>
<linearGradient id="paint60_linear" x1="41.4498" y1="86.407" x2="59.5646" y2="86.407" gradientUnits="userSpaceOnUse">
<stop stop-color="#AA80F9"/>
<stop offset="0.9964" stop-color="#6165D7"/>
</linearGradient>
<linearGradient id="paint61_linear" x1="28.1791" y1="90.201" x2="45.6667" y2="90.201" gradientUnits="userSpaceOnUse">
<stop stop-color="#AA80F9"/>
<stop offset="0.9964" stop-color="#6165D7"/>
</linearGradient>
<linearGradient id="paint62_linear" x1="110.286" y1="70.1936" x2="120.418" y2="70.1936" gradientUnits="userSpaceOnUse">
<stop stop-color="#AA80F9"/>
<stop offset="0.9964" stop-color="#6165D7"/>
</linearGradient>
<linearGradient id="paint63_linear" x1="94.574" y1="74.213" x2="113.446" y2="74.213" gradientUnits="userSpaceOnUse">
<stop stop-color="#AA80F9"/>
<stop offset="0.9964" stop-color="#6165D7"/>
</linearGradient>
<linearGradient id="paint64_linear" x1="79.4385" y1="78.5203" x2="99.4316" y2="78.5203" gradientUnits="userSpaceOnUse">
<stop stop-color="#AA80F9"/>
<stop offset="0.9964" stop-color="#6165D7"/>
</linearGradient>
<linearGradient id="paint65_linear" x1="64.8488" y1="82.6435" x2="84.1164" y2="82.6435" gradientUnits="userSpaceOnUse">
<stop stop-color="#AA80F9"/>
<stop offset="0.9964" stop-color="#6165D7"/>
</linearGradient>
<linearGradient id="paint66_linear" x1="50.7659" y1="86.6205" x2="69.3465" y2="86.6205" gradientUnits="userSpaceOnUse">
<stop stop-color="#AA80F9"/>
<stop offset="0.9964" stop-color="#6165D7"/>
</linearGradient>
<linearGradient id="paint67_linear" x1="37.1693" y1="90.4577" x2="55.0987" y2="90.4577" gradientUnits="userSpaceOnUse">
<stop stop-color="#AA80F9"/>
<stop offset="0.9964" stop-color="#6165D7"/>
</linearGradient>
<linearGradient id="paint68_linear" x1="89.594" y1="79.0071" x2="98.9215" y2="79.0071" gradientUnits="userSpaceOnUse">
<stop stop-color="#AA80F9"/>
<stop offset="0.9964" stop-color="#6165D7"/>
</linearGradient>
<linearGradient id="paint69_linear" x1="74.6275" y1="82.8138" x2="93.097" y2="82.8138" gradientUnits="userSpaceOnUse">
<stop stop-color="#AA80F9"/>
<stop offset="0.9964" stop-color="#6165D7"/>
</linearGradient>
<linearGradient id="paint70_linear" x1="60.1941" y1="86.8389" x2="79.2407" y2="86.8389" gradientUnits="userSpaceOnUse">
<stop stop-color="#AA80F9"/>
<stop offset="0.9964" stop-color="#6165D7"/>
</linearGradient>
<linearGradient id="paint71_linear" x1="46.2619" y1="90.7211" x2="64.6327" y2="90.7211" gradientUnits="userSpaceOnUse">
<stop stop-color="#AA80F9"/>
<stop offset="0.9964" stop-color="#6165D7"/>
</linearGradient>
<linearGradient id="paint72_linear" x1="84.8008" y1="83.4979" x2="95.9572" y2="83.4979" gradientUnits="userSpaceOnUse">
<stop stop-color="#AA80F9"/>
<stop offset="0.9964" stop-color="#6165D7"/>
</linearGradient>
<linearGradient id="paint73_linear" x1="69.9948" y1="87.0628" x2="89.5475" y2="87.0628" gradientUnits="userSpaceOnUse">
<stop stop-color="#AA80F9"/>
<stop offset="0.9964" stop-color="#6165D7"/>
</linearGradient>
<linearGradient id="paint74_linear" x1="55.7141" y1="90.9914" x2="74.5643" y2="90.9914" gradientUnits="userSpaceOnUse">
<stop stop-color="#AA80F9"/>
<stop offset="0.9964" stop-color="#6165D7"/>
</linearGradient>
<linearGradient id="paint75_linear" x1="95.1095" y1="84.5968" x2="98.3362" y2="84.5968" gradientUnits="userSpaceOnUse">
<stop stop-color="#AA80F9"/>
<stop offset="0.9964" stop-color="#6165D7"/>
</linearGradient>
<linearGradient id="paint76_linear" x1="79.9224" y1="87.2929" x2="99.976" y2="87.2929" gradientUnits="userSpaceOnUse">
<stop stop-color="#AA80F9"/>
<stop offset="0.9964" stop-color="#6165D7"/>
</linearGradient>
<linearGradient id="paint77_linear" x1="65.281" y1="91.2685" x2="84.6048" y2="91.2685" gradientUnits="userSpaceOnUse">
<stop stop-color="#AA80F9"/>
<stop offset="0.9964" stop-color="#6165D7"/>
</linearGradient>
<linearGradient id="paint78_linear" x1="90.2502" y1="87.7219" x2="101.843" y2="87.7219" gradientUnits="userSpaceOnUse">
<stop stop-color="#AA80F9"/>
<stop offset="0.9964" stop-color="#6165D7"/>
</linearGradient>
<linearGradient id="paint79_linear" x1="75.2255" y1="91.553" x2="95.0702" y2="91.553" gradientUnits="userSpaceOnUse">
<stop stop-color="#AA80F9"/>
<stop offset="0.9964" stop-color="#6165D7"/>
</linearGradient>
<linearGradient id="paint80_linear" x1="101.021" y1="29.9229" x2="239.761" y2="29.9229" gradientUnits="userSpaceOnUse">
<stop stop-color="#EBEFF2"/>
<stop offset="0.4737" stop-color="#D2D9E1"/>
<stop offset="0.9946" stop-color="#B7C0CE"/>
</linearGradient>
<linearGradient id="paint81_linear" x1="262.505" y1="-7.36566" x2="151.783" y2="60.6652" gradientUnits="userSpaceOnUse">
<stop stop-color="#EBEFF2"/>
<stop offset="0.4737" stop-color="#D2D9E1"/>
<stop offset="0.9946" stop-color="#B7C0CE"/>
</linearGradient>
<linearGradient id="paint82_linear" x1="193.401" y1="-8.04508" x2="195.453" y2="61.9458" gradientUnits="userSpaceOnUse">
<stop stop-color="#AA80F9"/>
<stop offset="0.9964" stop-color="#6165D7"/>
</linearGradient>
<linearGradient id="paint83_linear" x1="204.511" y1="-9.55769" x2="206.589" y2="61.3405" gradientUnits="userSpaceOnUse">
<stop stop-color="#AA80F9"/>
<stop offset="0.9964" stop-color="#6165D7"/>
</linearGradient>
<linearGradient id="paint84_linear" x1="215.644" y1="-11.1017" x2="217.75" y2="60.7265" gradientUnits="userSpaceOnUse">
<stop stop-color="#AA80F9"/>
<stop offset="0.9964" stop-color="#6165D7"/>
</linearGradient>
<linearGradient id="paint85_linear" x1="227.381" y1="-12.6976" x2="229.515" y2="60.0864" gradientUnits="userSpaceOnUse">
<stop stop-color="#AA80F9"/>
<stop offset="0.9964" stop-color="#6165D7"/>
</linearGradient>
<linearGradient id="paint86_linear" x1="183.303" y1="-8.49676" x2="185.4" y2="63.0329" gradientUnits="userSpaceOnUse">
<stop stop-color="#AA80F9"/>
<stop offset="0.9964" stop-color="#6165D7"/>
</linearGradient>
<linearGradient id="paint87_linear" x1="194.453" y1="-10.0386" x2="196.578" y2="62.4386" gradientUnits="userSpaceOnUse">
<stop stop-color="#AA80F9"/>
<stop offset="0.9964" stop-color="#6165D7"/>
</linearGradient>
<linearGradient id="paint88_linear" x1="205.635" y1="-11.6144" x2="207.788" y2="61.8353" gradientUnits="userSpaceOnUse">
<stop stop-color="#AA80F9"/>
<stop offset="0.9964" stop-color="#6165D7"/>
</linearGradient>
<linearGradient id="paint89_linear" x1="217.424" y1="-13.2431" x2="219.606" y2="61.2062" gradientUnits="userSpaceOnUse">
<stop stop-color="#AA80F9"/>
<stop offset="0.9964" stop-color="#6165D7"/>
</linearGradient>
<linearGradient id="paint90_linear" x1="229.239" y1="-14.9077" x2="231.452" y2="60.5683" gradientUnits="userSpaceOnUse">
<stop stop-color="#AA80F9"/>
<stop offset="0.9964" stop-color="#6165D7"/>
</linearGradient>
<linearGradient id="paint91_linear" x1="172.872" y1="-9.07606" x2="175.016" y2="64.0601" gradientUnits="userSpaceOnUse">
<stop stop-color="#AA80F9"/>
<stop offset="0.9964" stop-color="#6165D7"/>
</linearGradient>
<linearGradient id="paint92_linear" x1="184.057" y1="-10.6524" x2="186.23" y2="63.475" gradientUnits="userSpaceOnUse">
<stop stop-color="#AA80F9"/>
<stop offset="0.9964" stop-color="#6165D7"/>
</linearGradient>
<linearGradient id="paint93_linear" x1="195.286" y1="-12.2641" x2="197.489" y2="62.8809" gradientUnits="userSpaceOnUse">
<stop stop-color="#AA80F9"/>
<stop offset="0.9964" stop-color="#6165D7"/>
</linearGradient>
<linearGradient id="paint94_linear" x1="207.123" y1="-13.9298" x2="209.357" y2="62.2618" gradientUnits="userSpaceOnUse">
<stop stop-color="#AA80F9"/>
<stop offset="0.9964" stop-color="#6165D7"/>
</linearGradient>
<linearGradient id="paint95_linear" x1="219.005" y1="-15.6345" x2="221.27" y2="61.6331" gradientUnits="userSpaceOnUse">
<stop stop-color="#AA80F9"/>
<stop offset="0.9964" stop-color="#6165D7"/>
</linearGradient>
<linearGradient id="paint96_linear" x1="231.55" y1="-17.3981" x2="233.848" y2="60.9765" gradientUnits="userSpaceOnUse">
<stop stop-color="#AA80F9"/>
<stop offset="0.9964" stop-color="#6165D7"/>
</linearGradient>
<linearGradient id="paint97_linear" x1="162.087" y1="-9.79902" x2="164.28" y2="65.0166" gradientUnits="userSpaceOnUse">
<stop stop-color="#AA80F9"/>
<stop offset="0.9964" stop-color="#6165D7"/>
</linearGradient>
<linearGradient id="paint98_linear" x1="173.302" y1="-11.4142" x2="175.525" y2="64.439" gradientUnits="userSpaceOnUse">
<stop stop-color="#AA80F9"/>
<stop offset="0.9964" stop-color="#6165D7"/>
</linearGradient>
<linearGradient id="paint99_linear" x1="184.577" y1="-13.067" x2="186.832" y2="63.8525" gradientUnits="userSpaceOnUse">
<stop stop-color="#AA80F9"/>
<stop offset="0.9964" stop-color="#6165D7"/>
</linearGradient>
<linearGradient id="paint100_linear" x1="196.459" y1="-14.7759" x2="198.746" y2="63.2403" gradientUnits="userSpaceOnUse">
<stop stop-color="#AA80F9"/>
<stop offset="0.9964" stop-color="#6165D7"/>
</linearGradient>
<linearGradient id="paint101_linear" x1="208.399" y1="-16.526" x2="210.719" y2="62.6189" gradientUnits="userSpaceOnUse">
<stop stop-color="#AA80F9"/>
<stop offset="0.9964" stop-color="#6165D7"/>
</linearGradient>
<linearGradient id="paint102_linear" x1="221.004" y1="-18.3372" x2="223.358" y2="61.9696" gradientUnits="userSpaceOnUse">
<stop stop-color="#AA80F9"/>
<stop offset="0.9964" stop-color="#6165D7"/>
</linearGradient>
<linearGradient id="paint103_linear" x1="150.931" y1="-10.6794" x2="153.176" y2="65.8924" gradientUnits="userSpaceOnUse">
<stop stop-color="#AA80F9"/>
<stop offset="0.9964" stop-color="#6165D7"/>
</linearGradient>
<linearGradient id="paint104_linear" x1="162.173" y1="-12.3392" x2="164.45" y2="65.3201" gradientUnits="userSpaceOnUse">
<stop stop-color="#AA80F9"/>
<stop offset="0.9964" stop-color="#6165D7"/>
</linearGradient>
<linearGradient id="paint105_linear" x1="173.49" y1="-14.0396" x2="175.799" y2="64.738" gradientUnits="userSpaceOnUse">
<stop stop-color="#AA80F9"/>
<stop offset="0.9964" stop-color="#6165D7"/>
</linearGradient>
<linearGradient id="paint106_linear" x1="185.413" y1="-15.7979" x2="187.756" y2="64.1306" gradientUnits="userSpaceOnUse">
<stop stop-color="#AA80F9"/>
<stop offset="0.9964" stop-color="#6165D7"/>
</linearGradient>
<linearGradient id="paint107_linear" x1="197.403" y1="-17.5997" x2="199.781" y2="63.5136" gradientUnits="userSpaceOnUse">
<stop stop-color="#AA80F9"/>
<stop offset="0.9964" stop-color="#6165D7"/>
</linearGradient>
<linearGradient id="paint108_linear" x1="210.067" y1="-19.4652" x2="212.481" y2="62.869" gradientUnits="userSpaceOnUse">
<stop stop-color="#AA80F9"/>
<stop offset="0.9964" stop-color="#6165D7"/>
</linearGradient>
<linearGradient id="paint109_linear" x1="139.388" y1="-11.7345" x2="141.687" y2="66.6762" gradientUnits="userSpaceOnUse">
<stop stop-color="#AA80F9"/>
<stop offset="0.9964" stop-color="#6165D7"/>
</linearGradient>
<linearGradient id="paint110_linear" x1="150.653" y1="-13.4458" x2="152.985" y2="66.1055" gradientUnits="userSpaceOnUse">
<stop stop-color="#AA80F9"/>
<stop offset="0.9964" stop-color="#6165D7"/>
</linearGradient>
<linearGradient id="paint111_linear" x1="162.007" y1="-15.1996" x2="164.373" y2="65.5252" gradientUnits="userSpaceOnUse">
<stop stop-color="#AA80F9"/>
<stop offset="0.9964" stop-color="#6165D7"/>
</linearGradient>
<linearGradient id="paint112_linear" x1="173.962" y1="-17.0148" x2="176.364" y2="64.9197" gradientUnits="userSpaceOnUse">
<stop stop-color="#AA80F9"/>
<stop offset="0.9964" stop-color="#6165D7"/>
</linearGradient>
<linearGradient id="paint113_linear" x1="186.005" y1="-18.8762" x2="188.444" y2="64.3039" gradientUnits="userSpaceOnUse">
<stop stop-color="#AA80F9"/>
<stop offset="0.9964" stop-color="#6165D7"/>
</linearGradient>
<linearGradient id="paint114_linear" x1="198.723" y1="-20.8045" x2="201.199" y2="63.6602" gradientUnits="userSpaceOnUse">
<stop stop-color="#AA80F9"/>
<stop offset="0.9964" stop-color="#6165D7"/>
</linearGradient>
<linearGradient id="paint115_linear" x1="185.901" y1="8.58993" x2="201.868" y2="8.58993" gradientUnits="userSpaceOnUse">
<stop stop-color="#AA80F9"/>
<stop offset="0.9964" stop-color="#6165D7"/>
</linearGradient>
<linearGradient id="paint116_linear" x1="175.944" y1="17.5835" x2="192.187" y2="17.5835" gradientUnits="userSpaceOnUse">
<stop stop-color="#AA80F9"/>
<stop offset="0.9964" stop-color="#6165D7"/>
</linearGradient>
<linearGradient id="paint117_linear" x1="165.653" y1="26.8725" x2="182.183" y2="26.8725" gradientUnits="userSpaceOnUse">
<stop stop-color="#AA80F9"/>
<stop offset="0.9964" stop-color="#6165D7"/>
</linearGradient>
<linearGradient id="paint118_linear" x1="155.021" y1="36.4716" x2="171.849" y2="36.4716" gradientUnits="userSpaceOnUse">
<stop stop-color="#AA80F9"/>
<stop offset="0.9964" stop-color="#6165D7"/>
</linearGradient>
<linearGradient id="paint119_linear" x1="144.032" y1="46.3965" x2="161.168" y2="46.3965" gradientUnits="userSpaceOnUse">
<stop stop-color="#AA80F9"/>
<stop offset="0.9964" stop-color="#6165D7"/>
</linearGradient>
<linearGradient id="paint120_linear" x1="132.659" y1="56.6643" x2="150.117" y2="56.6643" gradientUnits="userSpaceOnUse">
<stop stop-color="#AA80F9"/>
<stop offset="0.9964" stop-color="#6165D7"/>
</linearGradient>
<linearGradient id="paint121_linear" x1="196.922" y1="8.71788" x2="202.996" y2="8.71788" gradientUnits="userSpaceOnUse">
<stop stop-color="#AA80F9"/>
<stop offset="0.9964" stop-color="#6165D7"/>
</linearGradient>
<linearGradient id="paint122_linear" x1="187.004" y1="16.7286" x2="201.303" y2="16.7286" gradientUnits="userSpaceOnUse">
<stop stop-color="#AA80F9"/>
<stop offset="0.9964" stop-color="#6165D7"/>
</linearGradient>
<linearGradient id="paint123_linear" x1="176.751" y1="26.0631" x2="193.505" y2="26.0631" gradientUnits="userSpaceOnUse">
<stop stop-color="#AA80F9"/>
<stop offset="0.9964" stop-color="#6165D7"/>
</linearGradient>
<linearGradient id="paint124_linear" x1="166.157" y1="35.7837" x2="183.215" y2="35.7837" gradientUnits="userSpaceOnUse">
<stop stop-color="#AA80F9"/>
<stop offset="0.9964" stop-color="#6165D7"/>
</linearGradient>
<linearGradient id="paint125_linear" x1="155.19" y1="45.8396" x2="172.565" y2="45.8396" gradientUnits="userSpaceOnUse">
<stop stop-color="#AA80F9"/>
<stop offset="0.9964" stop-color="#6165D7"/>
</linearGradient>
<linearGradient id="paint126_linear" x1="143.842" y1="56.2477" x2="161.546" y2="56.2477" gradientUnits="userSpaceOnUse">
<stop stop-color="#AA80F9"/>
<stop offset="0.9964" stop-color="#6165D7"/>
</linearGradient>
<linearGradient id="paint127_linear" x1="187.907" y1="26.4383" x2="193.945" y2="26.4383" gradientUnits="userSpaceOnUse">
<stop stop-color="#AA80F9"/>
<stop offset="0.9964" stop-color="#6165D7"/>
</linearGradient>
<linearGradient id="paint128_linear" x1="177.354" y1="35.1135" x2="193.743" y2="35.1135" gradientUnits="userSpaceOnUse">
<stop stop-color="#AA80F9"/>
<stop offset="0.9964" stop-color="#6165D7"/>
</linearGradient>
<linearGradient id="paint129_linear" x1="166.432" y1="45.2665" x2="184.017" y2="45.2665" gradientUnits="userSpaceOnUse">
<stop stop-color="#AA80F9"/>
<stop offset="0.9964" stop-color="#6165D7"/>
</linearGradient>
<linearGradient id="paint130_linear" x1="155.121" y1="55.8188" x2="173.043" y2="55.8188" gradientUnits="userSpaceOnUse">
<stop stop-color="#AA80F9"/>
<stop offset="0.9964" stop-color="#6165D7"/>
</linearGradient>
<linearGradient id="paint131_linear" x1="189.14" y1="35.8714" x2="200.734" y2="35.8714" gradientUnits="userSpaceOnUse">
<stop stop-color="#AA80F9"/>
<stop offset="0.9964" stop-color="#6165D7"/>
</linearGradient>
<linearGradient id="paint132_linear" x1="178.261" y1="44.6764" x2="196.105" y2="44.6764" gradientUnits="userSpaceOnUse">
<stop stop-color="#AA80F9"/>
<stop offset="0.9964" stop-color="#6165D7"/>
</linearGradient>
<linearGradient id="paint133_linear" x1="166.988" y1="55.3768" x2="185.178" y2="55.3768" gradientUnits="userSpaceOnUse">
<stop stop-color="#AA80F9"/>
<stop offset="0.9964" stop-color="#6165D7"/>
</linearGradient>
<linearGradient id="paint134_linear" x1="200.999" y1="37.4898" x2="204.962" y2="37.4898" gradientUnits="userSpaceOnUse">
<stop stop-color="#AA80F9"/>
<stop offset="0.9964" stop-color="#6165D7"/>
</linearGradient>
<linearGradient id="paint135_linear" x1="190.177" y1="44.0687" x2="208.237" y2="44.0687" gradientUnits="userSpaceOnUse">
<stop stop-color="#AA80F9"/>
<stop offset="0.9964" stop-color="#6165D7"/>
</linearGradient>
<linearGradient id="paint136_linear" x1="178.958" y1="54.9215" x2="197.373" y2="54.9215" gradientUnits="userSpaceOnUse">
<stop stop-color="#AA80F9"/>
<stop offset="0.9964" stop-color="#6165D7"/>
</linearGradient>
<linearGradient id="paint137_linear" x1="202.738" y1="44.2176" x2="213.935" y2="44.2176" gradientUnits="userSpaceOnUse">
<stop stop-color="#AA80F9"/>
<stop offset="0.9964" stop-color="#6165D7"/>
</linearGradient>
<linearGradient id="paint138_linear" x1="191.57" y1="54.4519" x2="210.277" y2="54.4519" gradientUnits="userSpaceOnUse">
<stop stop-color="#AA80F9"/>
<stop offset="0.9964" stop-color="#6165D7"/>
</linearGradient>
<linearGradient id="paint139_linear" x1="83.024" y1="167.723" x2="61.305" y2="167.723" gradientUnits="userSpaceOnUse">
<stop stop-color="#311944"/>
<stop offset="1" stop-color="#6B3976"/>
</linearGradient>
<linearGradient id="paint140_linear" x1="83.0247" y1="167.723" x2="63.0746" y2="167.723" gradientUnits="userSpaceOnUse">
<stop stop-color="#311944"/>
<stop offset="1" stop-color="#6B3976"/>
</linearGradient>
<linearGradient id="paint141_linear" x1="42.8482" y1="182.588" x2="102.597" y2="171.806" gradientUnits="userSpaceOnUse">
<stop stop-color="#311944"/>
<stop offset="0.7407" stop-color="#5C3169"/>
<stop offset="1" stop-color="#6B3976"/>
</linearGradient>
<linearGradient id="paint142_linear" x1="147.849" y1="43.3135" x2="38.5173" y2="186.576" gradientUnits="userSpaceOnUse">
<stop offset="0.00359712" stop-color="#E38DDD"/>
<stop offset="0.3549" stop-color="#C883E6"/>
<stop offset="1" stop-color="#9571F6"/>
</linearGradient>
<linearGradient id="paint143_linear" x1="129.976" y1="84.0704" x2="134.638" y2="84.0704" gradientUnits="userSpaceOnUse">
<stop stop-color="#FFC444"/>
<stop offset="0.3138" stop-color="#FBA94A"/>
<stop offset="0.9964" stop-color="#F36F56"/>
</linearGradient>
<linearGradient id="paint144_linear" x1="115.117" y1="98.4834" x2="54.5196" y2="98.4834" gradientUnits="userSpaceOnUse">
<stop stop-color="#FF9085"/>
<stop offset="1" stop-color="#FB6FBB"/>
</linearGradient>
<linearGradient id="paint145_linear" x1="76.0958" y1="51.3367" x2="95.7263" y2="51.3367" gradientUnits="userSpaceOnUse">
<stop stop-color="#FFC444"/>
<stop offset="0.3138" stop-color="#FBA94A"/>
<stop offset="0.9964" stop-color="#F36F56"/>
</linearGradient>
<linearGradient id="paint146_linear" x1="80.7158" y1="73.6062" x2="83.9451" y2="43.9552" gradientUnits="userSpaceOnUse">
<stop stop-color="#444B8C"/>
<stop offset="0.1808" stop-color="#3F4481"/>
<stop offset="0.9964" stop-color="#26264F"/>
</linearGradient>
<linearGradient id="paint147_linear" x1="86.9507" y1="48.6617" x2="88.758" y2="48.6617" gradientUnits="userSpaceOnUse">
<stop stop-color="#FFC444"/>
<stop offset="0.3138" stop-color="#FBA94A"/>
<stop offset="0.9964" stop-color="#F36F56"/>
</linearGradient>
<linearGradient id="paint148_linear" x1="116.415" y1="93.2591" x2="79.259" y2="128.739" gradientUnits="userSpaceOnUse">
<stop stop-color="#FF9085"/>
<stop offset="1" stop-color="#FB6FBB"/>
</linearGradient>
<linearGradient id="paint149_linear" x1="132.742" y1="84.1314" x2="99.6191" y2="84.1314" gradientUnits="userSpaceOnUse">
<stop stop-color="#FF9085"/>
<stop offset="1" stop-color="#FB6FBB"/>
</linearGradient>
</defs>
</svg>
