<svg width="208" height="203" viewBox="0 0 208 203" fill="none" xmlns="http://www.w3.org/2000/svg">
<path opacity="0.3" d="M75.1638 -15.0849C65.1912 -1.11412 76.4505 21.7722 61.7904 32.2043C47.498 42.3607 30.2643 25.3108 16.7991 33.9966C-3.14597 46.9103 -0.158813 107.067 28.4261 144.752C37.0199 156.057 44.2811 160.515 47.3601 173.245C53.9779 200.589 29.4831 216.581 33.9868 230.093C44.0972 260.562 204.255 287.768 269.605 197.142C300.12 154.816 305.268 93.2804 278.889 46.221C231.186 -38.7524 97.4986 -46.3812 75.1638 -15.0849Z" fill="#F4F7FA"/>
<path d="M22.9325 -81.0758H32.2092C32.8276 -87.1984 34.3118 -93.0736 36.4764 -98.5778L28.6221 -103.092C26.4576 -104.329 25.7773 -107.112 27.0142 -109.339L30.2919 -115.276C31.5288 -117.502 34.3118 -118.306 36.4764 -117.069L44.207 -112.678C47.794 -117.75 52.1231 -122.264 56.947 -126.16L52.4942 -133.767C51.1954 -135.932 51.9994 -138.839 54.164 -140.199L60.101 -143.848C62.3274 -145.209 65.2341 -144.59 66.5329 -142.364L70.9856 -134.942C76.7372 -137.602 82.9217 -139.519 89.4154 -140.57V-149.538C89.4154 -152.197 91.5799 -154.423 94.301 -154.547L101.475 -154.856C104.196 -154.98 106.423 -152.939 106.423 -150.218V-141.127C113.164 -140.57 119.657 -139.024 125.718 -136.736L130.542 -144.899C131.964 -147.311 135.118 -148.239 137.53 -147.002L144.148 -143.601C146.622 -142.302 147.487 -139.333 146.065 -136.921L141.056 -128.511C146.498 -124.676 151.384 -120.038 155.527 -114.781L164.556 -119.852C167.092 -121.275 170.37 -120.533 171.854 -118.183L175.812 -111.813C177.296 -109.401 176.431 -106.308 173.833 -104.886L164.495 -99.7529C167.092 -93.8158 168.824 -87.3839 169.566 -80.7666H180.76C183.79 -80.7666 186.202 -78.4783 186.202 -75.6953V-68.2121C186.202 -65.4291 183.728 -63.1409 180.76 -63.2027L169.257 -63.3264C168.267 -56.8327 166.35 -50.5864 163.629 -44.8349L173.771 -39.0834C176.369 -37.5991 177.235 -34.5069 175.75 -32.0949L171.792 -25.7868C170.308 -23.4367 167.03 -22.7564 164.495 -24.1788L154.228 -30.1159C150.147 -25.292 145.385 -21.0248 140.066 -17.4996L146.003 -7.48081C147.426 -5.00702 146.56 -2.03849 144.086 -0.801594L137.469 2.47618C134.995 3.71307 131.841 2.72355 130.48 0.311611L124.605 -9.76906C118.791 -7.72818 112.669 -6.42945 106.361 -5.99654V5.25917C106.361 7.91848 104.134 9.95935 101.413 9.77382L94.2392 9.34089C91.5181 9.15536 89.3535 6.92897 89.3535 4.26965V-6.86235C83.169 -7.91372 77.3556 -9.76906 71.9133 -12.2428L66.471 -3.08983C65.1723 -0.925282 62.3274 -0.306843 60.0392 -1.72927L54.1021 -5.50179C51.8757 -6.92421 51.1336 -9.83091 52.4323 -11.9955L57.6891 -20.9629C52.9889 -24.6736 48.7835 -29.0027 45.1965 -33.8266L36.4146 -28.9409C34.25 -27.7658 31.5289 -28.6316 30.2301 -30.858L26.9524 -36.7951C25.7155 -39.0215 26.4576 -41.8045 28.5603 -43.0414L37.0948 -47.8653C34.8066 -53.2458 33.1986 -59.0591 32.3328 -65.0581L22.8088 -65.1818C20.335 -65.1818 18.356 -67.2845 18.356 -69.8201V-76.5612C18.5415 -79.0349 20.5205 -81.0758 22.9325 -81.0758ZM97.888 -25.8486C125.285 -24.8591 148.229 -46.0718 148.229 -73.3452C148.229 -100.619 125.285 -122.141 97.888 -121.522C71.4186 -120.904 50.6388 -99.6292 50.6388 -73.9637C50.6388 -48.36 71.4186 -26.8382 97.888 -25.8486Z" fill="#97A6B7"/>
<path d="M63.4407 -1.11104L56.7614 0.0639977L56.2667 -4.82172L63.4407 -1.11104Z" fill="#97A6B7"/>
<path d="M96.7765 10.7016L102.775 9.65026L97.6423 1.98154L96.7765 10.7016Z" fill="#97A6B7"/>
<path d="M129.243 4.26948L136.232 2.84704L130.851 -3.70847L129.243 4.26948Z" fill="#97A6B7"/>
<path d="M15.5125 -80.4573H24.8511C25.4695 -86.6418 26.9538 -92.517 29.1802 -98.083L21.2641 -102.66C19.0995 -103.896 18.3574 -106.741 19.5943 -108.968L22.9339 -114.905C24.1708 -117.131 26.9538 -117.997 29.1183 -116.76L36.9107 -112.307C40.5596 -117.379 44.8887 -121.955 49.7744 -125.913L45.3216 -133.582C44.0228 -135.808 44.8269 -138.715 47.0533 -140.075L52.9903 -143.786C55.2167 -145.209 58.1234 -144.528 59.4222 -142.302L63.9368 -134.695C69.6883 -137.354 75.9346 -139.333 82.552 -140.385V-149.476C82.552 -152.135 84.7166 -154.423 87.4377 -154.547L94.6735 -154.856C97.3947 -154.98 99.6829 -152.877 99.6829 -150.218V-141.065C106.486 -140.508 112.98 -138.962 119.164 -136.612L123.988 -144.899C125.41 -147.311 128.564 -148.239 131.038 -147.002L137.717 -143.539C140.253 -142.24 141.119 -139.21 139.635 -136.798L134.625 -128.325C140.129 -124.429 145.015 -119.79 149.22 -114.534L158.312 -119.667C160.909 -121.151 164.187 -120.347 165.671 -117.997L169.691 -111.627C171.175 -109.215 170.309 -106.061 167.712 -104.639L158.312 -99.4436C160.909 -93.4447 162.703 -87.0129 163.445 -80.2718H174.7C177.731 -80.2718 180.205 -77.9836 180.205 -75.1387V-67.5318C180.205 -64.687 177.731 -62.4606 174.7 -62.4606L163.135 -62.5843C162.146 -56.0287 160.229 -49.7824 157.508 -43.9691L167.712 -38.1557C170.309 -36.6714 171.237 -33.5173 169.691 -31.1672L165.671 -24.7973C164.187 -22.4472 160.847 -21.705 158.312 -23.1893L147.984 -29.1882C143.84 -24.3025 139.078 -20.0352 133.697 -16.4482L139.635 -6.36758C141.057 -3.8938 140.253 -0.863434 137.717 0.373459L131.1 3.71309C128.626 4.94998 125.472 3.96046 124.05 1.54852L118.113 -8.59399C112.299 -6.55313 106.115 -5.25438 99.6829 -4.75963V6.55792C99.6829 9.27908 97.4566 11.32 94.6735 11.1344L87.4377 10.7015C84.7166 10.516 82.552 8.22775 82.552 5.56844V-5.68729C76.3675 -6.73865 70.4305 -8.59398 64.9263 -11.1296L59.4222 -1.91478C58.1234 0.31163 55.2167 0.930069 52.9903 -0.492355L47.0533 -4.26488C44.8269 -5.6873 44.0847 -8.59398 45.3216 -10.8204L50.6402 -19.9115C45.8782 -23.6841 41.6109 -28.0132 38.0239 -32.837L29.1183 -27.9513C26.9538 -26.7763 24.1708 -27.5803 22.9339 -29.8685L19.5943 -35.8674C18.3574 -38.0938 19.0995 -40.9387 21.2641 -42.1756L29.8604 -47.0613C27.5103 -52.5036 25.9024 -58.317 25.0984 -64.3778L15.5125 -64.5015C13.0388 -64.5015 11.0597 -66.6042 11.0597 -69.1398V-75.8808C10.9979 -78.4165 13.0388 -80.4573 15.5125 -80.4573ZM91.0247 -24.7973C118.669 -23.7459 141.737 -45.2059 141.737 -72.7268C141.737 -100.248 118.607 -121.955 91.0247 -121.275C64.3697 -120.656 43.3426 -99.1962 43.3426 -73.3452C43.4044 -47.4942 64.3697 -25.7868 91.0247 -24.7973Z" fill="#D8DEE8"/>
<path d="M121.452 208.295L155.405 -17.1904C155.59 -18.4891 157.013 -19.4168 158.559 -19.2313H158.683C160.229 -19.0457 161.28 -17.8707 161.095 -16.572L126.895 209.594C126.709 210.83 125.349 211.573 123.864 211.201H123.802C122.318 210.83 121.267 209.532 121.452 208.295Z" fill="#99A0AA"/>
<path d="M99.744 -91.8367V121.28L179.771 127.711L315.705 138.534V-99.5054L291.833 -98.6396L99.744 -91.8367Z" fill="url(#paint0_linear)"/>
<path d="M96.8375 118.435V122.64C96.8375 123.753 97.8888 124.743 99.1876 124.866L170.309 130.68L315.705 142.616C317.313 142.739 318.674 141.812 318.674 140.575V135.937C318.674 134.7 317.375 133.586 315.767 133.463H315.582L189.79 123.691L100.053 116.703L99.1257 116.641C97.8888 116.517 96.8375 117.321 96.8375 118.435Z" fill="url(#paint1_linear)"/>
<path d="M174.637 41.9329L195.912 42.8606V-9.45988L174.637 -9.89278V41.9329Z" fill="url(#paint2_linear)"/>
<path d="M140.006 40.3251L160.662 41.2528V-27.1473L140.006 -27.3947V40.3251Z" fill="url(#paint3_linear)"/>
<path opacity="0.57" d="M119.781 67.3515L289.853 75.886V69.0831L119.781 61.1052V67.3515Z" fill="white"/>
<path opacity="0.57" d="M119.78 83.9873L289.853 94.0062V86.6467L119.78 77.1844V83.9873Z" fill="white"/>
<path opacity="0.57" d="M119.78 100.562L289.853 112.127V104.211L119.78 93.326V100.562Z" fill="white"/>
<path opacity="0.2" d="M170.371 130.68L315.767 142.616C317.375 142.74 318.674 141.812 318.674 140.575V135.937C318.674 134.7 317.437 133.587 315.829 133.463H315.705V-95.4856H315.767C317.375 -95.5474 318.612 -96.5988 318.612 -97.8357V-102.536C318.612 -103.773 317.313 -104.762 315.705 -104.7L300.986 -104.144C297.832 -102.66 294.74 -100.866 291.833 -98.6397C290.225 -97.4028 288.679 -96.0422 287.257 -94.5579C281.567 -88.559 277.547 -80.3337 277.114 -68.8925C275.754 -33.27 282 -25.9724 271.734 -16.572C270.373 -15.2732 268.642 -13.9745 266.601 -12.5521C265.982 -12.1192 265.364 -11.6863 264.745 -11.2533C255.778 -5.31627 242.791 -0.245026 232.463 8.72243C223.557 16.453 216.63 27.1521 215.888 43.7883C215.579 50.1583 216.197 57.3941 217.929 65.7431C218.424 68.0313 218.795 70.2578 219.042 72.3605C219.537 76.0711 219.661 79.5344 219.537 82.7503C219.413 85.2241 219.166 87.5742 218.795 89.8006C218.176 93.3257 217.125 96.5417 215.826 99.4484C214.651 102.108 213.229 104.581 211.559 106.808C206.055 114.353 198.201 119.672 189.79 123.63C186.512 125.176 183.172 126.474 179.833 127.649C176.617 128.825 173.463 129.814 170.371 130.68Z" fill="#B7C0CE"/>
<path d="M27.4254 94.5327L155.357 87.8773C158.92 87.6756 161.139 84.7849 160.399 81.3563L139.021 -11.6849C138.282 -15.0462 134.786 -17.4664 131.29 -17.063L5.91292 -3.88664C2.88774 -3.55051 0.938202 -0.794237 1.61046 2.3654L20.5011 89.0874C21.2405 92.247 24.3329 94.7344 27.4254 94.5327Z" fill="#97A6B7"/>
<path d="M25.8139 95.0029L153.544 88.2802C157.107 88.0786 159.325 85.255 158.586 81.8937L137.342 -9.73575C136.603 -13.0298 133.107 -15.3828 129.679 -15.0466L4.43596 -2.00473C1.41077 -1.66859 -0.538818 1.08769 0.133453 4.11287L18.9568 89.5575C19.6291 92.7172 22.7215 95.1373 25.8139 95.0029Z" fill="url(#paint4_linear)"/>
<path d="M13.0425 62.8016L151.999 53.0537L152.604 55.7428L13.5803 65.2889L13.0425 62.8016Z" fill="white"/>
<path d="M52.0312 -6.97897L67.2243 60.8524L64.6697 60.9868L49.4766 -6.71007L52.0312 -6.97897Z" fill="white"/>
<path d="M87.7956 73.3561L138.014 70.2636C138.283 70.2636 138.417 70.062 138.35 69.8603L137.341 65.3561C137.274 65.1544 137.072 64.9528 136.804 64.9528L86.5854 68.1796C86.3838 68.1796 86.2493 68.3813 86.2493 68.583L87.2577 72.9527C87.3922 73.2216 87.5939 73.3561 87.7956 73.3561Z" fill="#C281E8"/>
<path d="M76.8378 83.9106L140.434 80.2804C140.703 80.2804 140.837 80.0787 140.77 79.877L139.762 75.3728C139.694 75.1712 139.493 74.9695 139.224 74.9695L75.695 78.7342C75.4933 78.7342 75.3589 78.9358 75.3589 79.1375L76.3673 83.5072C76.3673 83.7761 76.5689 83.9106 76.8378 83.9106Z" fill="#D8DEE8"/>
<path d="M10.8218 20.3146L47.5946 16.9533L44.3677 2.43239L7.66219 6.12984L10.8218 20.3146Z" fill="#D8DEE8"/>
<path d="M18.4168 54.7342L55.4585 52.0451L49.0048 23.1378L12.1648 26.4319L18.4168 54.7342Z" fill="#D8DEE8"/>
<path opacity="0.47" d="M149.51 32.0792C151.258 33.6926 144.939 47.474 133.443 58.2975C121.813 69.2554 113.074 69.5243 103.998 82.5662C99.6285 88.8854 101.175 89.4905 97.7461 93.9946C84.3681 111.742 49.1415 117.12 34.9567 103.406C33.4777 101.995 30.1836 95.6081 23.5282 82.9695C22.7887 81.5578 19.3602 74.9024 15.9989 65.7596C13.1082 57.8269 11.4947 53.3899 13.0409 52.1126C16.2678 49.4908 27.4946 63.6756 34.9567 60.3815C39.6626 58.2975 37.2424 50.6337 43.4945 45.1211C48.5364 40.6842 55.3935 40.8858 57.2087 40.9531C72.7379 41.4237 74.553 58.5664 89.1412 61.7932C101.242 64.4823 114.082 55.7429 132.905 42.9026C142.922 36.2472 148.233 30.9364 149.51 32.0792Z" fill="#D8DEE8"/>
<path d="M102.855 21.6594L102.99 -6.10509C116.301 -2.94545 128.468 7.878 132.368 21.256L102.855 21.6594Z" fill="url(#paint5_linear)"/>
<path d="M125.174 23.3396C126.519 29.6589 124.973 35.3731 121.41 39.3395L104.2 23.5413L125.174 23.3396Z" fill="#D8DEE8"/>
<path d="M100.837 20.7851C94.7871 16.4826 87.5266 11.3062 81.8796 7.20535C84.7704 3.239 89.4762 0.617162 95.4594 0.28103C97.2745 0.146578 99.1568 0.28103 100.972 0.617162L100.837 20.7851Z" fill="#D8DEE8"/>
<path d="M100.301 22.5331L86.7885 35.6422C83.4272 32.2137 80.8726 28.0456 79.5953 23.5415C77.9819 17.9617 78.5869 12.7853 80.9398 8.68445C82.4861 9.8273 84.2339 11.1046 86.1835 12.4491C92.0322 16.6172 97.9481 20.8524 100.301 22.5331Z" fill="#D8DEE8"/>
<path d="M101.376 24.4829L106.889 44.8525C100.234 44.6508 93.511 41.6256 88.3345 37.0542L101.376 24.4829Z" fill="#D8DEE8"/>
<path d="M103.596 25.2894L120.201 40.5497C117.31 43.1043 113.478 44.6506 108.907 44.9195L103.596 25.2894Z" fill="#D8DEE8"/>
<path d="M146.955 37.861L150.182 34.6342C150.182 34.6342 152.602 31.5418 150.989 27.1048C149.375 22.6679 147.157 23.878 147.157 23.878L147.762 26.9704C147.762 26.9704 148.165 28.9872 146.283 31.4745C144.602 34.4997 144.266 36.7854 144.266 36.7854L146.955 37.861Z" fill="url(#paint6_linear)"/>
<path d="M13.3752 50.3646L9.74499 47.0705L8.13158 41.0874C8.13158 41.0874 3.69464 42.8353 6.11479 48.4151C7.66099 50.2974 11.4257 53.1209 13.0391 55.81C14.6525 58.6335 13.3752 50.3646 13.3752 50.3646Z" fill="url(#paint7_linear)"/>
<path d="M48.9391 90.2972C48.9391 90.2972 31.5947 79.6082 27.4266 75.7763C23.0569 71.81 11.494 56.4824 10.4856 54.7345C9.47725 52.9194 13.578 49.2892 13.578 49.2892C13.578 49.2892 33.6787 74.4318 58.9558 67.0369C54.9222 76.0452 48.9391 90.2972 48.9391 90.2972Z" fill="url(#paint8_linear)"/>
<path d="M74.7555 66.9027C84.0999 65.3565 97.4108 70.0624 112.873 61.8607C128.066 53.7936 137.007 41.9617 142.251 34.3652C144.536 35.508 146.822 36.5836 149.041 37.7265C145.209 44.3819 136.066 58.7011 124.032 68.5834C108.839 81.0875 94.0494 81.827 85.915 92.0454C82.1504 88.3479 70.1841 67.7094 74.7555 66.9027Z" fill="url(#paint9_linear)"/>
<path d="M91.4239 131.104C91.4239 131.104 96.6003 135.742 96.6003 154.7C96.6003 173.658 94.1802 214.868 94.1802 214.868L90.2811 244.38C90.2811 244.38 86.2475 244.514 83.5584 243.708C81.1383 232.615 77.1719 213.792 79.0543 198.128C79.861 181.053 72.2644 159.675 72.2644 159.675C72.2644 159.675 65.7435 181.322 61.1721 192.212C56.5334 203.036 47.794 236.985 46.9873 239.405C41.6092 239.876 39.3235 238.464 39.3235 238.464C39.3235 238.464 42.752 201.96 46.0461 188.112C49.273 174.263 49.0041 140.986 54.4494 131.507C66.5502 126.465 91.4239 131.104 91.4239 131.104Z" fill="url(#paint10_linear)"/>
<path d="M91.4239 131.104C91.4239 131.104 96.6003 135.742 96.6003 154.7C96.6003 173.658 94.1802 214.868 94.1802 214.868L90.2811 244.38C90.2811 244.38 86.2475 244.514 83.5584 243.708C81.1383 232.615 77.1719 213.792 79.0543 198.128C79.861 181.053 72.2644 159.675 72.2644 159.675C72.2644 159.675 65.7435 181.322 61.1721 192.212C56.5334 203.036 47.794 236.985 46.9873 239.405C41.6092 239.876 39.3235 238.464 39.3235 238.464C39.3235 238.464 42.752 201.96 46.0461 188.112C49.273 174.263 49.0041 140.986 54.4494 131.507C66.5502 126.465 91.4239 131.104 91.4239 131.104Z" fill="url(#paint11_linear)"/>
<path opacity="0.25" d="M64.735 165.859C63.1216 176.279 59.8948 181.926 51.8948 189.12C45.4411 193.96 50.2814 204.38 47.8613 212.38C47.0545 214.8 44.6344 217.22 43.8277 219.573C40.8697 225.556 43.626 232.884 42.2815 239.203C40.1975 238.934 39.189 238.329 39.189 238.329C39.189 238.329 42.6176 201.825 45.9117 187.977C49.1385 174.128 48.8696 140.851 54.315 131.372C66.4829 126.465 91.4239 131.103 91.4239 131.103C91.4239 131.103 96.6003 135.742 96.6003 154.7C96.6003 156.246 96.6003 157.927 96.5331 159.742C91.2222 164.448 80.2644 165.523 73.5417 160.28C73.1384 159.943 72.6678 159.809 72.2644 159.675C72.2644 159.607 72.1972 159.607 72.1972 159.607V159.675C69.1048 159.069 65.4073 163.036 64.735 165.859Z" fill="url(#paint12_linear)"/>
<path d="M65.6791 66.3647C70.2505 66.2303 81.8134 64.953 87.1915 70.3983C92.7041 75.9109 87.1243 82.5663 88.1327 91.709C88.8049 97.8939 88.536 101.524 89.7461 111.608C90.015 113.692 90.3511 115.978 91.0234 118.801C92.5696 125.389 95.2587 138.364 96.6704 141.591C92.0318 143.944 80.1327 148.246 65.8807 146.095C59.3598 145.154 54.1834 142.936 50.5531 141.053C54.2506 129.894 53.5783 114.566 52.1666 109.053C49.4775 98.1628 48.8725 93.9275 41.2087 78.2638C39.1246 73.9613 44.0994 76.3814 47.3263 72.5495C52.2338 66.7008 61.0404 66.4992 65.6791 66.3647Z" fill="url(#paint13_linear)"/>
<path opacity="0.25" d="M79.1909 94.801C78.9892 92.7842 78.5859 89.0867 80.401 85.2548C80.6699 84.6498 81.7455 82.5658 83.6278 80.8179C87.6614 77.1205 92.8378 77.3894 98.821 76.9188C103.191 76.5826 109.376 75.8432 117.039 73.6919C105.611 80.8179 94.9891 83.0364 88.0648 89.8262C88.0648 90.3641 88.132 90.9691 88.1992 91.5069C88.8715 97.6917 88.6026 101.322 89.8127 111.406C90.0816 113.49 90.4177 115.776 91.0899 118.599C92.6361 125.187 95.3252 138.162 96.737 141.389C92.0984 143.742 80.1993 148.044 65.9473 145.893C59.4264 144.952 54.2499 142.733 50.6197 140.851C51.7625 137.422 52.4348 133.658 52.9054 129.826C58.149 129.826 65.7456 128.952 73.6783 124.986C78.1153 122.767 80.2665 121.624 81.611 119.137C83.964 114.566 80.9388 110.129 79.1909 94.801Z" fill="url(#paint14_linear)"/>
<path d="M69.5094 57.0202C69.0388 53.5244 66.3497 51.3059 65.7447 50.8353C63.2573 48.8186 62.7195 48.6169 61.8455 48.4824L60.7027 48.2807C60.7027 48.2807 60.6355 48.2807 60.5683 48.2807C59.896 48.348 57.812 49.1547 57.4086 49.4236C56.1985 50.2975 57.0725 56.2135 60.7027 63.6756C60.8371 64.2806 60.9716 64.9529 61.1061 65.5579C57.9464 66.0957 57.1397 66.7008 57.1397 67.1713C57.0725 68.1797 60.5683 69.3898 63.7951 69.5243C67.8287 69.6587 72.1312 67.9108 71.9967 66.6335C71.9967 66.0957 71.19 65.4907 68.2993 64.8184C67.8287 64.1462 67.3581 63.5411 66.9548 62.8689C67.3581 62.2638 69.8455 59.5748 69.5094 57.0202Z" fill="url(#paint15_linear)"/>
<path d="M61.8447 46.0624C63.122 47.2725 63.3909 49.4237 63.0548 50.9699C62.8531 51.9111 62.517 51.9783 62.5842 52.5834C62.7187 54.264 65.8111 55.0035 65.6094 55.8775C65.475 56.4825 63.8615 56.2808 63.5926 57.0203C63.2565 57.8942 65.0716 58.5665 65.8111 60.7177C65.9456 61.0539 66.6178 63.0707 65.7439 64.2135C64.8699 65.2891 62.9204 65.0202 60.7691 64.7513C58.349 64.4152 56.6683 63.7429 56.1305 63.5413C54.5171 62.869 52.8364 62.0623 51.4247 60.3816C51.0885 59.9783 49.1389 57.4909 49.2734 54.0623C49.4751 49.491 53.307 45.6591 57.2061 45.054C57.8112 44.9196 60.2985 44.5162 61.8447 46.0624Z" fill="url(#paint16_linear)"/>
<path d="M64.5359 55.6758C63.5947 55.138 62.9224 56.2809 63.3258 57.3565C63.7291 58.3649 65.2081 59.0371 66.0821 58.4321C66.956 57.8271 65.7459 56.4153 64.5359 55.6758Z" fill="url(#paint17_linear)"/>
<path d="M73.7452 66.3647L71.5268 65.6924C71.5268 65.6924 70.9217 68.7176 63.7957 69.0537C59.8294 69.0537 57.2748 66.8352 57.2748 66.8352L55.5941 67.642C55.5941 67.642 59.1571 72.1461 64.4008 72.0117C71.1906 71.8772 73.7452 66.3647 73.7452 66.3647Z" fill="url(#paint18_linear)"/>
<defs>
<linearGradient id="paint0_linear" x1="72.9093" y1="-134.547" x2="293.89" y2="103.84" gradientUnits="userSpaceOnUse">
<stop stop-color="#24ABB5"/>
<stop offset="1" stop-color="#40CF9F"/>
</linearGradient>
<linearGradient id="paint1_linear" x1="218.458" y1="181.083" x2="203.796" y2="110.214" gradientUnits="userSpaceOnUse">
<stop offset="0.003597" stop-color="#26264F"/>
<stop offset="1" stop-color="#444B8C"/>
</linearGradient>
<linearGradient id="paint2_linear" x1="179.249" y1="-5.9145" x2="217.37" y2="134.106" gradientUnits="userSpaceOnUse">
<stop stop-color="#FFC444"/>
<stop offset="0.9964" stop-color="#F36F56"/>
</linearGradient>
<linearGradient id="paint3_linear" x1="149.155" y1="2.27922" x2="187.276" y2="142.3" gradientUnits="userSpaceOnUse">
<stop stop-color="#FFC444"/>
<stop offset="0.9964" stop-color="#F36F56"/>
</linearGradient>
<linearGradient id="paint4_linear" x1="199.3" y1="39.9259" x2="-3.50141" y2="39.9259" gradientUnits="userSpaceOnUse">
<stop stop-color="#E3E7EF"/>
<stop offset="1" stop-color="#FAFBFD"/>
</linearGradient>
<linearGradient id="paint5_linear" x1="137.229" y1="292.716" x2="138.837" y2="280.573" gradientUnits="userSpaceOnUse">
<stop stop-color="#FF9085"/>
<stop offset="1" stop-color="#FB6FBB"/>
</linearGradient>
<linearGradient id="paint6_linear" x1="147.554" y1="31.3963" x2="156.335" y2="40.8843" gradientUnits="userSpaceOnUse">
<stop stop-color="#FFC444"/>
<stop offset="0.9964" stop-color="#F36F56"/>
</linearGradient>
<linearGradient id="paint7_linear" x1="11.4833" y1="49.5217" x2="24.7222" y2="63.8258" gradientUnits="userSpaceOnUse">
<stop stop-color="#FFC444"/>
<stop offset="0.9964" stop-color="#F36F56"/>
</linearGradient>
<linearGradient id="paint8_linear" x1="64.4588" y1="16.3955" x2="7.11253" y2="107.543" gradientUnits="userSpaceOnUse">
<stop stop-color="#FF9085"/>
<stop offset="1" stop-color="#FB6FBB"/>
</linearGradient>
<linearGradient id="paint9_linear" x1="124.644" y1="47.5335" x2="23.0048" y2="128.841" gradientUnits="userSpaceOnUse">
<stop stop-color="#FF9085"/>
<stop offset="1" stop-color="#FB6FBB"/>
</linearGradient>
<linearGradient id="paint10_linear" x1="96.6005" y1="186.718" x2="39.232" y2="186.718" gradientUnits="userSpaceOnUse">
<stop stop-color="#311944"/>
<stop offset="1" stop-color="#893976"/>
</linearGradient>
<linearGradient id="paint11_linear" x1="98.4238" y1="143.953" x2="57.0929" y2="213.373" gradientUnits="userSpaceOnUse">
<stop stop-color="#311944"/>
<stop offset="1" stop-color="#893976"/>
</linearGradient>
<linearGradient id="paint12_linear" x1="82.153" y1="134.265" x2="40.8221" y2="203.685" gradientUnits="userSpaceOnUse">
<stop stop-color="#311944"/>
<stop offset="1" stop-color="#893976"/>
</linearGradient>
<linearGradient id="paint13_linear" x1="114.859" y1="35.4891" x2="46.877" y2="143.541" gradientUnits="userSpaceOnUse">
<stop stop-color="#FF9085"/>
<stop offset="1" stop-color="#FB6FBB"/>
</linearGradient>
<linearGradient id="paint14_linear" x1="141.588" y1="28.956" x2="62.7303" y2="154.296" gradientUnits="userSpaceOnUse">
<stop stop-color="#FF9085"/>
<stop offset="1" stop-color="#FB6FBB"/>
</linearGradient>
<linearGradient id="paint15_linear" x1="59.0086" y1="54.483" x2="70.2991" y2="72.7472" gradientUnits="userSpaceOnUse">
<stop stop-color="#FFC444"/>
<stop offset="0.9964" stop-color="#F36F56"/>
</linearGradient>
<linearGradient id="paint16_linear" x1="66.1917" y1="54.9807" x2="49.2646" y2="54.9807" gradientUnits="userSpaceOnUse">
<stop stop-color="#311944"/>
<stop offset="1" stop-color="#6B3976"/>
</linearGradient>
<linearGradient id="paint17_linear" x1="63.0554" y1="52.0103" x2="69.4991" y2="71.7636" gradientUnits="userSpaceOnUse">
<stop stop-color="#FFC444"/>
<stop offset="0.9964" stop-color="#F36F56"/>
</linearGradient>
<linearGradient id="paint18_linear" x1="70.859" y1="57.0944" x2="61.1156" y2="72.5808" gradientUnits="userSpaceOnUse">
<stop offset="0.00359712" stop-color="#E38DDD"/>
<stop offset="1" stop-color="#9571F6"/>
</linearGradient>
</defs>
</svg>
