<svg version="1.0" xmlns="http://www.w3.org/2000/svg" width="189.000000pt" height="189.000000pt"
    viewBox="0 0 189.000000 189.000000" preserveAspectRatio="xMidYMid meet">

    <g transform="translate(0.000000,189.000000) scale(0.100000,-0.100000)" fill="#000000" stroke="none">
        <path d="M866 1490 c-33 -37 -37 -47 -34 -84 3 -40 2 -42 -20 -38 -14 3 -19 8
-13 11 7 5 1 17 -17 34 l-27 26 -88 -13 c-48 -7 -90 -16 -93 -19 -10 -9 137
-165 168 -178 15 -6 43 -9 62 -7 l34 4 -6 -40 c-4 -28 -14 -47 -34 -64 -26
-22 -28 -28 -23 -71 9 -65 15 -81 28 -81 7 0 48 36 92 80 74 75 79 83 79 122
0 24 -4 52 -8 63 -7 16 -7 18 5 8 7 -7 24 -13 38 -13 16 0 21 3 14 8 -16 10
26 102 47 102 13 0 13 1 0 10 -21 14 -84 12 -99 -2 -11 -11 -12 -7 -6 22 4 19
7 37 7 40 1 36 -7 56 -35 86 l-33 36 -38 -42z m51 -144 c-5 -33 -4 -35 25 -38
46 -4 44 -21 -8 -63 l-47 -39 7 36 c6 35 6 36 -30 43 l-37 6 44 45 c24 24 45
44 47 44 3 0 2 -15 -1 -34z" />
        <path d="M436 898 c-22 -6 -55 -27 -76 -48 -103 -103 -59 -302 75 -339 83 -23
183 -5 232 41 l23 22 -26 27 -27 28 -29 -22 c-23 -17 -44 -22 -90 -22 -55 0
-62 3 -89 33 -53 59 -47 62 126 62 l155 0 0 23 c0 13 -7 46 -15 74 -31 105
-135 153 -259 121z m143 -94 c17 -14 31 -34 31 -45 0 -17 -8 -19 -106 -19
-105 0 -105 0 -98 23 14 47 44 65 106 66 25 1 46 -7 67 -25z" />
        <path d="M1230 897 c-86 -29 -125 -89 -125 -192 1 -122 57 -190 167 -202 37
-4 65 0 93 11 25 11 41 13 43 6 2 -5 26 -10 53 -10 l49 0 0 195 0 195 -49 0
c-27 0 -51 -4 -53 -10 -2 -6 -19 -4 -43 5 -48 17 -88 18 -135 2z m153 -88 c33
-18 37 -28 37 -110 0 -69 -2 -78 -22 -91 -62 -40 -146 -28 -178 25 -34 55 -19
149 27 176 24 14 109 14 136 0z" />
        <path d="M785 703 c95 -198 115 -225 142 -191 6 7 51 97 101 201 l90 187 -52
0 -53 0 -47 -112 c-27 -62 -51 -117 -56 -121 -4 -5 -30 45 -58 110 l-51 118
-55 3 -55 3 94 -198z" />
        <path d="M520 387 c-20 -10 -26 -21 -28 -58 -2 -32 2 -50 13 -59 19 -16 63
-16 78 -1 9 10 6 10 -13 3 -33 -13 -70 2 -70 28 0 17 6 20 46 20 43 0 45 1 42
26 -4 38 -36 57 -68 41z m60 -37 c0 -17 -7 -20 -40 -20 -34 0 -40 3 -40 20 0
25 37 42 63 28 9 -5 17 -18 17 -28z" />
        <path d="M669 389 c-7 -4 -17 -5 -21 -3 -4 3 -7 -25 -6 -63 l2 -68 3 57 c4 64
21 82 61 67 19 -7 22 -16 24 -66 l2 -58 3 53 c2 30 -1 59 -7 67 -14 17 -45 24
-61 14z" />
        <path d="M808 386 c-18 -9 -24 -21 -26 -57 -2 -32 2 -50 13 -59 19 -16 63 -16
78 -1 9 10 6 10 -13 3 -27 -10 -51 -5 -62 12 -18 26 -7 36 36 36 51 0 60 8 47
43 -11 29 -41 39 -73 23z m62 -26 c13 -24 4 -30 -42 -30 -37 0 -47 11 -30 36
18 27 56 24 72 -6z" />
        <path d="M960 390 c-7 -4 -18 -6 -24 -4 -8 3 -12 -18 -14 -61 -2 -36 0 -65 5
-65 4 0 7 20 5 44 -3 34 1 49 17 65 11 11 27 18 36 15 8 -4 15 -4 15 -1 0 10
-27 15 -40 7z" />
        <path d="M1040 383 c-20 -14 -26 -43 -12 -57 4 -4 7 -19 7 -33 0 -15 7 -28 15
-30 12 -4 13 -3 1 5 -20 14 -6 42 22 42 29 0 50 22 45 47 -1 10 0 23 4 28 9
15 -60 14 -82 -2z m54 -6 c28 -21 13 -57 -24 -57 -37 0 -52 36 -24 57 10 7 21
13 24 13 3 0 14 -6 24 -13z" />
        <path d="M1253 389 c-13 -5 -23 -14 -23 -21 0 -9 3 -10 8 -2 11 16 35 22 53
13 25 -13 24 -95 -1 -109 -14 -8 -26 -7 -41 0 -28 16 -20 44 16 51 l30 7 -32
1 c-27 1 -34 -3 -39 -25 -10 -40 10 -51 79 -43 15 2 17 11 15 62 -3 65 -20 83
-65 66z" />
        <path d="M1173 325 c0 -38 2 -53 4 -32 2 20 2 52 0 70 -2 17 -4 1 -4 -38z" />
        <path d="M1088 273 c31 -6 40 -32 17 -49 -25 -19 -50 -17 -71 3 -13 13 -16 14
-12 3 9 -27 53 -35 83 -16 37 24 31 60 -10 63 -21 1 -23 0 -7 -4z" />
    </g>
</svg>