<svg  viewBox="0 0 198 198" fill="none" xmlns="http://www.w3.org/2000/svg">
    <path
        d="M60.316 72.3437H75.1096C80.6358 62.2055 90.0803 54.5183 101.416 51.3228C99.1354 45.7857 93.6896 41.888 87.3319 41.888C85.7425 41.888 84.2115 42.1328 82.7725 42.5833C82.7802 42.352 82.7903 42.1212 82.7903 41.888C82.7903 30.5787 73.6196 21.4088 62.3096 21.4088C52.5553 21.4088 44.4009 28.2275 42.3385 37.3568C41.1134 36.9484 39.8063 36.7249 38.4447 36.7249C34.2549 36.7249 30.5563 38.8224 28.3385 42.0241C27.101 41.7051 25.8016 41.5322 24.4639 41.5322C15.9561 41.5322 9.05933 48.4293 9.05933 56.9376C9.05933 65.4443 15.9565 72.343 24.4639 72.343H49.093"
        fill="#9FDEF7" />
    <path
        d="M144.454 63.0191C136.539 54.5526 125.27 49.2604 112.766 49.2604C92.1117 49.2604 74.8416 63.7024 70.4732 83.0365C67.8806 82.1718 65.1113 81.6961 62.2291 81.6961C53.355 81.6961 45.5243 86.1396 40.8276 92.9195C38.206 92.2424 35.4568 91.8785 32.6229 91.8785C14.6057 91.8785 0 106.484 0 124.501C0 142.518 14.6057 157.126 32.6229 157.126H68.5922C68.668 146.036 77.6759 137.071 88.7813 137.071C90.8874 137.071 92.9181 137.394 94.8269 137.992C94.818 137.687 94.8041 137.38 94.8041 137.071C94.8041 122.071 106.963 109.912 121.963 109.912C134.896 109.912 145.711 118.956 148.446 131.062C150.07 130.52 151.802 130.223 153.608 130.223C159.164 130.223 164.069 133.005 167.009 137.251C168.651 136.827 170.372 136.598 172.147 136.598C179.584 136.598 186.091 140.574 189.663 146.513C194.844 140.792 198 133.204 198 124.88C198 107.069 183.563 92.6334 165.753 92.6334C162.39 92.6334 159.148 93.1489 156.1 94.1041C156.115 93.6156 156.137 93.1261 156.137 92.6334C156.137 85.3507 154.342 78.4875 151.169 72.4609"
        fill="#BEEAFC" />
    <path
        d="M34.589 91.9389C33.9386 91.8994 33.2835 91.8782 32.6229 91.8782C14.6057 91.8778 0 106.484 0 124.501C0 142.518 14.6057 157.125 32.6229 157.125H68.5922C68.6158 153.646 69.5203 150.375 71.0919 147.526C53.3071 133.838 40.2038 114.374 34.589 91.9389Z"
        fill="#AEE4FF" />
    <path
        d="M31.5618 67.2994C31.5618 56.718 33.1891 46.5178 36.202 36.931C32.9528 37.5308 30.1514 39.4087 28.3389 42.0245C27.1014 41.7055 25.802 41.5326 24.4643 41.5326C15.9565 41.5326 9.05969 48.4298 9.05969 56.938C9.05969 65.4447 15.9568 72.3434 24.4643 72.3434H31.6875C31.6055 70.672 31.5618 68.9909 31.5618 67.2994Z"
        fill="#83D4ED" />
    <path
        d="M172.147 135.735C170.373 135.735 168.651 135.963 167.01 136.388C164.069 132.141 159.164 129.36 153.608 129.36C151.803 129.36 150.07 129.657 148.447 130.199C145.711 118.092 134.896 109.049 121.963 109.049C106.964 109.049 94.8045 121.208 94.8045 136.208C94.8045 136.517 94.818 136.824 94.8273 137.129C92.9185 136.531 90.8878 136.208 88.7817 136.208C77.6306 136.208 68.5903 145.247 68.5903 156.401C68.5903 167.552 77.631 176.592 88.7817 176.592H149.237H160.457H172.148C183.43 176.592 192.577 167.445 192.577 156.163C192.576 144.881 183.43 135.735 172.147 135.735Z"
        fill="#E4F2F9" />
    <path
        d="M110.315 130.528C110.315 123.239 111.862 116.313 114.641 110.054C103.199 113.251 94.8037 123.745 94.8037 136.207C94.8037 136.517 94.8172 136.823 94.8265 137.128C92.9177 136.53 90.887 136.207 88.7809 136.207C77.6298 136.207 68.5895 145.246 68.5895 156.4C68.5895 167.551 77.6302 176.591 88.7809 176.591H140.09C122.536 168.681 110.315 151.032 110.315 130.528Z"
        fill="#D7EDF9" />
</svg>